M48
METRIC,LZ,000.000
;FILE_FORMAT=3:3
;TYPE=PLATED
;Layer: PTH_Through
;EasyEDA v6.5.44, 2024-08-23 10:49:28
;13edeab578334d2c94ea7048694fe743,9c714277b5a14b868680a62259e1ad39,10
;Gerber Generator version 0.2
;Holesize 1 = 0.306 mm
T01C0.306
;Holesize 2 = 0.310 mm
T02C0.310
;Holesize 3 = 0.500 mm
T03C0.500
;Holesize 4 = 0.551 mm
T04C0.551
;Holesize 5 = 0.889 mm
T05C0.889
;Holesize 6 = 0.901 mm
T06C0.901
;Holesize 7 = 0.915 mm
T07C0.915
;Holesize 8 = 1.000 mm
T08C1.000
;Holesize 9 = 1.021 mm
T09C1.021
;Holesize 10 = 1.101 mm
T10C1.101
;Holesize 11 = 1.301 mm
T11C1.301
%
G05
G90
T01
X-034807Y017288
X-074013Y024639
X-058039Y065786
X-064481Y034953
X-052050Y023009
X-081530Y058026
X-049173Y047041
X-078412Y034146
X-065162Y045734
X-041732Y-010363
X-019574Y025798
X-038883Y012708
X-042541Y016366
X-041044Y028623
X-041955Y000489
X-035302Y-010848
X-041961Y031828
X-040458Y030325
X-037713Y007119
X-036447Y007233
X-074360Y016129
X-052578Y-011947
X-063157Y020300
X-065405Y-018642
X-022394Y002580
X-022555Y026704
X-049789Y045361
X-082782Y018161
X-062385Y021748
X-021259Y024964
X-036647Y031407
X-054328Y019051
X-067714Y023238
X-077445Y018698
X-067707Y020454
X-044958Y019234
X-063434Y017647
X-068301Y020985
X-037866Y015992
X-027143Y013142
X-037866Y030753
X-043211Y037644
X-061046Y005899
X-059927Y005768
X-031441Y030546
X-041629Y029585
X-042809Y024053
X-056544Y015360
X-081167Y016891
X-063450Y015889
X-075469Y-006072
X-061818Y-006072
X-077441Y-001900
X-082337Y002941
X-025124Y015996
X-035102Y009078
X-071886Y037396
X-045145Y064331
X-064516Y065024
X-071113Y041850
X-070358Y033384
X-073816Y041966
X-076451Y033704
X-074121Y038352
X-077150Y041382
X-077150Y058439
X-070715Y060110
X-076200Y002589
X-065024Y002540
X-026174Y036683
X-020703Y036579
X-059918Y011893
X-079638Y007899
X-065086Y023471
X-038238Y011021
X-059757Y-008458
X-061474Y-008458
X-055118Y-012171
X-067830Y-004879
X-062952Y-001455
X-059927Y004401
X-055947Y-011081
X-038112Y005912
X-038880Y005852
X-038895Y004678
X-038871Y003452
X-062099Y018570
X-051086Y007709
X-050905Y008909
X-037619Y009900
X-043807Y034480
X-052595Y040341
X-053736Y039187
X-055127Y033906
X-067012Y-008853
X-077221Y-008771
X-070080Y003567
X-074399Y-002666
T02
X-082423Y030734
X-080518Y029845
X-080518Y027305
X-077851Y029464
X-073279Y-000635
X-073406Y-002921
X-068961Y-009525
X-071755Y-011430
X-064516Y-002921
X-062357Y-003048
X-028829Y-009906
X-027559Y-008763
X-034163Y-012573
X-025908Y-007112
X-026797Y-021463
X-027940Y-013970
X-029972Y-011176
X-033528Y-006477
X-045212Y-015494
X-040513Y-015494
X-035941Y-019050
X-031877Y-015240
X-025781Y-015875
X-068326Y018542
X-072771Y016002
X-073279Y009652
X-073152Y001778
X-065659Y-002667
X-061849Y017399
X-065151Y008001
X-065532Y004826
X-060960Y004572
T03
X-057094Y-021868G85X-057094Y-021218
X-050094Y-021868G85X-050094Y-021218
T04
X-051245Y-018843G85X-050945Y-018843
X-056243Y-018843G85X-055944Y-018843
T05
X-082423Y024511
X-082423Y021971
X-082423Y019431
X-082423Y016891
X-082423Y014351
X-082423Y011811
X-082423Y009271
X-082423Y006731
X-082423Y004191
X-082423Y001651
X-082423Y-000889
X-082423Y-003429
X-082423Y-005969
X-082423Y-008509
X-082423Y-011049
X-024003Y021844
X-024003Y019304
X-024003Y016764
X-024003Y014224
X-024003Y011684
X-024003Y009144
X-024003Y006604
X-024003Y004064
X-024003Y001524
X-024003Y-001016
X-024003Y-003556
X-024003Y-006096
X-024003Y-008636
X-024003Y-011176
X-024003Y-013716
T06
X-012531Y-007708G85X-014631Y-007708
X-010082Y-013458G85X-010082Y-011258
X-016082Y-011258G85X-016082Y-013458
X-048768Y087122
X-051308Y087122
X-053848Y087122
X-056388Y087122
T07
X-082423Y027051
X-024003Y024384
X-020447Y058547
X-022987Y058547
X-025527Y058547
X-028067Y058547
X-030607Y058547
X-033147Y058547
X-035687Y058547
X-038227Y058547
X-038227Y040386
X-035687Y040386
X-033147Y040386
X-030607Y040386
X-028067Y040386
X-025527Y040386
X-022987Y040386
X-020447Y040386
T08
X-075565Y-019558
X-078105Y-019558
X-030480Y-019431
X-033020Y-019431
X-026416Y066040
X-026416Y063500
X-079882Y039006
X-079884Y041004
T09
X-061471Y-012319G85X-061465Y-012319
X-058931Y-012319G85X-058925Y-012319
X-056391Y-012319G85X-056385Y-012319
X-053851Y-012319G85X-053845Y-012319
X-051311Y-012319G85X-051305Y-012319
X-048771Y-012319G85X-048765Y-012319
X-046231Y-012319G85X-046225Y-012319
X-043691Y-012319G85X-043685Y-012319
T10
X-045045Y-020701
X-042545Y-020701
X-040045Y-020701
X-067905Y-020701
X-065405Y-020701
X-062905Y-020701
X-078486Y066548
X-081026Y066548
X-083566Y066548
T11
X-082677Y051145
X-082677Y046137
X-082550Y061813
X-082550Y056805
X-044831Y043815
X-046101Y048895
X-047371Y043815
X-048641Y048895
X-049911Y043815
X-051181Y048895
X-052451Y043815
X-053721Y048895
X-054991Y043815
X-056261Y048895
X-057531Y043815
X-058801Y048895
X-060071Y043815
X-061341Y048895
X-062611Y043815
M30
