M48
METRIC,LZ,000.000
;FILE_FORMAT=3:3
;TYPE=PLATED
;Layer: PTH_Through_Via
;EasyEDA v6.5.44, 2024-08-23 10:49:28
;13edeab578334d2c94ea7048694fe743,9c714277b5a14b868680a62259e1ad39,10
;Gerber Generator version 0.2
;Holesize 1 = 0.306 mm
T01C0.306
;Holesize 2 = 0.310 mm
T02C0.310
%
G05
G90
T01
X-034807Y017288
X-074013Y024639
X-058039Y065786
X-064481Y034953
X-052050Y023009
X-081530Y058026
X-049173Y047041
X-078412Y034146
X-065162Y045734
X-041732Y-010363
X-019574Y025798
X-038883Y012708
X-042541Y016366
X-041044Y028623
X-041955Y000489
X-035302Y-010848
X-041961Y031828
X-040458Y030325
X-037713Y007119
X-036447Y007233
X-074360Y016129
X-052578Y-011947
X-063157Y020300
X-065405Y-018642
X-022394Y002580
X-022555Y026704
X-049789Y045361
X-082782Y018161
X-062385Y021748
X-021259Y024964
X-036647Y031407
X-054328Y019051
X-067714Y023238
X-077445Y018698
X-067707Y020454
X-044958Y019234
X-063434Y017647
X-068301Y020985
X-037866Y015992
X-027143Y013142
X-037866Y030753
X-043211Y037644
X-061046Y005899
X-059927Y005768
X-031441Y030546
X-041629Y029585
X-042809Y024053
X-056544Y015360
X-081167Y016891
X-063450Y015889
X-075469Y-006072
X-061818Y-006072
X-077441Y-001900
X-082337Y002941
X-025124Y015996
X-035102Y009078
X-071886Y037396
X-045145Y064331
X-064516Y065024
X-071113Y041850
X-070358Y033384
X-073816Y041966
X-076451Y033704
X-074121Y038352
X-077150Y041382
X-077150Y058439
X-070715Y060110
X-076200Y002589
X-065024Y002540
X-026174Y036683
X-020703Y036579
X-059918Y011893
X-079638Y007899
X-065086Y023471
X-038238Y011021
X-059757Y-008458
X-061474Y-008458
X-055118Y-012171
X-067830Y-004879
X-062952Y-001455
X-059927Y004401
X-055947Y-011081
X-038112Y005912
X-038880Y005852
X-038895Y004678
X-038871Y003452
X-062099Y018570
X-051086Y007709
X-050905Y008909
X-037619Y009900
X-043807Y034480
X-052595Y040341
X-053736Y039187
X-055127Y033906
X-067012Y-008853
X-077221Y-008771
X-070080Y003567
X-074399Y-002666
T02
X-082423Y030734
X-080518Y029845
X-080518Y027305
X-077851Y029464
X-073279Y-000635
X-073406Y-002921
X-068961Y-009525
X-071755Y-011430
X-064516Y-002921
X-062357Y-003048
X-028829Y-009906
X-027559Y-008763
X-034163Y-012573
X-025908Y-007112
X-026797Y-021463
X-027940Y-013970
X-029972Y-011176
X-033528Y-006477
X-045212Y-015494
X-040513Y-015494
X-035941Y-019050
X-031877Y-015240
X-025781Y-015875
X-068326Y018542
X-072771Y016002
X-073279Y009652
X-073152Y001778
X-065659Y-002667
X-061849Y017399
X-065151Y008001
X-065532Y004826
X-060960Y004572
M30
