G04 Layer: TopSilkscreenLayer*
G04 EasyEDA v6.5.44, 2024-08-23 10:49:28*
G04 13edeab578334d2c94ea7048694fe743,9c714277b5a14b868680a62259e1ad39,10*
G04 Gerber Generator version 0.2*
G04 Scale: 100 percent, Rotated: No, Reflected: No *
G04 Dimensions in millimeters *
G04 leading zeros omitted , absolute positions ,4 integer and 5 decimal *
%FSLAX45Y45*%
%MOMM*%

%ADD10C,0.1520*%
%ADD11C,0.1524*%
%ADD12C,0.2032*%
%ADD13C,0.2540*%
%ADD14C,0.0800*%
%ADD15C,0.1520*%
%ADD16C,0.1500*%
%ADD17C,0.2030*%
%ADD18C,0.1200*%
%ADD19C,0.1016*%
%ADD20C,0.1999*%
%ADD21C,0.2030*%
%ADD22C,0.1000*%
%ADD23C,0.3000*%
%ADD24C,0.0130*%

%LPD*%
D10*
X-4305300Y-1701800D02*
G01*
X-4305300Y-1810004D01*
X-4271263Y-1701800D02*
G01*
X-4271263Y-1810004D01*
X-4271263Y-1701800D02*
G01*
X-4199128Y-1810004D01*
X-4199128Y-1701800D02*
G01*
X-4199128Y-1810004D01*
X-4002278Y-1701800D02*
G01*
X-4053586Y-1701800D01*
X-4058920Y-1748028D01*
X-4053586Y-1742947D01*
X-4038345Y-1737868D01*
X-4022852Y-1737868D01*
X-4007357Y-1742947D01*
X-3996944Y-1753362D01*
X-3991863Y-1768602D01*
X-3991863Y-1779015D01*
X-3996944Y-1794510D01*
X-4007357Y-1804670D01*
X-4022852Y-1810004D01*
X-4038345Y-1810004D01*
X-4053586Y-1804670D01*
X-4058920Y-1799589D01*
X-4064000Y-1789429D01*
X-3957828Y-1701800D02*
G01*
X-3916679Y-1810004D01*
X-3875531Y-1701800D02*
G01*
X-3916679Y-1810004D01*
X-4596384Y-1727454D02*
G01*
X-4601463Y-1717294D01*
X-4611878Y-1706879D01*
X-4622037Y-1701800D01*
X-4642612Y-1701800D01*
X-4653026Y-1706879D01*
X-4663186Y-1717294D01*
X-4668520Y-1727454D01*
X-4673600Y-1742947D01*
X-4673600Y-1768602D01*
X-4668520Y-1784095D01*
X-4663186Y-1794510D01*
X-4653026Y-1804670D01*
X-4642612Y-1810004D01*
X-4622037Y-1810004D01*
X-4611878Y-1804670D01*
X-4601463Y-1794510D01*
X-4596384Y-1784095D01*
X-4596384Y-1768602D01*
X-4622037Y-1768602D02*
G01*
X-4596384Y-1768602D01*
X-4562347Y-1701800D02*
G01*
X-4562347Y-1810004D01*
X-4562347Y-1701800D02*
G01*
X-4490212Y-1810004D01*
X-4490212Y-1701800D02*
G01*
X-4490212Y-1810004D01*
X-4456176Y-1701800D02*
G01*
X-4456176Y-1810004D01*
X-4456176Y-1701800D02*
G01*
X-4420107Y-1701800D01*
X-4404868Y-1706879D01*
X-4394454Y-1717294D01*
X-4389373Y-1727454D01*
X-4384294Y-1742947D01*
X-4384294Y-1768602D01*
X-4389373Y-1784095D01*
X-4394454Y-1794510D01*
X-4404868Y-1804670D01*
X-4420107Y-1810004D01*
X-4456176Y-1810004D01*
X-6895084Y-1727454D02*
G01*
X-6900163Y-1717294D01*
X-6910578Y-1706879D01*
X-6920737Y-1701800D01*
X-6941312Y-1701800D01*
X-6951726Y-1706879D01*
X-6961886Y-1717294D01*
X-6967220Y-1727454D01*
X-6972300Y-1742947D01*
X-6972300Y-1768602D01*
X-6967220Y-1784095D01*
X-6961886Y-1794510D01*
X-6951726Y-1804670D01*
X-6941312Y-1810004D01*
X-6920737Y-1810004D01*
X-6910578Y-1804670D01*
X-6900163Y-1794510D01*
X-6895084Y-1784095D01*
X-6895084Y-1768602D01*
X-6920737Y-1768602D02*
G01*
X-6895084Y-1768602D01*
X-6861047Y-1701800D02*
G01*
X-6861047Y-1810004D01*
X-6861047Y-1701800D02*
G01*
X-6788912Y-1810004D01*
X-6788912Y-1701800D02*
G01*
X-6788912Y-1810004D01*
X-6754876Y-1701800D02*
G01*
X-6754876Y-1810004D01*
X-6754876Y-1701800D02*
G01*
X-6718808Y-1701800D01*
X-6703568Y-1706879D01*
X-6693154Y-1717294D01*
X-6688073Y-1727454D01*
X-6682994Y-1742947D01*
X-6682994Y-1768602D01*
X-6688073Y-1784095D01*
X-6693154Y-1794510D01*
X-6703568Y-1804670D01*
X-6718808Y-1810004D01*
X-6754876Y-1810004D01*
X-6604000Y-1701800D02*
G01*
X-6604000Y-1810004D01*
X-6569963Y-1701800D02*
G01*
X-6569963Y-1810004D01*
X-6569963Y-1701800D02*
G01*
X-6497828Y-1810004D01*
X-6497828Y-1701800D02*
G01*
X-6497828Y-1810004D01*
X-6458712Y-1727454D02*
G01*
X-6458712Y-1722373D01*
X-6453631Y-1711960D01*
X-6448552Y-1706879D01*
X-6438137Y-1701800D01*
X-6417563Y-1701800D01*
X-6407150Y-1706879D01*
X-6402070Y-1711960D01*
X-6396989Y-1722373D01*
X-6396989Y-1732787D01*
X-6402070Y-1742947D01*
X-6412484Y-1758442D01*
X-6464045Y-1810004D01*
X-6391910Y-1810004D01*
X-6262878Y-1701800D02*
G01*
X-6314186Y-1701800D01*
X-6319520Y-1748028D01*
X-6314186Y-1742947D01*
X-6298945Y-1737868D01*
X-6283452Y-1737868D01*
X-6267957Y-1742947D01*
X-6257544Y-1753362D01*
X-6252463Y-1768602D01*
X-6252463Y-1779015D01*
X-6257544Y-1794510D01*
X-6267957Y-1804670D01*
X-6283452Y-1810004D01*
X-6298945Y-1810004D01*
X-6314186Y-1804670D01*
X-6319520Y-1799589D01*
X-6324600Y-1789429D01*
X-6218428Y-1701800D02*
G01*
X-6177279Y-1810004D01*
X-6136131Y-1701800D02*
G01*
X-6177279Y-1810004D01*
X-8109712Y-1473200D02*
G01*
X-8120126Y-1478279D01*
X-8130286Y-1488694D01*
X-8135620Y-1498854D01*
X-8140700Y-1514347D01*
X-8140700Y-1540002D01*
X-8135620Y-1555495D01*
X-8130286Y-1565910D01*
X-8120126Y-1576070D01*
X-8109712Y-1581404D01*
X-8089137Y-1581404D01*
X-8078978Y-1576070D01*
X-8068563Y-1565910D01*
X-8063484Y-1555495D01*
X-8058404Y-1540002D01*
X-8058404Y-1514347D01*
X-8063484Y-1498854D01*
X-8068563Y-1488694D01*
X-8078978Y-1478279D01*
X-8089137Y-1473200D01*
X-8109712Y-1473200D01*
X-7931658Y-1452626D02*
G01*
X-8024368Y-1617471D01*
X-7897621Y-1473200D02*
G01*
X-7897621Y-1581404D01*
X-7897621Y-1473200D02*
G01*
X-7851394Y-1473200D01*
X-7835900Y-1478279D01*
X-7830565Y-1483360D01*
X-7825486Y-1493773D01*
X-7825486Y-1509268D01*
X-7830565Y-1519428D01*
X-7835900Y-1524762D01*
X-7851394Y-1529842D01*
X-7897621Y-1529842D01*
X-7791450Y-1493773D02*
G01*
X-7781289Y-1488694D01*
X-7765795Y-1473200D01*
X-7765795Y-1581404D01*
X-7614412Y-1473200D02*
G01*
X-7624826Y-1478279D01*
X-7634986Y-1488694D01*
X-7640320Y-1498854D01*
X-7645400Y-1514347D01*
X-7645400Y-1540002D01*
X-7640320Y-1555495D01*
X-7634986Y-1565910D01*
X-7624826Y-1576070D01*
X-7614412Y-1581404D01*
X-7593837Y-1581404D01*
X-7583678Y-1576070D01*
X-7573263Y-1565910D01*
X-7568184Y-1555495D01*
X-7563104Y-1540002D01*
X-7563104Y-1514347D01*
X-7568184Y-1498854D01*
X-7573263Y-1488694D01*
X-7583678Y-1478279D01*
X-7593837Y-1473200D01*
X-7614412Y-1473200D01*
X-7436358Y-1452626D02*
G01*
X-7529068Y-1617471D01*
X-7402321Y-1473200D02*
G01*
X-7402321Y-1581404D01*
X-7402321Y-1473200D02*
G01*
X-7356094Y-1473200D01*
X-7340600Y-1478279D01*
X-7335265Y-1483360D01*
X-7330186Y-1493773D01*
X-7330186Y-1509268D01*
X-7335265Y-1519428D01*
X-7340600Y-1524762D01*
X-7356094Y-1529842D01*
X-7402321Y-1529842D01*
X-7291070Y-1498854D02*
G01*
X-7291070Y-1493773D01*
X-7285989Y-1483360D01*
X-7280655Y-1478279D01*
X-7270495Y-1473200D01*
X-7249921Y-1473200D01*
X-7239508Y-1478279D01*
X-7234428Y-1483360D01*
X-7229347Y-1493773D01*
X-7229347Y-1504187D01*
X-7234428Y-1514347D01*
X-7244842Y-1529842D01*
X-7296150Y-1581404D01*
X-7224013Y-1581404D01*
X-3055112Y-1447800D02*
G01*
X-3065526Y-1452879D01*
X-3075686Y-1463294D01*
X-3081020Y-1473454D01*
X-3086100Y-1488947D01*
X-3086100Y-1514602D01*
X-3081020Y-1530095D01*
X-3075686Y-1540510D01*
X-3065526Y-1550670D01*
X-3055112Y-1556004D01*
X-3034537Y-1556004D01*
X-3024378Y-1550670D01*
X-3013963Y-1540510D01*
X-3008884Y-1530095D01*
X-3003804Y-1514602D01*
X-3003804Y-1488947D01*
X-3008884Y-1473454D01*
X-3013963Y-1463294D01*
X-3024378Y-1452879D01*
X-3034537Y-1447800D01*
X-3055112Y-1447800D01*
X-2877057Y-1427226D02*
G01*
X-2969768Y-1592071D01*
X-2843021Y-1447800D02*
G01*
X-2843021Y-1556004D01*
X-2843021Y-1447800D02*
G01*
X-2796794Y-1447800D01*
X-2781300Y-1452879D01*
X-2775965Y-1457960D01*
X-2770886Y-1468373D01*
X-2770886Y-1483868D01*
X-2775965Y-1494028D01*
X-2781300Y-1499362D01*
X-2796794Y-1504442D01*
X-2843021Y-1504442D01*
X-2726689Y-1447800D02*
G01*
X-2670047Y-1447800D01*
X-2700781Y-1488947D01*
X-2685542Y-1488947D01*
X-2675128Y-1494028D01*
X-2670047Y-1499362D01*
X-2664713Y-1514602D01*
X-2664713Y-1525015D01*
X-2670047Y-1540510D01*
X-2680207Y-1550670D01*
X-2695702Y-1556004D01*
X-2711195Y-1556004D01*
X-2726689Y-1550670D01*
X-2731770Y-1545589D01*
X-2736850Y-1535429D01*
X-3601212Y-1460500D02*
G01*
X-3611626Y-1465579D01*
X-3621786Y-1475994D01*
X-3627120Y-1486154D01*
X-3632200Y-1501647D01*
X-3632200Y-1527302D01*
X-3627120Y-1542795D01*
X-3621786Y-1553210D01*
X-3611626Y-1563370D01*
X-3601212Y-1568704D01*
X-3580637Y-1568704D01*
X-3570478Y-1563370D01*
X-3560063Y-1553210D01*
X-3554984Y-1542795D01*
X-3549904Y-1527302D01*
X-3549904Y-1501647D01*
X-3554984Y-1486154D01*
X-3560063Y-1475994D01*
X-3570478Y-1465579D01*
X-3580637Y-1460500D01*
X-3601212Y-1460500D01*
X-3423157Y-1439926D02*
G01*
X-3515868Y-1604771D01*
X-3389121Y-1460500D02*
G01*
X-3389121Y-1568704D01*
X-3389121Y-1460500D02*
G01*
X-3342894Y-1460500D01*
X-3327400Y-1465579D01*
X-3322065Y-1470660D01*
X-3316986Y-1481073D01*
X-3316986Y-1496568D01*
X-3322065Y-1506728D01*
X-3327400Y-1512062D01*
X-3342894Y-1517142D01*
X-3389121Y-1517142D01*
X-3231642Y-1460500D02*
G01*
X-3282950Y-1532636D01*
X-3205734Y-1532636D01*
X-3231642Y-1460500D02*
G01*
X-3231642Y-1568704D01*
D11*
X-7774178Y4220463D02*
G01*
X-7867650Y4220463D01*
X-7820913Y4267200D02*
G01*
X-7820913Y4173728D01*
X-7758684Y4139437D02*
G01*
X-7867650Y4139437D01*
X-7758684Y4139437D02*
G01*
X-7758684Y4092702D01*
X-7763763Y4076954D01*
X-7769097Y4071873D01*
X-7779512Y4066539D01*
X-7789926Y4066539D01*
X-7800339Y4071873D01*
X-7805420Y4076954D01*
X-7810500Y4092702D01*
X-7810500Y4139437D02*
G01*
X-7810500Y4092702D01*
X-7815834Y4076954D01*
X-7820913Y4071873D01*
X-7831328Y4066539D01*
X-7847076Y4066539D01*
X-7857489Y4071873D01*
X-7862570Y4076954D01*
X-7867650Y4092702D01*
X-7867650Y4139437D01*
X-7758684Y3990847D02*
G01*
X-7867650Y4032250D01*
X-7758684Y3990847D02*
G01*
X-7867650Y3949192D01*
X-7831328Y4016755D02*
G01*
X-7831328Y3964939D01*
X-7758684Y3878579D02*
G01*
X-7867650Y3878579D01*
X-7758684Y3914902D02*
G01*
X-7758684Y3842257D01*
X-7820913Y3807968D02*
G01*
X-7820913Y3714495D01*
X-7657084Y5170170D02*
G01*
X-7657084Y5221986D01*
X-7703820Y5227320D01*
X-7698739Y5221986D01*
X-7693405Y5206492D01*
X-7693405Y5190744D01*
X-7698739Y5175250D01*
X-7708900Y5164836D01*
X-7724647Y5159755D01*
X-7735062Y5159755D01*
X-7750555Y5164836D01*
X-7760970Y5175250D01*
X-7766050Y5190744D01*
X-7766050Y5206492D01*
X-7760970Y5221986D01*
X-7755889Y5227320D01*
X-7745476Y5232400D01*
X-7657084Y5125465D02*
G01*
X-7766050Y5083810D01*
X-7657084Y5042154D02*
G01*
X-7766050Y5083810D01*
X-7644384Y4762500D02*
G01*
X-7753350Y4762500D01*
X-7644384Y4762500D02*
G01*
X-7644384Y4694936D01*
X-7696200Y4762500D02*
G01*
X-7696200Y4720844D01*
X-7753350Y4762500D02*
G01*
X-7753350Y4694936D01*
X-7644384Y4660645D02*
G01*
X-7753350Y4660645D01*
X-7644384Y4660645D02*
G01*
X-7753350Y4588002D01*
X-7644384Y4588002D02*
G01*
X-7753350Y4588002D01*
X-7644384Y4512055D02*
G01*
X-7753350Y4553712D01*
X-7644384Y4512055D02*
G01*
X-7753350Y4470400D01*
X-7717028Y4537963D02*
G01*
X-7717028Y4486147D01*
X-7748015Y6045200D02*
G01*
X-7639050Y6045200D01*
X-7748015Y6045200D02*
G01*
X-7748015Y6112763D01*
X-7696200Y6045200D02*
G01*
X-7696200Y6086855D01*
X-7639050Y6045200D02*
G01*
X-7639050Y6112763D01*
X-7748015Y6147054D02*
G01*
X-7639050Y6147054D01*
X-7748015Y6147054D02*
G01*
X-7639050Y6219697D01*
X-7748015Y6219697D02*
G01*
X-7639050Y6219697D01*
X-7748015Y6253987D02*
G01*
X-7639050Y6253987D01*
X-7748015Y6253987D02*
G01*
X-7748015Y6300723D01*
X-7742936Y6316471D01*
X-7737602Y6321552D01*
X-7727187Y6326886D01*
X-7716773Y6326886D01*
X-7706360Y6321552D01*
X-7701279Y6316471D01*
X-7696200Y6300723D01*
X-7696200Y6253987D02*
G01*
X-7696200Y6300723D01*
X-7690865Y6316471D01*
X-7685786Y6321552D01*
X-7675371Y6326886D01*
X-7659623Y6326886D01*
X-7649210Y6321552D01*
X-7644129Y6316471D01*
X-7639050Y6300723D01*
X-7639050Y6253987D01*
X-7735315Y5637529D02*
G01*
X-7735315Y5585713D01*
X-7688579Y5580379D01*
X-7693660Y5585713D01*
X-7698994Y5601207D01*
X-7698994Y5616955D01*
X-7693660Y5632450D01*
X-7683500Y5642863D01*
X-7667752Y5647944D01*
X-7657337Y5647944D01*
X-7641844Y5642863D01*
X-7631429Y5632450D01*
X-7626350Y5616955D01*
X-7626350Y5601207D01*
X-7631429Y5585713D01*
X-7636510Y5580379D01*
X-7646923Y5575300D01*
X-7735315Y5682234D02*
G01*
X-7626350Y5723889D01*
X-7735315Y5765545D02*
G01*
X-7626350Y5723889D01*
X-3135121Y6181344D02*
G01*
X-3145536Y6170929D01*
X-3150615Y6155436D01*
X-3150615Y6134607D01*
X-3145536Y6119113D01*
X-3135121Y6108700D01*
X-3124707Y6108700D01*
X-3114294Y6113779D01*
X-3108960Y6119113D01*
X-3103879Y6129528D01*
X-3093465Y6160770D01*
X-3088386Y6170929D01*
X-3083052Y6176263D01*
X-3072637Y6181344D01*
X-3057144Y6181344D01*
X-3046729Y6170929D01*
X-3041650Y6155436D01*
X-3041650Y6134607D01*
X-3046729Y6119113D01*
X-3057144Y6108700D01*
X-3150615Y6215634D02*
G01*
X-3041650Y6215634D01*
X-3150615Y6215634D02*
G01*
X-3150615Y6262370D01*
X-3145536Y6278118D01*
X-3140202Y6283197D01*
X-3129787Y6288531D01*
X-3114294Y6288531D01*
X-3103879Y6283197D01*
X-3098800Y6278118D01*
X-3093465Y6262370D01*
X-3093465Y6215634D01*
X-3124707Y6327902D02*
G01*
X-3129787Y6327902D01*
X-3140202Y6333236D01*
X-3145536Y6338315D01*
X-3150615Y6348729D01*
X-3150615Y6369557D01*
X-3145536Y6379971D01*
X-3140202Y6385052D01*
X-3129787Y6390386D01*
X-3119373Y6390386D01*
X-3108960Y6385052D01*
X-3093465Y6374637D01*
X-3041650Y6322821D01*
X-3041650Y6395465D01*
X-3135121Y6625844D02*
G01*
X-3145536Y6615429D01*
X-3150615Y6599936D01*
X-3150615Y6579108D01*
X-3145536Y6563613D01*
X-3135121Y6553200D01*
X-3124707Y6553200D01*
X-3114294Y6558279D01*
X-3108960Y6563613D01*
X-3103879Y6574028D01*
X-3093465Y6605270D01*
X-3088386Y6615429D01*
X-3083052Y6620763D01*
X-3072637Y6625844D01*
X-3057144Y6625844D01*
X-3046729Y6615429D01*
X-3041650Y6599936D01*
X-3041650Y6579108D01*
X-3046729Y6563613D01*
X-3057144Y6553200D01*
X-3150615Y6660134D02*
G01*
X-3041650Y6660134D01*
X-3150615Y6660134D02*
G01*
X-3150615Y6706870D01*
X-3145536Y6722618D01*
X-3140202Y6727697D01*
X-3129787Y6733031D01*
X-3114294Y6733031D01*
X-3103879Y6727697D01*
X-3098800Y6722618D01*
X-3093465Y6706870D01*
X-3093465Y6660134D01*
X-3129787Y6767321D02*
G01*
X-3135121Y6777736D01*
X-3150615Y6793229D01*
X-3041650Y6793229D01*
X-2160270Y2502915D02*
G01*
X-2212086Y2502915D01*
X-2217420Y2456179D01*
X-2212086Y2461260D01*
X-2196592Y2466594D01*
X-2180844Y2466594D01*
X-2165350Y2461260D01*
X-2154936Y2451100D01*
X-2149855Y2435352D01*
X-2149855Y2424937D01*
X-2154936Y2409444D01*
X-2165350Y2399029D01*
X-2180844Y2393950D01*
X-2196592Y2393950D01*
X-2212086Y2399029D01*
X-2217420Y2404110D01*
X-2222500Y2414523D01*
X-2115565Y2502915D02*
G01*
X-2073910Y2393950D01*
X-2032254Y2502915D02*
G01*
X-2073910Y2393950D01*
X-2144521Y2197607D02*
G01*
X-2149855Y2208021D01*
X-2160270Y2218436D01*
X-2170429Y2223515D01*
X-2191257Y2223515D01*
X-2201671Y2218436D01*
X-2212086Y2208021D01*
X-2217420Y2197607D01*
X-2222500Y2181860D01*
X-2222500Y2155952D01*
X-2217420Y2140457D01*
X-2212086Y2130044D01*
X-2201671Y2119629D01*
X-2191257Y2114550D01*
X-2170429Y2114550D01*
X-2160270Y2119629D01*
X-2149855Y2130044D01*
X-2144521Y2140457D01*
X-2144521Y2155952D01*
X-2170429Y2155952D02*
G01*
X-2144521Y2155952D01*
X-2110231Y2223515D02*
G01*
X-2110231Y2114550D01*
X-2110231Y2223515D02*
G01*
X-2037587Y2114550D01*
X-2037587Y2223515D02*
G01*
X-2037587Y2114550D01*
X-2003297Y2223515D02*
G01*
X-2003297Y2114550D01*
X-2003297Y2223515D02*
G01*
X-1966976Y2223515D01*
X-1951228Y2218436D01*
X-1940813Y2208021D01*
X-1935734Y2197607D01*
X-1930400Y2181860D01*
X-1930400Y2155952D01*
X-1935734Y2140457D01*
X-1940813Y2130044D01*
X-1951228Y2119629D01*
X-1966976Y2114550D01*
X-2003297Y2114550D01*
X-2224786Y1982215D02*
G01*
X-2167636Y1982215D01*
X-2198878Y1940560D01*
X-2183129Y1940560D01*
X-2172970Y1935479D01*
X-2167636Y1930400D01*
X-2162555Y1914652D01*
X-2162555Y1904237D01*
X-2167636Y1888744D01*
X-2178050Y1878329D01*
X-2193544Y1873250D01*
X-2209292Y1873250D01*
X-2224786Y1878329D01*
X-2230120Y1883410D01*
X-2235200Y1893823D01*
X-2128265Y1982215D02*
G01*
X-2086610Y1873250D01*
X-2044954Y1982215D02*
G01*
X-2086610Y1873250D01*
X-2000250Y1982215D02*
G01*
X-1943100Y1982215D01*
X-1974342Y1940560D01*
X-1958847Y1940560D01*
X-1948434Y1935479D01*
X-1943100Y1930400D01*
X-1938020Y1914652D01*
X-1938020Y1904237D01*
X-1943100Y1888744D01*
X-1953513Y1878329D01*
X-1969262Y1873250D01*
X-1984755Y1873250D01*
X-2000250Y1878329D01*
X-2005584Y1883410D01*
X-2010663Y1893823D01*
X-2235200Y1753615D02*
G01*
X-2235200Y1644650D01*
X-2235200Y1753615D02*
G01*
X-2188463Y1753615D01*
X-2172970Y1748536D01*
X-2167636Y1743202D01*
X-2162555Y1732787D01*
X-2162555Y1722373D01*
X-2167636Y1711960D01*
X-2172970Y1706879D01*
X-2188463Y1701800D01*
X-2235200Y1701800D02*
G01*
X-2188463Y1701800D01*
X-2172970Y1696465D01*
X-2167636Y1691386D01*
X-2162555Y1680971D01*
X-2162555Y1665223D01*
X-2167636Y1654810D01*
X-2172970Y1649729D01*
X-2188463Y1644650D01*
X-2235200Y1644650D01*
X-2091689Y1753615D02*
G01*
X-2091689Y1644650D01*
X-2128265Y1753615D02*
G01*
X-2055368Y1753615D01*
X-1948434Y1738121D02*
G01*
X-1958847Y1748536D01*
X-1974342Y1753615D01*
X-1995170Y1753615D01*
X-2010663Y1748536D01*
X-2021078Y1738121D01*
X-2021078Y1727707D01*
X-2015997Y1717294D01*
X-2010663Y1711960D01*
X-2000250Y1706879D01*
X-1969262Y1696465D01*
X-1958847Y1691386D01*
X-1953513Y1686052D01*
X-1948434Y1675637D01*
X-1948434Y1660144D01*
X-1958847Y1649729D01*
X-1974342Y1644650D01*
X-1995170Y1644650D01*
X-2010663Y1649729D01*
X-2021078Y1660144D01*
X-1877821Y1753615D02*
G01*
X-1877821Y1644650D01*
X-1914144Y1753615D02*
G01*
X-1841500Y1753615D01*
X-1807210Y1753615D02*
G01*
X-1807210Y1644650D01*
X-1807210Y1753615D02*
G01*
X-1770634Y1753615D01*
X-1755139Y1748536D01*
X-1744726Y1738121D01*
X-1739645Y1727707D01*
X-1734312Y1711960D01*
X-1734312Y1686052D01*
X-1739645Y1670557D01*
X-1744726Y1660144D01*
X-1755139Y1649729D01*
X-1770634Y1644650D01*
X-1807210Y1644650D01*
X-2235200Y1486915D02*
G01*
X-2235200Y1377950D01*
X-2235200Y1486915D02*
G01*
X-2188463Y1486915D01*
X-2172970Y1481836D01*
X-2167636Y1476502D01*
X-2162555Y1466087D01*
X-2162555Y1455673D01*
X-2167636Y1445260D01*
X-2172970Y1440179D01*
X-2188463Y1435100D01*
X-2235200Y1435100D01*
X-2198878Y1435100D02*
G01*
X-2162555Y1377950D01*
X-2050287Y1461007D02*
G01*
X-2055368Y1471421D01*
X-2065781Y1481836D01*
X-2076195Y1486915D01*
X-2097023Y1486915D01*
X-2107437Y1481836D01*
X-2117852Y1471421D01*
X-2122931Y1461007D01*
X-2128265Y1445260D01*
X-2128265Y1419352D01*
X-2122931Y1403857D01*
X-2117852Y1393444D01*
X-2107437Y1383029D01*
X-2097023Y1377950D01*
X-2076195Y1377950D01*
X-2065781Y1383029D01*
X-2055368Y1393444D01*
X-2050287Y1403857D01*
X-2050287Y1419352D01*
X-2076195Y1419352D02*
G01*
X-2050287Y1419352D01*
X-2015997Y1486915D02*
G01*
X-2015997Y1377950D01*
X-2015997Y1486915D02*
G01*
X-1969262Y1486915D01*
X-1953513Y1481836D01*
X-1948434Y1476502D01*
X-1943100Y1466087D01*
X-1943100Y1455673D01*
X-1948434Y1445260D01*
X-1953513Y1440179D01*
X-1969262Y1435100D01*
X-2015997Y1435100D02*
G01*
X-1969262Y1435100D01*
X-1953513Y1429765D01*
X-1948434Y1424686D01*
X-1943100Y1414271D01*
X-1943100Y1398523D01*
X-1948434Y1388110D01*
X-1953513Y1383029D01*
X-1969262Y1377950D01*
X-2015997Y1377950D01*
X-1908810Y1486915D02*
G01*
X-1908810Y1377950D01*
X-1874520Y1486915D02*
G01*
X-1874520Y1377950D01*
X-1874520Y1486915D02*
G01*
X-1801876Y1377950D01*
X-1801876Y1486915D02*
G01*
X-1801876Y1377950D01*
X-2235200Y1232915D02*
G01*
X-2235200Y1123950D01*
X-2200910Y1232915D02*
G01*
X-2200910Y1123950D01*
X-2200910Y1232915D02*
G01*
X-2128265Y1123950D01*
X-2128265Y1232915D02*
G01*
X-2128265Y1123950D01*
X-2041905Y1232915D02*
G01*
X-2093976Y1160271D01*
X-2015997Y1160271D01*
X-2041905Y1232915D02*
G01*
X-2041905Y1123950D01*
X-2235200Y991615D02*
G01*
X-2235200Y882650D01*
X-2200910Y991615D02*
G01*
X-2200910Y882650D01*
X-2200910Y991615D02*
G01*
X-2128265Y882650D01*
X-2128265Y991615D02*
G01*
X-2128265Y882650D01*
X-2083562Y991615D02*
G01*
X-2026412Y991615D01*
X-2057400Y949960D01*
X-2041905Y949960D01*
X-2031492Y944879D01*
X-2026412Y939800D01*
X-2021078Y924052D01*
X-2021078Y913637D01*
X-2026412Y898144D01*
X-2036826Y887729D01*
X-2052320Y882650D01*
X-2067813Y882650D01*
X-2083562Y887729D01*
X-2088642Y892810D01*
X-2093976Y903223D01*
X-2235200Y724915D02*
G01*
X-2235200Y615950D01*
X-2200910Y724915D02*
G01*
X-2200910Y615950D01*
X-2200910Y724915D02*
G01*
X-2128265Y615950D01*
X-2128265Y724915D02*
G01*
X-2128265Y615950D01*
X-2088642Y699007D02*
G01*
X-2088642Y704087D01*
X-2083562Y714502D01*
X-2078228Y719836D01*
X-2067813Y724915D01*
X-2047239Y724915D01*
X-2036826Y719836D01*
X-2031492Y714502D01*
X-2026412Y704087D01*
X-2026412Y693673D01*
X-2031492Y683260D01*
X-2041905Y667765D01*
X-2093976Y615950D01*
X-2021078Y615950D01*
X-2235200Y496315D02*
G01*
X-2235200Y387350D01*
X-2200910Y496315D02*
G01*
X-2200910Y387350D01*
X-2200910Y496315D02*
G01*
X-2128265Y387350D01*
X-2128265Y496315D02*
G01*
X-2128265Y387350D01*
X-2093976Y475487D02*
G01*
X-2083562Y480821D01*
X-2067813Y496315D01*
X-2067813Y387350D01*
X-2235200Y229615D02*
G01*
X-2235200Y120650D01*
X-2235200Y229615D02*
G01*
X-2198878Y229615D01*
X-2183129Y224536D01*
X-2172970Y214121D01*
X-2167636Y203707D01*
X-2162555Y187960D01*
X-2162555Y162052D01*
X-2167636Y146557D01*
X-2172970Y136144D01*
X-2183129Y125729D01*
X-2198878Y120650D01*
X-2235200Y120650D01*
X-2128265Y229615D02*
G01*
X-2128265Y120650D01*
X-2128265Y229615D02*
G01*
X-2060702Y229615D01*
X-2128265Y177800D02*
G01*
X-2086610Y177800D01*
X-1990089Y229615D02*
G01*
X-1990089Y120650D01*
X-2026412Y229615D02*
G01*
X-1953513Y229615D01*
X-1919223Y229615D02*
G01*
X-1846579Y120650D01*
X-1846579Y229615D02*
G01*
X-1919223Y120650D01*
X-1812289Y229615D02*
G01*
X-1812289Y120650D01*
X-1812289Y229615D02*
G01*
X-1775968Y229615D01*
X-1760220Y224536D01*
X-1750060Y214121D01*
X-1744726Y203707D01*
X-1739645Y187960D01*
X-1739645Y162052D01*
X-1744726Y146557D01*
X-1750060Y136144D01*
X-1760220Y125729D01*
X-1775968Y120650D01*
X-1812289Y120650D01*
X-2235200Y-24384D02*
G01*
X-2235200Y-133350D01*
X-2235200Y-24384D02*
G01*
X-2188463Y-24384D01*
X-2172970Y-29463D01*
X-2167636Y-34797D01*
X-2162555Y-45212D01*
X-2162555Y-55626D01*
X-2167636Y-66039D01*
X-2172970Y-71120D01*
X-2188463Y-76200D01*
X-2235200Y-76200D01*
X-2198878Y-76200D02*
G01*
X-2162555Y-133350D01*
X-2128265Y-45212D02*
G01*
X-2117852Y-39878D01*
X-2102104Y-24384D01*
X-2102104Y-133350D01*
X-2005584Y-24384D02*
G01*
X-2057400Y-24384D01*
X-2062734Y-71120D01*
X-2057400Y-66039D01*
X-2041905Y-60705D01*
X-2026412Y-60705D01*
X-2010663Y-66039D01*
X-2000250Y-76200D01*
X-1995170Y-91947D01*
X-1995170Y-102362D01*
X-2000250Y-117855D01*
X-2010663Y-128270D01*
X-2026412Y-133350D01*
X-2041905Y-133350D01*
X-2057400Y-128270D01*
X-2062734Y-123189D01*
X-2067813Y-112776D01*
X-2235200Y-291084D02*
G01*
X-2235200Y-400050D01*
X-2169668Y-291084D02*
G01*
X-2180081Y-296163D01*
X-2190495Y-306578D01*
X-2195829Y-316992D01*
X-2200910Y-332739D01*
X-2200910Y-358647D01*
X-2195829Y-374142D01*
X-2190495Y-384555D01*
X-2180081Y-394970D01*
X-2169668Y-400050D01*
X-2148839Y-400050D01*
X-2138679Y-394970D01*
X-2128265Y-384555D01*
X-2122931Y-374142D01*
X-2117852Y-358647D01*
X-2117852Y-332739D01*
X-2122931Y-316992D01*
X-2128265Y-306578D01*
X-2138679Y-296163D01*
X-2148839Y-291084D01*
X-2169668Y-291084D01*
X-2073147Y-291084D02*
G01*
X-2015997Y-291084D01*
X-2047239Y-332739D01*
X-2031492Y-332739D01*
X-2021078Y-337820D01*
X-2015997Y-342900D01*
X-2010663Y-358647D01*
X-2010663Y-369062D01*
X-2015997Y-384555D01*
X-2026412Y-394970D01*
X-2041905Y-400050D01*
X-2057400Y-400050D01*
X-2073147Y-394970D01*
X-2078228Y-389889D01*
X-2083562Y-379476D01*
X-1914144Y-291084D02*
G01*
X-1965960Y-291084D01*
X-1971294Y-337820D01*
X-1965960Y-332739D01*
X-1950465Y-327405D01*
X-1934971Y-327405D01*
X-1919223Y-332739D01*
X-1908810Y-342900D01*
X-1903729Y-358647D01*
X-1903729Y-369062D01*
X-1908810Y-384555D01*
X-1919223Y-394970D01*
X-1934971Y-400050D01*
X-1950465Y-400050D01*
X-1965960Y-394970D01*
X-1971294Y-389889D01*
X-1976373Y-379476D01*
X-2235200Y-545084D02*
G01*
X-2235200Y-654050D01*
X-2169668Y-545084D02*
G01*
X-2180081Y-550163D01*
X-2190495Y-560578D01*
X-2195829Y-570992D01*
X-2200910Y-586739D01*
X-2200910Y-612647D01*
X-2195829Y-628142D01*
X-2190495Y-638555D01*
X-2180081Y-648970D01*
X-2169668Y-654050D01*
X-2148839Y-654050D01*
X-2138679Y-648970D01*
X-2128265Y-638555D01*
X-2122931Y-628142D01*
X-2117852Y-612647D01*
X-2117852Y-586739D01*
X-2122931Y-570992D01*
X-2128265Y-560578D01*
X-2138679Y-550163D01*
X-2148839Y-545084D01*
X-2169668Y-545084D01*
X-2073147Y-545084D02*
G01*
X-2015997Y-545084D01*
X-2047239Y-586739D01*
X-2031492Y-586739D01*
X-2021078Y-591820D01*
X-2015997Y-596900D01*
X-2010663Y-612647D01*
X-2010663Y-623062D01*
X-2015997Y-638555D01*
X-2026412Y-648970D01*
X-2041905Y-654050D01*
X-2057400Y-654050D01*
X-2073147Y-648970D01*
X-2078228Y-643889D01*
X-2083562Y-633476D01*
X-1924557Y-545084D02*
G01*
X-1976373Y-617728D01*
X-1898650Y-617728D01*
X-1924557Y-545084D02*
G01*
X-1924557Y-654050D01*
X-2162555Y-814578D02*
G01*
X-2172970Y-804163D01*
X-2188463Y-799084D01*
X-2209292Y-799084D01*
X-2224786Y-804163D01*
X-2235200Y-814578D01*
X-2235200Y-824992D01*
X-2230120Y-835405D01*
X-2224786Y-840739D01*
X-2214371Y-845820D01*
X-2183129Y-856234D01*
X-2172970Y-861313D01*
X-2167636Y-866647D01*
X-2162555Y-877062D01*
X-2162555Y-892555D01*
X-2172970Y-902970D01*
X-2188463Y-908050D01*
X-2209292Y-908050D01*
X-2224786Y-902970D01*
X-2235200Y-892555D01*
X-2128265Y-799084D02*
G01*
X-2086610Y-908050D01*
X-2044954Y-799084D02*
G01*
X-2086610Y-908050D01*
X-2010663Y-799084D02*
G01*
X-2010663Y-908050D01*
X-2010663Y-799084D02*
G01*
X-1938020Y-908050D01*
X-1938020Y-799084D02*
G01*
X-1938020Y-908050D01*
X-2162555Y-1068578D02*
G01*
X-2172970Y-1058163D01*
X-2188463Y-1053084D01*
X-2209292Y-1053084D01*
X-2224786Y-1058163D01*
X-2235200Y-1068578D01*
X-2235200Y-1078992D01*
X-2230120Y-1089405D01*
X-2224786Y-1094739D01*
X-2214371Y-1099820D01*
X-2183129Y-1110234D01*
X-2172970Y-1115313D01*
X-2167636Y-1120647D01*
X-2162555Y-1131062D01*
X-2162555Y-1146555D01*
X-2172970Y-1156970D01*
X-2188463Y-1162050D01*
X-2209292Y-1162050D01*
X-2224786Y-1156970D01*
X-2235200Y-1146555D01*
X-2128265Y-1053084D02*
G01*
X-2086610Y-1162050D01*
X-2044954Y-1053084D02*
G01*
X-2086610Y-1162050D01*
X-2010663Y-1053084D02*
G01*
X-2010663Y-1162050D01*
X-2010663Y-1053084D02*
G01*
X-1963928Y-1053084D01*
X-1948434Y-1058163D01*
X-1943100Y-1063497D01*
X-1938020Y-1073912D01*
X-1938020Y-1089405D01*
X-1943100Y-1099820D01*
X-1948434Y-1104900D01*
X-1963928Y-1110234D01*
X-2010663Y-1110234D01*
X-2235200Y-1319784D02*
G01*
X-2235200Y-1428750D01*
X-2235200Y-1319784D02*
G01*
X-2167636Y-1319784D01*
X-2235200Y-1371600D02*
G01*
X-2193544Y-1371600D01*
X-2235200Y-1428750D02*
G01*
X-2167636Y-1428750D01*
X-2133345Y-1319784D02*
G01*
X-2133345Y-1428750D01*
X-2133345Y-1319784D02*
G01*
X-2060702Y-1428750D01*
X-2060702Y-1319784D02*
G01*
X-2060702Y-1428750D01*
X-8928100Y-1040384D02*
G01*
X-8928100Y-1149350D01*
X-8928100Y-1040384D02*
G01*
X-8881363Y-1040384D01*
X-8865870Y-1045463D01*
X-8860536Y-1050797D01*
X-8855455Y-1061212D01*
X-8855455Y-1071626D01*
X-8860536Y-1082039D01*
X-8865870Y-1087120D01*
X-8881363Y-1092200D01*
X-8928100Y-1092200D01*
X-8891778Y-1092200D02*
G01*
X-8855455Y-1149350D01*
X-8821165Y-1040384D02*
G01*
X-8821165Y-1149350D01*
X-8821165Y-1040384D02*
G01*
X-8753602Y-1040384D01*
X-8821165Y-1092200D02*
G01*
X-8779510Y-1092200D01*
X-8719312Y-1040384D02*
G01*
X-8719312Y-1149350D01*
X-8719312Y-1040384D02*
G01*
X-8677655Y-1149350D01*
X-8636000Y-1040384D02*
G01*
X-8677655Y-1149350D01*
X-8636000Y-1040384D02*
G01*
X-8636000Y-1149350D01*
X-8570721Y-1040384D02*
G01*
X-8581136Y-1045463D01*
X-8591550Y-1055878D01*
X-8596629Y-1066292D01*
X-8601710Y-1082039D01*
X-8601710Y-1107947D01*
X-8596629Y-1123442D01*
X-8591550Y-1133855D01*
X-8581136Y-1144270D01*
X-8570721Y-1149350D01*
X-8549894Y-1149350D01*
X-8539479Y-1144270D01*
X-8529065Y-1133855D01*
X-8523986Y-1123442D01*
X-8518652Y-1107947D01*
X-8518652Y-1082039D01*
X-8523986Y-1066292D01*
X-8529065Y-1055878D01*
X-8539479Y-1045463D01*
X-8549894Y-1040384D01*
X-8570721Y-1040384D01*
X-8411718Y-1055878D02*
G01*
X-8422131Y-1045463D01*
X-8437626Y-1040384D01*
X-8458454Y-1040384D01*
X-8473947Y-1045463D01*
X-8484362Y-1055878D01*
X-8484362Y-1066292D01*
X-8479281Y-1076705D01*
X-8473947Y-1082039D01*
X-8463534Y-1087120D01*
X-8432545Y-1097534D01*
X-8422131Y-1102613D01*
X-8416797Y-1107947D01*
X-8411718Y-1118362D01*
X-8411718Y-1133855D01*
X-8422131Y-1144270D01*
X-8437626Y-1149350D01*
X-8458454Y-1149350D01*
X-8473947Y-1144270D01*
X-8484362Y-1133855D01*
X-8377428Y-1040384D02*
G01*
X-8377428Y-1149350D01*
X-8890000Y-811784D02*
G01*
X-8890000Y-920750D01*
X-8890000Y-811784D02*
G01*
X-8843263Y-811784D01*
X-8827770Y-816863D01*
X-8822436Y-822197D01*
X-8817355Y-832612D01*
X-8817355Y-843026D01*
X-8822436Y-853439D01*
X-8827770Y-858520D01*
X-8843263Y-863600D01*
X-8890000Y-863600D01*
X-8853678Y-863600D02*
G01*
X-8817355Y-920750D01*
X-8783065Y-811784D02*
G01*
X-8783065Y-920750D01*
X-8783065Y-811784D02*
G01*
X-8715502Y-811784D01*
X-8783065Y-863600D02*
G01*
X-8741410Y-863600D01*
X-8681212Y-811784D02*
G01*
X-8681212Y-920750D01*
X-8681212Y-811784D02*
G01*
X-8634476Y-811784D01*
X-8618728Y-816863D01*
X-8613647Y-822197D01*
X-8608313Y-832612D01*
X-8608313Y-843026D01*
X-8613647Y-853439D01*
X-8618728Y-858520D01*
X-8634476Y-863600D01*
X-8681212Y-863600D01*
X-8644889Y-863600D02*
G01*
X-8608313Y-920750D01*
X-8501379Y-827278D02*
G01*
X-8511794Y-816863D01*
X-8527287Y-811784D01*
X-8548115Y-811784D01*
X-8563610Y-816863D01*
X-8574024Y-827278D01*
X-8574024Y-837692D01*
X-8568944Y-848105D01*
X-8563610Y-853439D01*
X-8553450Y-858520D01*
X-8522208Y-868934D01*
X-8511794Y-874013D01*
X-8506460Y-879347D01*
X-8501379Y-889762D01*
X-8501379Y-905255D01*
X-8511794Y-915670D01*
X-8527287Y-920750D01*
X-8548115Y-920750D01*
X-8563610Y-915670D01*
X-8574024Y-905255D01*
X-8430768Y-811784D02*
G01*
X-8430768Y-920750D01*
X-8467089Y-811784D02*
G01*
X-8394445Y-811784D01*
X-8801100Y-557784D02*
G01*
X-8801100Y-635762D01*
X-8796020Y-651255D01*
X-8785605Y-661670D01*
X-8769858Y-666750D01*
X-8759444Y-666750D01*
X-8743950Y-661670D01*
X-8733536Y-651255D01*
X-8728455Y-635762D01*
X-8728455Y-557784D01*
X-8662924Y-557784D02*
G01*
X-8673337Y-562863D01*
X-8683752Y-573278D01*
X-8688831Y-583692D01*
X-8694165Y-599439D01*
X-8694165Y-625347D01*
X-8688831Y-640842D01*
X-8683752Y-651255D01*
X-8673337Y-661670D01*
X-8662924Y-666750D01*
X-8642095Y-666750D01*
X-8631681Y-661670D01*
X-8621268Y-651255D01*
X-8616187Y-640842D01*
X-8610854Y-625347D01*
X-8610854Y-599439D01*
X-8616187Y-583692D01*
X-8621268Y-573278D01*
X-8631681Y-562863D01*
X-8642095Y-557784D01*
X-8662924Y-557784D01*
X-8540242Y-557784D02*
G01*
X-8540242Y-666750D01*
X-8576563Y-557784D02*
G01*
X-8503920Y-557784D01*
X-8469629Y-557784D02*
G01*
X-8396986Y-666750D01*
X-8396986Y-557784D02*
G01*
X-8469629Y-666750D01*
X-8801100Y-291084D02*
G01*
X-8801100Y-369062D01*
X-8796020Y-384555D01*
X-8785605Y-394970D01*
X-8769858Y-400050D01*
X-8759444Y-400050D01*
X-8743950Y-394970D01*
X-8733536Y-384555D01*
X-8728455Y-369062D01*
X-8728455Y-291084D01*
X-8662924Y-291084D02*
G01*
X-8673337Y-296163D01*
X-8683752Y-306578D01*
X-8688831Y-316992D01*
X-8694165Y-332739D01*
X-8694165Y-358647D01*
X-8688831Y-374142D01*
X-8683752Y-384555D01*
X-8673337Y-394970D01*
X-8662924Y-400050D01*
X-8642095Y-400050D01*
X-8631681Y-394970D01*
X-8621268Y-384555D01*
X-8616187Y-374142D01*
X-8610854Y-358647D01*
X-8610854Y-332739D01*
X-8616187Y-316992D01*
X-8621268Y-306578D01*
X-8631681Y-296163D01*
X-8642095Y-291084D01*
X-8662924Y-291084D01*
X-8576563Y-291084D02*
G01*
X-8576563Y-400050D01*
X-8576563Y-291084D02*
G01*
X-8529828Y-291084D01*
X-8514334Y-296163D01*
X-8509000Y-301497D01*
X-8503920Y-311912D01*
X-8503920Y-322326D01*
X-8509000Y-332739D01*
X-8514334Y-337820D01*
X-8529828Y-342900D01*
X-8576563Y-342900D01*
X-8540242Y-342900D02*
G01*
X-8503920Y-400050D01*
X-8469629Y-291084D02*
G01*
X-8396986Y-400050D01*
X-8396986Y-291084D02*
G01*
X-8469629Y-400050D01*
X-8902700Y-37084D02*
G01*
X-8902700Y-146050D01*
X-8902700Y-37084D02*
G01*
X-8855963Y-37084D01*
X-8840470Y-42163D01*
X-8835136Y-47497D01*
X-8830055Y-57912D01*
X-8830055Y-68326D01*
X-8835136Y-78739D01*
X-8840470Y-83820D01*
X-8855963Y-88900D01*
X-8902700Y-88900D01*
X-8866378Y-88900D02*
G01*
X-8830055Y-146050D01*
X-8795765Y-37084D02*
G01*
X-8795765Y-146050D01*
X-8795765Y-37084D02*
G01*
X-8728202Y-37084D01*
X-8795765Y-88900D02*
G01*
X-8754110Y-88900D01*
X-8621013Y-52578D02*
G01*
X-8631428Y-42163D01*
X-8647176Y-37084D01*
X-8667750Y-37084D01*
X-8683497Y-42163D01*
X-8693912Y-52578D01*
X-8693912Y-62992D01*
X-8688578Y-73405D01*
X-8683497Y-78739D01*
X-8673084Y-83820D01*
X-8641842Y-94234D01*
X-8631428Y-99313D01*
X-8626347Y-104647D01*
X-8621013Y-115062D01*
X-8621013Y-130555D01*
X-8631428Y-140970D01*
X-8647176Y-146050D01*
X-8667750Y-146050D01*
X-8683497Y-140970D01*
X-8693912Y-130555D01*
X-8586724Y-37084D02*
G01*
X-8586724Y-146050D01*
X-8586724Y-37084D02*
G01*
X-8550402Y-37084D01*
X-8534908Y-42163D01*
X-8524494Y-52578D01*
X-8519160Y-62992D01*
X-8514079Y-78739D01*
X-8514079Y-104647D01*
X-8519160Y-120142D01*
X-8524494Y-130555D01*
X-8534908Y-140970D01*
X-8550402Y-146050D01*
X-8586724Y-146050D01*
X-8438134Y-37084D02*
G01*
X-8479789Y-146050D01*
X-8438134Y-37084D02*
G01*
X-8396731Y-146050D01*
X-8464295Y-109728D02*
G01*
X-8412226Y-109728D01*
X-8915400Y216915D02*
G01*
X-8915400Y107950D01*
X-8915400Y216915D02*
G01*
X-8868663Y216915D01*
X-8853170Y211836D01*
X-8847836Y206502D01*
X-8842755Y196087D01*
X-8842755Y185673D01*
X-8847836Y175260D01*
X-8853170Y170179D01*
X-8868663Y165100D01*
X-8915400Y165100D01*
X-8879078Y165100D02*
G01*
X-8842755Y107950D01*
X-8808465Y216915D02*
G01*
X-8808465Y107950D01*
X-8808465Y216915D02*
G01*
X-8740902Y216915D01*
X-8808465Y165100D02*
G01*
X-8766810Y165100D01*
X-8706612Y216915D02*
G01*
X-8706612Y107950D01*
X-8706612Y216915D02*
G01*
X-8664955Y107950D01*
X-8623300Y216915D02*
G01*
X-8664955Y107950D01*
X-8623300Y216915D02*
G01*
X-8623300Y107950D01*
X-8589010Y216915D02*
G01*
X-8589010Y107950D01*
X-8482076Y201421D02*
G01*
X-8492489Y211836D01*
X-8507984Y216915D01*
X-8528812Y216915D01*
X-8544560Y211836D01*
X-8554720Y201421D01*
X-8554720Y191007D01*
X-8549639Y180594D01*
X-8544560Y175260D01*
X-8534145Y170179D01*
X-8502904Y159765D01*
X-8492489Y154686D01*
X-8487410Y149352D01*
X-8482076Y138937D01*
X-8482076Y123444D01*
X-8492489Y113029D01*
X-8507984Y107950D01*
X-8528812Y107950D01*
X-8544560Y113029D01*
X-8554720Y123444D01*
X-8416544Y216915D02*
G01*
X-8426958Y211836D01*
X-8437371Y201421D01*
X-8442705Y191007D01*
X-8447786Y175260D01*
X-8447786Y149352D01*
X-8442705Y133857D01*
X-8437371Y123444D01*
X-8426958Y113029D01*
X-8416544Y107950D01*
X-8395970Y107950D01*
X-8385555Y113029D01*
X-8375142Y123444D01*
X-8369808Y133857D01*
X-8364728Y149352D01*
X-8364728Y175260D01*
X-8369808Y191007D01*
X-8375142Y201421D01*
X-8385555Y211836D01*
X-8395970Y216915D01*
X-8416544Y216915D01*
X-8890000Y458215D02*
G01*
X-8890000Y349250D01*
X-8890000Y458215D02*
G01*
X-8843263Y458215D01*
X-8827770Y453136D01*
X-8822436Y447802D01*
X-8817355Y437387D01*
X-8817355Y426973D01*
X-8822436Y416560D01*
X-8827770Y411479D01*
X-8843263Y406400D01*
X-8890000Y406400D01*
X-8853678Y406400D02*
G01*
X-8817355Y349250D01*
X-8783065Y458215D02*
G01*
X-8783065Y349250D01*
X-8783065Y458215D02*
G01*
X-8715502Y458215D01*
X-8783065Y406400D02*
G01*
X-8741410Y406400D01*
X-8608313Y442721D02*
G01*
X-8618728Y453136D01*
X-8634476Y458215D01*
X-8655050Y458215D01*
X-8670797Y453136D01*
X-8681212Y442721D01*
X-8681212Y432307D01*
X-8675878Y421894D01*
X-8670797Y416560D01*
X-8660384Y411479D01*
X-8629142Y401065D01*
X-8618728Y395986D01*
X-8613647Y390652D01*
X-8608313Y380237D01*
X-8608313Y364744D01*
X-8618728Y354329D01*
X-8634476Y349250D01*
X-8655050Y349250D01*
X-8670797Y354329D01*
X-8681212Y364744D01*
X-8496300Y432307D02*
G01*
X-8501379Y442721D01*
X-8511794Y453136D01*
X-8522208Y458215D01*
X-8543036Y458215D01*
X-8553450Y453136D01*
X-8563610Y442721D01*
X-8568944Y432307D01*
X-8574024Y416560D01*
X-8574024Y390652D01*
X-8568944Y375157D01*
X-8563610Y364744D01*
X-8553450Y354329D01*
X-8543036Y349250D01*
X-8522208Y349250D01*
X-8511794Y354329D01*
X-8501379Y364744D01*
X-8496300Y375157D01*
X-8462010Y458215D02*
G01*
X-8462010Y349250D01*
X-8389112Y458215D02*
G01*
X-8462010Y385571D01*
X-8435847Y411479D02*
G01*
X-8389112Y349250D01*
X-8928100Y712215D02*
G01*
X-8928100Y603250D01*
X-8928100Y712215D02*
G01*
X-8881363Y712215D01*
X-8865870Y707136D01*
X-8860536Y701802D01*
X-8855455Y691387D01*
X-8855455Y680973D01*
X-8860536Y670560D01*
X-8865870Y665479D01*
X-8881363Y660400D01*
X-8928100Y660400D01*
X-8891778Y660400D02*
G01*
X-8855455Y603250D01*
X-8743187Y686307D02*
G01*
X-8748268Y696721D01*
X-8758681Y707136D01*
X-8769095Y712215D01*
X-8789924Y712215D01*
X-8800337Y707136D01*
X-8810752Y696721D01*
X-8815831Y686307D01*
X-8821165Y670560D01*
X-8821165Y644652D01*
X-8815831Y629157D01*
X-8810752Y618744D01*
X-8800337Y608329D01*
X-8789924Y603250D01*
X-8769095Y603250D01*
X-8758681Y608329D01*
X-8748268Y618744D01*
X-8743187Y629157D01*
X-8743187Y644652D01*
X-8769095Y644652D02*
G01*
X-8743187Y644652D01*
X-8708897Y712215D02*
G01*
X-8708897Y603250D01*
X-8708897Y712215D02*
G01*
X-8662162Y712215D01*
X-8646413Y707136D01*
X-8641334Y701802D01*
X-8636000Y691387D01*
X-8636000Y680973D01*
X-8641334Y670560D01*
X-8646413Y665479D01*
X-8662162Y660400D01*
X-8708897Y660400D02*
G01*
X-8662162Y660400D01*
X-8646413Y655065D01*
X-8641334Y649986D01*
X-8636000Y639571D01*
X-8636000Y623823D01*
X-8641334Y613410D01*
X-8646413Y608329D01*
X-8662162Y603250D01*
X-8708897Y603250D01*
X-8601710Y712215D02*
G01*
X-8601710Y603250D01*
X-8601710Y712215D02*
G01*
X-8565387Y712215D01*
X-8549894Y707136D01*
X-8539479Y696721D01*
X-8534400Y686307D01*
X-8529065Y670560D01*
X-8529065Y644652D01*
X-8534400Y629157D01*
X-8539479Y618744D01*
X-8549894Y608329D01*
X-8565387Y603250D01*
X-8601710Y603250D01*
X-8494776Y712215D02*
G01*
X-8494776Y603250D01*
X-8460486Y712215D02*
G01*
X-8460486Y603250D01*
X-8460486Y712215D02*
G01*
X-8387842Y603250D01*
X-8387842Y712215D02*
G01*
X-8387842Y603250D01*
X-8585200Y978915D02*
G01*
X-8512555Y869950D01*
X-8512555Y978915D02*
G01*
X-8585200Y869950D01*
X-8447024Y978915D02*
G01*
X-8457437Y973836D01*
X-8467852Y963421D01*
X-8472931Y953007D01*
X-8478265Y937260D01*
X-8478265Y911352D01*
X-8472931Y895857D01*
X-8467852Y885444D01*
X-8457437Y875029D01*
X-8447024Y869950D01*
X-8426195Y869950D01*
X-8415781Y875029D01*
X-8405368Y885444D01*
X-8400287Y895857D01*
X-8394954Y911352D01*
X-8394954Y937260D01*
X-8400287Y953007D01*
X-8405368Y963421D01*
X-8415781Y973836D01*
X-8426195Y978915D01*
X-8447024Y978915D01*
X-8585200Y1220215D02*
G01*
X-8512555Y1111250D01*
X-8512555Y1220215D02*
G01*
X-8585200Y1111250D01*
X-8478265Y1220215D02*
G01*
X-8478265Y1111250D01*
X-8871458Y1474215D02*
G01*
X-8881871Y1469136D01*
X-8892286Y1458721D01*
X-8897620Y1448307D01*
X-8902700Y1432560D01*
X-8902700Y1406652D01*
X-8897620Y1391157D01*
X-8892286Y1380744D01*
X-8881871Y1370329D01*
X-8871458Y1365250D01*
X-8850629Y1365250D01*
X-8840470Y1370329D01*
X-8830055Y1380744D01*
X-8824721Y1391157D01*
X-8819642Y1406652D01*
X-8819642Y1432560D01*
X-8824721Y1448307D01*
X-8830055Y1458721D01*
X-8840470Y1469136D01*
X-8850629Y1474215D01*
X-8871458Y1474215D01*
X-8785352Y1474215D02*
G01*
X-8785352Y1365250D01*
X-8785352Y1365250D02*
G01*
X-8722868Y1365250D01*
X-8615934Y1458721D02*
G01*
X-8626347Y1469136D01*
X-8641842Y1474215D01*
X-8662670Y1474215D01*
X-8678163Y1469136D01*
X-8688578Y1458721D01*
X-8688578Y1448307D01*
X-8683497Y1437894D01*
X-8678163Y1432560D01*
X-8667750Y1427479D01*
X-8636762Y1417065D01*
X-8626347Y1411986D01*
X-8621013Y1406652D01*
X-8615934Y1396237D01*
X-8615934Y1380744D01*
X-8626347Y1370329D01*
X-8641842Y1365250D01*
X-8662670Y1365250D01*
X-8678163Y1370329D01*
X-8688578Y1380744D01*
X-8581644Y1474215D02*
G01*
X-8581644Y1365250D01*
X-8581644Y1474215D02*
G01*
X-8545321Y1474215D01*
X-8529574Y1469136D01*
X-8519160Y1458721D01*
X-8514079Y1448307D01*
X-8509000Y1432560D01*
X-8509000Y1406652D01*
X-8514079Y1391157D01*
X-8519160Y1380744D01*
X-8529574Y1370329D01*
X-8545321Y1365250D01*
X-8581644Y1365250D01*
X-8433054Y1474215D02*
G01*
X-8474710Y1365250D01*
X-8433054Y1474215D02*
G01*
X-8391397Y1365250D01*
X-8458962Y1401571D02*
G01*
X-8407145Y1401571D01*
X-8636000Y1728215D02*
G01*
X-8636000Y1619250D01*
X-8570468Y1728215D02*
G01*
X-8580881Y1723136D01*
X-8591295Y1712721D01*
X-8596629Y1702307D01*
X-8601710Y1686560D01*
X-8601710Y1660652D01*
X-8596629Y1645157D01*
X-8591295Y1634744D01*
X-8580881Y1624329D01*
X-8570468Y1619250D01*
X-8549639Y1619250D01*
X-8539479Y1624329D01*
X-8529065Y1634744D01*
X-8523731Y1645157D01*
X-8518652Y1660652D01*
X-8518652Y1686560D01*
X-8523731Y1702307D01*
X-8529065Y1712721D01*
X-8539479Y1723136D01*
X-8549639Y1728215D01*
X-8570468Y1728215D01*
X-8453120Y1728215D02*
G01*
X-8468613Y1723136D01*
X-8479028Y1707387D01*
X-8484362Y1681479D01*
X-8484362Y1665986D01*
X-8479028Y1639823D01*
X-8468613Y1624329D01*
X-8453120Y1619250D01*
X-8442705Y1619250D01*
X-8427212Y1624329D01*
X-8416797Y1639823D01*
X-8411463Y1665986D01*
X-8411463Y1681479D01*
X-8416797Y1707387D01*
X-8427212Y1723136D01*
X-8442705Y1728215D01*
X-8453120Y1728215D01*
X-8915400Y1982215D02*
G01*
X-8915400Y1873250D01*
X-8915400Y1982215D02*
G01*
X-8868663Y1982215D01*
X-8853170Y1977136D01*
X-8847836Y1971802D01*
X-8842755Y1961387D01*
X-8842755Y1950973D01*
X-8847836Y1940560D01*
X-8853170Y1935479D01*
X-8868663Y1930400D01*
X-8915400Y1930400D02*
G01*
X-8868663Y1930400D01*
X-8853170Y1925065D01*
X-8847836Y1919986D01*
X-8842755Y1909571D01*
X-8842755Y1893823D01*
X-8847836Y1883410D01*
X-8853170Y1878329D01*
X-8868663Y1873250D01*
X-8915400Y1873250D01*
X-8771889Y1982215D02*
G01*
X-8771889Y1873250D01*
X-8808465Y1982215D02*
G01*
X-8735568Y1982215D01*
X-8623300Y1956307D02*
G01*
X-8628634Y1966721D01*
X-8639047Y1977136D01*
X-8649462Y1982215D01*
X-8670289Y1982215D01*
X-8680450Y1977136D01*
X-8690863Y1966721D01*
X-8696197Y1956307D01*
X-8701278Y1940560D01*
X-8701278Y1914652D01*
X-8696197Y1899157D01*
X-8690863Y1888744D01*
X-8680450Y1878329D01*
X-8670289Y1873250D01*
X-8649462Y1873250D01*
X-8639047Y1878329D01*
X-8628634Y1888744D01*
X-8623300Y1899157D01*
X-8589010Y1982215D02*
G01*
X-8589010Y1873250D01*
X-8516365Y1982215D02*
G01*
X-8516365Y1873250D01*
X-8589010Y1930400D02*
G01*
X-8516365Y1930400D01*
X-8482076Y1982215D02*
G01*
X-8482076Y1873250D01*
X-8482076Y1982215D02*
G01*
X-8435339Y1982215D01*
X-8419845Y1977136D01*
X-8414512Y1971802D01*
X-8409431Y1961387D01*
X-8409431Y1950973D01*
X-8414512Y1940560D01*
X-8419845Y1935479D01*
X-8435339Y1930400D01*
X-8482076Y1930400D01*
X-8445754Y1930400D02*
G01*
X-8409431Y1873250D01*
X-8871458Y2236215D02*
G01*
X-8881871Y2231136D01*
X-8892286Y2220721D01*
X-8897620Y2210307D01*
X-8902700Y2194560D01*
X-8902700Y2168652D01*
X-8897620Y2153157D01*
X-8892286Y2142744D01*
X-8881871Y2132329D01*
X-8871458Y2127250D01*
X-8850629Y2127250D01*
X-8840470Y2132329D01*
X-8830055Y2142744D01*
X-8824721Y2153157D01*
X-8819642Y2168652D01*
X-8819642Y2194560D01*
X-8824721Y2210307D01*
X-8830055Y2220721D01*
X-8840470Y2231136D01*
X-8850629Y2236215D01*
X-8871458Y2236215D01*
X-8785352Y2236215D02*
G01*
X-8785352Y2127250D01*
X-8785352Y2127250D02*
G01*
X-8722868Y2127250D01*
X-8615934Y2220721D02*
G01*
X-8626347Y2231136D01*
X-8641842Y2236215D01*
X-8662670Y2236215D01*
X-8678163Y2231136D01*
X-8688578Y2220721D01*
X-8688578Y2210307D01*
X-8683497Y2199894D01*
X-8678163Y2194560D01*
X-8667750Y2189479D01*
X-8636762Y2179065D01*
X-8626347Y2173986D01*
X-8621013Y2168652D01*
X-8615934Y2158237D01*
X-8615934Y2142744D01*
X-8626347Y2132329D01*
X-8641842Y2127250D01*
X-8662670Y2127250D01*
X-8678163Y2132329D01*
X-8688578Y2142744D01*
X-8503665Y2210307D02*
G01*
X-8509000Y2220721D01*
X-8519160Y2231136D01*
X-8529574Y2236215D01*
X-8550402Y2236215D01*
X-8560815Y2231136D01*
X-8571229Y2220721D01*
X-8576310Y2210307D01*
X-8581644Y2194560D01*
X-8581644Y2168652D01*
X-8576310Y2153157D01*
X-8571229Y2142744D01*
X-8560815Y2132329D01*
X-8550402Y2127250D01*
X-8529574Y2127250D01*
X-8519160Y2132329D01*
X-8509000Y2142744D01*
X-8503665Y2153157D01*
X-8469376Y2236215D02*
G01*
X-8469376Y2127250D01*
X-8396731Y2236215D02*
G01*
X-8469376Y2163571D01*
X-8443468Y2189479D02*
G01*
X-8396731Y2127250D01*
X-8646921Y2477007D02*
G01*
X-8652255Y2487421D01*
X-8662670Y2497836D01*
X-8672829Y2502915D01*
X-8693658Y2502915D01*
X-8704071Y2497836D01*
X-8714486Y2487421D01*
X-8719820Y2477007D01*
X-8724900Y2461260D01*
X-8724900Y2435352D01*
X-8719820Y2419857D01*
X-8714486Y2409444D01*
X-8704071Y2399029D01*
X-8693658Y2393950D01*
X-8672829Y2393950D01*
X-8662670Y2399029D01*
X-8652255Y2409444D01*
X-8646921Y2419857D01*
X-8646921Y2435352D01*
X-8672829Y2435352D02*
G01*
X-8646921Y2435352D01*
X-8612631Y2502915D02*
G01*
X-8612631Y2393950D01*
X-8612631Y2502915D02*
G01*
X-8539987Y2393950D01*
X-8539987Y2502915D02*
G01*
X-8539987Y2393950D01*
X-8505697Y2502915D02*
G01*
X-8505697Y2393950D01*
X-8505697Y2502915D02*
G01*
X-8469376Y2502915D01*
X-8453628Y2497836D01*
X-8443213Y2487421D01*
X-8438134Y2477007D01*
X-8432800Y2461260D01*
X-8432800Y2435352D01*
X-8438134Y2419857D01*
X-8443213Y2409444D01*
X-8453628Y2399029D01*
X-8469376Y2393950D01*
X-8505697Y2393950D01*
X-8701786Y2769615D02*
G01*
X-8644636Y2769615D01*
X-8675878Y2727960D01*
X-8660129Y2727960D01*
X-8649970Y2722879D01*
X-8644636Y2717800D01*
X-8639555Y2702052D01*
X-8639555Y2691637D01*
X-8644636Y2676144D01*
X-8655050Y2665729D01*
X-8670544Y2660650D01*
X-8686292Y2660650D01*
X-8701786Y2665729D01*
X-8707120Y2670810D01*
X-8712200Y2681223D01*
X-8605265Y2769615D02*
G01*
X-8563610Y2660650D01*
X-8521954Y2769615D02*
G01*
X-8563610Y2660650D01*
X-8477250Y2769615D02*
G01*
X-8420100Y2769615D01*
X-8451342Y2727960D01*
X-8435847Y2727960D01*
X-8425434Y2722879D01*
X-8420100Y2717800D01*
X-8415020Y2702052D01*
X-8415020Y2691637D01*
X-8420100Y2676144D01*
X-8430513Y2665729D01*
X-8446262Y2660650D01*
X-8461755Y2660650D01*
X-8477250Y2665729D01*
X-8482584Y2670810D01*
X-8487663Y2681223D01*
X-952500Y-1893315D02*
G01*
X-952500Y-1815337D01*
X-957579Y-1799844D01*
X-967994Y-1789429D01*
X-983742Y-1784350D01*
X-994155Y-1784350D01*
X-1009650Y-1789429D01*
X-1020063Y-1799844D01*
X-1025144Y-1815337D01*
X-1025144Y-1893315D01*
X-1121918Y-1877821D02*
G01*
X-1116584Y-1888236D01*
X-1101089Y-1893315D01*
X-1090676Y-1893315D01*
X-1075181Y-1888236D01*
X-1064768Y-1872487D01*
X-1059434Y-1846579D01*
X-1059434Y-1820671D01*
X-1064768Y-1799844D01*
X-1075181Y-1789429D01*
X-1090676Y-1784350D01*
X-1096010Y-1784350D01*
X-1111504Y-1789429D01*
X-1121918Y-1799844D01*
X-1126997Y-1815337D01*
X-1126997Y-1820671D01*
X-1121918Y-1836165D01*
X-1111504Y-1846579D01*
X-1096010Y-1851660D01*
X-1090676Y-1851660D01*
X-1075181Y-1846579D01*
X-1064768Y-1836165D01*
X-1059434Y-1820671D01*
X-3276600Y-1271015D02*
G01*
X-3276600Y-1162050D01*
X-3276600Y-1271015D02*
G01*
X-3323336Y-1271015D01*
X-3338829Y-1265936D01*
X-3344163Y-1260602D01*
X-3349244Y-1250187D01*
X-3349244Y-1239773D01*
X-3344163Y-1229360D01*
X-3338829Y-1224279D01*
X-3323336Y-1219200D01*
X-3276600Y-1219200D01*
X-3312921Y-1219200D02*
G01*
X-3349244Y-1162050D01*
X-3446018Y-1271015D02*
G01*
X-3393947Y-1271015D01*
X-3388868Y-1224279D01*
X-3393947Y-1229360D01*
X-3409695Y-1234694D01*
X-3425189Y-1234694D01*
X-3440684Y-1229360D01*
X-3451097Y-1219200D01*
X-3456431Y-1203452D01*
X-3456431Y-1193037D01*
X-3451097Y-1177544D01*
X-3440684Y-1167129D01*
X-3425189Y-1162050D01*
X-3409695Y-1162050D01*
X-3393947Y-1167129D01*
X-3388868Y-1172210D01*
X-3383534Y-1182623D01*
X-3251200Y-608584D02*
G01*
X-3251200Y-717550D01*
X-3251200Y-608584D02*
G01*
X-3204463Y-608584D01*
X-3188970Y-613663D01*
X-3183636Y-618997D01*
X-3178555Y-629412D01*
X-3178555Y-639826D01*
X-3183636Y-650239D01*
X-3188970Y-655320D01*
X-3204463Y-660400D01*
X-3251200Y-660400D01*
X-3214878Y-660400D02*
G01*
X-3178555Y-717550D01*
X-3081781Y-624078D02*
G01*
X-3087115Y-613663D01*
X-3102610Y-608584D01*
X-3113023Y-608584D01*
X-3128518Y-613663D01*
X-3138931Y-629412D01*
X-3144265Y-655320D01*
X-3144265Y-681228D01*
X-3138931Y-702055D01*
X-3128518Y-712470D01*
X-3113023Y-717550D01*
X-3107689Y-717550D01*
X-3092195Y-712470D01*
X-3081781Y-702055D01*
X-3076702Y-686562D01*
X-3076702Y-681228D01*
X-3081781Y-665734D01*
X-3092195Y-655320D01*
X-3107689Y-650239D01*
X-3113023Y-650239D01*
X-3128518Y-655320D01*
X-3138931Y-665734D01*
X-3144265Y-681228D01*
X-5490806Y6503776D02*
G01*
X-5501220Y6498442D01*
X-5511634Y6488028D01*
X-5516714Y6477868D01*
X-5516714Y6457040D01*
X-5511634Y6446626D01*
X-5501220Y6436212D01*
X-5490806Y6430878D01*
X-5475058Y6425798D01*
X-5449150Y6425798D01*
X-5433656Y6430878D01*
X-5423242Y6436212D01*
X-5412828Y6446626D01*
X-5407748Y6457040D01*
X-5407748Y6477868D01*
X-5412828Y6488028D01*
X-5423242Y6498442D01*
X-5433656Y6503776D01*
X-5490806Y6543146D02*
G01*
X-5495886Y6543146D01*
X-5506300Y6548480D01*
X-5511634Y6553560D01*
X-5516714Y6563974D01*
X-5516714Y6584802D01*
X-5511634Y6595216D01*
X-5506300Y6600296D01*
X-5495886Y6605630D01*
X-5485472Y6605630D01*
X-5475058Y6600296D01*
X-5459564Y6589882D01*
X-5407748Y6538066D01*
X-5407748Y6610710D01*
X-7427721Y5385307D02*
G01*
X-7433055Y5395721D01*
X-7443470Y5406136D01*
X-7453629Y5411215D01*
X-7474458Y5411215D01*
X-7484871Y5406136D01*
X-7495286Y5395721D01*
X-7500620Y5385307D01*
X-7505700Y5369560D01*
X-7505700Y5343652D01*
X-7500620Y5328157D01*
X-7495286Y5317744D01*
X-7484871Y5307329D01*
X-7474458Y5302250D01*
X-7453629Y5302250D01*
X-7443470Y5307329D01*
X-7433055Y5317744D01*
X-7427721Y5328157D01*
X-7341615Y5411215D02*
G01*
X-7393431Y5338571D01*
X-7315454Y5338571D01*
X-7341615Y5411215D02*
G01*
X-7341615Y5302250D01*
X-7393559Y4244847D02*
G01*
X-7398893Y4255262D01*
X-7409306Y4265676D01*
X-7419467Y4270755D01*
X-7440295Y4270755D01*
X-7450709Y4265676D01*
X-7461122Y4255262D01*
X-7466456Y4244847D01*
X-7471537Y4229100D01*
X-7471537Y4203192D01*
X-7466456Y4187697D01*
X-7461122Y4177284D01*
X-7450709Y4166870D01*
X-7440295Y4161789D01*
X-7419467Y4161789D01*
X-7409306Y4166870D01*
X-7398893Y4177284D01*
X-7393559Y4187697D01*
X-7297038Y4270755D02*
G01*
X-7348854Y4270755D01*
X-7354188Y4224020D01*
X-7348854Y4229100D01*
X-7333361Y4234434D01*
X-7317867Y4234434D01*
X-7302119Y4229100D01*
X-7291704Y4218939D01*
X-7286625Y4203192D01*
X-7286625Y4192778D01*
X-7291704Y4177284D01*
X-7302119Y4166870D01*
X-7317867Y4161789D01*
X-7333361Y4161789D01*
X-7348854Y4166870D01*
X-7354188Y4171950D01*
X-7359269Y4182363D01*
X-6092291Y5676392D02*
G01*
X-6086957Y5665978D01*
X-6076543Y5655563D01*
X-6066383Y5650484D01*
X-6045555Y5650484D01*
X-6035141Y5655563D01*
X-6024727Y5665978D01*
X-6019393Y5676392D01*
X-6014313Y5692139D01*
X-6014313Y5718047D01*
X-6019393Y5733542D01*
X-6024727Y5743955D01*
X-6035141Y5754370D01*
X-6045555Y5759450D01*
X-6066383Y5759450D01*
X-6076543Y5754370D01*
X-6086957Y5743955D01*
X-6092291Y5733542D01*
X-6188811Y5665978D02*
G01*
X-6183731Y5655563D01*
X-6167983Y5650484D01*
X-6157823Y5650484D01*
X-6142075Y5655563D01*
X-6131661Y5671312D01*
X-6126581Y5697220D01*
X-6126581Y5723128D01*
X-6131661Y5743955D01*
X-6142075Y5754370D01*
X-6157823Y5759450D01*
X-6162903Y5759450D01*
X-6178397Y5754370D01*
X-6188811Y5743955D01*
X-6194145Y5728462D01*
X-6194145Y5723128D01*
X-6188811Y5707634D01*
X-6178397Y5697220D01*
X-6162903Y5692139D01*
X-6157823Y5692139D01*
X-6142075Y5697220D01*
X-6131661Y5707634D01*
X-6126581Y5723128D01*
X-7140447Y4557140D02*
G01*
X-7150862Y4551806D01*
X-7161276Y4541393D01*
X-7166355Y4531232D01*
X-7166355Y4510404D01*
X-7161276Y4499990D01*
X-7150862Y4489577D01*
X-7140447Y4484243D01*
X-7124700Y4479162D01*
X-7098792Y4479162D01*
X-7083297Y4484243D01*
X-7072884Y4489577D01*
X-7062470Y4499990D01*
X-7057389Y4510404D01*
X-7057389Y4531232D01*
X-7062470Y4541393D01*
X-7072884Y4551806D01*
X-7083297Y4557140D01*
X-7166355Y4664075D02*
G01*
X-7057389Y4612259D01*
X-7166355Y4591430D02*
G01*
X-7166355Y4664075D01*
X-6921500Y4685284D02*
G01*
X-6921500Y4794250D01*
X-6921500Y4794250D02*
G01*
X-6983729Y4794250D01*
X-7023354Y4711192D02*
G01*
X-7023354Y4706112D01*
X-7028434Y4695697D01*
X-7033768Y4690363D01*
X-7044181Y4685284D01*
X-7065010Y4685284D01*
X-7075170Y4690363D01*
X-7080504Y4695697D01*
X-7085584Y4706112D01*
X-7085584Y4716526D01*
X-7080504Y4726939D01*
X-7070089Y4742434D01*
X-7018020Y4794250D01*
X-7090918Y4794250D01*
X-7454900Y4189984D02*
G01*
X-7454900Y4298950D01*
X-7454900Y4298950D02*
G01*
X-7517129Y4298950D01*
X-7551420Y4189984D02*
G01*
X-7551420Y4298950D01*
X-7551420Y4189984D02*
G01*
X-7618984Y4189984D01*
X-7551420Y4241800D02*
G01*
X-7593076Y4241800D01*
X-7551420Y4298950D02*
G01*
X-7618984Y4298950D01*
X-7653273Y4189984D02*
G01*
X-7653273Y4298950D01*
X-7653273Y4189984D02*
G01*
X-7689850Y4189984D01*
X-7705344Y4195063D01*
X-7715758Y4205478D01*
X-7720837Y4215892D01*
X-7726171Y4231639D01*
X-7726171Y4257547D01*
X-7720837Y4273042D01*
X-7715758Y4283455D01*
X-7705344Y4293870D01*
X-7689850Y4298950D01*
X-7653273Y4298950D01*
X-7770876Y4189984D02*
G01*
X-7828026Y4189984D01*
X-7796784Y4231639D01*
X-7812278Y4231639D01*
X-7822692Y4236720D01*
X-7828026Y4241800D01*
X-7833105Y4257547D01*
X-7833105Y4267962D01*
X-7828026Y4283455D01*
X-7817612Y4293870D01*
X-7801863Y4298950D01*
X-7786370Y4298950D01*
X-7770876Y4293870D01*
X-7765542Y4288789D01*
X-7760462Y4278376D01*
X-6742684Y3352800D02*
G01*
X-6851650Y3352800D01*
X-6742684Y3352800D02*
G01*
X-6851650Y3280155D01*
X-6742684Y3280155D02*
G01*
X-6851650Y3280155D01*
X-6742684Y3214623D02*
G01*
X-6747763Y3225037D01*
X-6758178Y3235452D01*
X-6768592Y3240531D01*
X-6784339Y3245865D01*
X-6810247Y3245865D01*
X-6825742Y3240531D01*
X-6836155Y3235452D01*
X-6846570Y3225037D01*
X-6851650Y3214623D01*
X-6851650Y3193795D01*
X-6846570Y3183381D01*
X-6836155Y3172968D01*
X-6825742Y3167887D01*
X-6810247Y3162554D01*
X-6784339Y3162554D01*
X-6768592Y3167887D01*
X-6758178Y3172968D01*
X-6747763Y3183381D01*
X-6742684Y3193795D01*
X-6742684Y3214623D01*
X-6763512Y3128263D02*
G01*
X-6758178Y3117850D01*
X-6742684Y3102355D01*
X-6851650Y3102355D01*
X-4636515Y6451600D02*
G01*
X-4527550Y6451600D01*
X-4636515Y6451600D02*
G01*
X-4636515Y6498336D01*
X-4631436Y6513829D01*
X-4626102Y6519163D01*
X-4615687Y6524244D01*
X-4605273Y6524244D01*
X-4594860Y6519163D01*
X-4589779Y6513829D01*
X-4584700Y6498336D01*
X-4584700Y6451600D01*
X-4584700Y6487921D02*
G01*
X-4527550Y6524244D01*
X-4636515Y6568947D02*
G01*
X-4636515Y6626097D01*
X-4594860Y6595110D01*
X-4594860Y6610604D01*
X-4589779Y6621018D01*
X-4584700Y6626097D01*
X-4568952Y6631431D01*
X-4558537Y6631431D01*
X-4543044Y6626097D01*
X-4532629Y6615684D01*
X-4527550Y6600189D01*
X-4527550Y6584695D01*
X-4532629Y6568947D01*
X-4537710Y6563868D01*
X-4548123Y6558534D01*
X-7442200Y2970784D02*
G01*
X-7442200Y3079750D01*
X-7442200Y2970784D02*
G01*
X-7488936Y2970784D01*
X-7504429Y2975863D01*
X-7509763Y2981197D01*
X-7514844Y2991612D01*
X-7514844Y3002026D01*
X-7509763Y3012439D01*
X-7504429Y3017520D01*
X-7488936Y3022600D01*
X-7442200Y3022600D01*
X-7478521Y3022600D02*
G01*
X-7514844Y3079750D01*
X-7601204Y2970784D02*
G01*
X-7549134Y3043428D01*
X-7627112Y3043428D01*
X-7601204Y2970784D02*
G01*
X-7601204Y3079750D01*
X-7442200Y3861815D02*
G01*
X-7442200Y3752850D01*
X-7442200Y3861815D02*
G01*
X-7395463Y3861815D01*
X-7379970Y3856736D01*
X-7374636Y3851402D01*
X-7369555Y3840987D01*
X-7369555Y3830573D01*
X-7374636Y3820160D01*
X-7379970Y3815079D01*
X-7395463Y3810000D01*
X-7442200Y3810000D01*
X-7405878Y3810000D02*
G01*
X-7369555Y3752850D01*
X-7329931Y3835907D02*
G01*
X-7329931Y3840987D01*
X-7324852Y3851402D01*
X-7319518Y3856736D01*
X-7309104Y3861815D01*
X-7288529Y3861815D01*
X-7278115Y3856736D01*
X-7272781Y3851402D01*
X-7267702Y3840987D01*
X-7267702Y3830573D01*
X-7272781Y3820160D01*
X-7283195Y3804665D01*
X-7335265Y3752850D01*
X-7262368Y3752850D01*
X-7222997Y3835907D02*
G01*
X-7222997Y3840987D01*
X-7217663Y3851402D01*
X-7212584Y3856736D01*
X-7202170Y3861815D01*
X-7181342Y3861815D01*
X-7170928Y3856736D01*
X-7165847Y3851402D01*
X-7160513Y3840987D01*
X-7160513Y3830573D01*
X-7165847Y3820160D01*
X-7176262Y3804665D01*
X-7228078Y3752850D01*
X-7155434Y3752850D01*
X-6768084Y3987800D02*
G01*
X-6877050Y3987800D01*
X-6768084Y3987800D02*
G01*
X-6768084Y3941063D01*
X-6773163Y3925570D01*
X-6778497Y3920236D01*
X-6788912Y3915155D01*
X-6799326Y3915155D01*
X-6809739Y3920236D01*
X-6814820Y3925570D01*
X-6819900Y3941063D01*
X-6819900Y3987800D01*
X-6819900Y3951478D02*
G01*
X-6877050Y3915155D01*
X-6793992Y3875531D02*
G01*
X-6788912Y3875531D01*
X-6778497Y3870452D01*
X-6773163Y3865118D01*
X-6768084Y3854704D01*
X-6768084Y3834129D01*
X-6773163Y3823715D01*
X-6778497Y3818381D01*
X-6788912Y3813302D01*
X-6799326Y3813302D01*
X-6809739Y3818381D01*
X-6825234Y3828795D01*
X-6877050Y3880865D01*
X-6877050Y3807968D01*
X-6768084Y3763263D02*
G01*
X-6768084Y3706113D01*
X-6809739Y3737355D01*
X-6809739Y3721862D01*
X-6814820Y3711447D01*
X-6819900Y3706113D01*
X-6835647Y3701034D01*
X-6846062Y3701034D01*
X-6861555Y3706113D01*
X-6871970Y3716528D01*
X-6877050Y3732276D01*
X-6877050Y3747770D01*
X-6871970Y3763263D01*
X-6866889Y3768597D01*
X-6856476Y3773678D01*
X-7251700Y6401815D02*
G01*
X-7251700Y6323837D01*
X-7246620Y6308344D01*
X-7236205Y6297929D01*
X-7220458Y6292850D01*
X-7210044Y6292850D01*
X-7194550Y6297929D01*
X-7184136Y6308344D01*
X-7179055Y6323837D01*
X-7179055Y6401815D01*
X-7134352Y6401815D02*
G01*
X-7077202Y6401815D01*
X-7108189Y6360160D01*
X-7092695Y6360160D01*
X-7082281Y6355079D01*
X-7077202Y6350000D01*
X-7071868Y6334252D01*
X-7071868Y6323837D01*
X-7077202Y6308344D01*
X-7087615Y6297929D01*
X-7103110Y6292850D01*
X-7118604Y6292850D01*
X-7134352Y6297929D01*
X-7139431Y6303010D01*
X-7144765Y6313423D01*
X-3297852Y2645793D02*
G01*
X-3297852Y2567815D01*
X-3292772Y2552321D01*
X-3282358Y2541907D01*
X-3266610Y2536827D01*
X-3256196Y2536827D01*
X-3240702Y2541907D01*
X-3230288Y2552321D01*
X-3225208Y2567815D01*
X-3225208Y2645793D01*
X-3128434Y2645793D02*
G01*
X-3180504Y2645793D01*
X-3185584Y2599057D01*
X-3180504Y2604137D01*
X-3164756Y2609471D01*
X-3149262Y2609471D01*
X-3133768Y2604137D01*
X-3123354Y2593977D01*
X-3118020Y2578229D01*
X-3118020Y2567815D01*
X-3123354Y2552321D01*
X-3133768Y2541907D01*
X-3149262Y2536827D01*
X-3164756Y2536827D01*
X-3180504Y2541907D01*
X-3185584Y2546987D01*
X-3190918Y2557401D01*
X-5517786Y2123701D02*
G01*
X-5408566Y2123701D01*
X-5408566Y2123701D02*
G01*
X-5408566Y2185931D01*
X-5517786Y2220221D02*
G01*
X-5408566Y2220221D01*
X-5517786Y2220221D02*
G01*
X-5517786Y2287785D01*
X-5465716Y2220221D02*
G01*
X-5465716Y2261877D01*
X-5408566Y2220221D02*
G01*
X-5408566Y2287785D01*
X-5517786Y2322075D02*
G01*
X-5408566Y2322075D01*
X-5517786Y2322075D02*
G01*
X-5517786Y2358397D01*
X-5512452Y2374145D01*
X-5502038Y2384559D01*
X-5491878Y2389639D01*
X-5476130Y2394719D01*
X-5450222Y2394719D01*
X-5434728Y2389639D01*
X-5424314Y2384559D01*
X-5413900Y2374145D01*
X-5408566Y2358397D01*
X-5408566Y2322075D01*
X-5496958Y2429009D02*
G01*
X-5502038Y2439423D01*
X-5517786Y2455171D01*
X-5408566Y2455171D01*
X-7835900Y801115D02*
G01*
X-7835900Y692150D01*
X-7835900Y692150D02*
G01*
X-7773670Y692150D01*
X-7739379Y801115D02*
G01*
X-7739379Y692150D01*
X-7739379Y801115D02*
G01*
X-7671815Y801115D01*
X-7739379Y749300D02*
G01*
X-7697723Y749300D01*
X-7739379Y692150D02*
G01*
X-7671815Y692150D01*
X-7637526Y801115D02*
G01*
X-7637526Y692150D01*
X-7637526Y801115D02*
G01*
X-7600950Y801115D01*
X-7585455Y796036D01*
X-7575042Y785621D01*
X-7569962Y775207D01*
X-7564628Y759460D01*
X-7564628Y733552D01*
X-7569962Y718057D01*
X-7575042Y707644D01*
X-7585455Y697229D01*
X-7600950Y692150D01*
X-7637526Y692150D01*
X-7530337Y780287D02*
G01*
X-7519923Y785621D01*
X-7504429Y801115D01*
X-7504429Y692150D01*
X-7470139Y801115D02*
G01*
X-7470139Y692150D01*
X-7470139Y801115D02*
G01*
X-7423404Y801115D01*
X-7407910Y796036D01*
X-7402576Y790702D01*
X-7397495Y780287D01*
X-7397495Y769873D01*
X-7402576Y759460D01*
X-7407910Y754379D01*
X-7423404Y749300D01*
X-7470139Y749300D01*
X-7433818Y749300D02*
G01*
X-7397495Y692150D01*
X-7363205Y801115D02*
G01*
X-7363205Y692150D01*
X-7363205Y801115D02*
G01*
X-7295642Y801115D01*
X-7363205Y749300D02*
G01*
X-7321550Y749300D01*
X-7363205Y692150D02*
G01*
X-7295642Y692150D01*
X-7261352Y801115D02*
G01*
X-7261352Y692150D01*
X-7261352Y801115D02*
G01*
X-7225029Y801115D01*
X-7209281Y796036D01*
X-7198868Y785621D01*
X-7193787Y775207D01*
X-7188454Y759460D01*
X-7188454Y733552D01*
X-7193787Y718057D01*
X-7198868Y707644D01*
X-7209281Y697229D01*
X-7225029Y692150D01*
X-7261352Y692150D01*
X-6477000Y1309115D02*
G01*
X-6477000Y1200150D01*
X-6477000Y1200150D02*
G01*
X-6414770Y1200150D01*
X-6380479Y1309115D02*
G01*
X-6380479Y1200150D01*
X-6380479Y1309115D02*
G01*
X-6312915Y1309115D01*
X-6380479Y1257300D02*
G01*
X-6338823Y1257300D01*
X-6380479Y1200150D02*
G01*
X-6312915Y1200150D01*
X-6278626Y1309115D02*
G01*
X-6278626Y1200150D01*
X-6278626Y1309115D02*
G01*
X-6242050Y1309115D01*
X-6226555Y1304036D01*
X-6216142Y1293621D01*
X-6211062Y1283207D01*
X-6205728Y1267460D01*
X-6205728Y1241552D01*
X-6211062Y1226057D01*
X-6216142Y1215644D01*
X-6226555Y1205229D01*
X-6242050Y1200150D01*
X-6278626Y1200150D01*
X-6166357Y1283207D02*
G01*
X-6166357Y1288287D01*
X-6161023Y1298702D01*
X-6155944Y1304036D01*
X-6145529Y1309115D01*
X-6124702Y1309115D01*
X-6114287Y1304036D01*
X-6109207Y1298702D01*
X-6103873Y1288287D01*
X-6103873Y1277873D01*
X-6109207Y1267460D01*
X-6119621Y1251965D01*
X-6171437Y1200150D01*
X-6098794Y1200150D01*
X-5986526Y1283207D02*
G01*
X-5991860Y1293621D01*
X-6002020Y1304036D01*
X-6012434Y1309115D01*
X-6033262Y1309115D01*
X-6043676Y1304036D01*
X-6054089Y1293621D01*
X-6059170Y1283207D01*
X-6064504Y1267460D01*
X-6064504Y1241552D01*
X-6059170Y1226057D01*
X-6054089Y1215644D01*
X-6043676Y1205229D01*
X-6033262Y1200150D01*
X-6012434Y1200150D01*
X-6002020Y1205229D01*
X-5991860Y1215644D01*
X-5986526Y1226057D01*
X-5986526Y1241552D01*
X-6012434Y1241552D02*
G01*
X-5986526Y1241552D01*
X-5952236Y1309115D02*
G01*
X-5952236Y1200150D01*
X-5952236Y1309115D02*
G01*
X-5905500Y1309115D01*
X-5890005Y1304036D01*
X-5884671Y1298702D01*
X-5879592Y1288287D01*
X-5879592Y1277873D01*
X-5884671Y1267460D01*
X-5890005Y1262379D01*
X-5905500Y1257300D01*
X-5952236Y1257300D01*
X-5915913Y1257300D02*
G01*
X-5879592Y1200150D01*
X-5845302Y1309115D02*
G01*
X-5845302Y1200150D01*
X-5845302Y1309115D02*
G01*
X-5777737Y1309115D01*
X-5845302Y1257300D02*
G01*
X-5803645Y1257300D01*
X-5845302Y1200150D02*
G01*
X-5777737Y1200150D01*
X-5743447Y1309115D02*
G01*
X-5743447Y1200150D01*
X-5743447Y1309115D02*
G01*
X-5675884Y1309115D01*
X-5743447Y1257300D02*
G01*
X-5701792Y1257300D01*
X-5743447Y1200150D02*
G01*
X-5675884Y1200150D01*
X-5641594Y1309115D02*
G01*
X-5641594Y1200150D01*
X-5641594Y1309115D02*
G01*
X-5568950Y1200150D01*
X-5568950Y1309115D02*
G01*
X-5568950Y1200150D01*
X-2616200Y2985515D02*
G01*
X-2616200Y2876550D01*
X-2616200Y2985515D02*
G01*
X-2569463Y2985515D01*
X-2553970Y2980436D01*
X-2548636Y2975102D01*
X-2543555Y2964687D01*
X-2543555Y2954273D01*
X-2548636Y2943860D01*
X-2553970Y2938779D01*
X-2569463Y2933700D01*
X-2616200Y2933700D02*
G01*
X-2569463Y2933700D01*
X-2553970Y2928365D01*
X-2548636Y2923286D01*
X-2543555Y2912871D01*
X-2543555Y2897123D01*
X-2548636Y2886710D01*
X-2553970Y2881629D01*
X-2569463Y2876550D01*
X-2616200Y2876550D01*
X-2478023Y2985515D02*
G01*
X-2488437Y2980436D01*
X-2498852Y2970021D01*
X-2503931Y2959607D01*
X-2509265Y2943860D01*
X-2509265Y2917952D01*
X-2503931Y2902457D01*
X-2498852Y2892044D01*
X-2488437Y2881629D01*
X-2478023Y2876550D01*
X-2457195Y2876550D01*
X-2446781Y2881629D01*
X-2436368Y2892044D01*
X-2431287Y2902457D01*
X-2425954Y2917952D01*
X-2425954Y2943860D01*
X-2431287Y2959607D01*
X-2436368Y2970021D01*
X-2446781Y2980436D01*
X-2457195Y2985515D01*
X-2478023Y2985515D01*
X-2360676Y2985515D02*
G01*
X-2371089Y2980436D01*
X-2381250Y2970021D01*
X-2386584Y2959607D01*
X-2391663Y2943860D01*
X-2391663Y2917952D01*
X-2386584Y2902457D01*
X-2381250Y2892044D01*
X-2371089Y2881629D01*
X-2360676Y2876550D01*
X-2339847Y2876550D01*
X-2329434Y2881629D01*
X-2319020Y2892044D01*
X-2313939Y2902457D01*
X-2308605Y2917952D01*
X-2308605Y2943860D01*
X-2313939Y2959607D01*
X-2319020Y2970021D01*
X-2329434Y2980436D01*
X-2339847Y2985515D01*
X-2360676Y2985515D01*
X-2237994Y2985515D02*
G01*
X-2237994Y2876550D01*
X-2274315Y2985515D02*
G01*
X-2201671Y2985515D01*
X-2167381Y2964687D02*
G01*
X-2156968Y2970021D01*
X-2141220Y2985515D01*
X-2141220Y2876550D01*
X-8394700Y3023615D02*
G01*
X-8394700Y2914650D01*
X-8394700Y3023615D02*
G01*
X-8347963Y3023615D01*
X-8332470Y3018536D01*
X-8327136Y3013202D01*
X-8322055Y3002787D01*
X-8322055Y2992373D01*
X-8327136Y2981960D01*
X-8332470Y2976879D01*
X-8347963Y2971800D01*
X-8394700Y2971800D01*
X-8358378Y2971800D02*
G01*
X-8322055Y2914650D01*
X-8214868Y3008121D02*
G01*
X-8225281Y3018536D01*
X-8241029Y3023615D01*
X-8261604Y3023615D01*
X-8277352Y3018536D01*
X-8287765Y3008121D01*
X-8287765Y2997707D01*
X-8282431Y2987294D01*
X-8277352Y2981960D01*
X-8266937Y2976879D01*
X-8235695Y2966465D01*
X-8225281Y2961386D01*
X-8220202Y2956052D01*
X-8214868Y2945637D01*
X-8214868Y2930144D01*
X-8225281Y2919729D01*
X-8241029Y2914650D01*
X-8261604Y2914650D01*
X-8277352Y2919729D01*
X-8287765Y2930144D01*
X-8144255Y3023615D02*
G01*
X-8144255Y2914650D01*
X-8180578Y3023615D02*
G01*
X-8107934Y3023615D01*
X-8073644Y3002787D02*
G01*
X-8063229Y3008121D01*
X-8047736Y3023615D01*
X-8047736Y2914650D01*
X-6881621Y1791207D02*
G01*
X-6886955Y1801621D01*
X-6897370Y1812036D01*
X-6907529Y1817115D01*
X-6928358Y1817115D01*
X-6938771Y1812036D01*
X-6949186Y1801621D01*
X-6954520Y1791207D01*
X-6959600Y1775460D01*
X-6959600Y1749552D01*
X-6954520Y1734057D01*
X-6949186Y1723644D01*
X-6938771Y1713229D01*
X-6928358Y1708150D01*
X-6907529Y1708150D01*
X-6897370Y1713229D01*
X-6886955Y1723644D01*
X-6881621Y1734057D01*
X-6847331Y1796287D02*
G01*
X-6836918Y1801621D01*
X-6821423Y1817115D01*
X-6821423Y1708150D01*
X-6297421Y1943607D02*
G01*
X-6302755Y1954021D01*
X-6313170Y1964436D01*
X-6323329Y1969515D01*
X-6344157Y1969515D01*
X-6354571Y1964436D01*
X-6364986Y1954021D01*
X-6370320Y1943607D01*
X-6375400Y1927860D01*
X-6375400Y1901952D01*
X-6370320Y1886457D01*
X-6364986Y1876044D01*
X-6354571Y1865629D01*
X-6344157Y1860550D01*
X-6323329Y1860550D01*
X-6313170Y1865629D01*
X-6302755Y1876044D01*
X-6297421Y1886457D01*
X-6252718Y1969515D02*
G01*
X-6195568Y1969515D01*
X-6226810Y1927860D01*
X-6211315Y1927860D01*
X-6200902Y1922779D01*
X-6195568Y1917700D01*
X-6190487Y1901952D01*
X-6190487Y1891537D01*
X-6195568Y1876044D01*
X-6205981Y1865629D01*
X-6221729Y1860550D01*
X-6237223Y1860550D01*
X-6252718Y1865629D01*
X-6258052Y1870710D01*
X-6263131Y1881123D01*
X-7542021Y1803907D02*
G01*
X-7547355Y1814321D01*
X-7557770Y1824736D01*
X-7567929Y1829815D01*
X-7588758Y1829815D01*
X-7599171Y1824736D01*
X-7609586Y1814321D01*
X-7614920Y1803907D01*
X-7620000Y1788160D01*
X-7620000Y1762252D01*
X-7614920Y1746757D01*
X-7609586Y1736344D01*
X-7599171Y1725929D01*
X-7588758Y1720850D01*
X-7567929Y1720850D01*
X-7557770Y1725929D01*
X-7547355Y1736344D01*
X-7542021Y1746757D01*
X-7502652Y1803907D02*
G01*
X-7502652Y1808987D01*
X-7497318Y1819402D01*
X-7492237Y1824736D01*
X-7481823Y1829815D01*
X-7460995Y1829815D01*
X-7450581Y1824736D01*
X-7445502Y1819402D01*
X-7440168Y1808987D01*
X-7440168Y1798573D01*
X-7445502Y1788160D01*
X-7455915Y1772665D01*
X-7507731Y1720850D01*
X-7435087Y1720850D01*
X-7400797Y1808987D02*
G01*
X-7390384Y1814321D01*
X-7374889Y1829815D01*
X-7374889Y1720850D01*
X-6322821Y2248407D02*
G01*
X-6328155Y2258821D01*
X-6338570Y2269236D01*
X-6348729Y2274315D01*
X-6369557Y2274315D01*
X-6379971Y2269236D01*
X-6390386Y2258821D01*
X-6395720Y2248407D01*
X-6400800Y2232660D01*
X-6400800Y2206752D01*
X-6395720Y2191257D01*
X-6390386Y2180844D01*
X-6379971Y2170429D01*
X-6369557Y2165350D01*
X-6348729Y2165350D01*
X-6338570Y2170429D01*
X-6328155Y2180844D01*
X-6322821Y2191257D01*
X-6283452Y2248407D02*
G01*
X-6283452Y2253487D01*
X-6278118Y2263902D01*
X-6273037Y2269236D01*
X-6262623Y2274315D01*
X-6241795Y2274315D01*
X-6231381Y2269236D01*
X-6226302Y2263902D01*
X-6220968Y2253487D01*
X-6220968Y2243073D01*
X-6226302Y2232660D01*
X-6236715Y2217165D01*
X-6288531Y2165350D01*
X-6215887Y2165350D01*
X-6176263Y2248407D02*
G01*
X-6176263Y2253487D01*
X-6171184Y2263902D01*
X-6165850Y2269236D01*
X-6155689Y2274315D01*
X-6134862Y2274315D01*
X-6124447Y2269236D01*
X-6119113Y2263902D01*
X-6114034Y2253487D01*
X-6114034Y2243073D01*
X-6119113Y2232660D01*
X-6129528Y2217165D01*
X-6181597Y2165350D01*
X-6108700Y2165350D01*
X-6957821Y1486407D02*
G01*
X-6963155Y1496821D01*
X-6973570Y1507236D01*
X-6983729Y1512315D01*
X-7004558Y1512315D01*
X-7014971Y1507236D01*
X-7025386Y1496821D01*
X-7030720Y1486407D01*
X-7035800Y1470660D01*
X-7035800Y1444752D01*
X-7030720Y1429257D01*
X-7025386Y1418844D01*
X-7014971Y1408429D01*
X-7004558Y1403350D01*
X-6983729Y1403350D01*
X-6973570Y1408429D01*
X-6963155Y1418844D01*
X-6957821Y1429257D01*
X-6923531Y1491487D02*
G01*
X-6913118Y1496821D01*
X-6897623Y1512315D01*
X-6897623Y1403350D01*
X-6790689Y1512315D02*
G01*
X-6842505Y1403350D01*
X-6863334Y1512315D02*
G01*
X-6790689Y1512315D01*
X-7567421Y152907D02*
G01*
X-7572755Y163321D01*
X-7583170Y173736D01*
X-7593329Y178815D01*
X-7614158Y178815D01*
X-7624571Y173736D01*
X-7634986Y163321D01*
X-7640320Y152907D01*
X-7645400Y137160D01*
X-7645400Y111252D01*
X-7640320Y95757D01*
X-7634986Y85344D01*
X-7624571Y74929D01*
X-7614158Y69850D01*
X-7593329Y69850D01*
X-7583170Y74929D01*
X-7572755Y85344D01*
X-7567421Y95757D01*
X-7533131Y157987D02*
G01*
X-7522718Y163321D01*
X-7507223Y178815D01*
X-7507223Y69850D01*
X-7447026Y178815D02*
G01*
X-7462520Y173736D01*
X-7467600Y163321D01*
X-7467600Y152907D01*
X-7462520Y142494D01*
X-7452105Y137160D01*
X-7431278Y132079D01*
X-7415784Y127000D01*
X-7405370Y116586D01*
X-7400289Y106171D01*
X-7400289Y90423D01*
X-7405370Y80010D01*
X-7410450Y74929D01*
X-7426197Y69850D01*
X-7447026Y69850D01*
X-7462520Y74929D01*
X-7467600Y80010D01*
X-7472934Y90423D01*
X-7472934Y106171D01*
X-7467600Y116586D01*
X-7457439Y127000D01*
X-7441692Y132079D01*
X-7420863Y137160D01*
X-7410450Y142494D01*
X-7405370Y152907D01*
X-7405370Y163321D01*
X-7410450Y173736D01*
X-7426197Y178815D01*
X-7447026Y178815D01*
X-6297421Y2438907D02*
G01*
X-6302755Y2449321D01*
X-6313170Y2459736D01*
X-6323329Y2464815D01*
X-6344157Y2464815D01*
X-6354571Y2459736D01*
X-6364986Y2449321D01*
X-6370320Y2438907D01*
X-6375400Y2423160D01*
X-6375400Y2397252D01*
X-6370320Y2381757D01*
X-6364986Y2371344D01*
X-6354571Y2360929D01*
X-6344157Y2355850D01*
X-6323329Y2355850D01*
X-6313170Y2360929D01*
X-6302755Y2371344D01*
X-6297421Y2381757D01*
X-6258052Y2438907D02*
G01*
X-6258052Y2443987D01*
X-6252718Y2454402D01*
X-6247637Y2459736D01*
X-6237223Y2464815D01*
X-6216395Y2464815D01*
X-6205981Y2459736D01*
X-6200902Y2454402D01*
X-6195568Y2443987D01*
X-6195568Y2433573D01*
X-6200902Y2423160D01*
X-6211315Y2407665D01*
X-6263131Y2355850D01*
X-6190487Y2355850D01*
X-6145784Y2464815D02*
G01*
X-6088634Y2464815D01*
X-6119876Y2423160D01*
X-6104128Y2423160D01*
X-6093713Y2418079D01*
X-6088634Y2413000D01*
X-6083300Y2397252D01*
X-6083300Y2386837D01*
X-6088634Y2371344D01*
X-6099047Y2360929D01*
X-6114542Y2355850D01*
X-6130289Y2355850D01*
X-6145784Y2360929D01*
X-6150863Y2366010D01*
X-6156197Y2376423D01*
X-8050021Y-2260092D02*
G01*
X-8055355Y-2249678D01*
X-8065770Y-2239263D01*
X-8075929Y-2234184D01*
X-8096758Y-2234184D01*
X-8107171Y-2239263D01*
X-8117586Y-2249678D01*
X-8122920Y-2260092D01*
X-8128000Y-2275839D01*
X-8128000Y-2301747D01*
X-8122920Y-2317242D01*
X-8117586Y-2327655D01*
X-8107171Y-2338070D01*
X-8096758Y-2343150D01*
X-8075929Y-2343150D01*
X-8065770Y-2338070D01*
X-8055355Y-2327655D01*
X-8050021Y-2317242D01*
X-8015731Y-2234184D02*
G01*
X-8015731Y-2343150D01*
X-8015731Y-2234184D02*
G01*
X-7943087Y-2343150D01*
X-7943087Y-2234184D02*
G01*
X-7943087Y-2343150D01*
X-7908797Y-2255012D02*
G01*
X-7898384Y-2249678D01*
X-7882889Y-2234184D01*
X-7882889Y-2343150D01*
X-3503421Y-2260092D02*
G01*
X-3508755Y-2249678D01*
X-3519170Y-2239263D01*
X-3529329Y-2234184D01*
X-3550157Y-2234184D01*
X-3560571Y-2239263D01*
X-3570986Y-2249678D01*
X-3576320Y-2260092D01*
X-3581400Y-2275839D01*
X-3581400Y-2301747D01*
X-3576320Y-2317242D01*
X-3570986Y-2327655D01*
X-3560571Y-2338070D01*
X-3550157Y-2343150D01*
X-3529329Y-2343150D01*
X-3519170Y-2338070D01*
X-3508755Y-2327655D01*
X-3503421Y-2317242D01*
X-3469131Y-2234184D02*
G01*
X-3469131Y-2343150D01*
X-3469131Y-2234184D02*
G01*
X-3396487Y-2343150D01*
X-3396487Y-2234184D02*
G01*
X-3396487Y-2343150D01*
X-3356863Y-2260092D02*
G01*
X-3356863Y-2255012D01*
X-3351784Y-2244597D01*
X-3346450Y-2239263D01*
X-3336289Y-2234184D01*
X-3315462Y-2234184D01*
X-3305047Y-2239263D01*
X-3299713Y-2244597D01*
X-3294634Y-2255012D01*
X-3294634Y-2265426D01*
X-3299713Y-2275839D01*
X-3310128Y-2291334D01*
X-3362197Y-2343150D01*
X-3289300Y-2343150D01*
X-2258821Y6172707D02*
G01*
X-2264155Y6183121D01*
X-2274570Y6193536D01*
X-2284729Y6198615D01*
X-2305557Y6198615D01*
X-2315971Y6193536D01*
X-2326386Y6183121D01*
X-2331720Y6172707D01*
X-2336800Y6156960D01*
X-2336800Y6131052D01*
X-2331720Y6115557D01*
X-2326386Y6105144D01*
X-2315971Y6094729D01*
X-2305557Y6089650D01*
X-2284729Y6089650D01*
X-2274570Y6094729D01*
X-2264155Y6105144D01*
X-2258821Y6115557D01*
X-2224531Y6198615D02*
G01*
X-2224531Y6089650D01*
X-2224531Y6198615D02*
G01*
X-2151887Y6089650D01*
X-2151887Y6198615D02*
G01*
X-2151887Y6089650D01*
X-2065528Y6198615D02*
G01*
X-2117597Y6125971D01*
X-2039620Y6125971D01*
X-2065528Y6198615D02*
G01*
X-2065528Y6089650D01*
X-4320880Y-2367117D02*
G01*
X-4315546Y-2377531D01*
X-4305132Y-2387945D01*
X-4294972Y-2393025D01*
X-4274144Y-2393025D01*
X-4263730Y-2387945D01*
X-4253316Y-2377531D01*
X-4247982Y-2367117D01*
X-4242902Y-2351369D01*
X-4242902Y-2325461D01*
X-4247982Y-2309967D01*
X-4253316Y-2299553D01*
X-4263730Y-2289139D01*
X-4274144Y-2284059D01*
X-4294972Y-2284059D01*
X-4305132Y-2289139D01*
X-4315546Y-2299553D01*
X-4320880Y-2309967D01*
X-4355170Y-2393025D02*
G01*
X-4355170Y-2284059D01*
X-4355170Y-2393025D02*
G01*
X-4427814Y-2284059D01*
X-4427814Y-2393025D02*
G01*
X-4427814Y-2284059D01*
X-4472518Y-2393025D02*
G01*
X-4529668Y-2393025D01*
X-4498426Y-2351369D01*
X-4514174Y-2351369D01*
X-4524588Y-2346289D01*
X-4529668Y-2341209D01*
X-4535002Y-2325461D01*
X-4535002Y-2315047D01*
X-4529668Y-2299553D01*
X-4519254Y-2289139D01*
X-4503760Y-2284059D01*
X-4488012Y-2284059D01*
X-4472518Y-2289139D01*
X-4467438Y-2294219D01*
X-4462104Y-2304633D01*
X-6606880Y-2367117D02*
G01*
X-6601546Y-2377531D01*
X-6591132Y-2387945D01*
X-6580972Y-2393025D01*
X-6560144Y-2393025D01*
X-6549730Y-2387945D01*
X-6539316Y-2377531D01*
X-6533982Y-2367117D01*
X-6528902Y-2351369D01*
X-6528902Y-2325461D01*
X-6533982Y-2309967D01*
X-6539316Y-2299553D01*
X-6549730Y-2289139D01*
X-6560144Y-2284059D01*
X-6580972Y-2284059D01*
X-6591132Y-2289139D01*
X-6601546Y-2299553D01*
X-6606880Y-2309967D01*
X-6641170Y-2393025D02*
G01*
X-6641170Y-2284059D01*
X-6641170Y-2393025D02*
G01*
X-6713814Y-2284059D01*
X-6713814Y-2393025D02*
G01*
X-6713814Y-2284059D01*
X-6810588Y-2393025D02*
G01*
X-6758518Y-2393025D01*
X-6753438Y-2346289D01*
X-6758518Y-2351369D01*
X-6774012Y-2356703D01*
X-6789760Y-2356703D01*
X-6805254Y-2351369D01*
X-6815668Y-2341209D01*
X-6821002Y-2325461D01*
X-6821002Y-2315047D01*
X-6815668Y-2299553D01*
X-6805254Y-2289139D01*
X-6789760Y-2284059D01*
X-6774012Y-2284059D01*
X-6758518Y-2289139D01*
X-6753438Y-2294219D01*
X-6748104Y-2304633D01*
X-8180578Y6412992D02*
G01*
X-8175244Y6402578D01*
X-8164829Y6392163D01*
X-8154670Y6387084D01*
X-8133842Y6387084D01*
X-8123428Y6392163D01*
X-8113013Y6402578D01*
X-8107679Y6412992D01*
X-8102600Y6428739D01*
X-8102600Y6454647D01*
X-8107679Y6470142D01*
X-8113013Y6480555D01*
X-8123428Y6490970D01*
X-8133842Y6496050D01*
X-8154670Y6496050D01*
X-8164829Y6490970D01*
X-8175244Y6480555D01*
X-8180578Y6470142D01*
X-8214868Y6387084D02*
G01*
X-8214868Y6496050D01*
X-8214868Y6387084D02*
G01*
X-8287512Y6496050D01*
X-8287512Y6387084D02*
G01*
X-8287512Y6496050D01*
X-8384286Y6402578D02*
G01*
X-8378952Y6392163D01*
X-8363458Y6387084D01*
X-8353044Y6387084D01*
X-8337550Y6392163D01*
X-8327136Y6407912D01*
X-8321802Y6433820D01*
X-8321802Y6459728D01*
X-8327136Y6480555D01*
X-8337550Y6490970D01*
X-8353044Y6496050D01*
X-8358123Y6496050D01*
X-8373871Y6490970D01*
X-8384286Y6480555D01*
X-8389365Y6465062D01*
X-8389365Y6459728D01*
X-8384286Y6444234D01*
X-8373871Y6433820D01*
X-8358123Y6428739D01*
X-8353044Y6428739D01*
X-8337550Y6433820D01*
X-8327136Y6444234D01*
X-8321802Y6459728D01*
X-6553200Y2629915D02*
G01*
X-6553200Y2520950D01*
X-6553200Y2629915D02*
G01*
X-6516878Y2629915D01*
X-6501129Y2624836D01*
X-6490970Y2614421D01*
X-6485636Y2604007D01*
X-6480555Y2588260D01*
X-6480555Y2562352D01*
X-6485636Y2546857D01*
X-6490970Y2536444D01*
X-6501129Y2526029D01*
X-6516878Y2520950D01*
X-6553200Y2520950D01*
X-6446265Y2609087D02*
G01*
X-6435852Y2614421D01*
X-6420104Y2629915D01*
X-6420104Y2520950D01*
X-6121400Y2604515D02*
G01*
X-6121400Y2495550D01*
X-6121400Y2604515D02*
G01*
X-6085078Y2604515D01*
X-6069329Y2599436D01*
X-6059170Y2589021D01*
X-6053836Y2578607D01*
X-6048755Y2562860D01*
X-6048755Y2536952D01*
X-6053836Y2521457D01*
X-6059170Y2511044D01*
X-6069329Y2500629D01*
X-6085078Y2495550D01*
X-6121400Y2495550D01*
X-6009131Y2578607D02*
G01*
X-6009131Y2583687D01*
X-6004052Y2594102D01*
X-5998718Y2599436D01*
X-5988304Y2604515D01*
X-5967729Y2604515D01*
X-5957315Y2599436D01*
X-5951981Y2594102D01*
X-5946902Y2583687D01*
X-5946902Y2573273D01*
X-5951981Y2562860D01*
X-5962395Y2547365D01*
X-6014465Y2495550D01*
X-5941568Y2495550D01*
X-5257800Y2604515D02*
G01*
X-5257800Y2495550D01*
X-5257800Y2604515D02*
G01*
X-5221478Y2604515D01*
X-5205729Y2599436D01*
X-5195570Y2589021D01*
X-5190236Y2578607D01*
X-5185155Y2562860D01*
X-5185155Y2536952D01*
X-5190236Y2521457D01*
X-5195570Y2511044D01*
X-5205729Y2500629D01*
X-5221478Y2495550D01*
X-5257800Y2495550D01*
X-5140452Y2604515D02*
G01*
X-5083302Y2604515D01*
X-5114289Y2562860D01*
X-5098795Y2562860D01*
X-5088381Y2557779D01*
X-5083302Y2552700D01*
X-5077968Y2536952D01*
X-5077968Y2526537D01*
X-5083302Y2511044D01*
X-5093715Y2500629D01*
X-5109210Y2495550D01*
X-5124704Y2495550D01*
X-5140452Y2500629D01*
X-5145531Y2505710D01*
X-5150865Y2516123D01*
X-5676900Y2617215D02*
G01*
X-5676900Y2508250D01*
X-5676900Y2617215D02*
G01*
X-5640578Y2617215D01*
X-5624829Y2612136D01*
X-5614670Y2601721D01*
X-5609336Y2591307D01*
X-5604255Y2575560D01*
X-5604255Y2549652D01*
X-5609336Y2534157D01*
X-5614670Y2523744D01*
X-5624829Y2513329D01*
X-5640578Y2508250D01*
X-5676900Y2508250D01*
X-5517895Y2617215D02*
G01*
X-5569965Y2544571D01*
X-5491987Y2544571D01*
X-5517895Y2617215D02*
G01*
X-5517895Y2508250D01*
X-4838700Y2617215D02*
G01*
X-4838700Y2508250D01*
X-4838700Y2617215D02*
G01*
X-4802378Y2617215D01*
X-4786629Y2612136D01*
X-4776470Y2601721D01*
X-4771136Y2591307D01*
X-4766055Y2575560D01*
X-4766055Y2549652D01*
X-4771136Y2534157D01*
X-4776470Y2523744D01*
X-4786629Y2513329D01*
X-4802378Y2508250D01*
X-4838700Y2508250D01*
X-4669281Y2617215D02*
G01*
X-4721352Y2617215D01*
X-4726431Y2570479D01*
X-4721352Y2575560D01*
X-4705604Y2580894D01*
X-4690110Y2580894D01*
X-4674615Y2575560D01*
X-4664202Y2565400D01*
X-4658868Y2549652D01*
X-4658868Y2539237D01*
X-4664202Y2523744D01*
X-4674615Y2513329D01*
X-4690110Y2508250D01*
X-4705604Y2508250D01*
X-4721352Y2513329D01*
X-4726431Y2518410D01*
X-4731765Y2528823D01*
X-3606800Y2617215D02*
G01*
X-3606800Y2508250D01*
X-3606800Y2617215D02*
G01*
X-3570478Y2617215D01*
X-3554729Y2612136D01*
X-3544570Y2601721D01*
X-3539236Y2591307D01*
X-3534155Y2575560D01*
X-3534155Y2549652D01*
X-3539236Y2534157D01*
X-3544570Y2523744D01*
X-3554729Y2513329D01*
X-3570478Y2508250D01*
X-3606800Y2508250D01*
X-3437381Y2601721D02*
G01*
X-3442715Y2612136D01*
X-3458210Y2617215D01*
X-3468623Y2617215D01*
X-3484118Y2612136D01*
X-3494531Y2596387D01*
X-3499865Y2570479D01*
X-3499865Y2544571D01*
X-3494531Y2523744D01*
X-3484118Y2513329D01*
X-3468623Y2508250D01*
X-3463289Y2508250D01*
X-3447795Y2513329D01*
X-3437381Y2523744D01*
X-3432302Y2539237D01*
X-3432302Y2544571D01*
X-3437381Y2560065D01*
X-3447795Y2570479D01*
X-3463289Y2575560D01*
X-3468623Y2575560D01*
X-3484118Y2570479D01*
X-3494531Y2560065D01*
X-3499865Y2544571D01*
X-4445000Y2617215D02*
G01*
X-4445000Y2508250D01*
X-4445000Y2617215D02*
G01*
X-4408678Y2617215D01*
X-4392929Y2612136D01*
X-4382770Y2601721D01*
X-4377436Y2591307D01*
X-4372355Y2575560D01*
X-4372355Y2549652D01*
X-4377436Y2534157D01*
X-4382770Y2523744D01*
X-4392929Y2513329D01*
X-4408678Y2508250D01*
X-4445000Y2508250D01*
X-4265168Y2617215D02*
G01*
X-4317237Y2508250D01*
X-4338065Y2617215D02*
G01*
X-4265168Y2617215D01*
X-4013200Y2604515D02*
G01*
X-4013200Y2495550D01*
X-4013200Y2604515D02*
G01*
X-3976878Y2604515D01*
X-3961129Y2599436D01*
X-3950970Y2589021D01*
X-3945636Y2578607D01*
X-3940555Y2562860D01*
X-3940555Y2536952D01*
X-3945636Y2521457D01*
X-3950970Y2511044D01*
X-3961129Y2500629D01*
X-3976878Y2495550D01*
X-4013200Y2495550D01*
X-3880104Y2604515D02*
G01*
X-3895852Y2599436D01*
X-3900931Y2589021D01*
X-3900931Y2578607D01*
X-3895852Y2568194D01*
X-3885437Y2562860D01*
X-3864610Y2557779D01*
X-3849115Y2552700D01*
X-3838702Y2542286D01*
X-3833368Y2531871D01*
X-3833368Y2516123D01*
X-3838702Y2505710D01*
X-3843781Y2500629D01*
X-3859529Y2495550D01*
X-3880104Y2495550D01*
X-3895852Y2500629D01*
X-3900931Y2505710D01*
X-3906265Y2516123D01*
X-3906265Y2531871D01*
X-3900931Y2542286D01*
X-3890518Y2552700D01*
X-3875023Y2557779D01*
X-3854195Y2562860D01*
X-3843781Y2568194D01*
X-3838702Y2578607D01*
X-3838702Y2589021D01*
X-3843781Y2599436D01*
X-3859529Y2604515D01*
X-3880104Y2604515D01*
X-5661698Y-1395984D02*
G01*
X-5661698Y-1504950D01*
X-5661698Y-1395984D02*
G01*
X-5625376Y-1395984D01*
X-5609628Y-1401063D01*
X-5599468Y-1411478D01*
X-5594134Y-1421892D01*
X-5589054Y-1437639D01*
X-5589054Y-1463547D01*
X-5594134Y-1479042D01*
X-5599468Y-1489455D01*
X-5609628Y-1499870D01*
X-5625376Y-1504950D01*
X-5661698Y-1504950D01*
X-5487200Y-1432305D02*
G01*
X-5492280Y-1447800D01*
X-5502694Y-1458213D01*
X-5518188Y-1463547D01*
X-5523522Y-1463547D01*
X-5539016Y-1458213D01*
X-5549430Y-1447800D01*
X-5554764Y-1432305D01*
X-5554764Y-1427226D01*
X-5549430Y-1411478D01*
X-5539016Y-1401063D01*
X-5523522Y-1395984D01*
X-5518188Y-1395984D01*
X-5502694Y-1401063D01*
X-5492280Y-1411478D01*
X-5487200Y-1432305D01*
X-5487200Y-1458213D01*
X-5492280Y-1484376D01*
X-5502694Y-1499870D01*
X-5518188Y-1504950D01*
X-5528602Y-1504950D01*
X-5544350Y-1499870D01*
X-5549430Y-1489455D01*
X-5205729Y-913384D02*
G01*
X-5205729Y-996442D01*
X-5211063Y-1012189D01*
X-5216144Y-1017270D01*
X-5226557Y-1022350D01*
X-5236971Y-1022350D01*
X-5247386Y-1017270D01*
X-5252720Y-1012189D01*
X-5257800Y-996442D01*
X-5257800Y-986028D01*
X-5171439Y-934212D02*
G01*
X-5161279Y-928878D01*
X-5145531Y-913384D01*
X-5145531Y-1022350D01*
X-8291829Y-1307084D02*
G01*
X-8291829Y-1390142D01*
X-8297163Y-1405889D01*
X-8302244Y-1410970D01*
X-8312658Y-1416050D01*
X-8323071Y-1416050D01*
X-8333486Y-1410970D01*
X-8338820Y-1405889D01*
X-8343900Y-1390142D01*
X-8343900Y-1379728D01*
X-8252460Y-1332992D02*
G01*
X-8252460Y-1327912D01*
X-8247379Y-1317497D01*
X-8242045Y-1312163D01*
X-8231631Y-1307084D01*
X-8210804Y-1307084D01*
X-8200389Y-1312163D01*
X-8195310Y-1317497D01*
X-8190229Y-1327912D01*
X-8190229Y-1338326D01*
X-8195310Y-1348739D01*
X-8205723Y-1364234D01*
X-8257539Y-1416050D01*
X-8184895Y-1416050D01*
X-2668015Y560070D02*
G01*
X-2584957Y560070D01*
X-2569210Y554736D01*
X-2564129Y549655D01*
X-2559050Y539242D01*
X-2559050Y528828D01*
X-2564129Y518413D01*
X-2569210Y513079D01*
X-2584957Y508000D01*
X-2595371Y508000D01*
X-2668015Y604520D02*
G01*
X-2668015Y661670D01*
X-2626360Y630681D01*
X-2626360Y646176D01*
X-2621279Y656589D01*
X-2616200Y661670D01*
X-2600452Y667004D01*
X-2590037Y667004D01*
X-2574544Y661670D01*
X-2564129Y651510D01*
X-2559050Y635762D01*
X-2559050Y620268D01*
X-2564129Y604520D01*
X-2569210Y599439D01*
X-2579623Y594360D01*
X-6172200Y1842515D02*
G01*
X-6172200Y1733550D01*
X-6172200Y1733550D02*
G01*
X-6109970Y1733550D01*
X-6075679Y1842515D02*
G01*
X-6075679Y1733550D01*
X-6075679Y1842515D02*
G01*
X-6008115Y1842515D01*
X-6075679Y1790700D02*
G01*
X-6034023Y1790700D01*
X-6075679Y1733550D02*
G01*
X-6008115Y1733550D01*
X-5973826Y1842515D02*
G01*
X-5973826Y1733550D01*
X-5973826Y1842515D02*
G01*
X-5937250Y1842515D01*
X-5921755Y1837436D01*
X-5911342Y1827021D01*
X-5906262Y1816607D01*
X-5900928Y1800860D01*
X-5900928Y1774952D01*
X-5906262Y1759457D01*
X-5911342Y1749044D01*
X-5921755Y1738629D01*
X-5937250Y1733550D01*
X-5973826Y1733550D01*
X-5861557Y1816607D02*
G01*
X-5861557Y1821687D01*
X-5856223Y1832102D01*
X-5851144Y1837436D01*
X-5840729Y1842515D01*
X-5819902Y1842515D01*
X-5809487Y1837436D01*
X-5804407Y1832102D01*
X-5799073Y1821687D01*
X-5799073Y1811273D01*
X-5804407Y1800860D01*
X-5814821Y1785365D01*
X-5866637Y1733550D01*
X-5793994Y1733550D01*
X-5200218Y2149025D02*
G01*
X-5091252Y2149025D01*
X-5091252Y2149025D02*
G01*
X-5091252Y2211255D01*
X-5200218Y2245545D02*
G01*
X-5091252Y2245545D01*
X-5200218Y2245545D02*
G01*
X-5200218Y2313109D01*
X-5148402Y2245545D02*
G01*
X-5148402Y2287201D01*
X-5091252Y2245545D02*
G01*
X-5091252Y2313109D01*
X-5200218Y2347399D02*
G01*
X-5091252Y2347399D01*
X-5200218Y2347399D02*
G01*
X-5200218Y2383975D01*
X-5195138Y2399469D01*
X-5184724Y2409883D01*
X-5174310Y2414963D01*
X-5158562Y2420297D01*
X-5132654Y2420297D01*
X-5117160Y2414963D01*
X-5106746Y2409883D01*
X-5096332Y2399469D01*
X-5091252Y2383975D01*
X-5091252Y2347399D01*
X-5200218Y2506403D02*
G01*
X-5127574Y2454587D01*
X-5127574Y2532565D01*
X-5200218Y2506403D02*
G01*
X-5091252Y2506403D01*
X-4127500Y3709415D02*
G01*
X-4127500Y3600450D01*
X-4127500Y3600450D02*
G01*
X-4065270Y3600450D01*
X-4030979Y3709415D02*
G01*
X-4030979Y3600450D01*
X-4030979Y3709415D02*
G01*
X-3963415Y3709415D01*
X-4030979Y3657600D02*
G01*
X-3989323Y3657600D01*
X-4030979Y3600450D02*
G01*
X-3963415Y3600450D01*
X-3929126Y3709415D02*
G01*
X-3929126Y3600450D01*
X-3929126Y3709415D02*
G01*
X-3892550Y3709415D01*
X-3877055Y3704336D01*
X-3866642Y3693921D01*
X-3861562Y3683507D01*
X-3856228Y3667760D01*
X-3856228Y3641852D01*
X-3861562Y3626357D01*
X-3866642Y3615944D01*
X-3877055Y3605529D01*
X-3892550Y3600450D01*
X-3929126Y3600450D01*
X-3759707Y3709415D02*
G01*
X-3811523Y3709415D01*
X-3816857Y3662679D01*
X-3811523Y3667760D01*
X-3796029Y3673094D01*
X-3780536Y3673094D01*
X-3764787Y3667760D01*
X-3754373Y3657600D01*
X-3749294Y3641852D01*
X-3749294Y3631437D01*
X-3754373Y3615944D01*
X-3764787Y3605529D01*
X-3780536Y3600450D01*
X-3796029Y3600450D01*
X-3811523Y3605529D01*
X-3816857Y3610610D01*
X-3821937Y3621023D01*
X-5765800Y8548115D02*
G01*
X-5765800Y8439150D01*
X-5765800Y8548115D02*
G01*
X-5719063Y8548115D01*
X-5703570Y8543036D01*
X-5698236Y8537702D01*
X-5693155Y8527287D01*
X-5693155Y8511794D01*
X-5698236Y8501379D01*
X-5703570Y8496300D01*
X-5719063Y8490965D01*
X-5765800Y8490965D01*
X-5658865Y8527287D02*
G01*
X-5648452Y8532621D01*
X-5632704Y8548115D01*
X-5632704Y8439150D01*
X-7721600Y5373115D02*
G01*
X-7721600Y5264150D01*
X-7721600Y5373115D02*
G01*
X-7674863Y5373115D01*
X-7659370Y5368036D01*
X-7654036Y5362702D01*
X-7648955Y5352287D01*
X-7648955Y5336794D01*
X-7654036Y5326379D01*
X-7659370Y5321300D01*
X-7674863Y5315965D01*
X-7721600Y5315965D01*
X-7562595Y5373115D02*
G01*
X-7614665Y5300471D01*
X-7536687Y5300471D01*
X-7562595Y5373115D02*
G01*
X-7562595Y5264150D01*
X-7747000Y6566915D02*
G01*
X-7747000Y6457950D01*
X-7747000Y6566915D02*
G01*
X-7700263Y6566915D01*
X-7684770Y6561836D01*
X-7679436Y6556502D01*
X-7674355Y6546087D01*
X-7674355Y6530594D01*
X-7679436Y6520179D01*
X-7684770Y6515100D01*
X-7700263Y6509765D01*
X-7747000Y6509765D01*
X-7577581Y6566915D02*
G01*
X-7629652Y6566915D01*
X-7634731Y6520179D01*
X-7629652Y6525260D01*
X-7613904Y6530594D01*
X-7598410Y6530594D01*
X-7582915Y6525260D01*
X-7572502Y6515100D01*
X-7567168Y6499352D01*
X-7567168Y6488937D01*
X-7572502Y6473444D01*
X-7582915Y6463029D01*
X-7598410Y6457950D01*
X-7613904Y6457950D01*
X-7629652Y6463029D01*
X-7634731Y6468110D01*
X-7640065Y6478523D01*
X-6928358Y-900684D02*
G01*
X-6938771Y-905763D01*
X-6949186Y-916178D01*
X-6954520Y-926592D01*
X-6959600Y-942339D01*
X-6959600Y-968247D01*
X-6954520Y-983742D01*
X-6949186Y-994155D01*
X-6938771Y-1004570D01*
X-6928358Y-1009650D01*
X-6907529Y-1009650D01*
X-6897370Y-1004570D01*
X-6886955Y-994155D01*
X-6881621Y-983742D01*
X-6876542Y-968247D01*
X-6876542Y-942339D01*
X-6881621Y-926592D01*
X-6886955Y-916178D01*
X-6897370Y-905763D01*
X-6907529Y-900684D01*
X-6928358Y-900684D01*
X-6912863Y-989076D02*
G01*
X-6881621Y-1020063D01*
X-6842252Y-921512D02*
G01*
X-6831837Y-916178D01*
X-6816089Y-900684D01*
X-6816089Y-1009650D01*
X-7309358Y-976884D02*
G01*
X-7319771Y-981963D01*
X-7330186Y-992378D01*
X-7335520Y-1002792D01*
X-7340600Y-1018539D01*
X-7340600Y-1044447D01*
X-7335520Y-1059942D01*
X-7330186Y-1070355D01*
X-7319771Y-1080770D01*
X-7309358Y-1085850D01*
X-7288529Y-1085850D01*
X-7278370Y-1080770D01*
X-7267955Y-1070355D01*
X-7262621Y-1059942D01*
X-7257542Y-1044447D01*
X-7257542Y-1018539D01*
X-7262621Y-1002792D01*
X-7267955Y-992378D01*
X-7278370Y-981963D01*
X-7288529Y-976884D01*
X-7309358Y-976884D01*
X-7293863Y-1065276D02*
G01*
X-7262621Y-1096263D01*
X-7217918Y-1002792D02*
G01*
X-7217918Y-997712D01*
X-7212837Y-987297D01*
X-7207504Y-981963D01*
X-7197089Y-976884D01*
X-7176515Y-976884D01*
X-7166102Y-981963D01*
X-7160768Y-987297D01*
X-7155687Y-997712D01*
X-7155687Y-1008126D01*
X-7160768Y-1018539D01*
X-7171181Y-1034034D01*
X-7223252Y-1085850D01*
X-7150354Y-1085850D01*
X-6133084Y-787400D02*
G01*
X-6242050Y-787400D01*
X-6133084Y-787400D02*
G01*
X-6133084Y-834136D01*
X-6138163Y-849629D01*
X-6143497Y-854963D01*
X-6153912Y-860044D01*
X-6164326Y-860044D01*
X-6174739Y-854963D01*
X-6179820Y-849629D01*
X-6184900Y-834136D01*
X-6184900Y-787400D01*
X-6184900Y-823721D02*
G01*
X-6242050Y-860044D01*
X-6153912Y-894334D02*
G01*
X-6148578Y-904747D01*
X-6133084Y-920495D01*
X-6242050Y-920495D01*
X-7670800Y-976884D02*
G01*
X-7670800Y-1085850D01*
X-7670800Y-976884D02*
G01*
X-7624063Y-976884D01*
X-7608570Y-981963D01*
X-7603236Y-987297D01*
X-7598155Y-997712D01*
X-7598155Y-1008126D01*
X-7603236Y-1018539D01*
X-7608570Y-1023620D01*
X-7624063Y-1028700D01*
X-7670800Y-1028700D01*
X-7634478Y-1028700D02*
G01*
X-7598155Y-1085850D01*
X-7558531Y-1002792D02*
G01*
X-7558531Y-997712D01*
X-7553452Y-987297D01*
X-7548118Y-981963D01*
X-7537704Y-976884D01*
X-7517129Y-976884D01*
X-7506715Y-981963D01*
X-7501381Y-987297D01*
X-7496302Y-997712D01*
X-7496302Y-1008126D01*
X-7501381Y-1018539D01*
X-7511795Y-1034034D01*
X-7563865Y-1085850D01*
X-7490968Y-1085850D01*
X-4877815Y2120900D02*
G01*
X-4768850Y2120900D01*
X-4877815Y2120900D02*
G01*
X-4877815Y2167636D01*
X-4872736Y2183129D01*
X-4867402Y2188463D01*
X-4856987Y2193544D01*
X-4846573Y2193544D01*
X-4836160Y2188463D01*
X-4831079Y2183129D01*
X-4826000Y2167636D01*
X-4826000Y2120900D01*
X-4826000Y2157221D02*
G01*
X-4768850Y2193544D01*
X-4877815Y2253995D02*
G01*
X-4872736Y2238247D01*
X-4862321Y2233168D01*
X-4851907Y2233168D01*
X-4841494Y2238247D01*
X-4836160Y2248662D01*
X-4831079Y2269489D01*
X-4826000Y2284984D01*
X-4815586Y2295397D01*
X-4805171Y2300731D01*
X-4789423Y2300731D01*
X-4779010Y2295397D01*
X-4773929Y2290318D01*
X-4768850Y2274570D01*
X-4768850Y2253995D01*
X-4773929Y2238247D01*
X-4779010Y2233168D01*
X-4789423Y2227834D01*
X-4805171Y2227834D01*
X-4815586Y2233168D01*
X-4826000Y2243581D01*
X-4831079Y2259076D01*
X-4836160Y2279904D01*
X-4841494Y2290318D01*
X-4851907Y2295397D01*
X-4862321Y2295397D01*
X-4872736Y2290318D01*
X-4877815Y2274570D01*
X-4877815Y2253995D01*
X-5702300Y3696715D02*
G01*
X-5702300Y3587750D01*
X-5702300Y3696715D02*
G01*
X-5655563Y3696715D01*
X-5640070Y3691636D01*
X-5634736Y3686302D01*
X-5629655Y3675887D01*
X-5629655Y3665473D01*
X-5634736Y3655060D01*
X-5640070Y3649979D01*
X-5655563Y3644900D01*
X-5702300Y3644900D01*
X-5665978Y3644900D02*
G01*
X-5629655Y3587750D01*
X-5527802Y3660394D02*
G01*
X-5532881Y3644900D01*
X-5543295Y3634486D01*
X-5558789Y3629152D01*
X-5564123Y3629152D01*
X-5579618Y3634486D01*
X-5590031Y3644900D01*
X-5595365Y3660394D01*
X-5595365Y3665473D01*
X-5590031Y3681221D01*
X-5579618Y3691636D01*
X-5564123Y3696715D01*
X-5558789Y3696715D01*
X-5543295Y3691636D01*
X-5532881Y3681221D01*
X-5527802Y3660394D01*
X-5527802Y3634486D01*
X-5532881Y3608323D01*
X-5543295Y3592829D01*
X-5558789Y3587750D01*
X-5569204Y3587750D01*
X-5584952Y3592829D01*
X-5590031Y3603244D01*
X-6223000Y13715D02*
G01*
X-6223000Y-95250D01*
X-6223000Y13715D02*
G01*
X-6176263Y13715D01*
X-6160770Y8636D01*
X-6155436Y3302D01*
X-6150355Y-7112D01*
X-6150355Y-17526D01*
X-6155436Y-27939D01*
X-6160770Y-33020D01*
X-6176263Y-38100D01*
X-6223000Y-38100D01*
X-6186678Y-38100D02*
G01*
X-6150355Y-95250D01*
X-6116065Y-7112D02*
G01*
X-6105652Y-1778D01*
X-6089904Y13715D01*
X-6089904Y-95250D01*
X-6024626Y13715D02*
G01*
X-6040120Y8636D01*
X-6050534Y-7112D01*
X-6055613Y-33020D01*
X-6055613Y-48513D01*
X-6050534Y-74676D01*
X-6040120Y-90170D01*
X-6024626Y-95250D01*
X-6014212Y-95250D01*
X-5998463Y-90170D01*
X-5988050Y-74676D01*
X-5982970Y-48513D01*
X-5982970Y-33020D01*
X-5988050Y-7112D01*
X-5998463Y8636D01*
X-6014212Y13715D01*
X-6024626Y13715D01*
X-3416300Y1677415D02*
G01*
X-3416300Y1568450D01*
X-3416300Y1677415D02*
G01*
X-3369563Y1677415D01*
X-3354070Y1672336D01*
X-3348736Y1667002D01*
X-3343655Y1656587D01*
X-3343655Y1646173D01*
X-3348736Y1635760D01*
X-3354070Y1630679D01*
X-3369563Y1625600D01*
X-3416300Y1625600D01*
X-3379978Y1625600D02*
G01*
X-3343655Y1568450D01*
X-3309365Y1656587D02*
G01*
X-3298952Y1661921D01*
X-3283204Y1677415D01*
X-3283204Y1568450D01*
X-3186684Y1677415D02*
G01*
X-3238500Y1677415D01*
X-3243834Y1630679D01*
X-3238500Y1635760D01*
X-3223005Y1641094D01*
X-3207512Y1641094D01*
X-3191763Y1635760D01*
X-3181350Y1625600D01*
X-3176270Y1609852D01*
X-3176270Y1599437D01*
X-3181350Y1583944D01*
X-3191763Y1573529D01*
X-3207512Y1568450D01*
X-3223005Y1568450D01*
X-3238500Y1573529D01*
X-3243834Y1578610D01*
X-3248913Y1589023D01*
X-5906515Y2133600D02*
G01*
X-5797550Y2133600D01*
X-5906515Y2133600D02*
G01*
X-5906515Y2180336D01*
X-5901436Y2195829D01*
X-5896102Y2201163D01*
X-5885687Y2206244D01*
X-5875273Y2206244D01*
X-5864860Y2201163D01*
X-5859779Y2195829D01*
X-5854700Y2180336D01*
X-5854700Y2133600D01*
X-5854700Y2169921D02*
G01*
X-5797550Y2206244D01*
X-5885687Y2240534D02*
G01*
X-5891021Y2250947D01*
X-5906515Y2266695D01*
X-5797550Y2266695D01*
X-5891021Y2363215D02*
G01*
X-5901436Y2358136D01*
X-5906515Y2342387D01*
X-5906515Y2331973D01*
X-5901436Y2316479D01*
X-5885687Y2306065D01*
X-5859779Y2300986D01*
X-5833871Y2300986D01*
X-5813044Y2306065D01*
X-5802629Y2316479D01*
X-5797550Y2331973D01*
X-5797550Y2337307D01*
X-5802629Y2352802D01*
X-5813044Y2363215D01*
X-5828537Y2368550D01*
X-5833871Y2368550D01*
X-5849365Y2363215D01*
X-5859779Y2352802D01*
X-5864860Y2337307D01*
X-5864860Y2331973D01*
X-5859779Y2316479D01*
X-5849365Y2306065D01*
X-5833871Y2300986D01*
X-3390900Y1067815D02*
G01*
X-3390900Y958850D01*
X-3390900Y1067815D02*
G01*
X-3344163Y1067815D01*
X-3328670Y1062736D01*
X-3323336Y1057402D01*
X-3318255Y1046987D01*
X-3318255Y1036573D01*
X-3323336Y1026160D01*
X-3328670Y1021079D01*
X-3344163Y1016000D01*
X-3390900Y1016000D01*
X-3354578Y1016000D02*
G01*
X-3318255Y958850D01*
X-3283965Y1046987D02*
G01*
X-3273552Y1052321D01*
X-3257804Y1067815D01*
X-3257804Y958850D01*
X-3155950Y1031494D02*
G01*
X-3161284Y1016000D01*
X-3171697Y1005586D01*
X-3187192Y1000252D01*
X-3192526Y1000252D01*
X-3208020Y1005586D01*
X-3218434Y1016000D01*
X-3223513Y1031494D01*
X-3223513Y1036573D01*
X-3218434Y1052321D01*
X-3208020Y1062736D01*
X-3192526Y1067815D01*
X-3187192Y1067815D01*
X-3171697Y1062736D01*
X-3161284Y1052321D01*
X-3155950Y1031494D01*
X-3155950Y1005586D01*
X-3161284Y979423D01*
X-3171697Y963929D01*
X-3187192Y958850D01*
X-3197605Y958850D01*
X-3213100Y963929D01*
X-3218434Y974344D01*
X-6515100Y-24384D02*
G01*
X-6515100Y-133350D01*
X-6515100Y-24384D02*
G01*
X-6468363Y-24384D01*
X-6452870Y-29463D01*
X-6447536Y-34797D01*
X-6442455Y-45212D01*
X-6442455Y-55626D01*
X-6447536Y-66039D01*
X-6452870Y-71120D01*
X-6468363Y-76200D01*
X-6515100Y-76200D01*
X-6478778Y-76200D02*
G01*
X-6442455Y-133350D01*
X-6408165Y-45212D02*
G01*
X-6397752Y-39878D01*
X-6382004Y-24384D01*
X-6382004Y-133350D01*
X-6347713Y-45212D02*
G01*
X-6337300Y-39878D01*
X-6321805Y-24384D01*
X-6321805Y-133350D01*
X-6304092Y763015D02*
G01*
X-6304092Y654050D01*
X-6304092Y763015D02*
G01*
X-6257356Y763015D01*
X-6241862Y757936D01*
X-6236528Y752602D01*
X-6231448Y742187D01*
X-6231448Y731773D01*
X-6236528Y721360D01*
X-6241862Y716279D01*
X-6257356Y711200D01*
X-6304092Y711200D01*
X-6267770Y711200D02*
G01*
X-6231448Y654050D01*
X-6197158Y742187D02*
G01*
X-6186744Y747521D01*
X-6170996Y763015D01*
X-6170996Y654050D01*
X-6131626Y737107D02*
G01*
X-6131626Y742187D01*
X-6126292Y752602D01*
X-6121212Y757936D01*
X-6110798Y763015D01*
X-6089970Y763015D01*
X-6079556Y757936D01*
X-6074476Y752602D01*
X-6069142Y742187D01*
X-6069142Y731773D01*
X-6074476Y721360D01*
X-6084890Y705865D01*
X-6136706Y654050D01*
X-6064062Y654050D01*
X-3213100Y3163315D02*
G01*
X-3213100Y3054350D01*
X-3213100Y3163315D02*
G01*
X-3166363Y3163315D01*
X-3150870Y3158236D01*
X-3145536Y3152902D01*
X-3140455Y3142487D01*
X-3140455Y3132073D01*
X-3145536Y3121660D01*
X-3150870Y3116579D01*
X-3166363Y3111500D01*
X-3213100Y3111500D01*
X-3176778Y3111500D02*
G01*
X-3140455Y3054350D01*
X-3106165Y3142487D02*
G01*
X-3095752Y3147821D01*
X-3080004Y3163315D01*
X-3080004Y3054350D01*
X-3035300Y3163315D02*
G01*
X-2978150Y3163315D01*
X-3009392Y3121660D01*
X-2993897Y3121660D01*
X-2983484Y3116579D01*
X-2978150Y3111500D01*
X-2973070Y3095752D01*
X-2973070Y3085337D01*
X-2978150Y3069844D01*
X-2988563Y3059429D01*
X-3004312Y3054350D01*
X-3019805Y3054350D01*
X-3035300Y3059429D01*
X-3040634Y3064510D01*
X-3045713Y3074923D01*
X-7691307Y2411984D02*
G01*
X-7691307Y2520950D01*
X-7691307Y2411984D02*
G01*
X-7738043Y2411984D01*
X-7753537Y2417063D01*
X-7758871Y2422397D01*
X-7763951Y2432812D01*
X-7763951Y2443226D01*
X-7758871Y2453639D01*
X-7753537Y2458720D01*
X-7738043Y2463800D01*
X-7691307Y2463800D01*
X-7727629Y2463800D02*
G01*
X-7763951Y2520950D01*
X-7798241Y2432812D02*
G01*
X-7808655Y2427478D01*
X-7824403Y2411984D01*
X-7824403Y2520950D01*
X-7910509Y2411984D02*
G01*
X-7858693Y2484628D01*
X-7936417Y2484628D01*
X-7910509Y2411984D02*
G01*
X-7910509Y2520950D01*
X-7849615Y-360492D02*
G01*
X-7740650Y-360492D01*
X-7849615Y-360492D02*
G01*
X-7849615Y-313756D01*
X-7844536Y-298262D01*
X-7839202Y-292928D01*
X-7828787Y-287848D01*
X-7818373Y-287848D01*
X-7807960Y-292928D01*
X-7802879Y-298262D01*
X-7797800Y-313756D01*
X-7797800Y-360492D01*
X-7797800Y-324170D02*
G01*
X-7740650Y-287848D01*
X-7828787Y-253558D02*
G01*
X-7834121Y-243144D01*
X-7849615Y-227396D01*
X-7740650Y-227396D01*
X-7849615Y-120462D02*
G01*
X-7740650Y-172532D01*
X-7849615Y-193106D02*
G01*
X-7849615Y-120462D01*
X-3378200Y445515D02*
G01*
X-3378200Y336550D01*
X-3378200Y445515D02*
G01*
X-3331463Y445515D01*
X-3315970Y440436D01*
X-3310636Y435102D01*
X-3305555Y424687D01*
X-3305555Y414273D01*
X-3310636Y403860D01*
X-3315970Y398779D01*
X-3331463Y393700D01*
X-3378200Y393700D01*
X-3341878Y393700D02*
G01*
X-3305555Y336550D01*
X-3271265Y424687D02*
G01*
X-3260852Y430021D01*
X-3245104Y445515D01*
X-3245104Y336550D01*
X-3184905Y445515D02*
G01*
X-3200400Y440436D01*
X-3205734Y430021D01*
X-3205734Y419607D01*
X-3200400Y409194D01*
X-3190239Y403860D01*
X-3169412Y398779D01*
X-3153663Y393700D01*
X-3143250Y383286D01*
X-3138170Y372871D01*
X-3138170Y357123D01*
X-3143250Y346710D01*
X-3148584Y341629D01*
X-3164078Y336550D01*
X-3184905Y336550D01*
X-3200400Y341629D01*
X-3205734Y346710D01*
X-3210813Y357123D01*
X-3210813Y372871D01*
X-3205734Y383286D01*
X-3195320Y393700D01*
X-3179826Y398779D01*
X-3158997Y403860D01*
X-3148584Y409194D01*
X-3143250Y419607D01*
X-3143250Y430021D01*
X-3148584Y440436D01*
X-3164078Y445515D01*
X-3184905Y445515D01*
X-6883400Y432815D02*
G01*
X-6883400Y354837D01*
X-6878320Y339344D01*
X-6867905Y328929D01*
X-6852158Y323850D01*
X-6841744Y323850D01*
X-6826250Y328929D01*
X-6815836Y339344D01*
X-6810755Y354837D01*
X-6810755Y432815D01*
X-6776465Y411987D02*
G01*
X-6766052Y417321D01*
X-6750304Y432815D01*
X-6750304Y323850D01*
X-6097015Y508000D02*
G01*
X-6019037Y508000D01*
X-6003544Y513079D01*
X-5993129Y523494D01*
X-5988050Y539242D01*
X-5988050Y549655D01*
X-5993129Y565150D01*
X-6003544Y575563D01*
X-6019037Y580644D01*
X-6097015Y580644D01*
X-6071107Y620268D02*
G01*
X-6076187Y620268D01*
X-6086602Y625347D01*
X-6091936Y630681D01*
X-6097015Y641095D01*
X-6097015Y661670D01*
X-6091936Y672084D01*
X-6086602Y677418D01*
X-6076187Y682497D01*
X-6065773Y682497D01*
X-6055360Y677418D01*
X-6039865Y667004D01*
X-5988050Y614934D01*
X-5988050Y687831D01*
X-6223000Y5500115D02*
G01*
X-6223000Y5422137D01*
X-6217920Y5406644D01*
X-6207505Y5396229D01*
X-6191757Y5391150D01*
X-6181344Y5391150D01*
X-6165850Y5396229D01*
X-6155436Y5406644D01*
X-6150355Y5422137D01*
X-6150355Y5500115D01*
X-6063995Y5500115D02*
G01*
X-6116065Y5427471D01*
X-6038087Y5427471D01*
X-6063995Y5500115D02*
G01*
X-6063995Y5391150D01*
X-7226300Y2680715D02*
G01*
X-7226300Y2602737D01*
X-7221220Y2587244D01*
X-7210805Y2576829D01*
X-7195058Y2571750D01*
X-7184644Y2571750D01*
X-7169150Y2576829D01*
X-7158736Y2587244D01*
X-7153655Y2602737D01*
X-7153655Y2680715D01*
X-7046468Y2680715D02*
G01*
X-7098537Y2571750D01*
X-7119365Y2680715D02*
G01*
X-7046468Y2680715D01*
X-8648700Y3645915D02*
G01*
X-8648700Y3567937D01*
X-8643620Y3552444D01*
X-8633205Y3542029D01*
X-8617458Y3536950D01*
X-8607044Y3536950D01*
X-8591550Y3542029D01*
X-8581136Y3552444D01*
X-8576055Y3567937D01*
X-8576055Y3645915D01*
X-8515604Y3645915D02*
G01*
X-8531352Y3640836D01*
X-8536431Y3630421D01*
X-8536431Y3620007D01*
X-8531352Y3609594D01*
X-8520937Y3604260D01*
X-8500110Y3599179D01*
X-8484615Y3594100D01*
X-8474202Y3583686D01*
X-8468868Y3573271D01*
X-8468868Y3557523D01*
X-8474202Y3547110D01*
X-8479281Y3542029D01*
X-8495029Y3536950D01*
X-8515604Y3536950D01*
X-8531352Y3542029D01*
X-8536431Y3547110D01*
X-8541765Y3557523D01*
X-8541765Y3573271D01*
X-8536431Y3583686D01*
X-8526018Y3594100D01*
X-8510524Y3599179D01*
X-8489695Y3604260D01*
X-8479281Y3609594D01*
X-8474202Y3620007D01*
X-8474202Y3630421D01*
X-8479281Y3640836D01*
X-8495029Y3645915D01*
X-8515604Y3645915D01*
X-1751584Y4965700D02*
G01*
X-1829562Y4965700D01*
X-1845055Y4960620D01*
X-1855470Y4950205D01*
X-1860550Y4934457D01*
X-1860550Y4924044D01*
X-1855470Y4908550D01*
X-1845055Y4898136D01*
X-1829562Y4893055D01*
X-1751584Y4893055D01*
X-1787905Y4791202D02*
G01*
X-1803400Y4796281D01*
X-1813813Y4806695D01*
X-1819147Y4822189D01*
X-1819147Y4827523D01*
X-1813813Y4843018D01*
X-1803400Y4853431D01*
X-1787905Y4858765D01*
X-1782826Y4858765D01*
X-1767078Y4853431D01*
X-1756663Y4843018D01*
X-1751584Y4827523D01*
X-1751584Y4822189D01*
X-1756663Y4806695D01*
X-1767078Y4796281D01*
X-1787905Y4791202D01*
X-1813813Y4791202D01*
X-1839976Y4796281D01*
X-1855470Y4806695D01*
X-1860550Y4822189D01*
X-1860550Y4832604D01*
X-1855470Y4848352D01*
X-1845055Y4853431D01*
D12*
X-1944115Y5645912D02*
G01*
X-1944115Y5713984D01*
X-2005584Y5720842D01*
X-1998726Y5713984D01*
X-1991868Y5693663D01*
X-1991868Y5673089D01*
X-1998726Y5652770D01*
X-2012442Y5639054D01*
X-2032762Y5632195D01*
X-2046478Y5632195D01*
X-2066797Y5639054D01*
X-2080513Y5652770D01*
X-2087371Y5673089D01*
X-2087371Y5693663D01*
X-2080513Y5713984D01*
X-2073655Y5720842D01*
X-2059939Y5727700D01*
X-1944115Y5587237D02*
G01*
X-2087371Y5532628D01*
X-1944115Y5478271D02*
G01*
X-2087371Y5532628D01*
X-2229612Y5753100D02*
G01*
X-2372868Y5753100D01*
X-2229612Y5753100D02*
G01*
X-2229612Y5691631D01*
X-2236470Y5671312D01*
X-2243328Y5664454D01*
X-2256789Y5657595D01*
X-2270505Y5657595D01*
X-2284221Y5664454D01*
X-2290826Y5671312D01*
X-2297684Y5691631D01*
X-2297684Y5753100D01*
X-2297684Y5705347D02*
G01*
X-2372868Y5657595D01*
X-2229612Y5612637D02*
G01*
X-2372868Y5517134D01*
X-2229612Y5517134D02*
G01*
X-2372868Y5612637D01*
X-2483612Y5705347D02*
G01*
X-2626868Y5705347D01*
X-2483612Y5753100D02*
G01*
X-2483612Y5657595D01*
X-2483612Y5612637D02*
G01*
X-2626868Y5517134D01*
X-2483612Y5517134D02*
G01*
X-2626868Y5612637D01*
X-2730500Y5753100D02*
G01*
X-2873755Y5753100D01*
X-2730500Y5753100D02*
G01*
X-2730500Y5705347D01*
X-2737357Y5685028D01*
X-2750820Y5671312D01*
X-2764536Y5664454D01*
X-2785110Y5657595D01*
X-2819145Y5657595D01*
X-2839465Y5664454D01*
X-2853181Y5671312D01*
X-2866897Y5685028D01*
X-2873755Y5705347D01*
X-2873755Y5753100D01*
X-2730500Y5558028D02*
G01*
X-2873755Y5612637D01*
X-2730500Y5558028D02*
G01*
X-2873755Y5503671D01*
X-2826004Y5592063D02*
G01*
X-2826004Y5523992D01*
X-2764536Y5356352D02*
G01*
X-2750820Y5363210D01*
X-2737357Y5376671D01*
X-2730500Y5390387D01*
X-2730500Y5417565D01*
X-2737357Y5431281D01*
X-2750820Y5444997D01*
X-2764536Y5451855D01*
X-2785110Y5458460D01*
X-2819145Y5458460D01*
X-2839465Y5451855D01*
X-2853181Y5444997D01*
X-2866897Y5431281D01*
X-2873755Y5417565D01*
X-2873755Y5390387D01*
X-2866897Y5376671D01*
X-2853181Y5363210D01*
X-2839465Y5356352D01*
X-2921254Y5311394D02*
G01*
X-2921254Y5188457D01*
X-2730500Y5143500D02*
G01*
X-2873755Y5143500D01*
X-2730500Y5143500D02*
G01*
X-2730500Y5082286D01*
X-2737357Y5061712D01*
X-2744215Y5054854D01*
X-2757678Y5047995D01*
X-2771394Y5047995D01*
X-2785110Y5054854D01*
X-2791713Y5061712D01*
X-2798571Y5082286D01*
X-2798571Y5143500D01*
X-2798571Y5095747D02*
G01*
X-2873755Y5047995D01*
X-2991612Y5753100D02*
G01*
X-3134868Y5753100D01*
X-2991612Y5753100D02*
G01*
X-2991612Y5705347D01*
X-2998470Y5685028D01*
X-3011931Y5671312D01*
X-3025647Y5664454D01*
X-3046221Y5657595D01*
X-3080257Y5657595D01*
X-3100578Y5664454D01*
X-3114294Y5671312D01*
X-3128010Y5685028D01*
X-3134868Y5705347D01*
X-3134868Y5753100D01*
X-2991612Y5558028D02*
G01*
X-3134868Y5612637D01*
X-2991612Y5558028D02*
G01*
X-3134868Y5503671D01*
X-3087115Y5592063D02*
G01*
X-3087115Y5523992D01*
X-3025647Y5356352D02*
G01*
X-3011931Y5363210D01*
X-2998470Y5376671D01*
X-2991612Y5390387D01*
X-2991612Y5417565D01*
X-2998470Y5431281D01*
X-3011931Y5444997D01*
X-3025647Y5451855D01*
X-3046221Y5458460D01*
X-3080257Y5458460D01*
X-3100578Y5451855D01*
X-3114294Y5444997D01*
X-3128010Y5431281D01*
X-3134868Y5417565D01*
X-3134868Y5390387D01*
X-3128010Y5376671D01*
X-3114294Y5363210D01*
X-3100578Y5356352D01*
X-3182365Y5311394D02*
G01*
X-3182365Y5188457D01*
X-2991612Y5143500D02*
G01*
X-3134868Y5143500D01*
X-3134868Y5143500D02*
G01*
X-3134868Y5061712D01*
X-3265931Y5657595D02*
G01*
X-3252470Y5671312D01*
X-3245612Y5691631D01*
X-3245612Y5719063D01*
X-3252470Y5739384D01*
X-3265931Y5753100D01*
X-3279647Y5753100D01*
X-3293363Y5746242D01*
X-3300221Y5739384D01*
X-3306826Y5725921D01*
X-3320542Y5685028D01*
X-3327400Y5671312D01*
X-3334257Y5664454D01*
X-3347973Y5657595D01*
X-3368294Y5657595D01*
X-3382010Y5671312D01*
X-3388868Y5691631D01*
X-3388868Y5719063D01*
X-3382010Y5739384D01*
X-3368294Y5753100D01*
X-3245612Y5612637D02*
G01*
X-3388868Y5612637D01*
X-3245612Y5612637D02*
G01*
X-3245612Y5551170D01*
X-3252470Y5530850D01*
X-3259328Y5523992D01*
X-3272789Y5517134D01*
X-3293363Y5517134D01*
X-3306826Y5523992D01*
X-3313684Y5530850D01*
X-3320542Y5551170D01*
X-3320542Y5612637D01*
X-3245612Y5472176D02*
G01*
X-3388868Y5472176D01*
X-3245612Y5376671D02*
G01*
X-3341115Y5472176D01*
X-3306826Y5438139D02*
G01*
X-3388868Y5376671D01*
X-3272789Y5331713D02*
G01*
X-3265931Y5317997D01*
X-3245612Y5297678D01*
X-3388868Y5297678D01*
X-3533647Y5650737D02*
G01*
X-3519931Y5657595D01*
X-3506470Y5671312D01*
X-3499612Y5685028D01*
X-3499612Y5712205D01*
X-3506470Y5725921D01*
X-3519931Y5739384D01*
X-3533647Y5746242D01*
X-3554221Y5753100D01*
X-3588257Y5753100D01*
X-3608578Y5746242D01*
X-3622294Y5739384D01*
X-3636010Y5725921D01*
X-3642868Y5712205D01*
X-3642868Y5685028D01*
X-3636010Y5671312D01*
X-3622294Y5657595D01*
X-3608578Y5650737D01*
X-3588257Y5650737D01*
X-3588257Y5685028D02*
G01*
X-3588257Y5650737D01*
X-3499612Y5605779D02*
G01*
X-3642868Y5605779D01*
X-3499612Y5605779D02*
G01*
X-3642868Y5510276D01*
X-3499612Y5510276D02*
G01*
X-3642868Y5510276D01*
X-3499612Y5465318D02*
G01*
X-3642868Y5465318D01*
X-3499612Y5465318D02*
G01*
X-3499612Y5417565D01*
X-3506470Y5397245D01*
X-3519931Y5383529D01*
X-3533647Y5376671D01*
X-3554221Y5369813D01*
X-3588257Y5369813D01*
X-3608578Y5376671D01*
X-3622294Y5383529D01*
X-3636010Y5397245D01*
X-3642868Y5417565D01*
X-3642868Y5465318D01*
X-3761231Y5657595D02*
G01*
X-3747770Y5671312D01*
X-3740912Y5691631D01*
X-3740912Y5719063D01*
X-3747770Y5739384D01*
X-3761231Y5753100D01*
X-3774947Y5753100D01*
X-3788663Y5746242D01*
X-3795521Y5739384D01*
X-3802126Y5725921D01*
X-3815842Y5685028D01*
X-3822700Y5671312D01*
X-3829557Y5664454D01*
X-3843273Y5657595D01*
X-3863594Y5657595D01*
X-3877310Y5671312D01*
X-3884168Y5691631D01*
X-3884168Y5719063D01*
X-3877310Y5739384D01*
X-3863594Y5753100D01*
X-3740912Y5612637D02*
G01*
X-3884168Y5612637D01*
X-3740912Y5612637D02*
G01*
X-3740912Y5551170D01*
X-3747770Y5530850D01*
X-3754628Y5523992D01*
X-3768089Y5517134D01*
X-3788663Y5517134D01*
X-3802126Y5523992D01*
X-3808984Y5530850D01*
X-3815842Y5551170D01*
X-3815842Y5612637D01*
X-3740912Y5472176D02*
G01*
X-3884168Y5472176D01*
X-3740912Y5376671D02*
G01*
X-3836415Y5472176D01*
X-3802126Y5438139D02*
G01*
X-3884168Y5376671D01*
X-3774947Y5324855D02*
G01*
X-3768089Y5324855D01*
X-3754628Y5317997D01*
X-3747770Y5311394D01*
X-3740912Y5297678D01*
X-3740912Y5270245D01*
X-3747770Y5256784D01*
X-3754628Y5249926D01*
X-3768089Y5243068D01*
X-3781805Y5243068D01*
X-3795521Y5249926D01*
X-3815842Y5263642D01*
X-3884168Y5331713D01*
X-3884168Y5236210D01*
X-3753612Y4470400D02*
G01*
X-3896868Y4470400D01*
X-3753612Y4384547D02*
G01*
X-3760470Y4398010D01*
X-3773931Y4411726D01*
X-3787647Y4418584D01*
X-3808221Y4425442D01*
X-3842257Y4425442D01*
X-3862578Y4418584D01*
X-3876294Y4411726D01*
X-3890010Y4398010D01*
X-3896868Y4384547D01*
X-3896868Y4357115D01*
X-3890010Y4343654D01*
X-3876294Y4329937D01*
X-3862578Y4323079D01*
X-3842257Y4316221D01*
X-3808221Y4316221D01*
X-3787647Y4323079D01*
X-3773931Y4329937D01*
X-3760470Y4343654D01*
X-3753612Y4357115D01*
X-3753612Y4384547D01*
X-3787647Y4264405D02*
G01*
X-3780789Y4264405D01*
X-3767328Y4257547D01*
X-3760470Y4250944D01*
X-3753612Y4237228D01*
X-3753612Y4210050D01*
X-3760470Y4196334D01*
X-3767328Y4189476D01*
X-3780789Y4182618D01*
X-3794505Y4182618D01*
X-3808221Y4189476D01*
X-3828542Y4203192D01*
X-3896868Y4271263D01*
X-3896868Y4175760D01*
X-3533647Y4456684D02*
G01*
X-3519931Y4463542D01*
X-3506470Y4477257D01*
X-3499612Y4490973D01*
X-3499612Y4518152D01*
X-3506470Y4531868D01*
X-3519931Y4545329D01*
X-3533647Y4552187D01*
X-3554221Y4559045D01*
X-3588257Y4559045D01*
X-3608578Y4552187D01*
X-3622294Y4545329D01*
X-3636010Y4531868D01*
X-3642868Y4518152D01*
X-3642868Y4490973D01*
X-3636010Y4477257D01*
X-3622294Y4463542D01*
X-3608578Y4456684D01*
X-3588257Y4456684D01*
X-3588257Y4490973D02*
G01*
X-3588257Y4456684D01*
X-3499612Y4411726D02*
G01*
X-3642868Y4411726D01*
X-3499612Y4411726D02*
G01*
X-3642868Y4316221D01*
X-3499612Y4316221D02*
G01*
X-3642868Y4316221D01*
X-3499612Y4271263D02*
G01*
X-3642868Y4271263D01*
X-3499612Y4271263D02*
G01*
X-3499612Y4223512D01*
X-3506470Y4203192D01*
X-3519931Y4189476D01*
X-3533647Y4182618D01*
X-3554221Y4175760D01*
X-3588257Y4175760D01*
X-3608578Y4182618D01*
X-3622294Y4189476D01*
X-3636010Y4203192D01*
X-3642868Y4223512D01*
X-3642868Y4271263D01*
X-3245612Y4408926D02*
G01*
X-3388868Y4408926D01*
X-3245612Y4323074D02*
G01*
X-3252470Y4336536D01*
X-3265931Y4350252D01*
X-3279647Y4357110D01*
X-3300221Y4363968D01*
X-3334257Y4363968D01*
X-3354578Y4357110D01*
X-3368294Y4350252D01*
X-3382010Y4336536D01*
X-3388868Y4323074D01*
X-3388868Y4295642D01*
X-3382010Y4282180D01*
X-3368294Y4268464D01*
X-3354578Y4261606D01*
X-3334257Y4254748D01*
X-3300221Y4254748D01*
X-3279647Y4261606D01*
X-3265931Y4268464D01*
X-3252470Y4282180D01*
X-3245612Y4295642D01*
X-3245612Y4323074D01*
X-3272789Y4209790D02*
G01*
X-3265931Y4196074D01*
X-3245612Y4175754D01*
X-3388868Y4175754D01*
X-3009897Y4643881D02*
G01*
X-3105401Y4680204D01*
X-3009897Y4643881D02*
G01*
X-3105401Y4607560D01*
X-3073651Y4666487D02*
G01*
X-3073651Y4621021D01*
X-3009897Y4577587D02*
G01*
X-3105401Y4577587D01*
X-3009897Y4577587D02*
G01*
X-3009897Y4545584D01*
X-3014469Y4532121D01*
X-3023613Y4522978D01*
X-3032757Y4518405D01*
X-3046219Y4513834D01*
X-3069079Y4513834D01*
X-3082795Y4518405D01*
X-3091685Y4522978D01*
X-3100829Y4532121D01*
X-3105401Y4545584D01*
X-3105401Y4577587D01*
X-3009897Y4483862D02*
G01*
X-3105401Y4483862D01*
X-3009897Y4420107D02*
G01*
X-3073651Y4483862D01*
X-3050791Y4461002D02*
G01*
X-3105401Y4420107D01*
X-3009897Y4390136D02*
G01*
X-3105401Y4390136D01*
X-3009897Y4390136D02*
G01*
X-3009897Y4331207D01*
X-3055363Y4390136D02*
G01*
X-3055363Y4353813D01*
X-3105401Y4390136D02*
G01*
X-3105401Y4331207D01*
X-3009897Y4301236D02*
G01*
X-3055363Y4264660D01*
X-3105401Y4264660D01*
X-3009897Y4228337D02*
G01*
X-3055363Y4264660D01*
X-3028185Y4198365D02*
G01*
X-3023613Y4189221D01*
X-3009897Y4175760D01*
X-3105401Y4175760D01*
X-2768597Y4684773D02*
G01*
X-2864101Y4721095D01*
X-2768597Y4684773D02*
G01*
X-2864101Y4648451D01*
X-2832351Y4707379D02*
G01*
X-2832351Y4661913D01*
X-2768597Y4618479D02*
G01*
X-2864101Y4618479D01*
X-2768597Y4618479D02*
G01*
X-2768597Y4586475D01*
X-2773169Y4573013D01*
X-2782313Y4563869D01*
X-2791457Y4559297D01*
X-2804919Y4554725D01*
X-2827779Y4554725D01*
X-2841495Y4559297D01*
X-2850385Y4563869D01*
X-2859529Y4573013D01*
X-2864101Y4586475D01*
X-2864101Y4618479D01*
X-2768597Y4524753D02*
G01*
X-2864101Y4524753D01*
X-2768597Y4460999D02*
G01*
X-2832351Y4524753D01*
X-2809491Y4501893D02*
G01*
X-2864101Y4460999D01*
X-2768597Y4431027D02*
G01*
X-2864101Y4431027D01*
X-2768597Y4431027D02*
G01*
X-2768597Y4372099D01*
X-2814063Y4431027D02*
G01*
X-2814063Y4394705D01*
X-2864101Y4431027D02*
G01*
X-2864101Y4372099D01*
X-2768597Y4342127D02*
G01*
X-2814063Y4305551D01*
X-2864101Y4305551D01*
X-2768597Y4269229D02*
G01*
X-2814063Y4305551D01*
X-2791457Y4234685D02*
G01*
X-2786885Y4234685D01*
X-2777741Y4230113D01*
X-2773169Y4225541D01*
X-2768597Y4216651D01*
X-2768597Y4198363D01*
X-2773169Y4189219D01*
X-2777741Y4184647D01*
X-2786885Y4180075D01*
X-2796029Y4180075D01*
X-2804919Y4184647D01*
X-2818635Y4193791D01*
X-2864101Y4239257D01*
X-2864101Y4175757D01*
X-2483612Y4719822D02*
G01*
X-2585973Y4719822D01*
X-2606294Y4712964D01*
X-2620010Y4699248D01*
X-2626868Y4678928D01*
X-2626868Y4665212D01*
X-2620010Y4644892D01*
X-2606294Y4631176D01*
X-2585973Y4624318D01*
X-2483612Y4624318D01*
X-2503931Y4483856D02*
G01*
X-2490470Y4497572D01*
X-2483612Y4517892D01*
X-2483612Y4545324D01*
X-2490470Y4565644D01*
X-2503931Y4579360D01*
X-2517647Y4579360D01*
X-2531363Y4572502D01*
X-2538221Y4565644D01*
X-2544826Y4552182D01*
X-2558542Y4511288D01*
X-2565400Y4497572D01*
X-2572257Y4490714D01*
X-2585973Y4483856D01*
X-2606294Y4483856D01*
X-2620010Y4497572D01*
X-2626868Y4517892D01*
X-2626868Y4545324D01*
X-2620010Y4565644D01*
X-2606294Y4579360D01*
X-2483612Y4438898D02*
G01*
X-2626868Y4438898D01*
X-2483612Y4438898D02*
G01*
X-2483612Y4377430D01*
X-2490470Y4357110D01*
X-2497328Y4350252D01*
X-2510789Y4343394D01*
X-2524505Y4343394D01*
X-2538221Y4350252D01*
X-2544826Y4357110D01*
X-2551684Y4377430D01*
X-2551684Y4438898D02*
G01*
X-2551684Y4377430D01*
X-2558542Y4357110D01*
X-2565400Y4350252D01*
X-2579115Y4343394D01*
X-2599436Y4343394D01*
X-2613152Y4350252D01*
X-2620010Y4357110D01*
X-2626868Y4377430D01*
X-2626868Y4438898D01*
X-2503931Y4236968D02*
G01*
X-2626868Y4236968D01*
X-2565400Y4298436D02*
G01*
X-2565400Y4175754D01*
X-2229612Y4719822D02*
G01*
X-2331973Y4719822D01*
X-2352294Y4712964D01*
X-2366010Y4699248D01*
X-2372868Y4678928D01*
X-2372868Y4665212D01*
X-2366010Y4644892D01*
X-2352294Y4631176D01*
X-2331973Y4624318D01*
X-2229612Y4624318D01*
X-2249931Y4483856D02*
G01*
X-2236470Y4497572D01*
X-2229612Y4517892D01*
X-2229612Y4545324D01*
X-2236470Y4565644D01*
X-2249931Y4579360D01*
X-2263647Y4579360D01*
X-2277363Y4572502D01*
X-2284221Y4565644D01*
X-2290826Y4552182D01*
X-2304542Y4511288D01*
X-2311400Y4497572D01*
X-2318257Y4490714D01*
X-2331973Y4483856D01*
X-2352294Y4483856D01*
X-2366010Y4497572D01*
X-2372868Y4517892D01*
X-2372868Y4545324D01*
X-2366010Y4565644D01*
X-2352294Y4579360D01*
X-2229612Y4438898D02*
G01*
X-2372868Y4438898D01*
X-2229612Y4438898D02*
G01*
X-2229612Y4377430D01*
X-2236470Y4357110D01*
X-2243328Y4350252D01*
X-2256789Y4343394D01*
X-2270505Y4343394D01*
X-2284221Y4350252D01*
X-2290826Y4357110D01*
X-2297684Y4377430D01*
X-2297684Y4438898D02*
G01*
X-2297684Y4377430D01*
X-2304542Y4357110D01*
X-2311400Y4350252D01*
X-2325115Y4343394D01*
X-2345436Y4343394D01*
X-2359152Y4350252D01*
X-2366010Y4357110D01*
X-2372868Y4377430D01*
X-2372868Y4438898D01*
X-2311400Y4298436D02*
G01*
X-2311400Y4175754D01*
X-1975612Y4706106D02*
G01*
X-2118868Y4706106D01*
X-1975612Y4706106D02*
G01*
X-1975612Y4644638D01*
X-1982470Y4624318D01*
X-1989328Y4617460D01*
X-2002789Y4610602D01*
X-2016505Y4610602D01*
X-2030221Y4617460D01*
X-2036826Y4624318D01*
X-2043684Y4644638D01*
X-2043684Y4706106D02*
G01*
X-2043684Y4644638D01*
X-2050542Y4624318D01*
X-2057400Y4617460D01*
X-2071115Y4610602D01*
X-2091436Y4610602D01*
X-2105152Y4617460D01*
X-2112010Y4624318D01*
X-2118868Y4644638D01*
X-2118868Y4706106D01*
X-1975612Y4565644D02*
G01*
X-2077973Y4565644D01*
X-2098294Y4558786D01*
X-2112010Y4545070D01*
X-2118868Y4524750D01*
X-2118868Y4511034D01*
X-2112010Y4490714D01*
X-2098294Y4476998D01*
X-2077973Y4470140D01*
X-1975612Y4470140D01*
X-1995931Y4329678D02*
G01*
X-1982470Y4343394D01*
X-1975612Y4363714D01*
X-1975612Y4391146D01*
X-1982470Y4411466D01*
X-1995931Y4425182D01*
X-2009647Y4425182D01*
X-2023363Y4418324D01*
X-2030221Y4411466D01*
X-2036826Y4398004D01*
X-2050542Y4357110D01*
X-2057400Y4343394D01*
X-2064257Y4336536D01*
X-2077973Y4329678D01*
X-2098294Y4329678D01*
X-2112010Y4343394D01*
X-2118868Y4363714D01*
X-2118868Y4391146D01*
X-2112010Y4411466D01*
X-2098294Y4425182D01*
X-1975612Y4284720D02*
G01*
X-2043684Y4230110D01*
X-2118868Y4230110D01*
X-1975612Y4175754D02*
G01*
X-2043684Y4230110D01*
D11*
X-8065515Y2209800D02*
G01*
X-7987537Y2209800D01*
X-7972044Y2214879D01*
X-7961629Y2225294D01*
X-7956550Y2241042D01*
X-7956550Y2251455D01*
X-7961629Y2266950D01*
X-7972044Y2277363D01*
X-7987537Y2282444D01*
X-8065515Y2282444D01*
X-8044687Y2316734D02*
G01*
X-8050021Y2327147D01*
X-8065515Y2342895D01*
X-7956550Y2342895D01*
X-8065515Y2408173D02*
G01*
X-8060436Y2392679D01*
X-8044687Y2382265D01*
X-8018779Y2377186D01*
X-8003286Y2377186D01*
X-7977123Y2382265D01*
X-7961629Y2392679D01*
X-7956550Y2408173D01*
X-7956550Y2418587D01*
X-7961629Y2434336D01*
X-7977123Y2444750D01*
X-8003286Y2449829D01*
X-8018779Y2449829D01*
X-8044687Y2444750D01*
X-8060436Y2434336D01*
X-8065515Y2418587D01*
X-8065515Y2408173D01*
X-5359412Y-1641982D02*
G01*
X-5359412Y-1719961D01*
X-5354332Y-1735454D01*
X-5343918Y-1745869D01*
X-5328170Y-1750948D01*
X-5317756Y-1750948D01*
X-5302262Y-1745869D01*
X-5291848Y-1735454D01*
X-5286768Y-1719961D01*
X-5286768Y-1641982D01*
X-5179580Y-1657477D02*
G01*
X-5189994Y-1647062D01*
X-5205742Y-1641982D01*
X-5226316Y-1641982D01*
X-5242064Y-1647062D01*
X-5252478Y-1657477D01*
X-5252478Y-1667890D01*
X-5247144Y-1678304D01*
X-5242064Y-1683638D01*
X-5231650Y-1688719D01*
X-5200408Y-1699132D01*
X-5189994Y-1704212D01*
X-5184914Y-1709546D01*
X-5179580Y-1719961D01*
X-5179580Y-1735454D01*
X-5189994Y-1745869D01*
X-5205742Y-1750948D01*
X-5226316Y-1750948D01*
X-5242064Y-1745869D01*
X-5252478Y-1735454D01*
X-5145290Y-1641982D02*
G01*
X-5145290Y-1750948D01*
X-5145290Y-1641982D02*
G01*
X-5098554Y-1641982D01*
X-5083060Y-1647062D01*
X-5077726Y-1652396D01*
X-5072646Y-1662811D01*
X-5072646Y-1673225D01*
X-5077726Y-1683638D01*
X-5083060Y-1688719D01*
X-5098554Y-1693798D01*
X-5145290Y-1693798D02*
G01*
X-5098554Y-1693798D01*
X-5083060Y-1699132D01*
X-5077726Y-1704212D01*
X-5072646Y-1714627D01*
X-5072646Y-1730375D01*
X-5077726Y-1740788D01*
X-5083060Y-1745869D01*
X-5098554Y-1750948D01*
X-5145290Y-1750948D01*
X-5033022Y-1667890D02*
G01*
X-5033022Y-1662811D01*
X-5027942Y-1652396D01*
X-5022862Y-1647062D01*
X-5012448Y-1641982D01*
X-4991620Y-1641982D01*
X-4981206Y-1647062D01*
X-4975872Y-1652396D01*
X-4970792Y-1662811D01*
X-4970792Y-1673225D01*
X-4975872Y-1683638D01*
X-4986286Y-1699132D01*
X-5038356Y-1750948D01*
X-4965712Y-1750948D01*
X-7201941Y723900D02*
G01*
X-7092975Y796544D01*
X-7201941Y796544D02*
G01*
X-7092975Y723900D01*
X-7176033Y836168D02*
G01*
X-7181113Y836168D01*
X-7191527Y841247D01*
X-7196861Y846581D01*
X-7201941Y856995D01*
X-7201941Y877570D01*
X-7196861Y887984D01*
X-7191527Y893318D01*
X-7181113Y898397D01*
X-7170699Y898397D01*
X-7160285Y893318D01*
X-7144791Y882904D01*
X-7092975Y830834D01*
X-7092975Y903731D01*
G36*
X-4943398Y6176213D02*
G01*
X-4943398Y6156401D01*
X-4811420Y6156401D01*
X-4811420Y6176213D01*
G37*
G36*
X-4887315Y6205880D02*
G01*
X-4887315Y6126683D01*
X-4867503Y6126683D01*
X-4867503Y6205880D01*
G37*
G36*
X-4887315Y6747103D02*
G01*
X-4887315Y6667906D01*
X-4867503Y6667906D01*
X-4867503Y6747103D01*
G37*
G36*
X-5625642Y6677202D02*
G01*
X-5625642Y6471208D01*
X-5594756Y6471208D01*
X-5594756Y6677202D01*
G37*
G36*
X-5672023Y6589623D02*
G01*
X-5672023Y6558737D01*
X-5548376Y6558737D01*
X-5548376Y6589623D01*
G37*
G36*
X-6516624Y6589623D02*
G01*
X-6516624Y6558737D01*
X-6392976Y6558737D01*
X-6392976Y6589623D01*
G37*
G36*
X-6925767Y3650894D02*
G01*
X-6926224Y3604920D01*
X-6885584Y3604818D01*
X-6885584Y3650538D01*
G37*
G36*
X-7185609Y3650081D02*
G01*
X-7186066Y3604107D01*
X-7145375Y3603955D01*
X-7145375Y3649675D01*
G37*
G36*
X-5283149Y2147519D02*
G01*
X-5319115Y2122525D01*
X-5247132Y2121509D01*
G37*
G36*
X-6639509Y3281781D02*
G01*
X-6639966Y3235807D01*
X-6599275Y3235655D01*
X-6599275Y3281375D01*
G37*
G36*
X-6379667Y3282594D02*
G01*
X-6380124Y3236620D01*
X-6339484Y3236518D01*
X-6339484Y3282238D01*
G37*
G36*
X-6169609Y3269081D02*
G01*
X-6170066Y3223107D01*
X-6129375Y3222955D01*
X-6129375Y3268675D01*
G37*
G36*
X-5909767Y3269894D02*
G01*
X-5910224Y3223920D01*
X-5869584Y3223818D01*
X-5869584Y3269538D01*
G37*
G36*
X-5318709Y3281781D02*
G01*
X-5319166Y3235807D01*
X-5278475Y3235655D01*
X-5278475Y3281375D01*
G37*
G36*
X-5058867Y3282594D02*
G01*
X-5059324Y3236620D01*
X-5018684Y3236518D01*
X-5018684Y3282238D01*
G37*
G36*
X-5737809Y3281781D02*
G01*
X-5738266Y3235807D01*
X-5697575Y3235655D01*
X-5697575Y3281375D01*
G37*
G36*
X-5477967Y3282594D02*
G01*
X-5478424Y3236620D01*
X-5437784Y3236518D01*
X-5437784Y3282238D01*
G37*
G36*
X-4899609Y3281781D02*
G01*
X-4900066Y3235807D01*
X-4859375Y3235655D01*
X-4859375Y3281375D01*
G37*
G36*
X-4639767Y3282594D02*
G01*
X-4640224Y3236620D01*
X-4599584Y3236518D01*
X-4599584Y3282238D01*
G37*
G36*
X-3667709Y3294481D02*
G01*
X-3668166Y3248507D01*
X-3627475Y3248355D01*
X-3627475Y3294075D01*
G37*
G36*
X-3407867Y3295294D02*
G01*
X-3408324Y3249320D01*
X-3367684Y3249218D01*
X-3367684Y3294938D01*
G37*
G36*
X-4493209Y3281781D02*
G01*
X-4493666Y3235807D01*
X-4452975Y3235655D01*
X-4452975Y3281375D01*
G37*
G36*
X-4233367Y3282594D02*
G01*
X-4233824Y3236620D01*
X-4193184Y3236518D01*
X-4193184Y3282238D01*
G37*
G36*
X-4074109Y3281781D02*
G01*
X-4074566Y3235807D01*
X-4033875Y3235655D01*
X-4033875Y3281375D01*
G37*
G36*
X-3814267Y3282594D02*
G01*
X-3814724Y3236620D01*
X-3774084Y3236518D01*
X-3774084Y3282238D01*
G37*
G36*
X-5746800Y-1558036D02*
G01*
X-5746800Y-1593291D01*
X-5716320Y-1593291D01*
X-5716320Y-1558036D01*
G37*
G36*
X-5746800Y-1683308D02*
G01*
X-5746800Y-1718564D01*
X-5716320Y-1718564D01*
X-5716320Y-1683308D01*
G37*
G36*
X-6007100Y2122170D02*
G01*
X-6043117Y2097176D01*
X-5971133Y2096211D01*
G37*
G36*
X-4965700Y2172970D02*
G01*
X-5001717Y2147976D01*
X-4929733Y2147011D01*
G37*
G36*
X-4214723Y3503117D02*
G01*
X-4215688Y3431133D01*
X-4189729Y3467100D01*
G37*
D13*
X-589404Y-1708287D02*
G01*
X-589404Y-783287D01*
X-1507413Y-1453288D02*
G01*
X-1507413Y-1708287D01*
X-953091Y-1018288D02*
G01*
X-1507413Y-1018288D01*
X-953091Y-1453288D02*
G01*
X-1507413Y-1453288D01*
X-1507413Y-1453288D02*
G01*
X-1507413Y-868865D01*
X-1673090Y-1453288D02*
G01*
X-1673090Y-1445684D01*
X-1673090Y-1578284D02*
G01*
X-1673090Y-1453288D01*
X-953091Y-1453288D02*
G01*
X-918093Y-1453288D01*
X-918093Y-1018288D01*
X-953091Y-1018288D01*
X-1605434Y-783287D02*
G01*
X-1673090Y-783287D01*
X-1673090Y-1025964D01*
X-1673090Y-1578284D02*
G01*
X-1673090Y-1708287D01*
X-248091Y-1708287D01*
X-248091Y-783287D01*
X-1190820Y-783287D01*
D11*
X-3319221Y-988039D02*
G01*
X-3415108Y-988039D01*
X-3415108Y-1120160D01*
X-3319221Y-1120160D01*
X-3233978Y-988039D02*
G01*
X-3138091Y-988039D01*
X-3138091Y-1120160D01*
X-3233978Y-1120160D01*
X-3208578Y-891560D02*
G01*
X-3112691Y-891560D01*
X-3112691Y-759439D01*
X-3208578Y-759439D01*
X-3293821Y-891560D02*
G01*
X-3389708Y-891560D01*
X-3389708Y-759439D01*
X-3293821Y-759439D01*
X-4955273Y6772460D02*
G01*
X-4691634Y6774464D01*
X-4691634Y6238778D01*
X-4831079Y6099332D01*
X-4960620Y6100668D01*
X-5099969Y6773847D02*
G01*
X-5366816Y6774515D01*
X-5366816Y6238895D01*
X-5227203Y6099281D01*
X-5097779Y6099281D01*
X-7324580Y5259260D02*
G01*
X-7465580Y5259260D01*
X-7465580Y5078539D02*
G01*
X-7324580Y5078539D01*
X-7309340Y5093779D02*
G01*
X-7309340Y5244020D01*
X-7686819Y5259260D02*
G01*
X-7545819Y5259260D01*
X-7545819Y5078539D02*
G01*
X-7686819Y5078539D01*
X-7702059Y5093779D02*
G01*
X-7702059Y5244020D01*
D14*
X-7625079Y3945889D02*
G01*
X-7310120Y3945889D01*
X-7627620Y4105910D02*
G01*
X-7307579Y4105910D01*
X-7499949Y3945889D02*
G01*
X-7499576Y4105910D01*
D15*
X-6555122Y6236787D02*
G01*
X-6555122Y5814677D01*
X-6555122Y6859922D02*
G01*
X-6555122Y6437812D01*
X-5509877Y6437812D02*
G01*
X-5509877Y6646298D01*
X-5509877Y6028301D02*
G01*
X-5509877Y6236787D01*
D11*
X-6555122Y5814677D02*
G01*
X-5723501Y5814677D01*
X-5509877Y6028301D01*
X-6555122Y6859922D02*
G01*
X-5723501Y6859922D01*
X-5509877Y6646298D01*
D14*
X-6841489Y4325620D02*
G01*
X-6841489Y4640579D01*
X-7001510Y4323079D02*
G01*
X-7001510Y4643120D01*
X-6841489Y4450750D02*
G01*
X-7001510Y4451123D01*
D13*
X-6981444Y4845304D02*
G01*
X-7181595Y4845304D01*
X-7221473Y4885436D01*
X-7221473Y5325363D01*
X-7181595Y5365495D01*
X-6981444Y5365495D01*
X-6861555Y5365495D02*
G01*
X-6661404Y5365495D01*
X-6621526Y5325363D01*
X-6621526Y4885436D01*
X-6661404Y4845304D01*
X-6861555Y4845304D01*
X-7522971Y4533900D02*
G01*
X-7677912Y4533900D01*
X-7677912Y4330700D01*
X-7522971Y4330700D01*
X-7444231Y4536439D02*
G01*
X-7296912Y4536439D01*
X-7256271Y4495800D01*
X-7256271Y4368800D01*
X-7294371Y4330700D01*
X-7446771Y4330700D01*
X-7500365Y4482337D02*
G01*
X-7500365Y4382262D01*
X-7500365Y4382262D01*
X-7450328Y4432300D01*
X-7450328Y4432300D01*
X-7500365Y4482337D01*
X-7280402Y4512310D02*
G01*
X-7280402Y4352289D01*
D11*
X-6896100Y3429000D02*
G01*
X-7181342Y3429000D01*
X-6893179Y3612418D02*
G01*
X-6893179Y3093181D01*
X-7153361Y3093471D02*
G01*
X-7177283Y3092803D01*
X-6893179Y3093181D02*
G01*
X-6917100Y3092513D01*
X-7178420Y3612418D02*
G01*
X-7178420Y3093181D01*
X-4096941Y6701718D02*
G01*
X-4096941Y6845213D01*
X-4488258Y6845213D01*
X-4488258Y6701718D01*
X-4096941Y6201481D02*
G01*
X-4096941Y6057986D01*
X-4488258Y6057986D01*
X-4488258Y6201481D01*
X-7489819Y3304809D02*
G01*
X-7618313Y3304809D01*
X-7618313Y3121390D01*
X-7489819Y3121390D01*
X-7394580Y3304809D02*
G01*
X-7266086Y3304809D01*
X-7266086Y3121390D01*
X-7394580Y3121390D01*
X-7394580Y3527790D02*
G01*
X-7266086Y3527790D01*
X-7266086Y3711209D01*
X-7394580Y3711209D01*
X-7489819Y3527790D02*
G01*
X-7618313Y3527790D01*
X-7618313Y3711209D01*
X-7489819Y3711209D01*
X-7114809Y3863980D02*
G01*
X-7114809Y3735486D01*
X-6931390Y3735486D01*
X-6931390Y3863980D01*
X-7114809Y3959219D02*
G01*
X-7114809Y4087713D01*
X-6931390Y4087713D01*
X-6931390Y3959219D01*
X-7478920Y5727959D02*
G01*
X-7478920Y6032240D01*
X-6973679Y6032240D01*
X-6973679Y5727959D01*
X-7478920Y5727959D01*
X-3484534Y1826379D02*
G01*
X-3484534Y2491620D01*
X-3190255Y2491620D01*
X-3190255Y1826379D01*
X-3484534Y1826379D01*
D16*
X-5356131Y2170523D02*
G01*
X-5356131Y2285522D01*
X-5211132Y2285522D01*
X-5211132Y2165522D01*
X-5210131Y2103523D02*
G01*
X-5210131Y1979523D01*
X-5355130Y1979523D01*
X-5355130Y2103523D01*
X-5356131Y2285522D02*
G01*
X-5356131Y2288524D01*
X-5336131Y2308524D01*
X-5234132Y2308524D01*
X-5231132Y2305522D01*
X-5211132Y2285522D01*
D13*
X-7706360Y267970D02*
G01*
X-7533639Y267970D01*
X-7533639Y267970D02*
G01*
X-7533639Y415289D01*
X-7706360Y267970D02*
G01*
X-7706360Y415289D01*
X-7533639Y473710D02*
G01*
X-7533639Y590550D01*
X-7706360Y476250D02*
G01*
X-7706360Y590550D01*
X-7706360Y590550D02*
G01*
X-7670800Y626110D01*
X-7569200Y626110D01*
X-7533639Y590550D01*
D17*
X-7660639Y436879D02*
G01*
X-7581900Y436879D01*
X-7620795Y436879D02*
G01*
X-7620795Y454416D01*
D13*
X-6461760Y775970D02*
G01*
X-6289039Y775970D01*
X-6289039Y775970D02*
G01*
X-6289039Y923289D01*
X-6461760Y775970D02*
G01*
X-6461760Y923289D01*
X-6289039Y981710D02*
G01*
X-6289039Y1098550D01*
X-6461760Y984250D02*
G01*
X-6461760Y1098550D01*
X-6461760Y1098550D02*
G01*
X-6426200Y1134110D01*
X-6324600Y1134110D01*
X-6289039Y1098550D01*
D17*
X-6416039Y944879D02*
G01*
X-6337300Y944879D01*
X-6376195Y944879D02*
G01*
X-6376195Y962416D01*
D13*
X-2500376Y3494786D02*
G01*
X-2310384Y3494786D01*
X-2220213Y3404615D01*
X-2220213Y3224784D01*
X-2320289Y3124707D01*
X-2490215Y3124707D01*
X-2580386Y3214878D01*
X-2580386Y3414776D01*
X-2500376Y3494786D01*
X-2272792Y3569715D02*
G01*
X-2183284Y3480208D01*
X-2145284Y3431539D02*
G01*
X-2145284Y3197860D01*
X-2183284Y3149191D02*
G01*
X-2272792Y3059684D01*
X-2655315Y3431539D02*
G01*
X-2655315Y3197860D01*
X-2617315Y3149191D02*
G01*
X-2527807Y3059684D01*
X-2527807Y3569715D02*
G01*
X-2617315Y3480208D01*
X-2527807Y3059684D02*
G01*
X-2272792Y3059684D01*
X-2527807Y3569715D02*
G01*
X-2272792Y3569715D01*
X-8091423Y3147313D02*
G01*
X-8281415Y3147313D01*
X-8371586Y3237484D01*
X-8371586Y3417315D01*
X-8271510Y3517392D01*
X-8101584Y3517392D01*
X-8011413Y3427221D01*
X-8011413Y3227323D01*
X-8091423Y3147313D01*
X-8319008Y3072384D02*
G01*
X-8408515Y3161891D01*
X-8446515Y3210560D02*
G01*
X-8446515Y3444239D01*
X-8408515Y3492908D02*
G01*
X-8319008Y3582415D01*
X-7936484Y3210560D02*
G01*
X-7936484Y3444239D01*
X-7974484Y3492908D02*
G01*
X-8063992Y3582415D01*
X-8063992Y3072384D02*
G01*
X-7974484Y3161891D01*
X-8063992Y3582415D02*
G01*
X-8319008Y3582415D01*
X-8063992Y3072384D02*
G01*
X-8319008Y3072384D01*
X-6795198Y1640177D02*
G01*
X-6795198Y1560174D01*
X-6906173Y1671162D02*
G01*
X-6826176Y1671162D01*
X-6906173Y1529196D02*
G01*
X-6826176Y1529196D01*
X-6963763Y1671744D02*
G01*
X-7043762Y1671744D01*
X-7074745Y1640761D02*
G01*
X-7074745Y1560763D01*
X-6963763Y1529783D02*
G01*
X-7043762Y1529783D01*
X-6704901Y1877722D02*
G01*
X-6704901Y1957725D01*
X-6593926Y1846737D02*
G01*
X-6673923Y1846737D01*
X-6593926Y1988703D02*
G01*
X-6673923Y1988703D01*
X-6536336Y1846155D02*
G01*
X-6456337Y1846155D01*
X-6425354Y1877138D02*
G01*
X-6425354Y1957136D01*
X-6536336Y1988116D02*
G01*
X-6456337Y1988116D01*
X-7455598Y1652877D02*
G01*
X-7455598Y1572874D01*
X-7566573Y1683862D02*
G01*
X-7486576Y1683862D01*
X-7566573Y1541896D02*
G01*
X-7486576Y1541896D01*
X-7624163Y1684444D02*
G01*
X-7704162Y1684444D01*
X-7735145Y1653461D02*
G01*
X-7735145Y1573463D01*
X-7624163Y1542483D02*
G01*
X-7704162Y1542483D01*
X-6439598Y2224377D02*
G01*
X-6439598Y2144374D01*
X-6550573Y2255362D02*
G01*
X-6470576Y2255362D01*
X-6550573Y2113396D02*
G01*
X-6470576Y2113396D01*
X-6608163Y2255944D02*
G01*
X-6688162Y2255944D01*
X-6719145Y2224961D02*
G01*
X-6719145Y2144963D01*
X-6608163Y2113983D02*
G01*
X-6688162Y2113983D01*
D11*
X-7023130Y1245539D02*
G01*
X-6944121Y1245539D01*
X-6944121Y1345260D02*
G01*
X-7023130Y1345260D01*
X-7038370Y1330020D02*
G01*
X-7038370Y1260779D01*
X-6819869Y1245539D02*
G01*
X-6898878Y1245539D01*
X-6898878Y1345260D02*
G01*
X-6819869Y1345260D01*
X-6804629Y1330020D02*
G01*
X-6804629Y1260779D01*
X-7632730Y-75260D02*
G01*
X-7553721Y-75260D01*
X-7553721Y24460D02*
G01*
X-7632730Y24460D01*
X-7647970Y9220D02*
G01*
X-7647970Y-60020D01*
X-7429469Y-75260D02*
G01*
X-7508478Y-75260D01*
X-7508478Y24460D02*
G01*
X-7429469Y24460D01*
X-7414229Y9220D02*
G01*
X-7414229Y-60020D01*
D13*
X-6439598Y2478377D02*
G01*
X-6439598Y2398374D01*
X-6550573Y2509362D02*
G01*
X-6470576Y2509362D01*
X-6550573Y2367396D02*
G01*
X-6470576Y2367396D01*
X-6608163Y2509944D02*
G01*
X-6688162Y2509944D01*
X-6719145Y2478961D02*
G01*
X-6719145Y2398963D01*
X-6608163Y2367983D02*
G01*
X-6688162Y2367983D01*
X-7315200Y-2197100D02*
G01*
X-7315200Y-2171700D01*
X-8051800Y-2197100D02*
G01*
X-8051800Y-2171700D01*
X-7315200Y-2197100D02*
G01*
X-7429500Y-2197100D01*
X-7810500Y-2197100D02*
G01*
X-7556500Y-2197100D01*
X-8051800Y-2197100D02*
G01*
X-7950200Y-2197100D01*
X-8051800Y-2057400D02*
G01*
X-8051800Y-1612900D01*
X-8051800Y-1612900D02*
G01*
X-7315200Y-1612900D01*
X-7315200Y-2057400D01*
X-2806700Y-2184400D02*
G01*
X-2806700Y-2159000D01*
X-3543300Y-2184400D02*
G01*
X-3543300Y-2159000D01*
X-2806700Y-2184400D02*
G01*
X-2921000Y-2184400D01*
X-3302000Y-2184400D02*
G01*
X-3048000Y-2184400D01*
X-3543300Y-2184400D02*
G01*
X-3441700Y-2184400D01*
X-3543300Y-2044700D02*
G01*
X-3543300Y-1600200D01*
X-3543300Y-1600200D02*
G01*
X-2806700Y-1600200D01*
X-2806700Y-2044700D01*
X-2400300Y6845300D02*
G01*
X-2425700Y6845300D01*
X-2400300Y6108700D02*
G01*
X-2425700Y6108700D01*
X-2400300Y6845300D02*
G01*
X-2400300Y6731000D01*
X-2400300Y6350000D02*
G01*
X-2400300Y6604000D01*
X-2400300Y6108700D02*
G01*
X-2400300Y6210300D01*
X-2540000Y6108700D02*
G01*
X-2984500Y6108700D01*
X-2984500Y6108700D02*
G01*
X-2984500Y6845300D01*
X-2540000Y6845300D01*
D18*
X-4764468Y-1990089D02*
G01*
X-4664392Y-1990089D01*
X-4664392Y-1840229D01*
D19*
X-4722304Y-2068321D02*
G01*
X-4722304Y-2193289D01*
X-4722304Y-2068321D02*
G01*
X-4767265Y-2068321D01*
X-4769294Y-1835150D02*
G01*
X-3739578Y-1835150D01*
X-3739578Y-2245105D02*
G01*
X-4769294Y-2245105D01*
X-3739578Y-2245105D02*
G01*
X-3739578Y-1835150D01*
X-4769294Y-2245105D02*
G01*
X-4769294Y-1835150D01*
D18*
X-3739578Y-1985010D02*
G01*
X-3839400Y-1985010D01*
X-3839400Y-1835150D01*
X-3739578Y-2070100D02*
G01*
X-3789616Y-2070100D01*
X-3789616Y-2195068D01*
X-4722304Y-2195068D01*
X-7050468Y-1990089D02*
G01*
X-6950392Y-1990089D01*
X-6950392Y-1840229D01*
D19*
X-7008304Y-2068321D02*
G01*
X-7008304Y-2193289D01*
X-7008304Y-2068321D02*
G01*
X-7053265Y-2068321D01*
X-7055294Y-1835150D02*
G01*
X-6025578Y-1835150D01*
X-6025578Y-2245105D02*
G01*
X-7055294Y-2245105D01*
X-6025578Y-2245105D02*
G01*
X-6025578Y-1835150D01*
X-7055294Y-2245105D02*
G01*
X-7055294Y-1835150D01*
D18*
X-6025578Y-1985010D02*
G01*
X-6125400Y-1985010D01*
X-6125400Y-1835150D01*
X-6025578Y-2070100D02*
G01*
X-6075616Y-2070100D01*
X-6075616Y-2195068D01*
X-7008304Y-2195068D01*
D13*
X-8504600Y6527800D02*
G01*
X-8504600Y6781800D01*
X-7700599Y6527800D02*
G01*
X-8504600Y6527800D01*
X-7977952Y6527800D02*
G01*
X-7977952Y6781800D01*
X-7700599Y6781800D02*
G01*
X-8504600Y6781800D01*
X-7700599Y6527800D02*
G01*
X-7700599Y6781800D01*
D11*
X-6347079Y3072892D02*
G01*
X-6632320Y3072892D01*
X-6347079Y3244118D02*
G01*
X-6347079Y2724881D01*
X-6607261Y2725171D02*
G01*
X-6631183Y2724503D01*
X-6347079Y2724881D02*
G01*
X-6371000Y2724213D01*
X-6632320Y3244118D02*
G01*
X-6632320Y2724881D01*
X-5877179Y3060192D02*
G01*
X-6162420Y3060192D01*
X-5877179Y3231418D02*
G01*
X-5877179Y2712181D01*
X-6137361Y2712471D02*
G01*
X-6161283Y2711803D01*
X-5877179Y2712181D02*
G01*
X-5901100Y2711513D01*
X-6162420Y3231418D02*
G01*
X-6162420Y2712181D01*
X-5026279Y3072892D02*
G01*
X-5311520Y3072892D01*
X-5026279Y3244118D02*
G01*
X-5026279Y2724881D01*
X-5286461Y2725171D02*
G01*
X-5310383Y2724503D01*
X-5026279Y2724881D02*
G01*
X-5050200Y2724213D01*
X-5311520Y3244118D02*
G01*
X-5311520Y2724881D01*
X-5445379Y3072892D02*
G01*
X-5730620Y3072892D01*
X-5445379Y3244118D02*
G01*
X-5445379Y2724881D01*
X-5705561Y2725171D02*
G01*
X-5729483Y2724503D01*
X-5445379Y2724881D02*
G01*
X-5469300Y2724213D01*
X-5730620Y3244118D02*
G01*
X-5730620Y2724881D01*
X-4607179Y3072892D02*
G01*
X-4892420Y3072892D01*
X-4607179Y3244118D02*
G01*
X-4607179Y2724881D01*
X-4867361Y2725171D02*
G01*
X-4891283Y2724503D01*
X-4607179Y2724881D02*
G01*
X-4631100Y2724213D01*
X-4892420Y3244118D02*
G01*
X-4892420Y2724881D01*
X-3375279Y3085592D02*
G01*
X-3660520Y3085592D01*
X-3375279Y3256818D02*
G01*
X-3375279Y2737581D01*
X-3635461Y2737871D02*
G01*
X-3659383Y2737203D01*
X-3375279Y2737581D02*
G01*
X-3399200Y2736913D01*
X-3660520Y3256818D02*
G01*
X-3660520Y2737581D01*
X-4200779Y3072892D02*
G01*
X-4486020Y3072892D01*
X-4200779Y3244118D02*
G01*
X-4200779Y2724881D01*
X-4460961Y2725171D02*
G01*
X-4484883Y2724503D01*
X-4200779Y2724881D02*
G01*
X-4224700Y2724213D01*
X-4486020Y3244118D02*
G01*
X-4486020Y2724881D01*
X-3781679Y3072892D02*
G01*
X-4066920Y3072892D01*
X-3781679Y3244118D02*
G01*
X-3781679Y2724881D01*
X-4041861Y2725171D02*
G01*
X-4065783Y2724503D01*
X-3781679Y2724881D02*
G01*
X-3805600Y2724213D01*
X-4066920Y3244118D02*
G01*
X-4066920Y2724881D01*
D15*
X-5548675Y-1710921D02*
G01*
X-5548675Y-1690298D01*
X-5548675Y-1565678D02*
G01*
X-5548675Y-1585300D01*
D11*
X-5723920Y-1565678D02*
G01*
X-5548675Y-1565678D01*
X-5723920Y-1710921D02*
G01*
X-5548675Y-1710921D01*
X-5683476Y-1565678D02*
G01*
X-5683476Y-1710921D01*
D20*
X-6308801Y-1096898D02*
G01*
X-4206798Y-1096898D01*
X-4206798Y-1366901D01*
X-6308801Y-1366901D01*
X-6308801Y-1096898D01*
D12*
X-8369300Y-1041400D02*
G01*
X-8369300Y-1231900D01*
X-8115300Y-1231900D01*
X-8115300Y2832100D01*
X-8369300Y2832100D01*
X-8369300Y2578100D01*
D21*
X-8369300Y2578100D02*
G01*
X-8369300Y-1041400D01*
D12*
X-2527300Y-1308100D02*
G01*
X-2527300Y-1498600D01*
X-2273300Y-1498600D01*
X-2273300Y2565400D01*
X-2527300Y2565400D01*
X-2527300Y2311400D01*
D21*
X-2527300Y2311400D02*
G01*
X-2527300Y-1308100D01*
D16*
X-6080099Y2145200D02*
G01*
X-6080099Y2260198D01*
X-5935101Y2260198D01*
X-5935101Y2140198D01*
X-5934100Y2078200D02*
G01*
X-5934100Y1954199D01*
X-6079098Y1954199D01*
X-6079098Y2078200D01*
X-6080099Y2260198D02*
G01*
X-6080099Y2263200D01*
X-6060099Y2283200D01*
X-5958100Y2283200D01*
X-5955101Y2280198D01*
X-5935101Y2260198D01*
X-5038699Y2196000D02*
G01*
X-5038699Y2310998D01*
X-4893701Y2310998D01*
X-4893701Y2190998D01*
X-4892700Y2129000D02*
G01*
X-4892700Y2004999D01*
X-5037698Y2004999D01*
X-5037698Y2129000D01*
X-5038699Y2310998D02*
G01*
X-5038699Y2314000D01*
X-5018699Y2334000D01*
X-4916700Y2334000D01*
X-4913701Y2330998D01*
X-4893701Y2310998D01*
X-4166699Y3540099D02*
G01*
X-4051701Y3540099D01*
X-4051701Y3395101D01*
X-4171701Y3395101D01*
X-4233699Y3394100D02*
G01*
X-4357700Y3394100D01*
X-4357700Y3539098D01*
X-4233699Y3539098D01*
X-4051701Y3540099D02*
G01*
X-4048699Y3540099D01*
X-4028699Y3520099D01*
X-4028699Y3418100D01*
X-4031701Y3415101D01*
X-4051701Y3395101D01*
D13*
X-4724400Y8585200D02*
G01*
X-5791200Y8585200D01*
X-5791200Y8864600D01*
X-4724400Y8864600D01*
X-4724400Y8585200D01*
X-4724400Y8864600D02*
G01*
X-5791200Y8864600D01*
X-5791200Y9716592D01*
X-4724400Y9716592D01*
X-4724400Y8864600D01*
X-8489492Y5364098D02*
G01*
X-8489492Y4364101D01*
X-7875066Y5364632D02*
G01*
X-7857700Y5404104D01*
X-7957700Y5404104D01*
X-7938008Y5364632D01*
X-7807700Y5364098D02*
G01*
X-7807700Y4364101D01*
X-7807700Y5364098D02*
G01*
X-8567699Y5364098D01*
X-7807700Y4364101D02*
G01*
X-8567699Y4364101D01*
X-8567699Y5364098D02*
G01*
X-8567699Y4364101D01*
X-8027619Y5364098D02*
G01*
X-8027619Y4364101D01*
X-8476792Y6430898D02*
G01*
X-8476792Y5430901D01*
X-7862366Y6431432D02*
G01*
X-7845000Y6470904D01*
X-7945000Y6470904D01*
X-7925308Y6431432D01*
X-7795000Y6430898D02*
G01*
X-7795000Y5430901D01*
X-7795000Y6430898D02*
G01*
X-8554999Y6430898D01*
X-7795000Y5430901D02*
G01*
X-8554999Y5430901D01*
X-8554999Y6430898D02*
G01*
X-8554999Y5430901D01*
X-8014919Y6430898D02*
G01*
X-8014919Y5430901D01*
D11*
X-6620278Y-647479D02*
G01*
X-6765521Y-647479D01*
X-6765521Y-750641D01*
X-6620278Y-952720D02*
G01*
X-6765521Y-952720D01*
X-6765521Y-849558D01*
X-6620278Y-754560D02*
G01*
X-6620278Y-845639D01*
X-7362421Y-940020D02*
G01*
X-7217178Y-940020D01*
X-7217178Y-836858D01*
X-7362421Y-634779D02*
G01*
X-7217178Y-634779D01*
X-7217178Y-737941D01*
X-7362421Y-832939D02*
G01*
X-7362421Y-741860D01*
X-6416060Y-830021D02*
G01*
X-6416060Y-925908D01*
X-6283939Y-925908D01*
X-6283939Y-830021D01*
X-6416060Y-744778D02*
G01*
X-6416060Y-648891D01*
X-6283939Y-648891D01*
X-6283939Y-744778D01*
X-7698760Y-855421D02*
G01*
X-7698760Y-951308D01*
X-7566639Y-951308D01*
X-7566639Y-855421D01*
X-7698760Y-770178D02*
G01*
X-7698760Y-674291D01*
X-7566639Y-674291D01*
X-7566639Y-770178D01*
X-4594839Y2163521D02*
G01*
X-4594839Y2259408D01*
X-4726960Y2259408D01*
X-4726960Y2163521D01*
X-4594839Y2078278D02*
G01*
X-4594839Y1982391D01*
X-4726960Y1982391D01*
X-4726960Y2078278D01*
X-5630621Y3545860D02*
G01*
X-5726508Y3545860D01*
X-5726508Y3413739D01*
X-5630621Y3413739D01*
X-5545378Y3545860D02*
G01*
X-5449491Y3545860D01*
X-5449491Y3413739D01*
X-5545378Y3413739D01*
X-6200160Y173278D02*
G01*
X-6200160Y77391D01*
X-6068039Y77391D01*
X-6068039Y173278D01*
X-6200160Y258521D02*
G01*
X-6200160Y354408D01*
X-6068039Y354408D01*
X-6068039Y258521D01*
X-3564178Y1572239D02*
G01*
X-3468291Y1572239D01*
X-3468291Y1704360D01*
X-3564178Y1704360D01*
X-3649421Y1572239D02*
G01*
X-3745308Y1572239D01*
X-3745308Y1704360D01*
X-3649421Y1704360D01*
X-5623539Y2176221D02*
G01*
X-5623539Y2272108D01*
X-5755660Y2272108D01*
X-5755660Y2176221D01*
X-5623539Y2090978D02*
G01*
X-5623539Y1995091D01*
X-5755660Y1995091D01*
X-5755660Y2090978D01*
X-3636721Y1069360D02*
G01*
X-3732608Y1069360D01*
X-3732608Y937239D01*
X-3636721Y937239D01*
X-3551478Y1069360D02*
G01*
X-3455591Y1069360D01*
X-3455591Y937239D01*
X-3551478Y937239D01*
D13*
X-6308097Y332795D02*
G01*
X-6468102Y332795D01*
X-6467591Y147734D02*
G01*
X-6467591Y22738D01*
X-6307587Y147734D02*
G01*
X-6307587Y22738D01*
X-6468102Y207792D02*
G01*
X-6468102Y332795D01*
X-6308097Y207792D02*
G01*
X-6308097Y332795D01*
X-6307587Y22738D02*
G01*
X-6467591Y22738D01*
X-6454195Y613402D02*
G01*
X-6454195Y453397D01*
X-6269134Y453908D02*
G01*
X-6144138Y453908D01*
X-6269134Y613912D02*
G01*
X-6144138Y613912D01*
X-6329192Y453397D02*
G01*
X-6454195Y453397D01*
X-6329192Y613402D02*
G01*
X-6454195Y613402D01*
X-6144138Y613912D02*
G01*
X-6144138Y453908D01*
X-3031497Y3571295D02*
G01*
X-3191502Y3571295D01*
X-3190991Y3386234D02*
G01*
X-3190991Y3261238D01*
X-3030987Y3386234D02*
G01*
X-3030987Y3261238D01*
X-3191502Y3446292D02*
G01*
X-3191502Y3571295D01*
X-3031497Y3446292D02*
G01*
X-3031497Y3571295D01*
X-3030987Y3261238D02*
G01*
X-3190991Y3261238D01*
X-7541204Y2561597D02*
G01*
X-7541204Y2721602D01*
X-7726265Y2721091D02*
G01*
X-7851261Y2721091D01*
X-7726265Y2561087D02*
G01*
X-7851261Y2561087D01*
X-7666207Y2721602D02*
G01*
X-7541204Y2721602D01*
X-7666207Y2561597D02*
G01*
X-7541204Y2561597D01*
X-7851261Y2561087D02*
G01*
X-7851261Y2721091D01*
X-7700002Y-510595D02*
G01*
X-7539997Y-510595D01*
X-7540508Y-325534D02*
G01*
X-7540508Y-200538D01*
X-7700512Y-325534D02*
G01*
X-7700512Y-200538D01*
X-7539997Y-385592D02*
G01*
X-7539997Y-510595D01*
X-7700002Y-385592D02*
G01*
X-7700002Y-510595D01*
X-7700512Y-200538D02*
G01*
X-7540508Y-200538D01*
X-3736395Y499102D02*
G01*
X-3736395Y339097D01*
X-3551334Y339608D02*
G01*
X-3426338Y339608D01*
X-3551334Y499612D02*
G01*
X-3426338Y499612D01*
X-3611392Y339097D02*
G01*
X-3736395Y339097D01*
X-3611392Y499102D02*
G01*
X-3736395Y499102D01*
X-3426338Y499612D02*
G01*
X-3426338Y339608D01*
D11*
X-6674949Y244919D02*
G01*
X-6600380Y244919D01*
X-6600380Y170350D01*
X-6674949Y-270319D02*
G01*
X-6600380Y-270319D01*
X-6600380Y-195750D01*
X-7041050Y244919D02*
G01*
X-7115619Y244919D01*
X-7115619Y170350D01*
X-7041050Y-270319D02*
G01*
X-7115619Y-270319D01*
X-7115619Y-195750D01*
D13*
X-4040306Y-164454D02*
G01*
X-4040306Y-809452D01*
X-5840308Y-809452D01*
X-5840308Y-162862D01*
X-5840308Y-181056D02*
G01*
X-4040306Y-181056D01*
X-4040306Y-130169D01*
X-5842007Y-130169D02*
G01*
X-5842007Y-181056D01*
X-5579922Y1740545D02*
G01*
X-5842007Y1740545D01*
X-5842007Y1657065D01*
X-4040306Y1657065D02*
G01*
X-4040306Y1740545D01*
X-4300694Y1740545D01*
X-6352095Y5184495D02*
G01*
X-4392104Y5184495D01*
X-6352095Y4844498D02*
G01*
X-6352095Y5344497D01*
X-4392104Y5344497D02*
G01*
X-4392104Y4844498D01*
X-6352095Y5344497D02*
G01*
X-4392104Y5344497D01*
X-6261100Y4483100D02*
G01*
X-6261100Y4830897D01*
X-6002888Y4844498D02*
G01*
X-6002888Y4504499D01*
X-5753968Y4844498D02*
G01*
X-5753968Y4504499D01*
X-5499968Y4844498D02*
G01*
X-5499968Y4504499D01*
X-5243431Y4844498D02*
G01*
X-5243431Y4504499D01*
X-4989431Y4844498D02*
G01*
X-4989431Y4504499D01*
X-4737968Y4844498D02*
G01*
X-4737968Y4504499D01*
X-4478888Y4844498D02*
G01*
X-4478888Y4504499D01*
X-4392104Y4844498D02*
G01*
X-4495525Y4844498D01*
X-4724674Y4844498D02*
G01*
X-4749525Y4844498D01*
X-4978674Y4844498D02*
G01*
X-5003525Y4844498D01*
X-5232674Y4844498D02*
G01*
X-5257525Y4844498D01*
X-5486674Y4844498D02*
G01*
X-5511525Y4844498D01*
X-5740674Y4844498D02*
G01*
X-5765525Y4844498D01*
X-5994674Y4844498D02*
G01*
X-6019525Y4844498D01*
X-6248674Y4844498D02*
G01*
X-6352095Y4844498D01*
X-7395900Y2259429D02*
G01*
X-7395900Y2160170D01*
X-7395900Y2132429D02*
G01*
X-7395900Y2033170D01*
X-7395900Y2005429D02*
G01*
X-7395900Y1964796D01*
X-7005901Y2132436D02*
G01*
X-7005901Y2033163D01*
X-7005901Y2259436D02*
G01*
X-7005901Y2160163D01*
X-7005901Y2454800D02*
G01*
X-7005901Y2414163D01*
X-7005901Y2386436D02*
G01*
X-7005901Y2287163D01*
X-7395900Y2386429D02*
G01*
X-7395900Y2287170D01*
X-7395900Y2454800D02*
G01*
X-7395900Y2414170D01*
X-7005901Y2005436D02*
G01*
X-7005901Y1964799D01*
X-7005899Y1964796D01*
X-7245350Y2454800D02*
G01*
X-7395900Y2454800D01*
X-7156450Y2454800D02*
G01*
X-7005901Y2454800D01*
X-7005899Y2454803D01*
X-7395900Y1964796D02*
G01*
X-7005899Y1964796D01*
X-8678491Y3700398D02*
G01*
X-7918272Y3700398D01*
X-8678374Y4300400D02*
G01*
X-7918376Y4300400D01*
X-8678491Y3700398D02*
G01*
X-8678491Y4300349D01*
X-7918376Y4300400D02*
G01*
X-7918376Y4169036D01*
X-7918376Y4031759D02*
G01*
X-7918376Y3969397D01*
X-7918376Y3831805D02*
G01*
X-7918376Y3700398D01*
X-1905000Y5994400D02*
G01*
X-1905000Y3911600D01*
X-3975100Y3911600D01*
X-3975100Y5994400D01*
X-1905000Y5994400D01*
X-7924800Y2032000D02*
G01*
X-7924800Y2387600D01*
X-7721600Y2387600D01*
X-7721600Y2032000D01*
X-7924800Y2032000D01*
D22*
X-4949456Y-2101001D02*
G01*
X-4949456Y-1929256D01*
X-4949456Y-2369185D02*
G01*
X-4949456Y-2207600D01*
X-5694438Y-1859406D02*
G01*
X-5739396Y-1859406D01*
X-5769368Y-1894204D01*
X-5769368Y-1924177D01*
X-5769368Y-2101062D02*
G01*
X-5769368Y-1924177D01*
X-5769368Y-2374264D02*
G01*
X-5769368Y-2207539D01*
X-5704344Y-2429382D02*
G01*
X-4978400Y-2429382D01*
X-5769368Y-2374264D02*
G01*
X-5769368Y-2429382D01*
X-5704344Y-2429382D01*
X-4949456Y-2369185D02*
G01*
X-4949456Y-2429382D01*
X-4989334Y-2429382D01*
X-4999494Y-1859406D02*
G01*
X-4949456Y-1859406D01*
X-4949456Y-1929256D01*
D15*
X-6743712Y520700D02*
G01*
X-6692912Y520700D01*
X-6692912Y571500D01*
D11*
X-6715531Y546354D02*
G01*
X-7048525Y546354D01*
X-7048512Y952500D01*
X-6883412Y952500D01*
X-6718312Y952500D01*
X-6718312Y952500D01*
X-6715531Y546354D01*
D13*
G75*
G01*
X-1673090Y-1514683D02*
G03*
X-1673098Y-971042I-4J271820D01*
D11*
G75*
G01*
X-7324580Y5078540D02*
G03*
X-7309340Y5093780I0J15240D01*
G75*
G01*
X-7309340Y5244020D02*
G03*
X-7324580Y5259260I-15240J0D01*
G75*
G01*
X-7686820Y5078540D02*
G02*
X-7702060Y5093780I0J15240D01*
G75*
G01*
X-7702060Y5244020D02*
G02*
X-7686820Y5259260I15240J0D01*
D13*
G75*
G01*
X-7074751Y1640761D02*
G02*
X-7043768Y1671744I30983J0D01*
G75*
G01*
X-7043768Y1529778D02*
G02*
X-7074751Y1560764I0J30983D01*
G75*
G01*
X-6826181Y1671163D02*
G02*
X-6795199Y1640177I0J-30983D01*
G75*
G01*
X-6795199Y1560180D02*
G02*
X-6826181Y1529197I-30982J0D01*
G75*
G01*
X-6425349Y1877139D02*
G02*
X-6456332Y1846156I-30983J0D01*
G75*
G01*
X-6456332Y1988122D02*
G02*
X-6425349Y1957136I0J-30983D01*
G75*
G01*
X-6673919Y1846737D02*
G02*
X-6704901Y1877723I0J30983D01*
G75*
G01*
X-6704901Y1957720D02*
G02*
X-6673919Y1988703I30982J0D01*
G75*
G01*
X-7735151Y1653461D02*
G02*
X-7704168Y1684444I30983J0D01*
G75*
G01*
X-7704168Y1542478D02*
G02*
X-7735151Y1573464I0J30983D01*
G75*
G01*
X-7486581Y1683863D02*
G02*
X-7455599Y1652877I0J-30983D01*
G75*
G01*
X-7455599Y1572880D02*
G02*
X-7486581Y1541897I-30982J0D01*
G75*
G01*
X-6719151Y2224961D02*
G02*
X-6688168Y2255944I30983J0D01*
G75*
G01*
X-6688168Y2113978D02*
G02*
X-6719151Y2144964I0J30983D01*
G75*
G01*
X-6470581Y2255363D02*
G02*
X-6439599Y2224377I0J-30983D01*
G75*
G01*
X-6439599Y2144380D02*
G02*
X-6470581Y2113397I-30982J0D01*
D11*
G75*
G01*
X-7023130Y1345260D02*
G03*
X-7038370Y1330020I0J-15240D01*
G75*
G01*
X-7038370Y1260780D02*
G03*
X-7023130Y1245540I15240J0D01*
G75*
G01*
X-6819870Y1345260D02*
G02*
X-6804630Y1330020I0J-15240D01*
G75*
G01*
X-6804630Y1260780D02*
G02*
X-6819870Y1245540I-15240J0D01*
G75*
G01*
X-7632730Y24460D02*
G03*
X-7647970Y9220I0J-15240D01*
G75*
G01*
X-7647970Y-60020D02*
G03*
X-7632730Y-75260I15240J0D01*
G75*
G01*
X-7429470Y24460D02*
G02*
X-7414230Y9220I0J-15240D01*
G75*
G01*
X-7414230Y-60020D02*
G02*
X-7429470Y-75260I-15240J0D01*
D13*
G75*
G01*
X-6719151Y2478961D02*
G02*
X-6688168Y2509944I30983J0D01*
G75*
G01*
X-6688168Y2367978D02*
G02*
X-6719151Y2398964I0J30983D01*
G75*
G01*
X-6470581Y2509363D02*
G02*
X-6439599Y2478377I0J-30983D01*
G75*
G01*
X-6439599Y2398380D02*
G02*
X-6470581Y2367397I-30982J0D01*
D20*
G75*
G01*
X-6253810Y-1321892D02*
G03*
X-6253810Y-1322349I-10005J-229D01*
D16*
G75*
G01*
X-7171004Y144780D02*
G03*
X-7170339Y144750I-10J-7493D01*
D13*
G75*
G01*
X-7245350Y2454801D02*
G03*
X-7156450Y2454801I44450J0D01*
D23*
G75*
G01
X-7401789Y5803189D02*
G03X-7401789Y5803189I-15011J0D01*
G75*
G01
X-7476439Y5602859D02*
G03X-7476439Y5602859I-15011J0D01*
D13*
G75*
G01
X-2272792Y3314700D02*
G03X-2272792Y3314700I-127508J0D01*
G75*
G01
X-8063992Y3327400D02*
G03X-8063992Y3327400I-127508J0D01*
G75*
G01
X-7416800Y2489200D02*
G03X-7416800Y2489200I-12700J0D01*
M02*
