G04 Layer: BottomLayer*
G04 EasyEDA v6.5.44, 2024-08-23 10:49:28*
G04 13edeab578334d2c94ea7048694fe743,9c714277b5a14b868680a62259e1ad39,10*
G04 Gerber Generator version 0.2*
G04 Scale: 100 percent, Rotated: No, Reflected: No *
G04 Dimensions in millimeters *
G04 leading zeros omitted , absolute positions ,4 integer and 5 decimal *
%FSLAX45Y45*%
%MOMM*%

%AMMACRO1*21,1,$1,$2,0,0,$3*%
%ADD10C,0.2540*%
%ADD11O,3.6999926000000003X1.499997*%
%ADD12O,1.499997X3.7999924*%
%ADD13C,1.7000*%
%ADD14C,1.8500*%
%ADD15MACRO1,1.8491X1.8491X0.0000*%
%ADD16R,1.7000X1.7000*%
%ADD17C,1.5301*%
%ADD18C,1.5748*%
%ADD19R,1.5748X1.5748*%
%ADD20C,1.5240*%
%ADD21R,1.6000X1.6000*%
%ADD22C,1.6000*%
%ADD23C,2.0000*%
%ADD24R,2.0000X1.6000*%
%ADD25C,1.5000*%
%ADD26O,1.2500102X0.9499854*%
%ADD27O,0.9999979999999999X1.5500096*%
%ADD28C,0.6100*%
%ADD29C,0.6200*%
%ADD30C,0.0106*%

%LPD*%
G36*
X-1086154Y-2375001D02*
G01*
X-1092758Y-2374392D01*
X-8267242Y-2374392D01*
X-8303259Y-2373426D01*
X-8338413Y-2370632D01*
X-8373414Y-2366060D01*
X-8408111Y-2359609D01*
X-8442401Y-2351328D01*
X-8476234Y-2341321D01*
X-8509508Y-2329484D01*
X-8542121Y-2315972D01*
X-8573973Y-2300782D01*
X-8604961Y-2283917D01*
X-8635034Y-2265476D01*
X-8664143Y-2245461D01*
X-8692134Y-2223973D01*
X-8718956Y-2201062D01*
X-8744508Y-2176780D01*
X-8768791Y-2151126D01*
X-8791702Y-2124303D01*
X-8813190Y-2096312D01*
X-8833154Y-2067204D01*
X-8851595Y-2037130D01*
X-8868410Y-2006092D01*
X-8883599Y-1974240D01*
X-8897112Y-1941626D01*
X-8908846Y-1908352D01*
X-8918854Y-1874520D01*
X-8927084Y-1840179D01*
X-8933535Y-1805482D01*
X-8938107Y-1770481D01*
X-8940850Y-1735328D01*
X-8941206Y-1722323D01*
X-8940292Y-1713890D01*
X-8941308Y6278473D01*
X-8940292Y6286449D01*
X-8939326Y6322060D01*
X-8936532Y6357213D01*
X-8931960Y6392214D01*
X-8925509Y6426911D01*
X-8917228Y6461201D01*
X-8907221Y6495034D01*
X-8895384Y6528307D01*
X-8881872Y6560921D01*
X-8866682Y6592773D01*
X-8849817Y6623761D01*
X-8831376Y6653834D01*
X-8811361Y6682943D01*
X-8789873Y6710934D01*
X-8766962Y6737756D01*
X-8742680Y6763308D01*
X-8717026Y6787591D01*
X-8690203Y6810502D01*
X-8662212Y6831990D01*
X-8633104Y6851954D01*
X-8603030Y6870395D01*
X-8571992Y6887209D01*
X-8540140Y6902399D01*
X-8507526Y6915912D01*
X-8474252Y6927646D01*
X-8440420Y6937654D01*
X-8406079Y6945884D01*
X-8371382Y6952335D01*
X-8336381Y6956907D01*
X-8306968Y6959193D01*
X-6977938Y6965086D01*
X-6972503Y6964680D01*
X-6951522Y6965238D01*
X-6902958Y6965442D01*
X-6896455Y6966254D01*
X-6889800Y6968947D01*
X-6886194Y6970115D01*
X-6856272Y6974230D01*
X-6817918Y6981596D01*
X-6780022Y6990994D01*
X-6742633Y7002424D01*
X-6705955Y7015835D01*
X-6670090Y7031228D01*
X-6635038Y7048500D01*
X-6601002Y7067651D01*
X-6568033Y7088631D01*
X-6536232Y7111339D01*
X-6505702Y7135672D01*
X-6476542Y7161682D01*
X-6448806Y7189165D01*
X-6422593Y7218172D01*
X-6398006Y7248499D01*
X-6375044Y7280097D01*
X-6353860Y7312914D01*
X-6334404Y7346797D01*
X-6316878Y7381697D01*
X-6301181Y7417460D01*
X-6287465Y7454036D01*
X-6275730Y7491272D01*
X-6266027Y7529118D01*
X-6258407Y7567422D01*
X-6252819Y7606080D01*
X-6249416Y7643266D01*
X-6248501Y7665008D01*
X-6247993Y7669072D01*
X-6247790Y8804249D01*
X-6246926Y8836863D01*
X-6244132Y8872270D01*
X-6239408Y8907475D01*
X-6232906Y8942374D01*
X-6224574Y8976868D01*
X-6214414Y9010904D01*
X-6202476Y9044330D01*
X-6188760Y9077096D01*
X-6173368Y9109100D01*
X-6156350Y9140291D01*
X-6137656Y9170466D01*
X-6117437Y9199676D01*
X-6095695Y9227718D01*
X-6072479Y9254642D01*
X-6047892Y9280245D01*
X-6022035Y9304578D01*
X-5994908Y9327489D01*
X-5966561Y9348927D01*
X-5937199Y9368840D01*
X-5906770Y9387179D01*
X-5875477Y9403892D01*
X-5843320Y9418980D01*
X-5810402Y9432290D01*
X-5776823Y9443872D01*
X-5742686Y9453676D01*
X-5712510Y9460636D01*
X-5710072Y9460890D01*
X-4928057Y9448292D01*
X-4892040Y9447326D01*
X-4856886Y9444532D01*
X-4821885Y9439960D01*
X-4787188Y9433509D01*
X-4752898Y9425228D01*
X-4719066Y9415221D01*
X-4685792Y9403384D01*
X-4653178Y9389872D01*
X-4621326Y9374682D01*
X-4590338Y9357817D01*
X-4560265Y9339376D01*
X-4531156Y9319361D01*
X-4503166Y9297873D01*
X-4476343Y9274962D01*
X-4450791Y9250680D01*
X-4426508Y9225026D01*
X-4403598Y9198203D01*
X-4382109Y9170212D01*
X-4362145Y9141104D01*
X-4343704Y9111030D01*
X-4326890Y9079992D01*
X-4311700Y9048140D01*
X-4298188Y9015526D01*
X-4286453Y8982252D01*
X-4276445Y8948420D01*
X-4268216Y8914079D01*
X-4261764Y8879382D01*
X-4257192Y8844381D01*
X-4255211Y8818778D01*
X-4255008Y7709458D01*
X-4254601Y7705344D01*
X-4253941Y7682687D01*
X-4250944Y7644942D01*
X-4245914Y7607300D01*
X-4238955Y7569911D01*
X-4230065Y7532979D01*
X-4219244Y7496556D01*
X-4206494Y7460742D01*
X-4191914Y7425639D01*
X-4175506Y7391349D01*
X-4157370Y7357973D01*
X-4137456Y7325614D01*
X-4115917Y7294321D01*
X-4092752Y7264196D01*
X-4068013Y7235291D01*
X-4041851Y7207758D01*
X-4014266Y7181646D01*
X-3985310Y7157008D01*
X-3955135Y7133894D01*
X-3923792Y7112406D01*
X-3891381Y7092543D01*
X-3857955Y7074458D01*
X-3823614Y7058152D01*
X-3788511Y7043623D01*
X-3752697Y7030974D01*
X-3716223Y7020255D01*
X-3679240Y7011416D01*
X-3641902Y7004507D01*
X-3604209Y6999579D01*
X-3566312Y6996684D01*
X-3530346Y6995718D01*
X-3523843Y6996328D01*
X-3518255Y6998309D01*
X-3515664Y6999427D01*
X-3512870Y6999833D01*
X-2337003Y6997192D01*
X-2301240Y6996226D01*
X-2266086Y6993432D01*
X-2231085Y6988860D01*
X-2196388Y6982409D01*
X-2162098Y6974128D01*
X-2128266Y6964121D01*
X-2094992Y6952284D01*
X-2062378Y6938772D01*
X-2030526Y6923582D01*
X-1999538Y6906717D01*
X-1969465Y6888276D01*
X-1940356Y6868261D01*
X-1912366Y6846773D01*
X-1885543Y6823862D01*
X-1859991Y6799580D01*
X-1835708Y6773925D01*
X-1812798Y6747103D01*
X-1791309Y6719112D01*
X-1771345Y6690004D01*
X-1752904Y6659930D01*
X-1736089Y6628892D01*
X-1720900Y6597040D01*
X-1707388Y6564426D01*
X-1695653Y6531152D01*
X-1685645Y6497320D01*
X-1677416Y6462979D01*
X-1670964Y6428282D01*
X-1666392Y6393281D01*
X-1663649Y6358128D01*
X-1662988Y6333693D01*
X-1663700Y6329375D01*
X-1664207Y6324041D01*
X-1651507Y-215341D01*
X-1650695Y-221843D01*
X-1648612Y-227380D01*
X-1645056Y-232460D01*
X-1642059Y-235508D01*
X-1638401Y-238150D01*
X-1632864Y-240639D01*
X-1625447Y-241808D01*
X-1118057Y-241808D01*
X-1082040Y-242773D01*
X-1046886Y-245567D01*
X-1011885Y-250139D01*
X-977188Y-256590D01*
X-942898Y-264871D01*
X-909066Y-274878D01*
X-875792Y-286715D01*
X-843178Y-300228D01*
X-811326Y-315417D01*
X-780338Y-332282D01*
X-750265Y-350723D01*
X-721156Y-370738D01*
X-693166Y-392226D01*
X-666343Y-415137D01*
X-640791Y-439420D01*
X-616508Y-465074D01*
X-593598Y-491896D01*
X-572109Y-519887D01*
X-552145Y-548995D01*
X-533704Y-579069D01*
X-516890Y-610108D01*
X-501700Y-641959D01*
X-488188Y-674573D01*
X-476453Y-707847D01*
X-466445Y-741680D01*
X-458216Y-776020D01*
X-451764Y-810717D01*
X-447192Y-845718D01*
X-444449Y-880871D01*
X-443788Y-905256D01*
X-444804Y-911606D01*
X-445008Y-914704D01*
X-445008Y-1701342D01*
X-445973Y-1737360D01*
X-448767Y-1772513D01*
X-453339Y-1807514D01*
X-459790Y-1842211D01*
X-468071Y-1876501D01*
X-478078Y-1910334D01*
X-489915Y-1943607D01*
X-503428Y-1976221D01*
X-518617Y-2008073D01*
X-535482Y-2039061D01*
X-553923Y-2069134D01*
X-573938Y-2098243D01*
X-595426Y-2126234D01*
X-618337Y-2153056D01*
X-642620Y-2178608D01*
X-668274Y-2202891D01*
X-695096Y-2225802D01*
X-723087Y-2247290D01*
X-752195Y-2267254D01*
X-782269Y-2285695D01*
X-813308Y-2302510D01*
X-845159Y-2317699D01*
X-877773Y-2331212D01*
X-911047Y-2342946D01*
X-944880Y-2352954D01*
X-979220Y-2361184D01*
X-1013917Y-2367635D01*
X-1048918Y-2372207D01*
G37*

%LPC*%
G36*
X-5967018Y-2311298D02*
G01*
X-4267758Y-2311298D01*
X-4259732Y-2310485D01*
X-4252518Y-2308301D01*
X-4245864Y-2304745D01*
X-4239615Y-2299614D01*
X-4124807Y-2184806D01*
X-4122013Y-2182825D01*
X-4118762Y-2181860D01*
X-4115358Y-2182063D01*
X-4112209Y-2183384D01*
X-4108196Y-2185873D01*
X-4102760Y-2187803D01*
X-4096410Y-2188514D01*
X-3912565Y-2188514D01*
X-3906265Y-2187803D01*
X-3900779Y-2185873D01*
X-3895902Y-2182825D01*
X-3891787Y-2178710D01*
X-3888740Y-2173833D01*
X-3886809Y-2168347D01*
X-3886098Y-2162048D01*
X-3886098Y-1978152D01*
X-3886809Y-1971852D01*
X-3890162Y-1963013D01*
X-3890365Y-1959610D01*
X-3889400Y-1956307D01*
X-3887470Y-1953564D01*
X-3234436Y-1300530D01*
X-3231134Y-1298346D01*
X-3227273Y-1297584D01*
X-2515108Y-1297584D01*
X-2511196Y-1298346D01*
X-2507945Y-1300530D01*
X-2505710Y-1303832D01*
X-2504948Y-1307744D01*
X-2504948Y-1449781D01*
X-2504236Y-1456080D01*
X-2502306Y-1461566D01*
X-2499258Y-1466443D01*
X-2495143Y-1470558D01*
X-2490266Y-1473606D01*
X-2484780Y-1475536D01*
X-2478481Y-1476248D01*
X-2322118Y-1476248D01*
X-2315819Y-1475536D01*
X-2310333Y-1473606D01*
X-2305456Y-1470558D01*
X-2301341Y-1466443D01*
X-2298293Y-1461566D01*
X-2296363Y-1456080D01*
X-2295652Y-1449781D01*
X-2295652Y-1293418D01*
X-2296363Y-1287119D01*
X-2298293Y-1281633D01*
X-2301341Y-1276756D01*
X-2305456Y-1272641D01*
X-2310333Y-1269593D01*
X-2316226Y-1267510D01*
X-2319731Y-1265428D01*
X-2322118Y-1262126D01*
X-2323033Y-1258163D01*
X-2322322Y-1254150D01*
X-2320086Y-1250746D01*
X-1867763Y-798423D01*
X-1862632Y-792175D01*
X-1859076Y-785520D01*
X-1856892Y-778306D01*
X-1856130Y-770280D01*
X-1856130Y2616555D01*
X-1856892Y2624582D01*
X-1859076Y2631846D01*
X-1862632Y2638501D01*
X-1867763Y2644749D01*
X-1894128Y2671064D01*
X-1900326Y2676194D01*
X-1907032Y2679750D01*
X-1914245Y2681935D01*
X-1922272Y2682748D01*
X-2145893Y2682748D01*
X-2149551Y2683408D01*
X-2152700Y2685389D01*
X-2154936Y2688336D01*
X-2156002Y2691892D01*
X-2156764Y2699816D01*
X-2158949Y2707030D01*
X-2162505Y2713685D01*
X-2167636Y2719933D01*
X-3146094Y3698392D01*
X-3148330Y3701694D01*
X-3149092Y3705606D01*
X-3149092Y3958336D01*
X-3148330Y3962146D01*
X-3146247Y3965397D01*
X-3143046Y3967632D01*
X-3139287Y3968496D01*
X-3135426Y3967886D01*
X-3132124Y3965854D01*
X-3123946Y3958488D01*
X-3112719Y3950766D01*
X-3100578Y3944620D01*
X-3087674Y3940149D01*
X-3074314Y3937406D01*
X-3060700Y3936492D01*
X-3047085Y3937406D01*
X-3033725Y3940149D01*
X-3020822Y3944620D01*
X-3008680Y3950766D01*
X-2997454Y3958488D01*
X-2987294Y3967632D01*
X-2978505Y3978046D01*
X-2971190Y3989527D01*
X-2965450Y4001922D01*
X-2961386Y4014927D01*
X-2959150Y4028389D01*
X-2958693Y4042003D01*
X-2960014Y4055567D01*
X-2963214Y4068826D01*
X-2968091Y4081576D01*
X-2974644Y4093514D01*
X-2982722Y4104487D01*
X-2992221Y4114292D01*
X-3002940Y4122775D01*
X-3014675Y4129735D01*
X-3027222Y4135018D01*
X-3040380Y4138625D01*
X-3053892Y4140454D01*
X-3067507Y4140454D01*
X-3081020Y4138625D01*
X-3094177Y4135018D01*
X-3106724Y4129735D01*
X-3118459Y4122775D01*
X-3129178Y4114292D01*
X-3131616Y4111751D01*
X-3134918Y4109516D01*
X-3138830Y4108653D01*
X-3142742Y4109415D01*
X-3146094Y4111599D01*
X-3148330Y4114901D01*
X-3149092Y4118813D01*
X-3149092Y4482541D01*
X-3149904Y4490567D01*
X-3152089Y4497832D01*
X-3155645Y4504486D01*
X-3160776Y4510735D01*
X-3240227Y4590186D01*
X-3242462Y4593488D01*
X-3243224Y4597400D01*
X-3242462Y4601260D01*
X-3240227Y4604562D01*
X-2088692Y5756097D01*
X-2085593Y5758230D01*
X-2081936Y5759043D01*
X-2078177Y5758484D01*
X-2071674Y5756249D01*
X-2058314Y5753506D01*
X-2044700Y5752592D01*
X-2031085Y5753506D01*
X-2017725Y5756249D01*
X-2004822Y5760720D01*
X-1992680Y5766866D01*
X-1981454Y5774588D01*
X-1971293Y5783732D01*
X-1962505Y5794146D01*
X-1955190Y5805627D01*
X-1949450Y5818022D01*
X-1945386Y5831027D01*
X-1943150Y5844489D01*
X-1942693Y5858103D01*
X-1944014Y5871667D01*
X-1947214Y5884926D01*
X-1952091Y5897676D01*
X-1958644Y5909614D01*
X-1966722Y5920587D01*
X-1976221Y5930392D01*
X-1986940Y5938875D01*
X-1998675Y5945835D01*
X-2011222Y5951118D01*
X-2024380Y5954725D01*
X-2037892Y5956554D01*
X-2051507Y5956554D01*
X-2065020Y5954725D01*
X-2078177Y5951118D01*
X-2090724Y5945835D01*
X-2102459Y5938875D01*
X-2113178Y5930392D01*
X-2122678Y5920587D01*
X-2130755Y5909614D01*
X-2137308Y5897676D01*
X-2142185Y5884926D01*
X-2145385Y5871667D01*
X-2146706Y5858103D01*
X-2146249Y5844489D01*
X-2144014Y5831027D01*
X-2140864Y5820867D01*
X-2140407Y5817209D01*
X-2141270Y5813653D01*
X-2143353Y5810656D01*
X-3315055Y4638954D01*
X-3318357Y4636770D01*
X-3322218Y4636008D01*
X-4884572Y4636008D01*
X-4888738Y4636871D01*
X-4892192Y4639411D01*
X-4894275Y4643120D01*
X-4894630Y4647387D01*
X-4893259Y4651400D01*
X-4890312Y4654499D01*
X-4881067Y4660900D01*
X-4879492Y4662474D01*
X-4876190Y4664659D01*
X-4872278Y4665472D01*
X-4608322Y4665472D01*
X-4600295Y4666234D01*
X-4593082Y4668418D01*
X-4586427Y4672025D01*
X-4580178Y4677105D01*
X-4442815Y4814519D01*
X-4437684Y4820767D01*
X-4434128Y4827422D01*
X-4431944Y4834636D01*
X-4431131Y4842662D01*
X-4431131Y4935626D01*
X-4431944Y4943652D01*
X-4434128Y4950917D01*
X-4437684Y4957572D01*
X-4442815Y4963820D01*
X-5291328Y5812332D01*
X-5297525Y5817412D01*
X-5304231Y5820968D01*
X-5311444Y5823204D01*
X-5319471Y5823966D01*
X-7179360Y5823966D01*
X-7183272Y5824728D01*
X-7186574Y5826963D01*
X-7188758Y5830265D01*
X-7189520Y5834126D01*
X-7188758Y5838037D01*
X-7186574Y5841339D01*
X-7076033Y5951880D01*
X-7073138Y5953861D01*
X-7069734Y5954776D01*
X-7061657Y5955487D01*
X-7052157Y5958027D01*
X-7043267Y5962192D01*
X-7035241Y5967831D01*
X-7028281Y5974791D01*
X-7022642Y5982817D01*
X-7018477Y5991707D01*
X-7015937Y6001207D01*
X-7015073Y6011011D01*
X-7015937Y6020816D01*
X-7018477Y6030315D01*
X-7022642Y6039205D01*
X-7028281Y6047232D01*
X-7035241Y6054191D01*
X-7043267Y6059830D01*
X-7052157Y6063996D01*
X-7061657Y6066536D01*
X-7071461Y6067399D01*
X-7081266Y6066536D01*
X-7090765Y6063996D01*
X-7099655Y6059830D01*
X-7107681Y6054191D01*
X-7114641Y6047232D01*
X-7120280Y6039205D01*
X-7124446Y6030315D01*
X-7126986Y6020816D01*
X-7127697Y6012789D01*
X-7128611Y6009386D01*
X-7130592Y6006490D01*
X-7251547Y5885535D01*
X-7254849Y5883300D01*
X-7258761Y5882538D01*
X-7485938Y5882538D01*
X-7489799Y5883300D01*
X-7493101Y5885535D01*
X-7495336Y5888837D01*
X-7496098Y5892698D01*
X-7495336Y5896610D01*
X-7493101Y5899912D01*
X-6417157Y6975856D01*
X-6412026Y6982104D01*
X-6408470Y6988759D01*
X-6406286Y6995972D01*
X-6405524Y7003999D01*
X-6405524Y7043775D01*
X-6404711Y7047636D01*
X-6402527Y7050938D01*
X-5462320Y7991144D01*
X-5458866Y7993430D01*
X-5454802Y7994091D01*
X-5450789Y7993125D01*
X-5447487Y7990636D01*
X-5445455Y7987030D01*
X-5445048Y7982915D01*
X-5446166Y7971942D01*
X-5446166Y7953857D01*
X-5444286Y7935823D01*
X-5440578Y7918094D01*
X-5435092Y7900873D01*
X-5427827Y7884261D01*
X-5418937Y7868513D01*
X-5408422Y7853730D01*
X-5396484Y7840116D01*
X-5383174Y7827822D01*
X-5368696Y7816951D01*
X-5353151Y7807655D01*
X-5336743Y7799984D01*
X-5319674Y7793990D01*
X-5302046Y7789875D01*
X-5284063Y7787538D01*
X-5265978Y7787081D01*
X-5247894Y7788452D01*
X-5230114Y7791703D01*
X-5212689Y7796784D01*
X-5195925Y7803591D01*
X-5179974Y7812125D01*
X-5164937Y7822234D01*
X-5151018Y7833817D01*
X-5138369Y7846771D01*
X-5127142Y7860995D01*
X-5117439Y7876286D01*
X-5109311Y7892440D01*
X-5102961Y7909407D01*
X-5098338Y7926933D01*
X-5095544Y7944815D01*
X-5094630Y7962900D01*
X-5095544Y7980984D01*
X-5098338Y7998866D01*
X-5102961Y8016392D01*
X-5109311Y8033359D01*
X-5117439Y8049514D01*
X-5127142Y8064804D01*
X-5138369Y8079028D01*
X-5151018Y8091982D01*
X-5164937Y8103565D01*
X-5179974Y8113674D01*
X-5195925Y8122208D01*
X-5212689Y8129016D01*
X-5230114Y8134096D01*
X-5247894Y8137347D01*
X-5265978Y8138718D01*
X-5284063Y8138261D01*
X-5290261Y8137448D01*
X-5294426Y8137804D01*
X-5298084Y8139785D01*
X-5300675Y8143087D01*
X-5301691Y8147100D01*
X-5301030Y8151215D01*
X-5298744Y8154720D01*
X-4890770Y8562695D01*
X-4887468Y8564880D01*
X-4883556Y8565692D01*
X-4877308Y8565692D01*
X-4869281Y8566454D01*
X-4862068Y8568639D01*
X-4855362Y8572246D01*
X-4849520Y8577021D01*
X-4844745Y8582863D01*
X-4841189Y8589518D01*
X-4837938Y8600694D01*
X-4835652Y8603640D01*
X-4832502Y8605621D01*
X-4828844Y8606282D01*
X-4817364Y8606282D01*
X-4813452Y8605520D01*
X-4810201Y8603335D01*
X-4807966Y8600033D01*
X-4807204Y8596122D01*
X-4807204Y7634122D01*
X-4807966Y7630210D01*
X-4810201Y7626908D01*
X-5799328Y6637731D01*
X-5802223Y6635750D01*
X-5805627Y6634835D01*
X-5813704Y6634124D01*
X-5823204Y6631584D01*
X-5832094Y6627418D01*
X-5840120Y6621780D01*
X-5847080Y6614820D01*
X-5852718Y6606794D01*
X-5856884Y6597903D01*
X-5859424Y6588404D01*
X-5860288Y6578600D01*
X-5859424Y6568795D01*
X-5856884Y6559296D01*
X-5855055Y6555486D01*
X-5854141Y6551523D01*
X-5854801Y6547510D01*
X-5856986Y6544106D01*
X-5860288Y6541820D01*
X-5864301Y6541007D01*
X-6406591Y6541007D01*
X-6410452Y6541770D01*
X-6413754Y6544005D01*
X-6415379Y6545580D01*
X-6423406Y6551218D01*
X-6432296Y6555384D01*
X-6441795Y6557924D01*
X-6451600Y6558788D01*
X-6461404Y6557924D01*
X-6470904Y6555384D01*
X-6479794Y6551218D01*
X-6487820Y6545580D01*
X-6494780Y6538620D01*
X-6500418Y6530594D01*
X-6504584Y6521704D01*
X-6507124Y6512204D01*
X-6507988Y6502400D01*
X-6507124Y6492595D01*
X-6504584Y6483096D01*
X-6500418Y6474206D01*
X-6494780Y6466179D01*
X-6487820Y6459220D01*
X-6479794Y6453581D01*
X-6470904Y6449415D01*
X-6461404Y6446875D01*
X-6451600Y6446012D01*
X-6441795Y6446875D01*
X-6432296Y6449415D01*
X-6423406Y6453581D01*
X-6415379Y6459220D01*
X-6413754Y6460794D01*
X-6410452Y6463030D01*
X-6406591Y6463792D01*
X-4577689Y6463792D01*
X-4574032Y6463131D01*
X-4570882Y6461201D01*
X-4568647Y6458254D01*
X-4567580Y6454698D01*
X-4567885Y6450990D01*
X-4570069Y6442862D01*
X-4570933Y6433058D01*
X-4570069Y6423253D01*
X-4567529Y6413754D01*
X-4563364Y6404864D01*
X-4557725Y6396837D01*
X-4550765Y6389878D01*
X-4542739Y6384239D01*
X-4533849Y6380073D01*
X-4524349Y6377533D01*
X-4514545Y6376670D01*
X-4504740Y6377533D01*
X-4495241Y6380073D01*
X-4486351Y6384239D01*
X-4478324Y6389878D01*
X-4471365Y6396837D01*
X-4465726Y6404864D01*
X-4461560Y6413754D01*
X-4459020Y6423253D01*
X-4458157Y6433058D01*
X-4459020Y6442862D01*
X-4461560Y6452362D01*
X-4465726Y6461252D01*
X-4471365Y6469278D01*
X-4472990Y6470954D01*
X-4475226Y6474256D01*
X-4475988Y6478117D01*
X-4475988Y6501892D01*
X-4476800Y6509918D01*
X-4478985Y6517131D01*
X-4482541Y6523837D01*
X-4487316Y6529679D01*
X-4493158Y6534454D01*
X-4499864Y6538010D01*
X-4507077Y6540195D01*
X-4515104Y6541007D01*
X-5743498Y6541007D01*
X-5747512Y6541820D01*
X-5750814Y6544106D01*
X-5752998Y6547510D01*
X-5753658Y6551523D01*
X-5752744Y6555486D01*
X-5750915Y6559296D01*
X-5748375Y6568795D01*
X-5747664Y6576872D01*
X-5746750Y6580276D01*
X-5744768Y6583172D01*
X-4741672Y7586268D01*
X-4736541Y7592466D01*
X-4732985Y7599172D01*
X-4730800Y7606385D01*
X-4729988Y7614412D01*
X-4729988Y8812530D01*
X-4730800Y8820556D01*
X-4732985Y8827770D01*
X-4736541Y8834475D01*
X-4741621Y8840622D01*
X-4749038Y8847836D01*
X-4754778Y8852458D01*
X-4761484Y8856014D01*
X-4768697Y8858199D01*
X-4776724Y8859012D01*
X-5022088Y8859012D01*
X-5030114Y8858199D01*
X-5037328Y8856014D01*
X-5044033Y8852458D01*
X-5050231Y8847328D01*
X-5083810Y8813800D01*
X-5086908Y8811717D01*
X-5090515Y8810853D01*
X-5094224Y8811361D01*
X-5103418Y8814460D01*
X-5116982Y8817203D01*
X-5130800Y8818067D01*
X-5144617Y8817203D01*
X-5158181Y8814460D01*
X-5171338Y8810040D01*
X-5183733Y8803894D01*
X-5195265Y8796223D01*
X-5205679Y8787079D01*
X-5214823Y8776665D01*
X-5222494Y8765133D01*
X-5228640Y8752738D01*
X-5233060Y8739581D01*
X-5235803Y8726017D01*
X-5236667Y8712200D01*
X-5235803Y8698382D01*
X-5233060Y8684818D01*
X-5228640Y8671661D01*
X-5222494Y8659266D01*
X-5214823Y8647734D01*
X-5205679Y8637320D01*
X-5195265Y8628176D01*
X-5183733Y8620506D01*
X-5171338Y8614359D01*
X-5158181Y8609939D01*
X-5144617Y8607196D01*
X-5130800Y8606332D01*
X-5116982Y8607196D01*
X-5103418Y8609939D01*
X-5090261Y8614359D01*
X-5077866Y8620506D01*
X-5066334Y8628176D01*
X-5055920Y8637320D01*
X-5046776Y8647734D01*
X-5039106Y8659266D01*
X-5032959Y8671661D01*
X-5028539Y8684818D01*
X-5025796Y8698382D01*
X-5024932Y8712200D01*
X-5025796Y8726017D01*
X-5028539Y8739581D01*
X-5031638Y8748776D01*
X-5032146Y8752484D01*
X-5031282Y8756091D01*
X-5029200Y8759190D01*
X-5009591Y8778798D01*
X-5006289Y8781034D01*
X-5002377Y8781796D01*
X-4992878Y8781796D01*
X-4988966Y8781034D01*
X-4985664Y8778798D01*
X-4983480Y8775547D01*
X-4982718Y8771636D01*
X-4982718Y8632748D01*
X-4982006Y8626449D01*
X-4980076Y8620963D01*
X-4977028Y8616086D01*
X-4972913Y8611971D01*
X-4970018Y8610193D01*
X-4967376Y8607755D01*
X-4965700Y8604504D01*
X-4965293Y8600897D01*
X-4966208Y8597392D01*
X-4968240Y8594394D01*
X-6471056Y7091629D01*
X-6476187Y7085380D01*
X-6479743Y7078725D01*
X-6481927Y7071461D01*
X-6482740Y7063435D01*
X-6482740Y7023709D01*
X-6483502Y7019798D01*
X-6485686Y7016496D01*
X-6779768Y6722414D01*
X-6783171Y6720179D01*
X-6787134Y6719468D01*
X-6791096Y6720331D01*
X-6794398Y6722668D01*
X-6796481Y6726123D01*
X-6797090Y6730136D01*
X-6796430Y6743700D01*
X-6797344Y6761784D01*
X-6800138Y6779666D01*
X-6804761Y6797192D01*
X-6811111Y6814159D01*
X-6819239Y6830314D01*
X-6828942Y6845604D01*
X-6840169Y6859828D01*
X-6852818Y6872782D01*
X-6866737Y6884365D01*
X-6881774Y6894474D01*
X-6897725Y6903008D01*
X-6914489Y6909816D01*
X-6931914Y6914896D01*
X-6949694Y6918147D01*
X-6967778Y6919518D01*
X-6985863Y6919061D01*
X-7003846Y6916724D01*
X-7021474Y6912609D01*
X-7038543Y6906615D01*
X-7054951Y6898944D01*
X-7070496Y6889648D01*
X-7084974Y6878777D01*
X-7098284Y6866483D01*
X-7110222Y6852869D01*
X-7120737Y6838086D01*
X-7129627Y6822338D01*
X-7136892Y6805726D01*
X-7142378Y6788505D01*
X-7146086Y6770776D01*
X-7147966Y6752742D01*
X-7147966Y6734657D01*
X-7146086Y6716623D01*
X-7142378Y6698894D01*
X-7136892Y6681673D01*
X-7129627Y6665061D01*
X-7120737Y6649313D01*
X-7110222Y6634530D01*
X-7098284Y6620916D01*
X-7084974Y6608622D01*
X-7070496Y6597751D01*
X-7054951Y6588455D01*
X-7038543Y6580784D01*
X-7021474Y6574790D01*
X-7003846Y6570675D01*
X-6985863Y6568338D01*
X-6967778Y6567881D01*
X-6958939Y6568541D01*
X-6954875Y6568033D01*
X-6951370Y6565950D01*
X-6948931Y6562648D01*
X-6948017Y6558686D01*
X-6948728Y6554673D01*
X-6950964Y6551218D01*
X-7558125Y5944108D01*
X-7561427Y5941872D01*
X-7565288Y5941110D01*
X-8233257Y5941110D01*
X-8241284Y5940348D01*
X-8248548Y5938113D01*
X-8255203Y5934557D01*
X-8261400Y5929477D01*
X-8499703Y5691225D01*
X-8504783Y5684977D01*
X-8508339Y5678322D01*
X-8510524Y5671058D01*
X-8511336Y5663031D01*
X-8511336Y1666036D01*
X-8510524Y1658010D01*
X-8508339Y1650796D01*
X-8504783Y1644142D01*
X-8499703Y1637893D01*
X-8342934Y1481124D01*
X-8340801Y1478026D01*
X-8339937Y1474368D01*
X-8340496Y1470660D01*
X-8343341Y1462176D01*
X-8346033Y1448765D01*
X-8346948Y1435100D01*
X-8346033Y1421434D01*
X-8343341Y1408023D01*
X-8338972Y1395069D01*
X-8332927Y1382776D01*
X-8325307Y1371396D01*
X-8316264Y1361135D01*
X-8306003Y1352092D01*
X-8294624Y1344472D01*
X-8282330Y1338427D01*
X-8269376Y1334058D01*
X-8255965Y1331366D01*
X-8242300Y1330452D01*
X-8228634Y1331366D01*
X-8215223Y1334058D01*
X-8202269Y1338427D01*
X-8189975Y1344472D01*
X-8178596Y1352092D01*
X-8168335Y1361135D01*
X-8159292Y1371396D01*
X-8151672Y1382776D01*
X-8145627Y1395069D01*
X-8141258Y1408023D01*
X-8138566Y1421434D01*
X-8137652Y1435100D01*
X-8138566Y1448765D01*
X-8141258Y1462176D01*
X-8145627Y1475130D01*
X-8151672Y1487424D01*
X-8159292Y1498803D01*
X-8168335Y1509064D01*
X-8178596Y1518107D01*
X-8189975Y1525727D01*
X-8202269Y1531772D01*
X-8215223Y1536141D01*
X-8228634Y1538833D01*
X-8242300Y1539748D01*
X-8255965Y1538833D01*
X-8269376Y1536141D01*
X-8277859Y1533296D01*
X-8281568Y1532737D01*
X-8285225Y1533601D01*
X-8288324Y1535734D01*
X-8431123Y1678533D01*
X-8433358Y1681835D01*
X-8434120Y1685747D01*
X-8434120Y4513529D01*
X-8433358Y4517390D01*
X-8431123Y4520692D01*
X-8427872Y4522876D01*
X-8423960Y4523689D01*
X-8420100Y4522876D01*
X-8416798Y4520692D01*
X-8124291Y4228185D01*
X-8118043Y4223105D01*
X-8111388Y4219498D01*
X-8104174Y4217314D01*
X-8096148Y4216552D01*
X-8021015Y4216552D01*
X-8017052Y4215739D01*
X-8013700Y4213453D01*
X-8011515Y4210050D01*
X-8010855Y4206036D01*
X-8011769Y4202125D01*
X-8014208Y4198823D01*
X-8017662Y4196791D01*
X-8027771Y4193286D01*
X-8039811Y4187190D01*
X-8050885Y4179570D01*
X-8060893Y4170527D01*
X-8069580Y4160265D01*
X-8076844Y4148886D01*
X-8082534Y4136644D01*
X-8086496Y4123791D01*
X-8088731Y4110482D01*
X-8089188Y4097020D01*
X-8087868Y4083608D01*
X-8084718Y4070502D01*
X-8079892Y4057954D01*
X-8073390Y4046118D01*
X-8065414Y4035247D01*
X-8056067Y4025595D01*
X-8045450Y4017213D01*
X-8029295Y4007612D01*
X-8026501Y4003751D01*
X-8022945Y4004767D01*
X-8019237Y4004462D01*
X-8008467Y4001515D01*
X-7995107Y3999737D01*
X-7981645Y3999737D01*
X-7968284Y4001515D01*
X-7957210Y4004564D01*
X-7953502Y4004868D01*
X-7949946Y4003852D01*
X-7946999Y4001566D01*
X-7945069Y3998417D01*
X-7944358Y3994759D01*
X-7944358Y3944467D01*
X-7891272Y3944467D01*
X-7887360Y3943654D01*
X-7884058Y3941470D01*
X-7882788Y3940149D01*
X-7880553Y3936898D01*
X-7879791Y3932986D01*
X-7879791Y3866896D01*
X-7880553Y3863035D01*
X-7882788Y3859733D01*
X-7885277Y3858056D01*
X-7883499Y3857142D01*
X-7880756Y3853637D01*
X-7879791Y3849319D01*
X-7879791Y3459581D01*
X-7880553Y3455720D01*
X-7882788Y3452418D01*
X-7884363Y3450793D01*
X-7890002Y3442766D01*
X-7894167Y3433876D01*
X-7896707Y3424377D01*
X-7897571Y3414572D01*
X-7896707Y3404768D01*
X-7894167Y3395268D01*
X-7890002Y3386378D01*
X-7884363Y3378352D01*
X-7877403Y3371392D01*
X-7869377Y3365754D01*
X-7860487Y3361588D01*
X-7850987Y3359048D01*
X-7841183Y3358184D01*
X-7831378Y3359048D01*
X-7821879Y3361588D01*
X-7812989Y3365754D01*
X-7804962Y3371392D01*
X-7798003Y3378352D01*
X-7792364Y3386378D01*
X-7788198Y3395268D01*
X-7785658Y3404768D01*
X-7784795Y3414572D01*
X-7785658Y3424377D01*
X-7788198Y3433876D01*
X-7792364Y3442766D01*
X-7798003Y3450793D01*
X-7799578Y3452418D01*
X-7801813Y3455720D01*
X-7802575Y3459581D01*
X-7802575Y3952697D01*
X-7803388Y3960723D01*
X-7805572Y3967937D01*
X-7809128Y3974592D01*
X-7814259Y3980840D01*
X-7890662Y4057243D01*
X-7892846Y4060494D01*
X-7893608Y4064254D01*
X-7892948Y4068114D01*
X-7892034Y4070502D01*
X-7888884Y4083608D01*
X-7887563Y4097020D01*
X-7888020Y4110482D01*
X-7890256Y4123791D01*
X-7894218Y4136644D01*
X-7899908Y4148886D01*
X-7907172Y4160265D01*
X-7915859Y4170527D01*
X-7925866Y4179570D01*
X-7936941Y4187190D01*
X-7948980Y4193286D01*
X-7959090Y4196791D01*
X-7962544Y4198823D01*
X-7964982Y4202125D01*
X-7965897Y4206036D01*
X-7965236Y4210050D01*
X-7963052Y4213453D01*
X-7959699Y4215739D01*
X-7955737Y4216552D01*
X-7447280Y4216552D01*
X-7443165Y4215688D01*
X-7439812Y4213250D01*
X-7437678Y4209643D01*
X-7437170Y4205478D01*
X-7437932Y4196537D01*
X-7437069Y4186783D01*
X-7434529Y4177284D01*
X-7430363Y4168394D01*
X-7424775Y4160316D01*
X-7417816Y4153357D01*
X-7409738Y4147769D01*
X-7395718Y4141215D01*
X-7393025Y4137761D01*
X-7392111Y4133443D01*
X-7392111Y3900932D01*
X-7392924Y3896817D01*
X-7395362Y3893413D01*
X-7398969Y3891279D01*
X-7403134Y3890772D01*
X-7410297Y3891432D01*
X-7413701Y3892346D01*
X-7416596Y3894328D01*
X-7655915Y4133646D01*
X-7657896Y4136542D01*
X-7658811Y4139946D01*
X-7659522Y4147972D01*
X-7662062Y4157472D01*
X-7666228Y4166362D01*
X-7671866Y4174439D01*
X-7678826Y4181398D01*
X-7686852Y4186986D01*
X-7695742Y4191152D01*
X-7705242Y4193692D01*
X-7715046Y4194556D01*
X-7724851Y4193692D01*
X-7734350Y4191152D01*
X-7743240Y4186986D01*
X-7751267Y4181398D01*
X-7758226Y4174439D01*
X-7763865Y4166362D01*
X-7768031Y4157472D01*
X-7770571Y4147972D01*
X-7771434Y4138168D01*
X-7770571Y4128414D01*
X-7768031Y4118914D01*
X-7763865Y4110024D01*
X-7758226Y4101947D01*
X-7751267Y4094987D01*
X-7743240Y4089400D01*
X-7734350Y4085234D01*
X-7724851Y4082694D01*
X-7716774Y4081983D01*
X-7713370Y4081068D01*
X-7710474Y4079036D01*
X-7471206Y3839768D01*
X-7469174Y3836873D01*
X-7468260Y3833469D01*
X-7467549Y3825392D01*
X-7465009Y3815892D01*
X-7460843Y3807002D01*
X-7455255Y3798976D01*
X-7448296Y3792016D01*
X-7440218Y3786378D01*
X-7431328Y3782212D01*
X-7421829Y3779672D01*
X-7412024Y3778808D01*
X-7403134Y3779621D01*
X-7398969Y3779113D01*
X-7395362Y3776979D01*
X-7392924Y3773576D01*
X-7392111Y3769461D01*
X-7392111Y3682187D01*
X-7392873Y3678275D01*
X-7395057Y3674973D01*
X-7640523Y3429508D01*
X-7643418Y3427526D01*
X-7646822Y3426612D01*
X-7654848Y3425901D01*
X-7664348Y3423361D01*
X-7673238Y3419195D01*
X-7681315Y3413556D01*
X-7688275Y3406597D01*
X-7693863Y3398570D01*
X-7698028Y3389680D01*
X-7700568Y3380181D01*
X-7701432Y3370376D01*
X-7700568Y3360572D01*
X-7698028Y3351072D01*
X-7693863Y3342182D01*
X-7688275Y3334156D01*
X-7681315Y3327196D01*
X-7676134Y3323539D01*
X-7673136Y3320338D01*
X-7671816Y3316122D01*
X-7672374Y3311753D01*
X-7674762Y3308045D01*
X-7981950Y3000857D01*
X-7985150Y2998724D01*
X-7988960Y2997911D01*
X-7992821Y2998622D01*
X-7996123Y3000705D01*
X-7998358Y3003854D01*
X-8002168Y3012236D01*
X-8007553Y3020212D01*
X-8014208Y3027172D01*
X-8021980Y3032912D01*
X-8030616Y3037281D01*
X-8039811Y3040075D01*
X-8053476Y3042005D01*
X-8056981Y3044291D01*
X-8113064Y3100324D01*
X-8119262Y3105454D01*
X-8125968Y3109010D01*
X-8133181Y3111195D01*
X-8141208Y3112008D01*
X-8196478Y3112008D01*
X-8200440Y3112820D01*
X-8212480Y3121812D01*
X-8221116Y3126181D01*
X-8230311Y3128975D01*
X-8239861Y3130245D01*
X-8249513Y3129788D01*
X-8258962Y3127756D01*
X-8267903Y3124200D01*
X-8276132Y3119120D01*
X-8283346Y3112770D01*
X-8289442Y3105251D01*
X-8294116Y3096818D01*
X-8297316Y3087725D01*
X-8298942Y3078226D01*
X-8298942Y3068574D01*
X-8297316Y3059074D01*
X-8294116Y3049981D01*
X-8289442Y3041548D01*
X-8283346Y3034030D01*
X-8276132Y3027680D01*
X-8267903Y3022600D01*
X-8258962Y3019044D01*
X-8249513Y3017012D01*
X-8239861Y3016554D01*
X-8230311Y3017824D01*
X-8221116Y3020618D01*
X-8212480Y3024987D01*
X-8200440Y3033979D01*
X-8196478Y3034792D01*
X-8160918Y3034792D01*
X-8157006Y3034030D01*
X-8153704Y3031794D01*
X-8111439Y2989529D01*
X-8109254Y2986227D01*
X-8108442Y2982366D01*
X-8108442Y2979674D01*
X-8106816Y2970174D01*
X-8103616Y2961081D01*
X-8098942Y2952648D01*
X-8092846Y2945130D01*
X-8085632Y2938780D01*
X-8077403Y2933700D01*
X-8071459Y2931312D01*
X-8068157Y2929178D01*
X-8065922Y2925876D01*
X-8065109Y2921965D01*
X-8065871Y2918053D01*
X-8068106Y2914700D01*
X-8184794Y2798013D01*
X-8188350Y2795727D01*
X-8192516Y2795016D01*
X-8196580Y2796133D01*
X-8202422Y2799080D01*
X-8215325Y2803550D01*
X-8228685Y2806293D01*
X-8242300Y2807208D01*
X-8255914Y2806293D01*
X-8269274Y2803550D01*
X-8282178Y2799080D01*
X-8294319Y2792933D01*
X-8305546Y2785211D01*
X-8315706Y2776067D01*
X-8324494Y2765653D01*
X-8331809Y2754172D01*
X-8337550Y2741777D01*
X-8341614Y2728772D01*
X-8343849Y2715310D01*
X-8344306Y2701696D01*
X-8342985Y2688132D01*
X-8339785Y2674874D01*
X-8334908Y2662123D01*
X-8328355Y2650185D01*
X-8320278Y2639212D01*
X-8310778Y2629408D01*
X-8300059Y2620924D01*
X-8288324Y2613964D01*
X-8275777Y2608681D01*
X-8262620Y2605074D01*
X-8249107Y2603246D01*
X-8235492Y2603246D01*
X-8221980Y2605074D01*
X-8208822Y2608681D01*
X-8196275Y2613964D01*
X-8184540Y2620924D01*
X-8173821Y2629408D01*
X-8164322Y2639212D01*
X-8156244Y2650185D01*
X-8149691Y2662123D01*
X-8144814Y2674874D01*
X-8141614Y2688132D01*
X-8140293Y2701696D01*
X-8140750Y2715310D01*
X-8142376Y2725166D01*
X-8142427Y2728366D01*
X-8141462Y2731465D01*
X-8139531Y2734056D01*
X-8124901Y2748737D01*
X-8121345Y2751023D01*
X-8117128Y2751683D01*
X-8113064Y2750566D01*
X-8109762Y2747873D01*
X-8107883Y2744063D01*
X-8107680Y2739796D01*
X-8108442Y2735326D01*
X-8108442Y2725674D01*
X-8106816Y2716174D01*
X-8103616Y2707081D01*
X-8098942Y2698648D01*
X-8092846Y2691130D01*
X-8085632Y2684780D01*
X-8077403Y2679700D01*
X-8068462Y2676144D01*
X-8059013Y2674112D01*
X-8049361Y2673654D01*
X-8039811Y2674924D01*
X-8030616Y2677718D01*
X-8021980Y2682087D01*
X-8009940Y2691079D01*
X-8005978Y2691892D01*
X-8001508Y2691892D01*
X-7993481Y2692704D01*
X-7986268Y2694889D01*
X-7979562Y2698445D01*
X-7973364Y2703576D01*
X-7790281Y2886608D01*
X-7786776Y2888894D01*
X-7773111Y2890824D01*
X-7763916Y2893618D01*
X-7755280Y2897987D01*
X-7747508Y2903728D01*
X-7740853Y2910687D01*
X-7735468Y2918663D01*
X-7731455Y2927451D01*
X-7729067Y2936798D01*
X-7728203Y2946400D01*
X-7729067Y2956001D01*
X-7731455Y2965348D01*
X-7735468Y2974136D01*
X-7740853Y2982112D01*
X-7747508Y2989072D01*
X-7755280Y2994812D01*
X-7763916Y2999181D01*
X-7773111Y3001975D01*
X-7782661Y3003245D01*
X-7792313Y3002788D01*
X-7801762Y3000756D01*
X-7810703Y2997200D01*
X-7818932Y2992120D01*
X-7826146Y2985770D01*
X-7832242Y2978251D01*
X-7836916Y2969818D01*
X-7840116Y2960725D01*
X-7841742Y2951226D01*
X-7841742Y2948533D01*
X-7842554Y2944672D01*
X-7844739Y2941370D01*
X-8007299Y2778810D01*
X-8010245Y2776778D01*
X-8013700Y2775864D01*
X-8017306Y2776220D01*
X-8021980Y2778912D01*
X-8030616Y2783281D01*
X-8039811Y2786075D01*
X-8049361Y2787345D01*
X-8059013Y2786888D01*
X-8060588Y2786583D01*
X-8064906Y2786583D01*
X-8068818Y2788361D01*
X-8071662Y2791663D01*
X-8072881Y2795778D01*
X-8072272Y2800045D01*
X-8069935Y2803702D01*
X-7363815Y3509772D01*
X-7360564Y3511956D01*
X-7356652Y3512769D01*
X-7352792Y3511956D01*
X-7349490Y3509772D01*
X-7082942Y3243224D01*
X-7076744Y3238144D01*
X-7070090Y3234537D01*
X-7062825Y3232353D01*
X-7054799Y3231591D01*
X-6810705Y3231591D01*
X-6806844Y3230778D01*
X-6803542Y3228594D01*
X-6801307Y3225292D01*
X-6800545Y3221431D01*
X-6801307Y3217519D01*
X-6803542Y3214217D01*
X-7491120Y2526690D01*
X-7496200Y2520442D01*
X-7499756Y2513787D01*
X-7501940Y2506522D01*
X-7502753Y2498496D01*
X-7502753Y2349703D01*
X-7503515Y2345842D01*
X-7505750Y2342540D01*
X-7509052Y2340305D01*
X-7512913Y2339543D01*
X-8137956Y2339543D01*
X-8145983Y2338781D01*
X-8153247Y2336546D01*
X-8159902Y2332990D01*
X-8166100Y2327910D01*
X-8196275Y2297734D01*
X-8199374Y2295601D01*
X-8203031Y2294737D01*
X-8206740Y2295296D01*
X-8215223Y2298141D01*
X-8228634Y2300833D01*
X-8242300Y2301748D01*
X-8255965Y2300833D01*
X-8269376Y2298141D01*
X-8282330Y2293772D01*
X-8294624Y2287727D01*
X-8306003Y2280107D01*
X-8316264Y2271064D01*
X-8325307Y2260803D01*
X-8332927Y2249424D01*
X-8338972Y2237130D01*
X-8343341Y2224176D01*
X-8346033Y2210765D01*
X-8346948Y2197100D01*
X-8346033Y2183434D01*
X-8343341Y2170023D01*
X-8338972Y2157069D01*
X-8332927Y2144776D01*
X-8325307Y2133396D01*
X-8316264Y2123135D01*
X-8306003Y2114092D01*
X-8294624Y2106472D01*
X-8282330Y2100427D01*
X-8269376Y2096058D01*
X-8255965Y2093366D01*
X-8242300Y2092452D01*
X-8228634Y2093366D01*
X-8215223Y2096058D01*
X-8202269Y2100427D01*
X-8189975Y2106472D01*
X-8178596Y2114092D01*
X-8168335Y2123135D01*
X-8159292Y2133396D01*
X-8151672Y2144776D01*
X-8145627Y2157069D01*
X-8141258Y2170023D01*
X-8138566Y2183434D01*
X-8137652Y2197100D01*
X-8138566Y2210765D01*
X-8141258Y2224176D01*
X-8144103Y2232660D01*
X-8144662Y2236368D01*
X-8143798Y2240026D01*
X-8141665Y2243124D01*
X-8125459Y2259380D01*
X-8122158Y2261565D01*
X-8118246Y2262327D01*
X-7484364Y2262327D01*
X-7480452Y2261565D01*
X-7477150Y2259380D01*
X-7456068Y2238298D01*
X-7449870Y2233168D01*
X-7448651Y2232558D01*
X-7445298Y2229612D01*
X-7443470Y2225548D01*
X-7443622Y2221128D01*
X-7445603Y2217115D01*
X-7449108Y2214372D01*
X-7453477Y2213406D01*
X-7512303Y2213406D01*
X-7520330Y2212644D01*
X-7527544Y2210409D01*
X-7534198Y2206853D01*
X-7540447Y2201773D01*
X-7553452Y2188718D01*
X-7556753Y2186533D01*
X-7560665Y2185771D01*
X-7713167Y2185771D01*
X-7721193Y2184958D01*
X-7728407Y2182774D01*
X-7735062Y2179218D01*
X-7741310Y2174087D01*
X-8057692Y1857705D01*
X-8060994Y1855470D01*
X-8064906Y1854707D01*
X-8158530Y1854707D01*
X-8162290Y1855470D01*
X-8165541Y1857552D01*
X-8167776Y1860702D01*
X-8168690Y1864410D01*
X-8168131Y1868271D01*
X-8166150Y1871573D01*
X-8159292Y1879396D01*
X-8151672Y1890775D01*
X-8145627Y1903069D01*
X-8141258Y1916023D01*
X-8138566Y1929434D01*
X-8137652Y1943100D01*
X-8138566Y1956765D01*
X-8141258Y1970176D01*
X-8145627Y1983130D01*
X-8151672Y1995424D01*
X-8159292Y2006803D01*
X-8168335Y2017064D01*
X-8178596Y2026107D01*
X-8189975Y2033727D01*
X-8202269Y2039772D01*
X-8215223Y2044141D01*
X-8228634Y2046833D01*
X-8242300Y2047748D01*
X-8255965Y2046833D01*
X-8269376Y2044141D01*
X-8282330Y2039772D01*
X-8294624Y2033727D01*
X-8306003Y2026107D01*
X-8316264Y2017064D01*
X-8325307Y2006803D01*
X-8332927Y1995424D01*
X-8338972Y1983130D01*
X-8343341Y1970176D01*
X-8346033Y1956765D01*
X-8346948Y1943100D01*
X-8346033Y1929434D01*
X-8343341Y1916023D01*
X-8338972Y1903069D01*
X-8332927Y1890775D01*
X-8325307Y1879396D01*
X-8317128Y1870049D01*
X-8315198Y1866798D01*
X-8314588Y1863039D01*
X-8315401Y1859330D01*
X-8317534Y1856181D01*
X-8321395Y1852320D01*
X-8327034Y1844293D01*
X-8331200Y1835404D01*
X-8333740Y1825904D01*
X-8334603Y1816100D01*
X-8333740Y1806295D01*
X-8331200Y1796796D01*
X-8327034Y1787906D01*
X-8321395Y1779879D01*
X-8317534Y1776018D01*
X-8315401Y1772869D01*
X-8314588Y1769160D01*
X-8315198Y1765401D01*
X-8317128Y1762150D01*
X-8325307Y1752803D01*
X-8332927Y1741424D01*
X-8338972Y1729130D01*
X-8343341Y1716176D01*
X-8346033Y1702765D01*
X-8346948Y1689100D01*
X-8346033Y1675434D01*
X-8343341Y1662023D01*
X-8338972Y1649069D01*
X-8332927Y1636776D01*
X-8325307Y1625396D01*
X-8316264Y1615135D01*
X-8306003Y1606092D01*
X-8294624Y1598472D01*
X-8282330Y1592427D01*
X-8269376Y1588058D01*
X-8255965Y1585366D01*
X-8242300Y1584452D01*
X-8228634Y1585366D01*
X-8215223Y1588058D01*
X-8202269Y1592427D01*
X-8189975Y1598472D01*
X-8178596Y1606092D01*
X-8168335Y1615135D01*
X-8159292Y1625396D01*
X-8153146Y1634591D01*
X-8150656Y1637182D01*
X-8147405Y1638757D01*
X-8143849Y1639112D01*
X-8140395Y1638198D01*
X-8136026Y1636115D01*
X-8126526Y1633575D01*
X-8116722Y1632712D01*
X-8106918Y1633575D01*
X-8097418Y1636115D01*
X-8088528Y1640281D01*
X-8080502Y1645920D01*
X-8078876Y1647545D01*
X-8075574Y1649730D01*
X-8071713Y1650492D01*
X-7496403Y1650492D01*
X-7492441Y1649679D01*
X-7489088Y1647393D01*
X-7486903Y1643989D01*
X-7486243Y1639976D01*
X-7487208Y1636064D01*
X-7488986Y1632204D01*
X-7491526Y1622704D01*
X-7492238Y1614678D01*
X-7493152Y1611274D01*
X-7495184Y1608378D01*
X-8007858Y1095705D01*
X-8011159Y1093470D01*
X-8015020Y1092708D01*
X-8158530Y1092708D01*
X-8162290Y1093470D01*
X-8165541Y1095552D01*
X-8167776Y1098702D01*
X-8168690Y1102410D01*
X-8168131Y1106271D01*
X-8166150Y1109573D01*
X-8159292Y1117396D01*
X-8151672Y1128776D01*
X-8145627Y1141069D01*
X-8141258Y1154023D01*
X-8138566Y1167434D01*
X-8137652Y1181100D01*
X-8138566Y1194765D01*
X-8141258Y1208176D01*
X-8145627Y1221130D01*
X-8151672Y1233424D01*
X-8159292Y1244803D01*
X-8168335Y1255064D01*
X-8178596Y1264107D01*
X-8189975Y1271727D01*
X-8202269Y1277772D01*
X-8215223Y1282141D01*
X-8228634Y1284833D01*
X-8242300Y1285748D01*
X-8255965Y1284833D01*
X-8269376Y1282141D01*
X-8282330Y1277772D01*
X-8294624Y1271727D01*
X-8306003Y1264107D01*
X-8316264Y1255064D01*
X-8325307Y1244803D01*
X-8332927Y1233424D01*
X-8338972Y1221130D01*
X-8343341Y1208176D01*
X-8346033Y1194765D01*
X-8346948Y1181100D01*
X-8346033Y1167434D01*
X-8343341Y1154023D01*
X-8338972Y1141069D01*
X-8332927Y1128776D01*
X-8325307Y1117396D01*
X-8316264Y1107135D01*
X-8306003Y1098092D01*
X-8302091Y1095451D01*
X-8298992Y1092250D01*
X-8297621Y1088034D01*
X-8298129Y1083614D01*
X-8300516Y1079855D01*
X-8379256Y1001115D01*
X-8384387Y994867D01*
X-8387943Y988212D01*
X-8390128Y980998D01*
X-8390940Y972972D01*
X-8390940Y867765D01*
X-8390128Y859739D01*
X-8387943Y852474D01*
X-8384387Y845819D01*
X-8379256Y839571D01*
X-8312810Y773176D01*
X-8308492Y769620D01*
X-8305800Y766165D01*
X-8304784Y761949D01*
X-8305647Y757631D01*
X-8308238Y754126D01*
X-8316264Y747064D01*
X-8325307Y736803D01*
X-8332927Y725424D01*
X-8338972Y713130D01*
X-8343341Y700176D01*
X-8346033Y686765D01*
X-8346948Y673100D01*
X-8346033Y659434D01*
X-8343341Y646023D01*
X-8338972Y633069D01*
X-8332927Y620776D01*
X-8325307Y609396D01*
X-8316264Y599135D01*
X-8306003Y590092D01*
X-8294268Y582269D01*
X-8291575Y579577D01*
X-8290001Y576122D01*
X-8289848Y572312D01*
X-8291118Y568706D01*
X-8293608Y565861D01*
X-8296960Y564083D01*
X-8303259Y562152D01*
X-8309965Y558596D01*
X-8316163Y553466D01*
X-8376158Y493471D01*
X-8381288Y487273D01*
X-8384844Y480568D01*
X-8387029Y473354D01*
X-8387842Y465328D01*
X-8387842Y272542D01*
X-8387029Y264515D01*
X-8384844Y257302D01*
X-8381288Y250596D01*
X-8376158Y244398D01*
X-8342934Y211124D01*
X-8340801Y208025D01*
X-8339937Y204368D01*
X-8340496Y200660D01*
X-8343341Y192176D01*
X-8346033Y178765D01*
X-8346948Y165100D01*
X-8346033Y151434D01*
X-8343341Y138023D01*
X-8340496Y129539D01*
X-8339937Y125831D01*
X-8340801Y122174D01*
X-8342934Y119075D01*
X-8381644Y80416D01*
X-8386724Y74168D01*
X-8390280Y67513D01*
X-8392464Y60248D01*
X-8393277Y52222D01*
X-8393277Y-640486D01*
X-8392464Y-648512D01*
X-8390280Y-655726D01*
X-8386724Y-662381D01*
X-8381644Y-668629D01*
X-8300567Y-749655D01*
X-8298180Y-753414D01*
X-8297672Y-757834D01*
X-8299043Y-762101D01*
X-8302142Y-765302D01*
X-8306003Y-767892D01*
X-8316264Y-776935D01*
X-8325307Y-787196D01*
X-8332927Y-798576D01*
X-8338972Y-810869D01*
X-8343341Y-823823D01*
X-8346033Y-837234D01*
X-8346948Y-850900D01*
X-8346033Y-864565D01*
X-8343341Y-877976D01*
X-8338972Y-890930D01*
X-8332927Y-903224D01*
X-8325307Y-914603D01*
X-8316264Y-924864D01*
X-8306003Y-933907D01*
X-8294624Y-941527D01*
X-8282330Y-947572D01*
X-8269376Y-951941D01*
X-8255965Y-954633D01*
X-8242300Y-955548D01*
X-8228634Y-954633D01*
X-8215223Y-951941D01*
X-8206740Y-949096D01*
X-8203031Y-948537D01*
X-8199374Y-949401D01*
X-8196275Y-951534D01*
X-8164880Y-982929D01*
X-8162696Y-986180D01*
X-8161883Y-990092D01*
X-8162696Y-994003D01*
X-8164880Y-997254D01*
X-8168182Y-999490D01*
X-8172043Y-1000252D01*
X-8320481Y-1000252D01*
X-8326780Y-1000963D01*
X-8332266Y-1002893D01*
X-8337143Y-1005941D01*
X-8341258Y-1010056D01*
X-8344306Y-1014933D01*
X-8346236Y-1020419D01*
X-8346948Y-1026718D01*
X-8346948Y-1183081D01*
X-8346236Y-1189380D01*
X-8344306Y-1194866D01*
X-8341258Y-1199743D01*
X-8337143Y-1203858D01*
X-8332266Y-1206906D01*
X-8326780Y-1208836D01*
X-8320481Y-1209548D01*
X-8164118Y-1209548D01*
X-8157819Y-1208836D01*
X-8152333Y-1206906D01*
X-8147456Y-1203858D01*
X-8143341Y-1199743D01*
X-8140293Y-1194866D01*
X-8138363Y-1189380D01*
X-8137652Y-1182014D01*
X-8136890Y-1178102D01*
X-8134654Y-1174851D01*
X-8131403Y-1172616D01*
X-8127492Y-1171854D01*
X-8123580Y-1172616D01*
X-8120329Y-1174851D01*
X-7930743Y-1364386D01*
X-7924546Y-1369466D01*
X-7917891Y-1373073D01*
X-7910626Y-1375257D01*
X-7902600Y-1376019D01*
X-5744819Y-1376019D01*
X-5736793Y-1375257D01*
X-5729579Y-1373073D01*
X-5722924Y-1369466D01*
X-5716676Y-1364386D01*
X-5683097Y-1330807D01*
X-5679897Y-1328623D01*
X-5676087Y-1327810D01*
X-5672277Y-1328470D01*
X-5669127Y-1329690D01*
X-5655818Y-1332839D01*
X-5642203Y-1334211D01*
X-5628538Y-1333754D01*
X-5615076Y-1331518D01*
X-5602020Y-1327454D01*
X-5589574Y-1321714D01*
X-5578043Y-1314348D01*
X-5567629Y-1305509D01*
X-5555030Y-1291640D01*
X-5551627Y-1290116D01*
X-5547868Y-1289964D01*
X-5544362Y-1291183D01*
X-5541467Y-1293571D01*
X-5538774Y-1296924D01*
X-5459272Y-1376375D01*
X-5453075Y-1381455D01*
X-5446420Y-1385062D01*
X-5439156Y-1387246D01*
X-5431129Y-1388008D01*
X-5248808Y-1388008D01*
X-5240782Y-1387246D01*
X-5233568Y-1385062D01*
X-5226913Y-1381455D01*
X-5220665Y-1376375D01*
X-5175097Y-1330807D01*
X-5171897Y-1328623D01*
X-5168087Y-1327810D01*
X-5164277Y-1328470D01*
X-5161127Y-1329690D01*
X-5151577Y-1331976D01*
X-5147716Y-1333804D01*
X-5144922Y-1337106D01*
X-5143754Y-1341221D01*
X-5144414Y-1345438D01*
X-5146751Y-1349044D01*
X-5389626Y-1591919D01*
X-5392928Y-1594154D01*
X-5396788Y-1594916D01*
X-7233716Y-1594916D01*
X-7241743Y-1595678D01*
X-7249007Y-1597914D01*
X-7255662Y-1601470D01*
X-7261859Y-1606550D01*
X-7505547Y-1850237D01*
X-7508900Y-1852472D01*
X-7512913Y-1853184D01*
X-7531811Y-1847697D01*
X-7545831Y-1845411D01*
X-7560056Y-1844954D01*
X-7574178Y-1846325D01*
X-7588046Y-1849475D01*
X-7601407Y-1854403D01*
X-7614005Y-1860956D01*
X-7625638Y-1869084D01*
X-7636154Y-1878634D01*
X-7645349Y-1889455D01*
X-7653121Y-1901393D01*
X-7659268Y-1914194D01*
X-7663738Y-1927656D01*
X-7666481Y-1941626D01*
X-7667396Y-1955800D01*
X-7666481Y-1969973D01*
X-7663738Y-1983943D01*
X-7659268Y-1997405D01*
X-7653121Y-2010206D01*
X-7645349Y-2022144D01*
X-7636154Y-2032965D01*
X-7625638Y-2042515D01*
X-7614005Y-2050643D01*
X-7601407Y-2057196D01*
X-7588046Y-2062124D01*
X-7574178Y-2065274D01*
X-7560056Y-2066645D01*
X-7545831Y-2066188D01*
X-7531811Y-2063902D01*
X-7518196Y-2059889D01*
X-7505192Y-2054098D01*
X-7493050Y-2046732D01*
X-7481925Y-2037892D01*
X-7472070Y-2027682D01*
X-7463586Y-2016302D01*
X-7456576Y-2003907D01*
X-7451242Y-1990750D01*
X-7447635Y-1976983D01*
X-7445857Y-1962912D01*
X-7445857Y-1948688D01*
X-7447635Y-1934616D01*
X-7451242Y-1920849D01*
X-7453274Y-1915922D01*
X-7453985Y-1912061D01*
X-7453223Y-1908200D01*
X-7451039Y-1904898D01*
X-7221220Y-1675079D01*
X-7217918Y-1672894D01*
X-7214006Y-1672132D01*
X-5377078Y-1672132D01*
X-5369052Y-1671320D01*
X-5361838Y-1669135D01*
X-5355183Y-1665579D01*
X-5348935Y-1660448D01*
X-4992928Y-1304442D01*
X-4987798Y-1298194D01*
X-4984242Y-1291539D01*
X-4982819Y-1286814D01*
X-4980990Y-1283360D01*
X-4977993Y-1280871D01*
X-4974285Y-1279652D01*
X-4970424Y-1279956D01*
X-4966919Y-1281684D01*
X-4964328Y-1284579D01*
X-4961229Y-1289862D01*
X-4952746Y-1300581D01*
X-4942890Y-1310081D01*
X-4931918Y-1318209D01*
X-4919878Y-1324762D01*
X-4907127Y-1329690D01*
X-4893818Y-1332839D01*
X-4880203Y-1334211D01*
X-4866538Y-1333754D01*
X-4853076Y-1331518D01*
X-4840020Y-1327454D01*
X-4827574Y-1321714D01*
X-4816043Y-1314348D01*
X-4805629Y-1305509D01*
X-4796434Y-1295349D01*
X-4788712Y-1284071D01*
X-4782515Y-1271879D01*
X-4778044Y-1258976D01*
X-4775301Y-1245565D01*
X-4774387Y-1231900D01*
X-4775301Y-1218234D01*
X-4778044Y-1204874D01*
X-4782515Y-1191920D01*
X-4788712Y-1179728D01*
X-4796434Y-1168450D01*
X-4805629Y-1158290D01*
X-4816043Y-1149451D01*
X-4827574Y-1142085D01*
X-4840020Y-1136345D01*
X-4853076Y-1132281D01*
X-4866538Y-1130046D01*
X-4880203Y-1129588D01*
X-4893818Y-1130960D01*
X-4907127Y-1134110D01*
X-4919878Y-1139037D01*
X-4931918Y-1145590D01*
X-4942890Y-1153718D01*
X-4952746Y-1163218D01*
X-4961229Y-1173937D01*
X-4962347Y-1175867D01*
X-4965344Y-1179068D01*
X-4969408Y-1180693D01*
X-4973777Y-1180490D01*
X-4977638Y-1178458D01*
X-4980279Y-1174953D01*
X-4981244Y-1170686D01*
X-4981244Y764489D01*
X-4982057Y772515D01*
X-4984242Y779729D01*
X-4987798Y786384D01*
X-4992928Y792632D01*
X-5044389Y844143D01*
X-5046421Y847039D01*
X-5047335Y850442D01*
X-5047030Y853948D01*
X-5045557Y857148D01*
X-5041646Y862685D01*
X-5037480Y871575D01*
X-5034940Y881075D01*
X-5034229Y889152D01*
X-5033314Y892556D01*
X-5031333Y895451D01*
X-4978349Y948436D01*
X-4975047Y950620D01*
X-4971135Y951382D01*
X-3806901Y951382D01*
X-3802989Y950620D01*
X-3799687Y948436D01*
X-3798112Y946810D01*
X-3790035Y941171D01*
X-3781145Y937006D01*
X-3771646Y934466D01*
X-3761841Y933602D01*
X-3752087Y934466D01*
X-3742588Y937006D01*
X-3733698Y941171D01*
X-3725621Y946810D01*
X-3718661Y953769D01*
X-3716223Y957275D01*
X-3712972Y960221D01*
X-3708806Y961542D01*
X-3704437Y960983D01*
X-3700729Y958596D01*
X-3579977Y837895D01*
X-3577793Y834593D01*
X-3577031Y830681D01*
X-3577793Y826820D01*
X-3579977Y823518D01*
X-3583279Y821283D01*
X-3587191Y820521D01*
X-3787800Y820521D01*
X-3795826Y819759D01*
X-3803040Y817524D01*
X-3809695Y813968D01*
X-3815943Y808888D01*
X-4522774Y102057D01*
X-4527854Y95808D01*
X-4531410Y89154D01*
X-4533595Y81940D01*
X-4534408Y73914D01*
X-4534408Y-1150975D01*
X-4535119Y-1154734D01*
X-4537202Y-1157935D01*
X-4540300Y-1160170D01*
X-4544009Y-1161084D01*
X-4547819Y-1160576D01*
X-4551121Y-1158697D01*
X-4562043Y-1149451D01*
X-4573574Y-1142085D01*
X-4586020Y-1136345D01*
X-4599076Y-1132281D01*
X-4612538Y-1130046D01*
X-4626203Y-1129588D01*
X-4639818Y-1130960D01*
X-4653127Y-1134110D01*
X-4665878Y-1139037D01*
X-4677918Y-1145590D01*
X-4688890Y-1153718D01*
X-4698746Y-1163218D01*
X-4707229Y-1173937D01*
X-4714189Y-1185722D01*
X-4719523Y-1198321D01*
X-4723130Y-1211529D01*
X-4724958Y-1225042D01*
X-4724958Y-1238758D01*
X-4723130Y-1252270D01*
X-4719523Y-1265478D01*
X-4714189Y-1278077D01*
X-4707229Y-1289862D01*
X-4698746Y-1300581D01*
X-4688890Y-1310081D01*
X-4677918Y-1318209D01*
X-4665878Y-1324762D01*
X-4653127Y-1329690D01*
X-4641240Y-1332534D01*
X-4637379Y-1334363D01*
X-4634636Y-1337665D01*
X-4633468Y-1341780D01*
X-4634077Y-1345996D01*
X-4636414Y-1349603D01*
X-4995926Y-1709115D01*
X-4999228Y-1711299D01*
X-5003088Y-1712061D01*
X-6426504Y-1712061D01*
X-6434531Y-1712874D01*
X-6441795Y-1715058D01*
X-6448450Y-1718614D01*
X-6454648Y-1723745D01*
X-6535978Y-1805025D01*
X-6538874Y-1807057D01*
X-6542278Y-1807972D01*
X-6550304Y-1808683D01*
X-6559803Y-1811223D01*
X-6568694Y-1815388D01*
X-6576720Y-1820976D01*
X-6583680Y-1827936D01*
X-6589318Y-1836013D01*
X-6593484Y-1844903D01*
X-6596024Y-1854403D01*
X-6596888Y-1864207D01*
X-6596024Y-1873961D01*
X-6593484Y-1883460D01*
X-6589318Y-1892350D01*
X-6583680Y-1900428D01*
X-6576720Y-1907387D01*
X-6568694Y-1912975D01*
X-6559803Y-1917141D01*
X-6550304Y-1919681D01*
X-6540500Y-1920544D01*
X-6530695Y-1919681D01*
X-6521196Y-1917141D01*
X-6512306Y-1912975D01*
X-6504279Y-1907387D01*
X-6497320Y-1900428D01*
X-6491681Y-1892350D01*
X-6487515Y-1883460D01*
X-6484975Y-1873961D01*
X-6484264Y-1865934D01*
X-6483350Y-1862480D01*
X-6481368Y-1859635D01*
X-6414008Y-1792274D01*
X-6410706Y-1790090D01*
X-6406794Y-1789277D01*
X-4983378Y-1789277D01*
X-4975352Y-1788515D01*
X-4968138Y-1786331D01*
X-4961483Y-1782724D01*
X-4955235Y-1777644D01*
X-4468876Y-1291234D01*
X-4464761Y-1287830D01*
X-4460392Y-1286865D01*
X-4456023Y-1287932D01*
X-4452518Y-1290726D01*
X-4444746Y-1300581D01*
X-4434890Y-1310081D01*
X-4423918Y-1318209D01*
X-4413402Y-1323949D01*
X-4413402Y-1276502D01*
X-4447286Y-1276502D01*
X-4451400Y-1275638D01*
X-4454855Y-1273149D01*
X-4456938Y-1269542D01*
X-4457395Y-1265326D01*
X-4457192Y-1263091D01*
X-4457192Y-1197457D01*
X-4456430Y-1193546D01*
X-4454194Y-1190294D01*
X-4450943Y-1188059D01*
X-4447032Y-1187297D01*
X-4413402Y-1187297D01*
X-4413402Y-1139850D01*
X-4423918Y-1145590D01*
X-4434890Y-1153718D01*
X-4439970Y-1158595D01*
X-4443272Y-1160729D01*
X-4447133Y-1161440D01*
X-4450994Y-1160678D01*
X-4454245Y-1158443D01*
X-4456430Y-1155192D01*
X-4457192Y-1151280D01*
X-4457192Y54203D01*
X-4456430Y58115D01*
X-4454194Y61366D01*
X-3954018Y561594D01*
X-3950817Y563727D01*
X-3947007Y564540D01*
X-3943197Y563880D01*
X-3939895Y561797D01*
X-3937660Y558698D01*
X-3936847Y556971D01*
X-3931208Y548944D01*
X-3924249Y541985D01*
X-3912412Y533755D01*
X-3910329Y530555D01*
X-3909618Y526796D01*
X-3910329Y523036D01*
X-3912412Y519836D01*
X-3915511Y517601D01*
X-3917645Y516585D01*
X-3925722Y510946D01*
X-3932682Y503986D01*
X-3938270Y495960D01*
X-3942435Y487070D01*
X-3944975Y477570D01*
X-3945839Y467766D01*
X-3944975Y457962D01*
X-3942435Y448462D01*
X-3938270Y439572D01*
X-3932682Y431546D01*
X-3925722Y424586D01*
X-3917645Y418947D01*
X-3909517Y415137D01*
X-3906418Y412902D01*
X-3904335Y409701D01*
X-3903624Y405942D01*
X-3904335Y402183D01*
X-3906418Y398983D01*
X-3909517Y396748D01*
X-3915308Y394004D01*
X-3923334Y388416D01*
X-3930294Y381457D01*
X-3935933Y373380D01*
X-3940098Y364490D01*
X-3942638Y354990D01*
X-3943502Y345186D01*
X-3942638Y335432D01*
X-3940098Y325932D01*
X-3935933Y317042D01*
X-3930294Y308965D01*
X-3923334Y302006D01*
X-3915308Y296418D01*
X-3906418Y292252D01*
X-3896918Y289712D01*
X-3887114Y288848D01*
X-3877310Y289712D01*
X-3871061Y291388D01*
X-3867556Y291693D01*
X-3864152Y290779D01*
X-3861257Y288747D01*
X-2767634Y-804824D01*
X-2765348Y-808431D01*
X-2764688Y-812698D01*
X-2765907Y-816813D01*
X-2768650Y-820064D01*
X-2772562Y-821893D01*
X-2781503Y-825500D01*
X-2789732Y-830580D01*
X-2796946Y-836930D01*
X-2803042Y-844448D01*
X-2807716Y-852881D01*
X-2810916Y-861974D01*
X-2812542Y-871474D01*
X-2812542Y-874166D01*
X-2813354Y-878027D01*
X-2815539Y-881329D01*
X-2865882Y-931671D01*
X-2868371Y-933500D01*
X-2871266Y-934466D01*
X-2874365Y-934567D01*
X-2880461Y-933754D01*
X-2890113Y-934212D01*
X-2899562Y-936244D01*
X-2908503Y-939800D01*
X-2916732Y-944880D01*
X-2923946Y-951230D01*
X-2930042Y-958748D01*
X-2934716Y-967181D01*
X-2937916Y-976274D01*
X-2939542Y-985774D01*
X-2939542Y-995426D01*
X-2937916Y-1004925D01*
X-2934716Y-1014018D01*
X-2930042Y-1022451D01*
X-2923946Y-1029969D01*
X-2916732Y-1036319D01*
X-2908503Y-1041400D01*
X-2899562Y-1044956D01*
X-2890113Y-1046987D01*
X-2880461Y-1047445D01*
X-2870911Y-1046175D01*
X-2861716Y-1043381D01*
X-2853080Y-1039012D01*
X-2845308Y-1033271D01*
X-2838653Y-1026312D01*
X-2833268Y-1018336D01*
X-2829255Y-1009548D01*
X-2828137Y-1005078D01*
X-2827121Y-1002588D01*
X-2825445Y-1000455D01*
X-2761081Y-936091D01*
X-2757576Y-933805D01*
X-2743911Y-931875D01*
X-2734716Y-929081D01*
X-2726080Y-924712D01*
X-2718308Y-918971D01*
X-2711653Y-912012D01*
X-2706268Y-904036D01*
X-2702255Y-895248D01*
X-2701594Y-892556D01*
X-2699664Y-888746D01*
X-2696413Y-886104D01*
X-2692298Y-884986D01*
X-2688132Y-885647D01*
X-2684576Y-887933D01*
X-2500934Y-1071575D01*
X-2498801Y-1074674D01*
X-2497937Y-1078331D01*
X-2498496Y-1082040D01*
X-2501341Y-1090523D01*
X-2504033Y-1103934D01*
X-2504948Y-1117600D01*
X-2504033Y-1131265D01*
X-2501341Y-1144676D01*
X-2496972Y-1157630D01*
X-2490927Y-1169924D01*
X-2483307Y-1181303D01*
X-2474264Y-1191564D01*
X-2464003Y-1200607D01*
X-2462276Y-1201775D01*
X-2459278Y-1204823D01*
X-2457856Y-1208887D01*
X-2458212Y-1213154D01*
X-2460294Y-1216914D01*
X-2463749Y-1219454D01*
X-2467914Y-1220368D01*
X-3246983Y-1220368D01*
X-3255010Y-1221130D01*
X-3262223Y-1223365D01*
X-3268878Y-1226921D01*
X-3275126Y-1232001D01*
X-3948531Y-1905457D01*
X-3951833Y-1907641D01*
X-3955745Y-1908403D01*
X-3959606Y-1907641D01*
X-3962908Y-1905457D01*
X-3965092Y-1902155D01*
X-3965905Y-1898243D01*
X-3965905Y-1725980D01*
X-3965092Y-1722120D01*
X-3962908Y-1718818D01*
X-3542995Y-1298905D01*
X-3539693Y-1296670D01*
X-3535781Y-1295908D01*
X-3462020Y-1295908D01*
X-3458464Y-1296568D01*
X-3455314Y-1298448D01*
X-3450132Y-1303020D01*
X-3441903Y-1308100D01*
X-3432962Y-1311656D01*
X-3423513Y-1313688D01*
X-3413861Y-1314145D01*
X-3404311Y-1312875D01*
X-3395116Y-1310081D01*
X-3386480Y-1305712D01*
X-3378708Y-1299972D01*
X-3372053Y-1293012D01*
X-3366668Y-1285036D01*
X-3362655Y-1276248D01*
X-3360267Y-1266901D01*
X-3359404Y-1257300D01*
X-3360267Y-1247698D01*
X-3362655Y-1238351D01*
X-3366668Y-1229563D01*
X-3372053Y-1221587D01*
X-3378708Y-1214628D01*
X-3386480Y-1208887D01*
X-3395116Y-1204518D01*
X-3404311Y-1201724D01*
X-3413861Y-1200454D01*
X-3423513Y-1200912D01*
X-3432962Y-1202944D01*
X-3441903Y-1206500D01*
X-3450132Y-1211580D01*
X-3455314Y-1216152D01*
X-3458464Y-1218031D01*
X-3462020Y-1218692D01*
X-3555492Y-1218692D01*
X-3563518Y-1219504D01*
X-3570732Y-1221689D01*
X-3577437Y-1225245D01*
X-3583635Y-1230376D01*
X-4031437Y-1678127D01*
X-4036568Y-1684375D01*
X-4040124Y-1691030D01*
X-4042308Y-1698294D01*
X-4043121Y-1706321D01*
X-4043121Y-1941525D01*
X-4043883Y-1945436D01*
X-4046067Y-1948738D01*
X-4049369Y-1950923D01*
X-4053281Y-1951685D01*
X-4096410Y-1951685D01*
X-4102760Y-1952396D01*
X-4108196Y-1954326D01*
X-4113123Y-1957374D01*
X-4117187Y-1961489D01*
X-4120286Y-1966366D01*
X-4122216Y-1971852D01*
X-4122928Y-1978152D01*
X-4122928Y-2022144D01*
X-4123537Y-2025599D01*
X-4125315Y-2028698D01*
X-4128008Y-2030933D01*
X-4133392Y-2032507D01*
X-4137761Y-2032304D01*
X-4141622Y-2030272D01*
X-4144314Y-2026818D01*
X-4150766Y-2013051D01*
X-4158742Y-2000504D01*
X-4168190Y-1989074D01*
X-4179062Y-1978863D01*
X-4191101Y-1970125D01*
X-4204106Y-1962962D01*
X-4217924Y-1957527D01*
X-4232351Y-1953818D01*
X-4247083Y-1951939D01*
X-4261967Y-1951939D01*
X-4276699Y-1953818D01*
X-4291076Y-1957527D01*
X-4304944Y-1962962D01*
X-4317949Y-1970125D01*
X-4329988Y-1978863D01*
X-4340809Y-1989074D01*
X-4350308Y-2000504D01*
X-4358233Y-2013051D01*
X-4364583Y-2026513D01*
X-4369206Y-2040636D01*
X-4371949Y-2055266D01*
X-4372914Y-2070100D01*
X-4371949Y-2084933D01*
X-4369206Y-2099564D01*
X-4364583Y-2113686D01*
X-4358233Y-2127148D01*
X-4350308Y-2139696D01*
X-4340809Y-2151126D01*
X-4329988Y-2161336D01*
X-4317949Y-2170074D01*
X-4304944Y-2177237D01*
X-4291076Y-2182672D01*
X-4276699Y-2186381D01*
X-4260748Y-2188311D01*
X-4256532Y-2189835D01*
X-4253331Y-2193036D01*
X-4251858Y-2197303D01*
X-4252417Y-2201773D01*
X-4254804Y-2205583D01*
X-4280306Y-2231085D01*
X-4283608Y-2233320D01*
X-4287469Y-2234082D01*
X-4934610Y-2234082D01*
X-4938725Y-2233218D01*
X-4942179Y-2230729D01*
X-4944262Y-2227072D01*
X-4944719Y-2222855D01*
X-4943398Y-2218842D01*
X-4941011Y-2214727D01*
X-4936896Y-2204161D01*
X-4935829Y-2199386D01*
X-4978044Y-2199386D01*
X-4978044Y-2223922D01*
X-4978806Y-2227783D01*
X-4981041Y-2231085D01*
X-4984343Y-2233320D01*
X-4988204Y-2234082D01*
X-5030571Y-2234082D01*
X-5034483Y-2233320D01*
X-5037785Y-2231085D01*
X-5039969Y-2227783D01*
X-5040731Y-2223922D01*
X-5040731Y-2199386D01*
X-5082997Y-2199386D01*
X-5081930Y-2204161D01*
X-5077764Y-2214727D01*
X-5075377Y-2218842D01*
X-5074107Y-2222855D01*
X-5074513Y-2227072D01*
X-5076647Y-2230729D01*
X-5080050Y-2233218D01*
X-5084216Y-2234082D01*
X-5634634Y-2234082D01*
X-5638749Y-2233218D01*
X-5642203Y-2230729D01*
X-5644286Y-2227072D01*
X-5644743Y-2222855D01*
X-5643422Y-2218842D01*
X-5641035Y-2214727D01*
X-5636920Y-2204161D01*
X-5635853Y-2199386D01*
X-5678068Y-2199386D01*
X-5678068Y-2223922D01*
X-5678830Y-2227783D01*
X-5681065Y-2231085D01*
X-5684367Y-2233320D01*
X-5688228Y-2234082D01*
X-5730595Y-2234082D01*
X-5734507Y-2233320D01*
X-5737809Y-2231085D01*
X-5739993Y-2227783D01*
X-5740755Y-2223922D01*
X-5740755Y-2199386D01*
X-5783021Y-2199386D01*
X-5781954Y-2204161D01*
X-5777788Y-2214727D01*
X-5775401Y-2218842D01*
X-5774131Y-2222855D01*
X-5774537Y-2227072D01*
X-5776671Y-2230729D01*
X-5780074Y-2233218D01*
X-5784240Y-2234082D01*
X-5947308Y-2234082D01*
X-5951220Y-2233320D01*
X-5954522Y-2231085D01*
X-6142482Y-2043125D01*
X-6148679Y-2038045D01*
X-6155385Y-2034489D01*
X-6166510Y-2031187D01*
X-6169456Y-2028952D01*
X-6171387Y-2025802D01*
X-6172098Y-2022144D01*
X-6172098Y-1978152D01*
X-6172809Y-1971852D01*
X-6174740Y-1966366D01*
X-6177788Y-1961489D01*
X-6181902Y-1957374D01*
X-6186779Y-1954326D01*
X-6192266Y-1952396D01*
X-6198565Y-1951685D01*
X-6382410Y-1951685D01*
X-6388760Y-1952396D01*
X-6394196Y-1954326D01*
X-6399123Y-1957374D01*
X-6403187Y-1961489D01*
X-6406286Y-1966366D01*
X-6408216Y-1971852D01*
X-6408928Y-1978152D01*
X-6408928Y-2028647D01*
X-6409740Y-2032609D01*
X-6412026Y-2035962D01*
X-6415481Y-2038146D01*
X-6419545Y-2038756D01*
X-6423456Y-2037791D01*
X-6426708Y-2035302D01*
X-6428740Y-2031746D01*
X-6430416Y-2026513D01*
X-6436766Y-2013051D01*
X-6444742Y-2000504D01*
X-6454190Y-1989074D01*
X-6465062Y-1978863D01*
X-6477101Y-1970125D01*
X-6490106Y-1962962D01*
X-6503924Y-1957527D01*
X-6518351Y-1953818D01*
X-6533083Y-1951939D01*
X-6547967Y-1951939D01*
X-6562699Y-1953818D01*
X-6577075Y-1957527D01*
X-6590944Y-1962962D01*
X-6603949Y-1970125D01*
X-6615988Y-1978863D01*
X-6626809Y-1989074D01*
X-6636308Y-2000504D01*
X-6644233Y-2013051D01*
X-6650583Y-2026513D01*
X-6655206Y-2040636D01*
X-6657949Y-2055266D01*
X-6658914Y-2070100D01*
X-6657949Y-2084933D01*
X-6655206Y-2099564D01*
X-6650583Y-2113686D01*
X-6644233Y-2127148D01*
X-6636308Y-2139696D01*
X-6626809Y-2151126D01*
X-6615988Y-2161336D01*
X-6603949Y-2170074D01*
X-6590944Y-2177237D01*
X-6577075Y-2182672D01*
X-6562699Y-2186381D01*
X-6547967Y-2188260D01*
X-6533083Y-2188260D01*
X-6518351Y-2186381D01*
X-6503924Y-2182672D01*
X-6490106Y-2177237D01*
X-6477101Y-2170074D01*
X-6465062Y-2161336D01*
X-6454190Y-2151126D01*
X-6444742Y-2139696D01*
X-6436766Y-2127148D01*
X-6430416Y-2113686D01*
X-6428740Y-2108454D01*
X-6426708Y-2104898D01*
X-6423456Y-2102408D01*
X-6419545Y-2101443D01*
X-6415481Y-2102053D01*
X-6412026Y-2104237D01*
X-6409740Y-2107590D01*
X-6408928Y-2111552D01*
X-6408928Y-2162048D01*
X-6408216Y-2168347D01*
X-6406286Y-2173833D01*
X-6403187Y-2178710D01*
X-6399123Y-2182825D01*
X-6394196Y-2185873D01*
X-6388760Y-2187803D01*
X-6382410Y-2188514D01*
X-6198565Y-2188514D01*
X-6192266Y-2187803D01*
X-6186779Y-2185873D01*
X-6181902Y-2182825D01*
X-6177788Y-2178710D01*
X-6174740Y-2173833D01*
X-6172809Y-2168347D01*
X-6172098Y-2162048D01*
X-6172098Y-2147265D01*
X-6171336Y-2143353D01*
X-6169101Y-2140051D01*
X-6165799Y-2137867D01*
X-6161938Y-2137105D01*
X-6158026Y-2137867D01*
X-6154724Y-2140051D01*
X-5995162Y-2299614D01*
X-5988964Y-2304745D01*
X-5982309Y-2308301D01*
X-5975045Y-2310485D01*
G37*
G36*
X-6843115Y-2176018D02*
G01*
X-6843115Y-2122678D01*
X-6896353Y-2122678D01*
X-6894220Y-2127148D01*
X-6886295Y-2139696D01*
X-6876796Y-2151126D01*
X-6865975Y-2161336D01*
X-6853936Y-2170074D01*
G37*
G36*
X-4557115Y-2176018D02*
G01*
X-4557115Y-2122678D01*
X-4610354Y-2122678D01*
X-4608220Y-2127148D01*
X-4600295Y-2139696D01*
X-4590796Y-2151126D01*
X-4579975Y-2161336D01*
X-4567936Y-2170074D01*
G37*
G36*
X-4451908Y-2176018D02*
G01*
X-4441088Y-2170074D01*
X-4429048Y-2161336D01*
X-4418177Y-2151126D01*
X-4408728Y-2139696D01*
X-4400753Y-2127148D01*
X-4398670Y-2122678D01*
X-4451908Y-2122678D01*
G37*
G36*
X-6737908Y-2176018D02*
G01*
X-6727088Y-2170074D01*
X-6715048Y-2161336D01*
X-6704177Y-2151126D01*
X-6694728Y-2139696D01*
X-6686753Y-2127148D01*
X-6684670Y-2122678D01*
X-6737908Y-2122678D01*
G37*
G36*
X-5082997Y-2109216D02*
G01*
X-5040731Y-2109216D01*
X-5040731Y-2057907D01*
X-5047335Y-2061108D01*
X-5056733Y-2067458D01*
X-5065014Y-2075180D01*
X-5072075Y-2084070D01*
X-5077764Y-2093874D01*
X-5081930Y-2104440D01*
G37*
G36*
X-5783021Y-2109216D02*
G01*
X-5740755Y-2109216D01*
X-5740755Y-2057907D01*
X-5747359Y-2061108D01*
X-5756757Y-2067458D01*
X-5765038Y-2075180D01*
X-5772099Y-2084070D01*
X-5777788Y-2093874D01*
X-5781954Y-2104440D01*
G37*
G36*
X-5678068Y-2109216D02*
G01*
X-5635853Y-2109216D01*
X-5636920Y-2104440D01*
X-5641035Y-2093874D01*
X-5646724Y-2084070D01*
X-5653786Y-2075180D01*
X-5662117Y-2067458D01*
X-5671464Y-2061108D01*
X-5678068Y-2057907D01*
G37*
G36*
X-4978044Y-2109216D02*
G01*
X-4935829Y-2109216D01*
X-4936896Y-2104440D01*
X-4941011Y-2093874D01*
X-4946700Y-2084070D01*
X-4953762Y-2075180D01*
X-4962093Y-2067458D01*
X-4971440Y-2061108D01*
X-4978044Y-2057907D01*
G37*
G36*
X-2230678Y-2080818D02*
G01*
X-2212594Y-2079447D01*
X-2194814Y-2076196D01*
X-2177389Y-2071116D01*
X-2160625Y-2064308D01*
X-2144674Y-2055774D01*
X-2129637Y-2045665D01*
X-2115718Y-2034082D01*
X-2103069Y-2021128D01*
X-2091842Y-2006904D01*
X-2082139Y-1991614D01*
X-2074011Y-1975459D01*
X-2067661Y-1958492D01*
X-2063038Y-1940966D01*
X-2060244Y-1923084D01*
X-2059330Y-1905000D01*
X-2060244Y-1886915D01*
X-2063038Y-1869033D01*
X-2067661Y-1851507D01*
X-2074011Y-1834540D01*
X-2082139Y-1818386D01*
X-2091842Y-1803095D01*
X-2103069Y-1788871D01*
X-2115718Y-1775917D01*
X-2129637Y-1764334D01*
X-2144674Y-1754225D01*
X-2160625Y-1745691D01*
X-2177389Y-1738884D01*
X-2194814Y-1733804D01*
X-2212594Y-1730552D01*
X-2230678Y-1729181D01*
X-2248763Y-1729638D01*
X-2266746Y-1731975D01*
X-2284374Y-1736089D01*
X-2301443Y-1742084D01*
X-2317851Y-1749755D01*
X-2333396Y-1759051D01*
X-2347874Y-1769922D01*
X-2361184Y-1782216D01*
X-2373122Y-1795830D01*
X-2383637Y-1810613D01*
X-2392527Y-1826361D01*
X-2399792Y-1842973D01*
X-2405278Y-1860194D01*
X-2408986Y-1877923D01*
X-2410866Y-1895957D01*
X-2410866Y-1914042D01*
X-2408986Y-1932076D01*
X-2405278Y-1949805D01*
X-2399792Y-1967026D01*
X-2392527Y-1983638D01*
X-2383637Y-1999386D01*
X-2373122Y-2014169D01*
X-2361184Y-2027783D01*
X-2347874Y-2040077D01*
X-2333396Y-2050948D01*
X-2317851Y-2060244D01*
X-2301443Y-2067915D01*
X-2284374Y-2073910D01*
X-2266746Y-2078024D01*
X-2248763Y-2080361D01*
G37*
G36*
X-7814056Y-2066645D02*
G01*
X-7799831Y-2066188D01*
X-7785811Y-2063902D01*
X-7772196Y-2059889D01*
X-7759192Y-2054098D01*
X-7747050Y-2046732D01*
X-7735925Y-2037892D01*
X-7726070Y-2027682D01*
X-7717586Y-2016302D01*
X-7710576Y-2003907D01*
X-7705242Y-1990750D01*
X-7701635Y-1976983D01*
X-7699857Y-1962912D01*
X-7699857Y-1948688D01*
X-7701635Y-1934616D01*
X-7705242Y-1920849D01*
X-7710576Y-1907692D01*
X-7717586Y-1895297D01*
X-7726070Y-1883918D01*
X-7735925Y-1873707D01*
X-7747050Y-1864868D01*
X-7759192Y-1857502D01*
X-7772196Y-1851761D01*
X-7785811Y-1847697D01*
X-7799831Y-1845411D01*
X-7814056Y-1844954D01*
X-7828178Y-1846325D01*
X-7842046Y-1849475D01*
X-7855407Y-1854403D01*
X-7868005Y-1860956D01*
X-7879638Y-1869084D01*
X-7890154Y-1878634D01*
X-7899349Y-1889455D01*
X-7907121Y-1901393D01*
X-7913268Y-1914194D01*
X-7917738Y-1927656D01*
X-7920481Y-1941626D01*
X-7921396Y-1955800D01*
X-7920481Y-1969973D01*
X-7917738Y-1983943D01*
X-7913268Y-1997405D01*
X-7907121Y-2010206D01*
X-7899349Y-2022144D01*
X-7890154Y-2032965D01*
X-7879638Y-2042515D01*
X-7868005Y-2050643D01*
X-7855407Y-2057196D01*
X-7842046Y-2062124D01*
X-7828178Y-2065274D01*
G37*
G36*
X-3051556Y-2053945D02*
G01*
X-3037332Y-2053488D01*
X-3023311Y-2051202D01*
X-3009696Y-2047189D01*
X-2996692Y-2041398D01*
X-2984550Y-2034032D01*
X-2973425Y-2025192D01*
X-2963570Y-2014982D01*
X-2955086Y-2003602D01*
X-2948076Y-1991207D01*
X-2942742Y-1978050D01*
X-2939135Y-1964283D01*
X-2937357Y-1950212D01*
X-2937357Y-1935988D01*
X-2939135Y-1921916D01*
X-2942742Y-1908149D01*
X-2948076Y-1894992D01*
X-2955086Y-1882597D01*
X-2963570Y-1871218D01*
X-2973425Y-1861007D01*
X-2984550Y-1852168D01*
X-2996692Y-1844802D01*
X-3009696Y-1839061D01*
X-3023311Y-1834997D01*
X-3037332Y-1832711D01*
X-3051556Y-1832254D01*
X-3065678Y-1833625D01*
X-3079546Y-1836775D01*
X-3092907Y-1841703D01*
X-3105505Y-1848256D01*
X-3117138Y-1856384D01*
X-3127654Y-1865934D01*
X-3136849Y-1876755D01*
X-3144621Y-1888693D01*
X-3150768Y-1901494D01*
X-3155238Y-1914956D01*
X-3157982Y-1928926D01*
X-3158896Y-1943100D01*
X-3157982Y-1957273D01*
X-3155238Y-1971243D01*
X-3150768Y-1984705D01*
X-3144621Y-1997506D01*
X-3136849Y-2009444D01*
X-3127654Y-2020265D01*
X-3117138Y-2029815D01*
X-3105505Y-2037943D01*
X-3092907Y-2044496D01*
X-3079546Y-2049424D01*
X-3065678Y-2052574D01*
G37*
G36*
X-3305556Y-2053945D02*
G01*
X-3291332Y-2053488D01*
X-3277311Y-2051202D01*
X-3263696Y-2047189D01*
X-3250692Y-2041398D01*
X-3238550Y-2034032D01*
X-3227425Y-2025192D01*
X-3217570Y-2014982D01*
X-3209086Y-2003602D01*
X-3202076Y-1991207D01*
X-3196742Y-1978050D01*
X-3193135Y-1964283D01*
X-3191357Y-1950212D01*
X-3191357Y-1935988D01*
X-3193135Y-1921916D01*
X-3196742Y-1908149D01*
X-3202076Y-1894992D01*
X-3209086Y-1882597D01*
X-3217570Y-1871218D01*
X-3227425Y-1861007D01*
X-3238550Y-1852168D01*
X-3250692Y-1844802D01*
X-3263696Y-1839061D01*
X-3277311Y-1834997D01*
X-3291332Y-1832711D01*
X-3305556Y-1832254D01*
X-3319678Y-1833625D01*
X-3333546Y-1836775D01*
X-3346907Y-1841703D01*
X-3359505Y-1848256D01*
X-3371138Y-1856384D01*
X-3381654Y-1865934D01*
X-3390849Y-1876755D01*
X-3398621Y-1888693D01*
X-3404768Y-1901494D01*
X-3409238Y-1914956D01*
X-3411982Y-1928926D01*
X-3412896Y-1943100D01*
X-3411982Y-1957273D01*
X-3409238Y-1971243D01*
X-3404768Y-1984705D01*
X-3398621Y-1997506D01*
X-3390849Y-2009444D01*
X-3381654Y-2020265D01*
X-3371138Y-2029815D01*
X-3359505Y-2037943D01*
X-3346907Y-2044496D01*
X-3333546Y-2049424D01*
X-3319678Y-2052574D01*
G37*
G36*
X-4610354Y-2017522D02*
G01*
X-4557115Y-2017522D01*
X-4557115Y-1964182D01*
X-4567936Y-1970125D01*
X-4579975Y-1978863D01*
X-4590796Y-1989074D01*
X-4600295Y-2000504D01*
X-4608220Y-2013051D01*
G37*
G36*
X-6737908Y-2017522D02*
G01*
X-6684670Y-2017522D01*
X-6686753Y-2013051D01*
X-6694728Y-2000504D01*
X-6704177Y-1989074D01*
X-6715048Y-1978863D01*
X-6727088Y-1970125D01*
X-6737908Y-1964182D01*
G37*
G36*
X-4451908Y-2017522D02*
G01*
X-4398670Y-2017522D01*
X-4400753Y-2013051D01*
X-4408728Y-2000504D01*
X-4418177Y-1989074D01*
X-4429048Y-1978863D01*
X-4441088Y-1970125D01*
X-4451908Y-1964182D01*
G37*
G36*
X-6896353Y-2017522D02*
G01*
X-6843115Y-2017522D01*
X-6843115Y-1964182D01*
X-6853936Y-1970125D01*
X-6865975Y-1978863D01*
X-6876796Y-1989074D01*
X-6886295Y-2000504D01*
X-6894220Y-2013051D01*
G37*
G36*
X-8440978Y-1979218D02*
G01*
X-8422894Y-1977847D01*
X-8405114Y-1974596D01*
X-8387689Y-1969516D01*
X-8370925Y-1962708D01*
X-8354974Y-1954174D01*
X-8339937Y-1944065D01*
X-8326018Y-1932482D01*
X-8313369Y-1919528D01*
X-8302142Y-1905304D01*
X-8292439Y-1890014D01*
X-8284311Y-1873859D01*
X-8277961Y-1856892D01*
X-8273338Y-1839366D01*
X-8270544Y-1821484D01*
X-8269630Y-1803400D01*
X-8270544Y-1785315D01*
X-8273338Y-1767433D01*
X-8277961Y-1749907D01*
X-8284311Y-1732940D01*
X-8292439Y-1716786D01*
X-8302142Y-1701495D01*
X-8313369Y-1687271D01*
X-8326018Y-1674317D01*
X-8339937Y-1662734D01*
X-8354974Y-1652625D01*
X-8370925Y-1644091D01*
X-8387689Y-1637283D01*
X-8405114Y-1632204D01*
X-8422894Y-1628952D01*
X-8440978Y-1627581D01*
X-8459063Y-1628038D01*
X-8477046Y-1630375D01*
X-8494674Y-1634489D01*
X-8511743Y-1640484D01*
X-8528151Y-1648155D01*
X-8543696Y-1657451D01*
X-8558174Y-1668322D01*
X-8571484Y-1680616D01*
X-8583422Y-1694230D01*
X-8593937Y-1709013D01*
X-8602827Y-1724761D01*
X-8610092Y-1741373D01*
X-8615578Y-1758594D01*
X-8619286Y-1776323D01*
X-8621166Y-1794357D01*
X-8621166Y-1812442D01*
X-8619286Y-1830476D01*
X-8615578Y-1848205D01*
X-8610092Y-1865426D01*
X-8602827Y-1882038D01*
X-8593937Y-1897786D01*
X-8583422Y-1912569D01*
X-8571484Y-1926183D01*
X-8558174Y-1938477D01*
X-8543696Y-1949348D01*
X-8528151Y-1958644D01*
X-8511743Y-1966315D01*
X-8494674Y-1972310D01*
X-8477046Y-1976424D01*
X-8459063Y-1978761D01*
G37*
G36*
X-3591661Y-1961845D02*
G01*
X-3582111Y-1960575D01*
X-3572916Y-1957781D01*
X-3564280Y-1953412D01*
X-3556508Y-1947672D01*
X-3549853Y-1940712D01*
X-3546348Y-1936292D01*
X-3541064Y-1931924D01*
X-3192881Y-1583791D01*
X-3189376Y-1581505D01*
X-3175711Y-1579575D01*
X-3166516Y-1576781D01*
X-3157880Y-1572412D01*
X-3150108Y-1566672D01*
X-3143453Y-1559712D01*
X-3138068Y-1551736D01*
X-3134055Y-1542948D01*
X-3131667Y-1533601D01*
X-3130804Y-1524000D01*
X-3131667Y-1514398D01*
X-3134055Y-1505051D01*
X-3138068Y-1496263D01*
X-3143453Y-1488287D01*
X-3150108Y-1481328D01*
X-3157880Y-1475587D01*
X-3166516Y-1471218D01*
X-3175711Y-1468424D01*
X-3185261Y-1467154D01*
X-3194913Y-1467612D01*
X-3204362Y-1469644D01*
X-3213303Y-1473200D01*
X-3221532Y-1478280D01*
X-3228746Y-1484630D01*
X-3234842Y-1492148D01*
X-3239516Y-1500581D01*
X-3242716Y-1509674D01*
X-3244342Y-1519174D01*
X-3244342Y-1521866D01*
X-3245154Y-1525727D01*
X-3247339Y-1529029D01*
X-3566769Y-1848459D01*
X-3569766Y-1850542D01*
X-3573322Y-1851406D01*
X-3576929Y-1850999D01*
X-3582111Y-1849424D01*
X-3591661Y-1848154D01*
X-3601313Y-1848612D01*
X-3610762Y-1850643D01*
X-3619703Y-1854200D01*
X-3627932Y-1859280D01*
X-3635146Y-1865630D01*
X-3641242Y-1873148D01*
X-3645915Y-1881581D01*
X-3649116Y-1890674D01*
X-3650742Y-1900174D01*
X-3650742Y-1909825D01*
X-3649116Y-1919325D01*
X-3645915Y-1928418D01*
X-3641242Y-1936851D01*
X-3635146Y-1944370D01*
X-3627932Y-1950720D01*
X-3619703Y-1955800D01*
X-3610762Y-1959356D01*
X-3601313Y-1961388D01*
G37*
G36*
X-5571744Y-1954022D02*
G01*
X-5562498Y-1950415D01*
X-5552998Y-1944928D01*
X-5544413Y-1938070D01*
X-5536996Y-1930044D01*
X-5530799Y-1921002D01*
X-5527649Y-1914398D01*
X-5571744Y-1914398D01*
G37*
G36*
X-5071872Y-1954022D02*
G01*
X-5062626Y-1950415D01*
X-5053126Y-1944928D01*
X-5044541Y-1938070D01*
X-5037124Y-1930044D01*
X-5030927Y-1921002D01*
X-5027777Y-1914398D01*
X-5071872Y-1914398D01*
G37*
G36*
X-5147056Y-1954022D02*
G01*
X-5147056Y-1914398D01*
X-5191201Y-1914398D01*
X-5188000Y-1921002D01*
X-5181854Y-1930044D01*
X-5174386Y-1938070D01*
X-5165801Y-1944928D01*
X-5156301Y-1950415D01*
G37*
G36*
X-5646928Y-1954022D02*
G01*
X-5646928Y-1914398D01*
X-5691073Y-1914398D01*
X-5687923Y-1921002D01*
X-5681726Y-1930044D01*
X-5674258Y-1938070D01*
X-5665673Y-1944928D01*
X-5656173Y-1950415D01*
G37*
G36*
X-5191201Y-1854200D02*
G01*
X-5147056Y-1854200D01*
X-5147106Y-1814575D01*
X-5156301Y-1818182D01*
X-5165801Y-1823669D01*
X-5174386Y-1830527D01*
X-5181854Y-1838553D01*
X-5188000Y-1847596D01*
G37*
G36*
X-5691073Y-1854200D02*
G01*
X-5646928Y-1854200D01*
X-5646978Y-1814575D01*
X-5656173Y-1818182D01*
X-5665673Y-1823669D01*
X-5674258Y-1830527D01*
X-5681726Y-1838553D01*
X-5687923Y-1847596D01*
G37*
G36*
X-5071872Y-1854200D02*
G01*
X-5027777Y-1854200D01*
X-5030927Y-1847596D01*
X-5037124Y-1838553D01*
X-5044541Y-1830527D01*
X-5053126Y-1823669D01*
X-5062626Y-1818182D01*
X-5071872Y-1814575D01*
G37*
G36*
X-5571744Y-1854200D02*
G01*
X-5527649Y-1854200D01*
X-5530799Y-1847596D01*
X-5536996Y-1838553D01*
X-5544413Y-1830527D01*
X-5552998Y-1823669D01*
X-5562498Y-1818182D01*
X-5571744Y-1814575D01*
G37*
G36*
X-2575661Y-1644345D02*
G01*
X-2566111Y-1643075D01*
X-2556916Y-1640281D01*
X-2548280Y-1635912D01*
X-2536240Y-1626920D01*
X-2532278Y-1626107D01*
X-1960219Y-1626107D01*
X-1952193Y-1625295D01*
X-1944979Y-1623110D01*
X-1938324Y-1619554D01*
X-1932076Y-1614424D01*
X-1713280Y-1395628D01*
X-1710080Y-1393494D01*
X-1706372Y-1392682D01*
X-1702562Y-1393291D01*
X-1699310Y-1395272D01*
X-1696974Y-1398320D01*
X-1695500Y-1401267D01*
X-1688185Y-1412240D01*
X-1679498Y-1422196D01*
X-1669542Y-1430883D01*
X-1658569Y-1438198D01*
X-1646732Y-1444040D01*
X-1634236Y-1448308D01*
X-1621332Y-1450848D01*
X-1608124Y-1451711D01*
X-1594967Y-1450848D01*
X-1582013Y-1448308D01*
X-1569567Y-1444040D01*
X-1557731Y-1438198D01*
X-1546758Y-1430883D01*
X-1536801Y-1422196D01*
X-1528114Y-1412240D01*
X-1520799Y-1401267D01*
X-1514957Y-1389430D01*
X-1510690Y-1376934D01*
X-1508150Y-1363980D01*
X-1507236Y-1350518D01*
X-1507236Y-1121156D01*
X-1508150Y-1107694D01*
X-1510690Y-1094740D01*
X-1514957Y-1082243D01*
X-1520799Y-1070406D01*
X-1528114Y-1059434D01*
X-1536801Y-1049477D01*
X-1546758Y-1040790D01*
X-1557731Y-1033475D01*
X-1569567Y-1027633D01*
X-1582013Y-1023366D01*
X-1594967Y-1020826D01*
X-1608124Y-1019962D01*
X-1621332Y-1020826D01*
X-1634236Y-1023366D01*
X-1646732Y-1027633D01*
X-1658569Y-1033475D01*
X-1669542Y-1040790D01*
X-1679498Y-1049477D01*
X-1688185Y-1059434D01*
X-1695500Y-1070406D01*
X-1701342Y-1082243D01*
X-1705610Y-1094740D01*
X-1708150Y-1107694D01*
X-1709064Y-1121156D01*
X-1709064Y-1278026D01*
X-1709826Y-1281887D01*
X-1712010Y-1285189D01*
X-1972767Y-1545894D01*
X-1976069Y-1548130D01*
X-1979930Y-1548892D01*
X-2532278Y-1548892D01*
X-2536240Y-1548079D01*
X-2548280Y-1539087D01*
X-2556916Y-1534718D01*
X-2566111Y-1531924D01*
X-2575661Y-1530654D01*
X-2585313Y-1531112D01*
X-2594762Y-1533144D01*
X-2603703Y-1536700D01*
X-2611932Y-1541780D01*
X-2619146Y-1548130D01*
X-2625242Y-1555648D01*
X-2629916Y-1564081D01*
X-2633116Y-1573174D01*
X-2634742Y-1582674D01*
X-2634742Y-1592326D01*
X-2633116Y-1601825D01*
X-2629916Y-1610918D01*
X-2625242Y-1619351D01*
X-2619146Y-1626870D01*
X-2611932Y-1633220D01*
X-2603703Y-1638300D01*
X-2594762Y-1641856D01*
X-2585313Y-1643888D01*
G37*
G36*
X-4518761Y-1606245D02*
G01*
X-4509211Y-1604975D01*
X-4500016Y-1602181D01*
X-4491380Y-1597812D01*
X-4479340Y-1588820D01*
X-4475378Y-1588008D01*
X-4097020Y-1588008D01*
X-4093464Y-1588668D01*
X-4090314Y-1590548D01*
X-4085132Y-1595120D01*
X-4076903Y-1600200D01*
X-4067962Y-1603756D01*
X-4058513Y-1605788D01*
X-4048861Y-1606245D01*
X-4039311Y-1604975D01*
X-4030116Y-1602181D01*
X-4021480Y-1597812D01*
X-4013708Y-1592072D01*
X-4007053Y-1585112D01*
X-4001668Y-1577136D01*
X-3997655Y-1568348D01*
X-3995267Y-1559001D01*
X-3994404Y-1549400D01*
X-3995267Y-1539798D01*
X-3997655Y-1530451D01*
X-4001668Y-1521663D01*
X-4007053Y-1513687D01*
X-4013708Y-1506728D01*
X-4021480Y-1500987D01*
X-4030116Y-1496618D01*
X-4039311Y-1493824D01*
X-4048861Y-1492554D01*
X-4058513Y-1493012D01*
X-4067962Y-1495044D01*
X-4076903Y-1498600D01*
X-4085132Y-1503680D01*
X-4090314Y-1508252D01*
X-4093464Y-1510131D01*
X-4097020Y-1510792D01*
X-4475378Y-1510792D01*
X-4479340Y-1509979D01*
X-4491380Y-1500987D01*
X-4500016Y-1496618D01*
X-4509211Y-1493824D01*
X-4518761Y-1492554D01*
X-4528413Y-1493012D01*
X-4537862Y-1495044D01*
X-4546803Y-1498600D01*
X-4555032Y-1503680D01*
X-4562246Y-1510030D01*
X-4568342Y-1517548D01*
X-4573016Y-1525981D01*
X-4576216Y-1535074D01*
X-4577842Y-1544574D01*
X-4577842Y-1554226D01*
X-4576216Y-1563725D01*
X-4573016Y-1572818D01*
X-4568342Y-1581251D01*
X-4562246Y-1588770D01*
X-4555032Y-1595120D01*
X-4546803Y-1600200D01*
X-4537862Y-1603756D01*
X-4528413Y-1605788D01*
G37*
G36*
X-1052017Y-1441450D02*
G01*
X-1052017Y-1337208D01*
X-1109065Y-1337208D01*
X-1109065Y-1350518D01*
X-1108151Y-1363980D01*
X-1105611Y-1376934D01*
X-1101344Y-1389430D01*
X-1095502Y-1401267D01*
X-1088186Y-1412240D01*
X-1079500Y-1422196D01*
X-1069543Y-1430883D01*
X-1058570Y-1438198D01*
G37*
G36*
X-964285Y-1441450D02*
G01*
X-957732Y-1438198D01*
X-946759Y-1430883D01*
X-936802Y-1422196D01*
X-928116Y-1412240D01*
X-920800Y-1401267D01*
X-914958Y-1389430D01*
X-910691Y-1376934D01*
X-908151Y-1363980D01*
X-907237Y-1350518D01*
X-907237Y-1337208D01*
X-964285Y-1337208D01*
G37*
G36*
X-4324197Y-1323848D02*
G01*
X-4319574Y-1321714D01*
X-4308043Y-1314348D01*
X-4297629Y-1305509D01*
X-4288434Y-1295349D01*
X-4280712Y-1284071D01*
X-4276852Y-1276502D01*
X-4324197Y-1276502D01*
G37*
G36*
X-4324197Y-1187297D02*
G01*
X-4276852Y-1187297D01*
X-4280712Y-1179728D01*
X-4288434Y-1168450D01*
X-4297629Y-1158290D01*
X-4308043Y-1149451D01*
X-4319574Y-1142085D01*
X-4324197Y-1139952D01*
G37*
G36*
X-3530193Y-1141171D02*
G01*
X-3520440Y-1140307D01*
X-3510940Y-1137767D01*
X-3502050Y-1133602D01*
X-3493973Y-1128014D01*
X-3487013Y-1121054D01*
X-3481425Y-1112977D01*
X-3477260Y-1104087D01*
X-3474720Y-1094587D01*
X-3473856Y-1084834D01*
X-3474720Y-1075029D01*
X-3477260Y-1065530D01*
X-3481425Y-1056640D01*
X-3487013Y-1048562D01*
X-3493973Y-1041603D01*
X-3502050Y-1036015D01*
X-3510940Y-1031849D01*
X-3520440Y-1029309D01*
X-3528466Y-1028598D01*
X-3531870Y-1027684D01*
X-3534765Y-1025652D01*
X-4153865Y-406552D01*
X-4156100Y-403250D01*
X-4156862Y-399338D01*
X-4156862Y3911D01*
X-4156100Y7823D01*
X-4153865Y11125D01*
X-4152290Y12700D01*
X-4146651Y20777D01*
X-4142486Y29667D01*
X-4139946Y39166D01*
X-4139082Y48920D01*
X-4139946Y58724D01*
X-4142486Y68224D01*
X-4146651Y77114D01*
X-4152290Y85191D01*
X-4159250Y92151D01*
X-4167276Y97739D01*
X-4176166Y101904D01*
X-4185665Y104444D01*
X-4195470Y105308D01*
X-4205274Y104444D01*
X-4214774Y101904D01*
X-4223664Y97739D01*
X-4231690Y92151D01*
X-4238650Y85191D01*
X-4244289Y77114D01*
X-4248454Y68224D01*
X-4250994Y58724D01*
X-4251858Y48920D01*
X-4250994Y39166D01*
X-4248454Y29667D01*
X-4244289Y20777D01*
X-4238650Y12700D01*
X-4237075Y11125D01*
X-4234840Y7823D01*
X-4234078Y3911D01*
X-4234078Y-419049D01*
X-4233265Y-427075D01*
X-4231081Y-434289D01*
X-4227525Y-440943D01*
X-4222445Y-447192D01*
X-3589375Y-1080262D01*
X-3587343Y-1083157D01*
X-3586429Y-1086561D01*
X-3585718Y-1094587D01*
X-3583178Y-1104087D01*
X-3579012Y-1112977D01*
X-3573424Y-1121054D01*
X-3566464Y-1128014D01*
X-3558387Y-1133602D01*
X-3549497Y-1137767D01*
X-3539998Y-1140307D01*
G37*
G36*
X-1109065Y-1134465D02*
G01*
X-1052017Y-1134465D01*
X-1052017Y-1030224D01*
X-1058570Y-1033475D01*
X-1069543Y-1040790D01*
X-1079500Y-1049477D01*
X-1088186Y-1059434D01*
X-1095502Y-1070406D01*
X-1101344Y-1082243D01*
X-1105611Y-1094740D01*
X-1108151Y-1107694D01*
X-1109065Y-1121156D01*
G37*
G36*
X-964285Y-1134465D02*
G01*
X-907237Y-1134465D01*
X-907237Y-1121156D01*
X-908151Y-1107694D01*
X-910691Y-1094740D01*
X-914958Y-1082243D01*
X-920800Y-1070406D01*
X-928116Y-1059434D01*
X-936802Y-1049477D01*
X-946759Y-1040790D01*
X-957732Y-1033475D01*
X-964285Y-1030224D01*
G37*
G36*
X-1467815Y-871728D02*
G01*
X-1456994Y-871728D01*
X-1456994Y-814679D01*
X-1558747Y-814679D01*
X-1555496Y-821283D01*
X-1548180Y-832256D01*
X-1539494Y-842162D01*
X-1529537Y-850900D01*
X-1518564Y-858215D01*
X-1506728Y-864057D01*
X-1494231Y-868273D01*
X-1481328Y-870864D01*
G37*
G36*
X-1259281Y-871728D02*
G01*
X-1248460Y-871728D01*
X-1234948Y-870864D01*
X-1222044Y-868273D01*
X-1209548Y-864057D01*
X-1197711Y-858215D01*
X-1186738Y-850900D01*
X-1176782Y-842162D01*
X-1168095Y-832256D01*
X-1160780Y-821283D01*
X-1157528Y-814679D01*
X-1259281Y-814679D01*
G37*
G36*
X-1259281Y-726998D02*
G01*
X-1157528Y-726998D01*
X-1160780Y-720394D01*
X-1168095Y-709422D01*
X-1176782Y-699516D01*
X-1186738Y-690778D01*
X-1197711Y-683463D01*
X-1209548Y-677621D01*
X-1222044Y-673404D01*
X-1234948Y-670814D01*
X-1248460Y-669950D01*
X-1259281Y-669950D01*
G37*
G36*
X-1558747Y-726998D02*
G01*
X-1456994Y-726998D01*
X-1456994Y-669950D01*
X-1467815Y-669950D01*
X-1481328Y-670814D01*
X-1494231Y-673404D01*
X-1506728Y-677621D01*
X-1518564Y-683463D01*
X-1529537Y-690778D01*
X-1539494Y-699516D01*
X-1548180Y-709422D01*
X-1555496Y-720394D01*
G37*
G36*
X-8288020Y2357221D02*
G01*
X-8288020Y2405380D01*
X-8336178Y2405380D01*
X-8332927Y2398776D01*
X-8325307Y2387396D01*
X-8316264Y2377135D01*
X-8306003Y2368092D01*
X-8294624Y2360472D01*
G37*
G36*
X-8196580Y2357221D02*
G01*
X-8189975Y2360472D01*
X-8178596Y2368092D01*
X-8168335Y2377135D01*
X-8159292Y2387396D01*
X-8151672Y2398776D01*
X-8148421Y2405380D01*
X-8196580Y2405380D01*
G37*
G36*
X-8336178Y2496820D02*
G01*
X-8288020Y2496820D01*
X-8288020Y2544978D01*
X-8294624Y2541727D01*
X-8306003Y2534107D01*
X-8316264Y2525064D01*
X-8325307Y2514803D01*
X-8332927Y2503424D01*
G37*
G36*
X-8196580Y2496820D02*
G01*
X-8148421Y2496820D01*
X-8151672Y2503424D01*
X-8159292Y2514803D01*
X-8168335Y2525064D01*
X-8178596Y2534107D01*
X-8189975Y2541727D01*
X-8196580Y2544978D01*
G37*
G36*
X-2070303Y3601516D02*
G01*
X-2060498Y3602380D01*
X-2050999Y3604920D01*
X-2042109Y3609086D01*
X-2034082Y3614674D01*
X-2027123Y3621633D01*
X-2021484Y3629710D01*
X-2017318Y3638600D01*
X-2014778Y3648100D01*
X-2013915Y3657854D01*
X-2014778Y3667658D01*
X-2017318Y3677158D01*
X-2021484Y3686048D01*
X-2027123Y3694125D01*
X-2034082Y3701084D01*
X-2042109Y3706672D01*
X-2050999Y3710838D01*
X-2060498Y3713378D01*
X-2070303Y3714242D01*
X-2080107Y3713378D01*
X-2089607Y3710838D01*
X-2096058Y3707841D01*
X-2100326Y3706876D01*
X-2572410Y3706876D01*
X-2576271Y3707637D01*
X-2579573Y3709873D01*
X-2581148Y3711448D01*
X-2589225Y3717086D01*
X-2598115Y3721252D01*
X-2607614Y3723792D01*
X-2617368Y3724656D01*
X-2627172Y3723792D01*
X-2636672Y3721252D01*
X-2645562Y3717086D01*
X-2653639Y3711448D01*
X-2660599Y3704488D01*
X-2666187Y3696462D01*
X-2670352Y3687572D01*
X-2672892Y3678072D01*
X-2673756Y3668268D01*
X-2672892Y3658463D01*
X-2670352Y3648964D01*
X-2666187Y3640074D01*
X-2660599Y3632047D01*
X-2653639Y3625087D01*
X-2645562Y3619449D01*
X-2636672Y3615283D01*
X-2627172Y3612743D01*
X-2617368Y3611879D01*
X-2607614Y3612743D01*
X-2598115Y3615283D01*
X-2589225Y3619449D01*
X-2581148Y3625087D01*
X-2579573Y3626713D01*
X-2576271Y3628898D01*
X-2572359Y3629660D01*
X-2124405Y3629660D01*
X-2121204Y3629151D01*
X-2118309Y3627678D01*
X-2116074Y3625342D01*
X-2113483Y3621633D01*
X-2106523Y3614674D01*
X-2098497Y3609086D01*
X-2089607Y3604920D01*
X-2080107Y3602380D01*
G37*
G36*
X-8032089Y3809847D02*
G01*
X-8032089Y3856736D01*
X-8078978Y3856736D01*
X-8073237Y3846322D01*
X-8065262Y3835450D01*
X-8055914Y3825798D01*
X-8045297Y3817416D01*
X-8033715Y3810558D01*
G37*
G36*
X-7944358Y3809847D02*
G01*
X-7942732Y3810558D01*
X-7931150Y3817416D01*
X-7920532Y3825798D01*
X-7911185Y3835450D01*
X-7903209Y3846322D01*
X-7898841Y3854196D01*
X-7896606Y3856736D01*
X-7944358Y3856736D01*
G37*
G36*
X-2552700Y3936492D02*
G01*
X-2539085Y3937406D01*
X-2525725Y3940149D01*
X-2512822Y3944620D01*
X-2500680Y3950766D01*
X-2489454Y3958488D01*
X-2479294Y3967632D01*
X-2470505Y3978046D01*
X-2463190Y3989527D01*
X-2457450Y4001922D01*
X-2453386Y4014927D01*
X-2451150Y4028389D01*
X-2450693Y4042003D01*
X-2452014Y4055567D01*
X-2455214Y4068826D01*
X-2460091Y4081576D01*
X-2466644Y4093514D01*
X-2474722Y4104487D01*
X-2484221Y4114292D01*
X-2494940Y4122775D01*
X-2506675Y4129735D01*
X-2519222Y4135018D01*
X-2532380Y4138625D01*
X-2545892Y4140454D01*
X-2559507Y4140454D01*
X-2573020Y4138625D01*
X-2586177Y4135018D01*
X-2598724Y4129735D01*
X-2610459Y4122775D01*
X-2621178Y4114292D01*
X-2630678Y4104487D01*
X-2638755Y4093514D01*
X-2645308Y4081576D01*
X-2650185Y4068826D01*
X-2653385Y4055567D01*
X-2654706Y4042003D01*
X-2654249Y4028389D01*
X-2652014Y4014927D01*
X-2647950Y4001922D01*
X-2642209Y3989527D01*
X-2634894Y3978046D01*
X-2626106Y3967632D01*
X-2615946Y3958488D01*
X-2604719Y3950766D01*
X-2592578Y3944620D01*
X-2579674Y3940149D01*
X-2566314Y3937406D01*
G37*
G36*
X-2298700Y3936492D02*
G01*
X-2285085Y3937406D01*
X-2271725Y3940149D01*
X-2258822Y3944620D01*
X-2246680Y3950766D01*
X-2235454Y3958488D01*
X-2225294Y3967632D01*
X-2216505Y3978046D01*
X-2209190Y3989527D01*
X-2203450Y4001922D01*
X-2199386Y4014927D01*
X-2197150Y4028389D01*
X-2196693Y4042003D01*
X-2198014Y4055567D01*
X-2201214Y4068826D01*
X-2206091Y4081576D01*
X-2212644Y4093514D01*
X-2220722Y4104487D01*
X-2230221Y4114292D01*
X-2240940Y4122775D01*
X-2252675Y4129735D01*
X-2265222Y4135018D01*
X-2278380Y4138625D01*
X-2291892Y4140454D01*
X-2305507Y4140454D01*
X-2319020Y4138625D01*
X-2332177Y4135018D01*
X-2344724Y4129735D01*
X-2356459Y4122775D01*
X-2367178Y4114292D01*
X-2376678Y4104487D01*
X-2384755Y4093514D01*
X-2391308Y4081576D01*
X-2396185Y4068826D01*
X-2399385Y4055567D01*
X-2400706Y4042003D01*
X-2400249Y4028389D01*
X-2398014Y4014927D01*
X-2393950Y4001922D01*
X-2388209Y3989527D01*
X-2380894Y3978046D01*
X-2372106Y3967632D01*
X-2361946Y3958488D01*
X-2350719Y3950766D01*
X-2338578Y3944620D01*
X-2325674Y3940149D01*
X-2312314Y3937406D01*
G37*
G36*
X-2806700Y3936492D02*
G01*
X-2793085Y3937406D01*
X-2779725Y3940149D01*
X-2766822Y3944620D01*
X-2754680Y3950766D01*
X-2743454Y3958488D01*
X-2733294Y3967632D01*
X-2724505Y3978046D01*
X-2717190Y3989527D01*
X-2711450Y4001922D01*
X-2707386Y4014927D01*
X-2705150Y4028389D01*
X-2704693Y4042003D01*
X-2706014Y4055567D01*
X-2709214Y4068826D01*
X-2714091Y4081576D01*
X-2720644Y4093514D01*
X-2728722Y4104487D01*
X-2738221Y4114292D01*
X-2748940Y4122775D01*
X-2760675Y4129735D01*
X-2773222Y4135018D01*
X-2786380Y4138625D01*
X-2799892Y4140454D01*
X-2813507Y4140454D01*
X-2827020Y4138625D01*
X-2840177Y4135018D01*
X-2852724Y4129735D01*
X-2864459Y4122775D01*
X-2875178Y4114292D01*
X-2884678Y4104487D01*
X-2892755Y4093514D01*
X-2899308Y4081576D01*
X-2904185Y4068826D01*
X-2907385Y4055567D01*
X-2908706Y4042003D01*
X-2908249Y4028389D01*
X-2906014Y4014927D01*
X-2901950Y4001922D01*
X-2896209Y3989527D01*
X-2888894Y3978046D01*
X-2880106Y3967632D01*
X-2869946Y3958488D01*
X-2858719Y3950766D01*
X-2846578Y3944620D01*
X-2833674Y3940149D01*
X-2820314Y3937406D01*
G37*
G36*
X-2044700Y3936492D02*
G01*
X-2031085Y3937406D01*
X-2017725Y3940149D01*
X-2004822Y3944620D01*
X-1992680Y3950766D01*
X-1981454Y3958488D01*
X-1971293Y3967632D01*
X-1962505Y3978046D01*
X-1955190Y3989527D01*
X-1949450Y4001922D01*
X-1945386Y4014927D01*
X-1943150Y4028389D01*
X-1942693Y4042003D01*
X-1944014Y4055567D01*
X-1947214Y4068826D01*
X-1952091Y4081576D01*
X-1958644Y4093514D01*
X-1966722Y4104487D01*
X-1976221Y4114292D01*
X-1986940Y4122775D01*
X-1998675Y4129735D01*
X-2011222Y4135018D01*
X-2024380Y4138625D01*
X-2037892Y4140454D01*
X-2051507Y4140454D01*
X-2065020Y4138625D01*
X-2078177Y4135018D01*
X-2090724Y4129735D01*
X-2102459Y4122775D01*
X-2113178Y4114292D01*
X-2122678Y4104487D01*
X-2130755Y4093514D01*
X-2137308Y4081576D01*
X-2142185Y4068826D01*
X-2145385Y4055567D01*
X-2146706Y4042003D01*
X-2146249Y4028389D01*
X-2144014Y4014927D01*
X-2139950Y4001922D01*
X-2134209Y3989527D01*
X-2126894Y3978046D01*
X-2118106Y3967632D01*
X-2107946Y3958488D01*
X-2096719Y3950766D01*
X-2084578Y3944620D01*
X-2071674Y3940149D01*
X-2058314Y3937406D01*
G37*
G36*
X-8078825Y3944467D02*
G01*
X-8032089Y3944467D01*
X-8032089Y3991203D01*
X-8039658Y3987393D01*
X-8050733Y3979773D01*
X-8060740Y3970731D01*
X-8069427Y3960469D01*
X-8076692Y3949090D01*
G37*
G36*
X-2298700Y5752592D02*
G01*
X-2285085Y5753506D01*
X-2271725Y5756249D01*
X-2258822Y5760720D01*
X-2246680Y5766866D01*
X-2235454Y5774588D01*
X-2225294Y5783732D01*
X-2216505Y5794146D01*
X-2209190Y5805627D01*
X-2203450Y5818022D01*
X-2199386Y5831027D01*
X-2197150Y5844489D01*
X-2196693Y5858103D01*
X-2198014Y5871667D01*
X-2201214Y5884926D01*
X-2206091Y5897676D01*
X-2212644Y5909614D01*
X-2220722Y5920587D01*
X-2230221Y5930392D01*
X-2240940Y5938875D01*
X-2252675Y5945835D01*
X-2265222Y5951118D01*
X-2278380Y5954725D01*
X-2291892Y5956554D01*
X-2305507Y5956554D01*
X-2319020Y5954725D01*
X-2332177Y5951118D01*
X-2344724Y5945835D01*
X-2356459Y5938875D01*
X-2367178Y5930392D01*
X-2376678Y5920587D01*
X-2384755Y5909614D01*
X-2391308Y5897676D01*
X-2396185Y5884926D01*
X-2399385Y5871667D01*
X-2400706Y5858103D01*
X-2400249Y5844489D01*
X-2398014Y5831027D01*
X-2393950Y5818022D01*
X-2388209Y5805627D01*
X-2380894Y5794146D01*
X-2372106Y5783732D01*
X-2361946Y5774588D01*
X-2350719Y5766866D01*
X-2338578Y5760720D01*
X-2325674Y5756249D01*
X-2312314Y5753506D01*
G37*
G36*
X-2552700Y5752592D02*
G01*
X-2539085Y5753506D01*
X-2525725Y5756249D01*
X-2512822Y5760720D01*
X-2500680Y5766866D01*
X-2489454Y5774588D01*
X-2479294Y5783732D01*
X-2470505Y5794146D01*
X-2463190Y5805627D01*
X-2457450Y5818022D01*
X-2453386Y5831027D01*
X-2451150Y5844489D01*
X-2450693Y5858103D01*
X-2452014Y5871667D01*
X-2455214Y5884926D01*
X-2460091Y5897676D01*
X-2466644Y5909614D01*
X-2474722Y5920587D01*
X-2484221Y5930392D01*
X-2494940Y5938875D01*
X-2506675Y5945835D01*
X-2519222Y5951118D01*
X-2532380Y5954725D01*
X-2545892Y5956554D01*
X-2559507Y5956554D01*
X-2573020Y5954725D01*
X-2586177Y5951118D01*
X-2598724Y5945835D01*
X-2610459Y5938875D01*
X-2621178Y5930392D01*
X-2630678Y5920587D01*
X-2638755Y5909614D01*
X-2645308Y5897676D01*
X-2650185Y5884926D01*
X-2653385Y5871667D01*
X-2654706Y5858103D01*
X-2654249Y5844489D01*
X-2652014Y5831027D01*
X-2647950Y5818022D01*
X-2642209Y5805627D01*
X-2634894Y5794146D01*
X-2626106Y5783732D01*
X-2615946Y5774588D01*
X-2604719Y5766866D01*
X-2592578Y5760720D01*
X-2579674Y5756249D01*
X-2566314Y5753506D01*
G37*
G36*
X-3060700Y5752592D02*
G01*
X-3047085Y5753506D01*
X-3033725Y5756249D01*
X-3020822Y5760720D01*
X-3008680Y5766866D01*
X-2997454Y5774588D01*
X-2987294Y5783732D01*
X-2978505Y5794146D01*
X-2971190Y5805627D01*
X-2965450Y5818022D01*
X-2961386Y5831027D01*
X-2959150Y5844489D01*
X-2958693Y5858103D01*
X-2960014Y5871667D01*
X-2963214Y5884926D01*
X-2968091Y5897676D01*
X-2974644Y5909614D01*
X-2982722Y5920587D01*
X-2992221Y5930392D01*
X-3002940Y5938875D01*
X-3014675Y5945835D01*
X-3027222Y5951118D01*
X-3040380Y5954725D01*
X-3053892Y5956554D01*
X-3067507Y5956554D01*
X-3081020Y5954725D01*
X-3094177Y5951118D01*
X-3106724Y5945835D01*
X-3118459Y5938875D01*
X-3129178Y5930392D01*
X-3138678Y5920587D01*
X-3146755Y5909614D01*
X-3153308Y5897676D01*
X-3158185Y5884926D01*
X-3161385Y5871667D01*
X-3162706Y5858103D01*
X-3162249Y5844489D01*
X-3160014Y5831027D01*
X-3155950Y5818022D01*
X-3150209Y5805627D01*
X-3142894Y5794146D01*
X-3134106Y5783732D01*
X-3123946Y5774588D01*
X-3112719Y5766866D01*
X-3100578Y5760720D01*
X-3087674Y5756249D01*
X-3074314Y5753506D01*
G37*
G36*
X-2806700Y5752592D02*
G01*
X-2793085Y5753506D01*
X-2779725Y5756249D01*
X-2766822Y5760720D01*
X-2754680Y5766866D01*
X-2743454Y5774588D01*
X-2733294Y5783732D01*
X-2724505Y5794146D01*
X-2717190Y5805627D01*
X-2711450Y5818022D01*
X-2707386Y5831027D01*
X-2705150Y5844489D01*
X-2704693Y5858103D01*
X-2706014Y5871667D01*
X-2709214Y5884926D01*
X-2714091Y5897676D01*
X-2720644Y5909614D01*
X-2728722Y5920587D01*
X-2738221Y5930392D01*
X-2748940Y5938875D01*
X-2760675Y5945835D01*
X-2773222Y5951118D01*
X-2786380Y5954725D01*
X-2799892Y5956554D01*
X-2813507Y5956554D01*
X-2827020Y5954725D01*
X-2840177Y5951118D01*
X-2852724Y5945835D01*
X-2864459Y5938875D01*
X-2875178Y5930392D01*
X-2884678Y5920587D01*
X-2892755Y5909614D01*
X-2899308Y5897676D01*
X-2904185Y5884926D01*
X-2907385Y5871667D01*
X-2908706Y5858103D01*
X-2908249Y5844489D01*
X-2906014Y5831027D01*
X-2901950Y5818022D01*
X-2896209Y5805627D01*
X-2888894Y5794146D01*
X-2880106Y5783732D01*
X-2869946Y5774588D01*
X-2858719Y5766866D01*
X-2846578Y5760720D01*
X-2833674Y5756249D01*
X-2820314Y5753506D01*
G37*
G36*
X-3822700Y5752592D02*
G01*
X-3809085Y5753506D01*
X-3795725Y5756249D01*
X-3782822Y5760720D01*
X-3770680Y5766866D01*
X-3759454Y5774588D01*
X-3749294Y5783732D01*
X-3740505Y5794146D01*
X-3733190Y5805627D01*
X-3727450Y5818022D01*
X-3723386Y5831027D01*
X-3721150Y5844489D01*
X-3720693Y5858103D01*
X-3722014Y5871667D01*
X-3725214Y5884926D01*
X-3726332Y5887923D01*
X-3727043Y5891733D01*
X-3726230Y5895543D01*
X-3724046Y5898743D01*
X-3314395Y6308445D01*
X-3311093Y6310630D01*
X-3307181Y6311392D01*
X-2752394Y6311392D01*
X-2748788Y6310731D01*
X-2745638Y6308801D01*
X-2743403Y6305905D01*
X-2736392Y6292494D01*
X-2728315Y6280861D01*
X-2718765Y6270345D01*
X-2707944Y6261150D01*
X-2696006Y6253378D01*
X-2683205Y6247231D01*
X-2669743Y6242761D01*
X-2655265Y6239967D01*
X-2651506Y6239002D01*
X-2648407Y6236716D01*
X-2646375Y6233414D01*
X-2645765Y6229654D01*
X-2646578Y6225844D01*
X-2648712Y6222644D01*
X-2656789Y6214618D01*
X-2660091Y6212382D01*
X-2663952Y6211620D01*
X-2995879Y6211620D01*
X-3003905Y6210858D01*
X-3011170Y6208623D01*
X-3017824Y6205067D01*
X-3024022Y6199987D01*
X-3270503Y5953506D01*
X-3273450Y5951474D01*
X-3276854Y5950559D01*
X-3280410Y5950864D01*
X-3294379Y5954725D01*
X-3307892Y5956554D01*
X-3321507Y5956554D01*
X-3335020Y5954725D01*
X-3348177Y5951118D01*
X-3360724Y5945835D01*
X-3372459Y5938875D01*
X-3383178Y5930392D01*
X-3392678Y5920587D01*
X-3400755Y5909614D01*
X-3407308Y5897676D01*
X-3412185Y5884926D01*
X-3415385Y5871667D01*
X-3416706Y5858103D01*
X-3416249Y5844489D01*
X-3414014Y5831027D01*
X-3409950Y5818022D01*
X-3404209Y5805627D01*
X-3396894Y5794146D01*
X-3388106Y5783732D01*
X-3377946Y5774588D01*
X-3366719Y5766866D01*
X-3354578Y5760720D01*
X-3341674Y5756249D01*
X-3328314Y5753506D01*
X-3314700Y5752592D01*
X-3301085Y5753506D01*
X-3287725Y5756249D01*
X-3274822Y5760720D01*
X-3262680Y5766866D01*
X-3251453Y5774588D01*
X-3241294Y5783732D01*
X-3232505Y5794146D01*
X-3225190Y5805627D01*
X-3219450Y5818022D01*
X-3215386Y5831027D01*
X-3213150Y5844489D01*
X-3212693Y5858103D01*
X-3214014Y5871667D01*
X-3217214Y5884926D01*
X-3218332Y5887923D01*
X-3219043Y5891733D01*
X-3218230Y5895543D01*
X-3216046Y5898743D01*
X-2983382Y6131458D01*
X-2980080Y6133642D01*
X-2976168Y6134404D01*
X-2644241Y6134404D01*
X-2636215Y6135217D01*
X-2629001Y6137402D01*
X-2622346Y6140958D01*
X-2616098Y6146088D01*
X-2491384Y6270802D01*
X-2486253Y6277051D01*
X-2482697Y6283706D01*
X-2480513Y6290970D01*
X-2479700Y6298996D01*
X-2479700Y6480200D01*
X-2480513Y6488226D01*
X-2482697Y6495491D01*
X-2486253Y6502146D01*
X-2491384Y6508394D01*
X-2536139Y6553149D01*
X-2538272Y6556298D01*
X-2539085Y6560058D01*
X-2538476Y6563817D01*
X-2535275Y6572453D01*
X-2532126Y6586321D01*
X-2530754Y6600444D01*
X-2531211Y6614668D01*
X-2533497Y6628688D01*
X-2537510Y6642303D01*
X-2543302Y6655308D01*
X-2550668Y6667449D01*
X-2559507Y6678574D01*
X-2569718Y6688429D01*
X-2581097Y6696913D01*
X-2593492Y6703923D01*
X-2606649Y6709257D01*
X-2620416Y6712864D01*
X-2634488Y6714642D01*
X-2648712Y6714642D01*
X-2662783Y6712864D01*
X-2676550Y6709257D01*
X-2689707Y6703923D01*
X-2702102Y6696913D01*
X-2713482Y6688429D01*
X-2723692Y6678574D01*
X-2732532Y6667449D01*
X-2739898Y6655308D01*
X-2745638Y6642303D01*
X-2749702Y6628688D01*
X-2751988Y6614668D01*
X-2752445Y6600444D01*
X-2751074Y6586321D01*
X-2747924Y6572453D01*
X-2742996Y6559092D01*
X-2736443Y6546494D01*
X-2728315Y6534861D01*
X-2718765Y6524345D01*
X-2707944Y6515150D01*
X-2696006Y6507378D01*
X-2683205Y6501231D01*
X-2669743Y6496761D01*
X-2655773Y6494018D01*
X-2641600Y6493103D01*
X-2627426Y6494018D01*
X-2613456Y6496761D01*
X-2601010Y6500876D01*
X-2597302Y6501384D01*
X-2593695Y6500520D01*
X-2590596Y6498437D01*
X-2559913Y6467703D01*
X-2557678Y6464401D01*
X-2556916Y6460540D01*
X-2556916Y6445148D01*
X-2557881Y6440779D01*
X-2560624Y6437274D01*
X-2564638Y6435293D01*
X-2569108Y6435191D01*
X-2573172Y6437020D01*
X-2581097Y6442913D01*
X-2593492Y6449923D01*
X-2606649Y6455257D01*
X-2620416Y6458864D01*
X-2634488Y6460642D01*
X-2648712Y6460642D01*
X-2662783Y6458864D01*
X-2676550Y6455257D01*
X-2689707Y6449923D01*
X-2702102Y6442913D01*
X-2713482Y6434429D01*
X-2723692Y6424574D01*
X-2732532Y6413449D01*
X-2739898Y6401308D01*
X-2742844Y6394653D01*
X-2745079Y6391503D01*
X-2748330Y6389370D01*
X-2752140Y6388608D01*
X-3326892Y6388608D01*
X-3334918Y6387846D01*
X-3342182Y6385610D01*
X-3348837Y6382054D01*
X-3355035Y6376974D01*
X-3778504Y5953506D01*
X-3781450Y5951474D01*
X-3784854Y5950559D01*
X-3788410Y5950864D01*
X-3802379Y5954725D01*
X-3815892Y5956554D01*
X-3829507Y5956554D01*
X-3843020Y5954725D01*
X-3856177Y5951118D01*
X-3868724Y5945835D01*
X-3880459Y5938875D01*
X-3891178Y5930392D01*
X-3900678Y5920587D01*
X-3908755Y5909614D01*
X-3915308Y5897676D01*
X-3920185Y5884926D01*
X-3923385Y5871667D01*
X-3924706Y5858103D01*
X-3924249Y5844489D01*
X-3922014Y5831027D01*
X-3917950Y5818022D01*
X-3912209Y5805627D01*
X-3904894Y5794146D01*
X-3896106Y5783732D01*
X-3885946Y5774588D01*
X-3874719Y5766866D01*
X-3862578Y5760720D01*
X-3849674Y5756249D01*
X-3836314Y5753506D01*
G37*
G36*
X-3613150Y5763056D02*
G01*
X-3613150Y5810250D01*
X-3660343Y5810250D01*
X-3658209Y5805627D01*
X-3650894Y5794146D01*
X-3642106Y5783732D01*
X-3631946Y5774588D01*
X-3620719Y5766866D01*
G37*
G36*
X-3524250Y5763056D02*
G01*
X-3516680Y5766866D01*
X-3505454Y5774588D01*
X-3495294Y5783732D01*
X-3486505Y5794146D01*
X-3479190Y5805627D01*
X-3477056Y5810250D01*
X-3524250Y5810250D01*
G37*
G36*
X-3524250Y5899150D02*
G01*
X-3476904Y5899150D01*
X-3482644Y5909614D01*
X-3490722Y5920587D01*
X-3500221Y5930392D01*
X-3510940Y5938875D01*
X-3522675Y5945835D01*
X-3524250Y5946495D01*
G37*
G36*
X-3660495Y5899150D02*
G01*
X-3613150Y5899150D01*
X-3613150Y5946495D01*
X-3614724Y5945835D01*
X-3626459Y5938875D01*
X-3637178Y5930392D01*
X-3646678Y5920587D01*
X-3654755Y5909614D01*
G37*
G36*
X-8255000Y6055461D02*
G01*
X-8239810Y6056376D01*
X-8224875Y6059119D01*
X-8210346Y6063640D01*
X-8196478Y6069888D01*
X-8183473Y6077762D01*
X-8171535Y6087110D01*
X-8160766Y6097879D01*
X-8151418Y6109817D01*
X-8143544Y6122822D01*
X-8137296Y6136690D01*
X-8132775Y6151219D01*
X-8130031Y6166154D01*
X-8129117Y6181344D01*
X-8130031Y6196533D01*
X-8132775Y6211468D01*
X-8137296Y6225997D01*
X-8143544Y6239865D01*
X-8151418Y6252870D01*
X-8160766Y6264808D01*
X-8171535Y6275578D01*
X-8183473Y6284925D01*
X-8196478Y6292799D01*
X-8210346Y6299047D01*
X-8224875Y6303568D01*
X-8239810Y6306312D01*
X-8255000Y6307226D01*
X-8270189Y6306312D01*
X-8285124Y6303568D01*
X-8299653Y6299047D01*
X-8313521Y6292799D01*
X-8326526Y6284925D01*
X-8338464Y6275578D01*
X-8349234Y6264808D01*
X-8358581Y6252870D01*
X-8366455Y6239865D01*
X-8372703Y6225997D01*
X-8377224Y6211468D01*
X-8379968Y6196533D01*
X-8380882Y6181344D01*
X-8379968Y6166154D01*
X-8377224Y6151219D01*
X-8372703Y6136690D01*
X-8366455Y6122822D01*
X-8358581Y6109817D01*
X-8349234Y6097879D01*
X-8338464Y6087110D01*
X-8326526Y6077762D01*
X-8313521Y6069888D01*
X-8299653Y6063640D01*
X-8285124Y6059119D01*
X-8270189Y6056376D01*
G37*
G36*
X-7933029Y6543903D02*
G01*
X-7764170Y6543903D01*
X-7757871Y6544614D01*
X-7752384Y6546494D01*
X-7747508Y6549593D01*
X-7743393Y6553708D01*
X-7740294Y6558584D01*
X-7738414Y6564071D01*
X-7737703Y6570370D01*
X-7737703Y6739229D01*
X-7738414Y6745528D01*
X-7740294Y6751015D01*
X-7743393Y6755892D01*
X-7747508Y6760006D01*
X-7752384Y6763105D01*
X-7757871Y6764985D01*
X-7764170Y6765696D01*
X-7933029Y6765696D01*
X-7939328Y6764985D01*
X-7944815Y6763105D01*
X-7949692Y6760006D01*
X-7953806Y6755892D01*
X-7957058Y6750761D01*
X-7959496Y6748068D01*
X-7962747Y6746443D01*
X-7966354Y6746036D01*
X-7969859Y6746900D01*
X-7972856Y6748983D01*
X-8031988Y6808114D01*
X-8038236Y6813245D01*
X-8044891Y6816801D01*
X-8052104Y6818985D01*
X-8060131Y6819798D01*
X-8229752Y6819798D01*
X-8237778Y6818985D01*
X-8244992Y6816801D01*
X-8251647Y6813245D01*
X-8257895Y6808114D01*
X-8305647Y6760362D01*
X-8309000Y6758127D01*
X-8313013Y6757416D01*
X-8331911Y6762902D01*
X-8345931Y6765188D01*
X-8360156Y6765645D01*
X-8374278Y6764274D01*
X-8388146Y6761124D01*
X-8401507Y6756196D01*
X-8414105Y6749643D01*
X-8425738Y6741515D01*
X-8436254Y6731965D01*
X-8445449Y6721144D01*
X-8453221Y6709206D01*
X-8459368Y6696405D01*
X-8463838Y6682943D01*
X-8466582Y6668973D01*
X-8467496Y6654800D01*
X-8466582Y6640626D01*
X-8463838Y6626656D01*
X-8459368Y6613194D01*
X-8453221Y6600393D01*
X-8445449Y6588455D01*
X-8436254Y6577634D01*
X-8425738Y6568084D01*
X-8414105Y6559956D01*
X-8401507Y6553403D01*
X-8388146Y6548475D01*
X-8374278Y6545326D01*
X-8360156Y6543954D01*
X-8345931Y6544411D01*
X-8331911Y6546697D01*
X-8318296Y6550710D01*
X-8305292Y6556502D01*
X-8293150Y6563868D01*
X-8282025Y6572707D01*
X-8272170Y6582918D01*
X-8263686Y6594297D01*
X-8256676Y6606692D01*
X-8251342Y6619849D01*
X-8247735Y6633616D01*
X-8245957Y6647688D01*
X-8245957Y6661912D01*
X-8247735Y6675983D01*
X-8251342Y6689750D01*
X-8253374Y6694678D01*
X-8254085Y6698538D01*
X-8253323Y6702399D01*
X-8251139Y6705701D01*
X-8217204Y6739585D01*
X-8213902Y6741769D01*
X-8210042Y6742582D01*
X-8195208Y6742582D01*
X-8191449Y6741820D01*
X-8188198Y6739788D01*
X-8185962Y6736689D01*
X-8185048Y6732930D01*
X-8185556Y6729171D01*
X-8187486Y6725818D01*
X-8191449Y6721144D01*
X-8199221Y6709206D01*
X-8201914Y6703669D01*
X-8151469Y6703669D01*
X-8151469Y6732422D01*
X-8150656Y6736283D01*
X-8148472Y6739585D01*
X-8145170Y6741769D01*
X-8141309Y6742582D01*
X-8079841Y6742582D01*
X-8075980Y6741769D01*
X-8072678Y6739585D01*
X-8056727Y6723634D01*
X-8054543Y6720331D01*
X-8053730Y6716471D01*
X-8053730Y6703669D01*
X-8040928Y6703669D01*
X-8037068Y6702856D01*
X-8033766Y6700672D01*
X-8003082Y6669989D01*
X-8000898Y6666738D01*
X-8000136Y6662826D01*
X-8000136Y6655308D01*
X-7999323Y6647281D01*
X-7997139Y6640068D01*
X-7993583Y6633413D01*
X-7988757Y6627520D01*
X-7983829Y6623202D01*
X-7976260Y6619189D01*
X-7965084Y6615938D01*
X-7962138Y6613652D01*
X-7960207Y6610502D01*
X-7959496Y6606844D01*
X-7959496Y6570370D01*
X-7958785Y6564071D01*
X-7956905Y6558584D01*
X-7953806Y6553708D01*
X-7949692Y6549593D01*
X-7944815Y6546494D01*
X-7939328Y6544614D01*
G37*
G36*
X-8053730Y6555384D02*
G01*
X-8051292Y6556502D01*
X-8039150Y6563868D01*
X-8028025Y6572707D01*
X-8018170Y6582918D01*
X-8009686Y6594297D01*
X-8003133Y6605930D01*
X-8053730Y6605930D01*
G37*
G36*
X-8151469Y6555486D02*
G01*
X-8151469Y6605930D01*
X-8201914Y6605930D01*
X-8199221Y6600393D01*
X-8191449Y6588455D01*
X-8182254Y6577634D01*
X-8171738Y6568084D01*
X-8160105Y6559956D01*
G37*
G36*
X-3538778Y6567881D02*
G01*
X-3520694Y6569252D01*
X-3502914Y6572503D01*
X-3485489Y6577584D01*
X-3468725Y6584391D01*
X-3452774Y6592925D01*
X-3437737Y6603034D01*
X-3423818Y6614617D01*
X-3411169Y6627571D01*
X-3399942Y6641795D01*
X-3390239Y6657086D01*
X-3382111Y6673240D01*
X-3375761Y6690207D01*
X-3371138Y6707733D01*
X-3368344Y6725615D01*
X-3367430Y6743700D01*
X-3368344Y6761784D01*
X-3371138Y6779666D01*
X-3375761Y6797192D01*
X-3382111Y6814159D01*
X-3390239Y6830314D01*
X-3399942Y6845604D01*
X-3411169Y6859828D01*
X-3423818Y6872782D01*
X-3437737Y6884365D01*
X-3452774Y6894474D01*
X-3468725Y6903008D01*
X-3485489Y6909816D01*
X-3502914Y6914896D01*
X-3520694Y6918147D01*
X-3538778Y6919518D01*
X-3556863Y6919061D01*
X-3574846Y6916724D01*
X-3592474Y6912609D01*
X-3609543Y6906615D01*
X-3625951Y6898944D01*
X-3641496Y6889648D01*
X-3655974Y6878777D01*
X-3669284Y6866483D01*
X-3681222Y6852869D01*
X-3691737Y6838086D01*
X-3700627Y6822338D01*
X-3707892Y6805726D01*
X-3713378Y6788505D01*
X-3717086Y6770776D01*
X-3718966Y6752742D01*
X-3718966Y6734657D01*
X-3717086Y6716623D01*
X-3713378Y6698894D01*
X-3707892Y6681673D01*
X-3700627Y6665061D01*
X-3691737Y6649313D01*
X-3681222Y6634530D01*
X-3669284Y6620916D01*
X-3655974Y6608622D01*
X-3641496Y6597751D01*
X-3625951Y6588455D01*
X-3609543Y6580784D01*
X-3592474Y6574790D01*
X-3574846Y6570675D01*
X-3556863Y6568338D01*
G37*
G36*
X-5384800Y8606332D02*
G01*
X-5370982Y8607196D01*
X-5357418Y8609939D01*
X-5344261Y8614359D01*
X-5331866Y8620506D01*
X-5320334Y8628176D01*
X-5309920Y8637320D01*
X-5300776Y8647734D01*
X-5293106Y8659266D01*
X-5286959Y8671661D01*
X-5282539Y8684818D01*
X-5279796Y8698382D01*
X-5278932Y8712200D01*
X-5279796Y8726017D01*
X-5282539Y8739581D01*
X-5286959Y8752738D01*
X-5293106Y8765133D01*
X-5300776Y8776665D01*
X-5309920Y8787079D01*
X-5320334Y8796223D01*
X-5331866Y8803894D01*
X-5344261Y8810040D01*
X-5357418Y8814460D01*
X-5370982Y8817203D01*
X-5384800Y8818067D01*
X-5398617Y8817203D01*
X-5412181Y8814460D01*
X-5425338Y8810040D01*
X-5437733Y8803894D01*
X-5449265Y8796223D01*
X-5459679Y8787079D01*
X-5468823Y8776665D01*
X-5476494Y8765133D01*
X-5482640Y8752738D01*
X-5487060Y8739581D01*
X-5489803Y8726017D01*
X-5490667Y8712200D01*
X-5489803Y8698382D01*
X-5487060Y8684818D01*
X-5482640Y8671661D01*
X-5476494Y8659266D01*
X-5468823Y8647734D01*
X-5459679Y8637320D01*
X-5449265Y8628176D01*
X-5437733Y8620506D01*
X-5425338Y8614359D01*
X-5412181Y8609939D01*
X-5398617Y8607196D01*
G37*
G36*
X-5592470Y8617254D02*
G01*
X-5585866Y8620506D01*
X-5574334Y8628176D01*
X-5563920Y8637320D01*
X-5554776Y8647734D01*
X-5547106Y8659266D01*
X-5543854Y8665870D01*
X-5592470Y8665870D01*
G37*
G36*
X-5685129Y8617254D02*
G01*
X-5685129Y8665870D01*
X-5733745Y8665870D01*
X-5730494Y8659266D01*
X-5722823Y8647734D01*
X-5713679Y8637320D01*
X-5703265Y8628176D01*
X-5691733Y8620506D01*
G37*
G36*
X-5733745Y8758529D02*
G01*
X-5685129Y8758529D01*
X-5685129Y8807145D01*
X-5691733Y8803894D01*
X-5703265Y8796223D01*
X-5713679Y8787079D01*
X-5722823Y8776665D01*
X-5730494Y8765133D01*
G37*
G36*
X-5592470Y8758529D02*
G01*
X-5543854Y8758529D01*
X-5547106Y8765133D01*
X-5554776Y8776665D01*
X-5563920Y8787079D01*
X-5574334Y8796223D01*
X-5585866Y8803894D01*
X-5592470Y8807145D01*
G37*

%LPD*%
G36*
X-7326122Y4282186D02*
G01*
X-7329525Y4282744D01*
X-7332522Y4284472D01*
X-7335875Y4287215D01*
X-7342530Y4290771D01*
X-7349744Y4292955D01*
X-7357770Y4293768D01*
X-8076438Y4293768D01*
X-8080298Y4294530D01*
X-8083600Y4296714D01*
X-8258302Y4471416D01*
X-8260689Y4475124D01*
X-8261248Y4479493D01*
X-8259927Y4483658D01*
X-8256981Y4486910D01*
X-8252968Y4488586D01*
X-8237575Y4491431D01*
X-8223046Y4495952D01*
X-8209178Y4502200D01*
X-8196173Y4510074D01*
X-8184235Y4519422D01*
X-8173466Y4530191D01*
X-8164118Y4542129D01*
X-8156244Y4555134D01*
X-8149996Y4569002D01*
X-8145475Y4583531D01*
X-8142731Y4598466D01*
X-8141817Y4613656D01*
X-8142731Y4628845D01*
X-8145475Y4643780D01*
X-8149996Y4658309D01*
X-8152841Y4664659D01*
X-8153755Y4668621D01*
X-8152993Y4672584D01*
X-8150758Y4675987D01*
X-8146694Y4680051D01*
X-8143392Y4682236D01*
X-8139531Y4683048D01*
X-5794451Y4683048D01*
X-5786424Y4683810D01*
X-5779211Y4685995D01*
X-5772556Y4689602D01*
X-5766308Y4694682D01*
X-5688431Y4772558D01*
X-5685028Y4774793D01*
X-5681065Y4775555D01*
X-5677103Y4774641D01*
X-5670753Y4771796D01*
X-5656224Y4767275D01*
X-5641289Y4764532D01*
X-5626100Y4763617D01*
X-5610910Y4764532D01*
X-5595975Y4767275D01*
X-5581446Y4771796D01*
X-5567578Y4778044D01*
X-5554573Y4785918D01*
X-5542635Y4795266D01*
X-5531866Y4806035D01*
X-5522518Y4817973D01*
X-5514644Y4830978D01*
X-5508345Y4844897D01*
X-5503875Y4859375D01*
X-5501132Y4874310D01*
X-5500217Y4889500D01*
X-5501132Y4904689D01*
X-5503875Y4919624D01*
X-5508345Y4934102D01*
X-5514644Y4948021D01*
X-5522518Y4961026D01*
X-5531866Y4972964D01*
X-5542635Y4983734D01*
X-5554573Y4993081D01*
X-5567578Y5000955D01*
X-5581446Y5007203D01*
X-5595975Y5011724D01*
X-5610910Y5014468D01*
X-5626100Y5015382D01*
X-5641289Y5014468D01*
X-5656224Y5011724D01*
X-5670753Y5007203D01*
X-5684621Y5000955D01*
X-5697626Y4993081D01*
X-5709564Y4983734D01*
X-5720334Y4972964D01*
X-5729681Y4961026D01*
X-5737555Y4948021D01*
X-5743854Y4934102D01*
X-5746038Y4930902D01*
X-5749290Y4928819D01*
X-5753100Y4928108D01*
X-5756910Y4928819D01*
X-5760161Y4930902D01*
X-5762345Y4934102D01*
X-5768644Y4948021D01*
X-5776518Y4961026D01*
X-5785866Y4972964D01*
X-5796635Y4983734D01*
X-5808573Y4993081D01*
X-5821578Y5000955D01*
X-5835446Y5007203D01*
X-5849975Y5011724D01*
X-5864910Y5014468D01*
X-5880100Y5015382D01*
X-5895289Y5014468D01*
X-5910224Y5011724D01*
X-5924753Y5007203D01*
X-5931052Y5004358D01*
X-5935065Y5003444D01*
X-5939028Y5004206D01*
X-5942431Y5006441D01*
X-6077508Y5141518D01*
X-6083706Y5146598D01*
X-6090412Y5150154D01*
X-6097625Y5152390D01*
X-6105652Y5153152D01*
X-8140700Y5153152D01*
X-8144509Y5153914D01*
X-8147761Y5155996D01*
X-8149996Y5159146D01*
X-8156244Y5173065D01*
X-8164118Y5186070D01*
X-8173466Y5198008D01*
X-8184235Y5208778D01*
X-8196173Y5218125D01*
X-8209178Y5225999D01*
X-8223046Y5232247D01*
X-8237575Y5236768D01*
X-8252510Y5239512D01*
X-8267700Y5240426D01*
X-8282889Y5239512D01*
X-8297824Y5236768D01*
X-8312353Y5232247D01*
X-8326221Y5225999D01*
X-8339226Y5218125D01*
X-8342528Y5215585D01*
X-8346592Y5213654D01*
X-8351113Y5213654D01*
X-8355126Y5215636D01*
X-8357920Y5219192D01*
X-8358936Y5223560D01*
X-8358936Y5517743D01*
X-8358174Y5521604D01*
X-8355939Y5524906D01*
X-8317331Y5563514D01*
X-8313928Y5565749D01*
X-8309965Y5566511D01*
X-8306003Y5565597D01*
X-8299653Y5562752D01*
X-8285124Y5558231D01*
X-8270189Y5555488D01*
X-8255000Y5554573D01*
X-8239810Y5555488D01*
X-8224875Y5558231D01*
X-8210346Y5562752D01*
X-8196478Y5569000D01*
X-8183473Y5576874D01*
X-8171535Y5586222D01*
X-8160766Y5596991D01*
X-8151418Y5608929D01*
X-8143544Y5621934D01*
X-8137296Y5635802D01*
X-8132775Y5650331D01*
X-8130031Y5665266D01*
X-8129117Y5680456D01*
X-8130031Y5695645D01*
X-8132775Y5710580D01*
X-8137296Y5725109D01*
X-8140598Y5732424D01*
X-8141462Y5736336D01*
X-8140801Y5740298D01*
X-8138617Y5743702D01*
X-8135264Y5745988D01*
X-8131302Y5746750D01*
X-5339181Y5746750D01*
X-5335270Y5745988D01*
X-5331968Y5743803D01*
X-4619853Y5031638D01*
X-4617516Y5027980D01*
X-4616907Y5023612D01*
X-4618228Y5019446D01*
X-4621174Y5016195D01*
X-4625187Y5014468D01*
X-4640224Y5011724D01*
X-4654753Y5007203D01*
X-4668621Y5000955D01*
X-4681626Y4993081D01*
X-4693564Y4983734D01*
X-4704334Y4972964D01*
X-4713681Y4961026D01*
X-4721555Y4948021D01*
X-4727854Y4934102D01*
X-4730038Y4930902D01*
X-4733290Y4928819D01*
X-4737100Y4928108D01*
X-4740910Y4928819D01*
X-4744161Y4930902D01*
X-4746345Y4934102D01*
X-4752644Y4948021D01*
X-4760518Y4961026D01*
X-4769866Y4972964D01*
X-4780635Y4983734D01*
X-4792573Y4993081D01*
X-4805578Y5000955D01*
X-4819446Y5007203D01*
X-4833975Y5011724D01*
X-4848910Y5014468D01*
X-4864100Y5015382D01*
X-4879289Y5014468D01*
X-4894224Y5011724D01*
X-4908753Y5007203D01*
X-4922621Y5000955D01*
X-4935626Y4993081D01*
X-4947564Y4983734D01*
X-4958334Y4972964D01*
X-4967681Y4961026D01*
X-4975555Y4948021D01*
X-4981854Y4934102D01*
X-4984038Y4930902D01*
X-4987290Y4928819D01*
X-4991100Y4928108D01*
X-4994910Y4928819D01*
X-4998161Y4930902D01*
X-5000345Y4934102D01*
X-5006644Y4948021D01*
X-5014518Y4961026D01*
X-5023866Y4972964D01*
X-5034635Y4983734D01*
X-5046573Y4993081D01*
X-5059578Y5000955D01*
X-5073446Y5007203D01*
X-5087975Y5011724D01*
X-5102910Y5014468D01*
X-5118100Y5015382D01*
X-5133289Y5014468D01*
X-5148224Y5011724D01*
X-5162753Y5007203D01*
X-5176621Y5000955D01*
X-5189626Y4993081D01*
X-5201564Y4983734D01*
X-5212334Y4972964D01*
X-5221681Y4961026D01*
X-5229555Y4948021D01*
X-5235854Y4934102D01*
X-5240324Y4919624D01*
X-5243068Y4904689D01*
X-5243982Y4889500D01*
X-5243068Y4874310D01*
X-5240324Y4859375D01*
X-5235854Y4844897D01*
X-5229555Y4830978D01*
X-5221681Y4817973D01*
X-5212334Y4806035D01*
X-5201564Y4795266D01*
X-5189626Y4785918D01*
X-5176621Y4778044D01*
X-5162753Y4771796D01*
X-5148224Y4767275D01*
X-5133289Y4764532D01*
X-5118100Y4763617D01*
X-5102910Y4764532D01*
X-5087975Y4767275D01*
X-5073446Y4771796D01*
X-5059578Y4778044D01*
X-5046573Y4785918D01*
X-5034635Y4795266D01*
X-5023866Y4806035D01*
X-5014518Y4817973D01*
X-5006644Y4830978D01*
X-5000345Y4844897D01*
X-4998161Y4848098D01*
X-4994910Y4850180D01*
X-4991100Y4850892D01*
X-4987290Y4850180D01*
X-4984038Y4848098D01*
X-4981854Y4844897D01*
X-4975555Y4830978D01*
X-4967681Y4817973D01*
X-4958334Y4806035D01*
X-4947564Y4795266D01*
X-4935626Y4785918D01*
X-4923129Y4778349D01*
X-4920234Y4775708D01*
X-4918506Y4772152D01*
X-4918354Y4768189D01*
X-4919624Y4764481D01*
X-4922266Y4761534D01*
X-4925822Y4759807D01*
X-4936642Y4757013D01*
X-4945481Y4752848D01*
X-4953558Y4747260D01*
X-4960518Y4740300D01*
X-4966106Y4732223D01*
X-4970272Y4723333D01*
X-4972812Y4713833D01*
X-4973675Y4704029D01*
X-4972812Y4694275D01*
X-4970272Y4684776D01*
X-4966106Y4675886D01*
X-4960518Y4667808D01*
X-4953558Y4660900D01*
X-4944313Y4654499D01*
X-4941366Y4651400D01*
X-4939995Y4647387D01*
X-4940350Y4643120D01*
X-4942433Y4639411D01*
X-4945888Y4636871D01*
X-4950053Y4636008D01*
X-5028742Y4636008D01*
X-5036769Y4635195D01*
X-5043982Y4633010D01*
X-5050637Y4629454D01*
X-5056886Y4624324D01*
X-5182768Y4498441D01*
X-5186172Y4496206D01*
X-5190185Y4495444D01*
X-5194147Y4496358D01*
X-5200446Y4499203D01*
X-5214975Y4503724D01*
X-5229910Y4506468D01*
X-5245100Y4507382D01*
X-5260289Y4506468D01*
X-5275224Y4503724D01*
X-5289753Y4499203D01*
X-5303621Y4492955D01*
X-5316626Y4485081D01*
X-5328564Y4475734D01*
X-5339334Y4464964D01*
X-5348681Y4453026D01*
X-5356555Y4440021D01*
X-5362854Y4426102D01*
X-5365038Y4422902D01*
X-5368290Y4420819D01*
X-5372100Y4420108D01*
X-5375910Y4420819D01*
X-5379161Y4422902D01*
X-5381345Y4426102D01*
X-5387644Y4440021D01*
X-5395518Y4453026D01*
X-5404866Y4464964D01*
X-5415635Y4475734D01*
X-5427573Y4485081D01*
X-5440578Y4492955D01*
X-5454446Y4499203D01*
X-5468975Y4503724D01*
X-5483910Y4506468D01*
X-5499100Y4507382D01*
X-5514289Y4506468D01*
X-5529224Y4503724D01*
X-5543753Y4499203D01*
X-5557621Y4492955D01*
X-5570626Y4485081D01*
X-5582564Y4475734D01*
X-5593334Y4464964D01*
X-5602681Y4453026D01*
X-5610555Y4440021D01*
X-5616854Y4426102D01*
X-5619038Y4422902D01*
X-5622290Y4420819D01*
X-5626100Y4420108D01*
X-5629910Y4420819D01*
X-5633161Y4422902D01*
X-5635345Y4426102D01*
X-5641644Y4440021D01*
X-5649518Y4453026D01*
X-5658866Y4464964D01*
X-5669635Y4475734D01*
X-5681573Y4485081D01*
X-5694578Y4492955D01*
X-5708446Y4499203D01*
X-5722975Y4503724D01*
X-5737910Y4506468D01*
X-5753100Y4507382D01*
X-5768289Y4506468D01*
X-5783224Y4503724D01*
X-5797753Y4499203D01*
X-5811621Y4492955D01*
X-5824626Y4485081D01*
X-5836564Y4475734D01*
X-5847334Y4464964D01*
X-5856681Y4453026D01*
X-5864555Y4440021D01*
X-5870854Y4426102D01*
X-5873038Y4422902D01*
X-5876290Y4420819D01*
X-5880100Y4420108D01*
X-5883910Y4420819D01*
X-5887161Y4422902D01*
X-5889345Y4426102D01*
X-5895644Y4440021D01*
X-5903518Y4453026D01*
X-5912866Y4464964D01*
X-5923635Y4475734D01*
X-5935573Y4485081D01*
X-5948578Y4492955D01*
X-5962446Y4499203D01*
X-5976975Y4503724D01*
X-5991910Y4506468D01*
X-6007100Y4507382D01*
X-6022289Y4506468D01*
X-6037224Y4503724D01*
X-6051753Y4499203D01*
X-6065621Y4492955D01*
X-6078626Y4485081D01*
X-6090564Y4475734D01*
X-6101334Y4464964D01*
X-6110681Y4453026D01*
X-6116320Y4443679D01*
X-6119368Y4440529D01*
X-6123381Y4438904D01*
X-6127750Y4439158D01*
X-6131610Y4441190D01*
X-6134252Y4444695D01*
X-6135166Y4448962D01*
X-6135166Y4460951D01*
X-6135928Y4467250D01*
X-6137808Y4472736D01*
X-6140907Y4477613D01*
X-6144971Y4481728D01*
X-6149898Y4484776D01*
X-6155334Y4486706D01*
X-6161684Y4487418D01*
X-6204762Y4487418D01*
X-6204762Y4427829D01*
X-6138062Y4427829D01*
X-6134354Y4427169D01*
X-6131153Y4425137D01*
X-6128918Y4422089D01*
X-6127953Y4418431D01*
X-6128359Y4414672D01*
X-6129324Y4411624D01*
X-6132068Y4396689D01*
X-6132982Y4381500D01*
X-6132068Y4366310D01*
X-6129324Y4351375D01*
X-6128359Y4348327D01*
X-6127953Y4344568D01*
X-6128918Y4340910D01*
X-6131153Y4337862D01*
X-6134354Y4335830D01*
X-6138062Y4335170D01*
X-6204762Y4335170D01*
X-6204762Y4292346D01*
X-6205524Y4288434D01*
X-6207709Y4285132D01*
X-6211011Y4282948D01*
X-6214922Y4282186D01*
X-6307277Y4282186D01*
X-6311188Y4282948D01*
X-6314490Y4285132D01*
X-6316675Y4288434D01*
X-6317437Y4292346D01*
X-6317437Y4335170D01*
X-6386982Y4335170D01*
X-6386982Y4302048D01*
X-6385712Y4291888D01*
X-6386626Y4288129D01*
X-6388862Y4284980D01*
X-6392062Y4282897D01*
X-6395872Y4282186D01*
G37*

%LPC*%
G36*
X-6386982Y4427829D02*
G01*
X-6317437Y4427829D01*
X-6317437Y4487418D01*
X-6360515Y4487418D01*
X-6366865Y4486706D01*
X-6372301Y4484776D01*
X-6377228Y4481728D01*
X-6381292Y4477613D01*
X-6384391Y4472736D01*
X-6386271Y4467250D01*
X-6386982Y4460951D01*
G37*
G36*
X-5315762Y4777079D02*
G01*
X-5313578Y4778044D01*
X-5300573Y4785918D01*
X-5288635Y4795266D01*
X-5277866Y4806035D01*
X-5268518Y4817973D01*
X-5260644Y4830978D01*
X-5259679Y4833162D01*
X-5315762Y4833162D01*
G37*
G36*
X-5428437Y4777079D02*
G01*
X-5428437Y4833162D01*
X-5484520Y4833162D01*
X-5483555Y4830978D01*
X-5475681Y4817973D01*
X-5466334Y4806035D01*
X-5455564Y4795266D01*
X-5443626Y4785918D01*
X-5430621Y4778044D01*
G37*
G36*
X-5484520Y4945837D02*
G01*
X-5428437Y4945837D01*
X-5428437Y5001920D01*
X-5430621Y5000955D01*
X-5443626Y4993081D01*
X-5455564Y4983734D01*
X-5466334Y4972964D01*
X-5475681Y4961026D01*
X-5483555Y4948021D01*
G37*
G36*
X-5315762Y4945837D02*
G01*
X-5259679Y4945837D01*
X-5260644Y4948021D01*
X-5268518Y4961026D01*
X-5277866Y4972964D01*
X-5288635Y4983734D01*
X-5300573Y4993081D01*
X-5313578Y5000955D01*
X-5315762Y5001920D01*
G37*

%LPD*%
G36*
X-2509062Y2454554D02*
G01*
X-2513126Y2455265D01*
X-2516581Y2457500D01*
X-3023108Y2964027D01*
X-3025292Y2967329D01*
X-3026105Y2971190D01*
X-3026105Y3067050D01*
X-3026867Y3075076D01*
X-3029051Y3082290D01*
X-3032607Y3088944D01*
X-3037738Y3095193D01*
X-3110230Y3167684D01*
X-3116478Y3172815D01*
X-3123133Y3176371D01*
X-3130346Y3178556D01*
X-3138373Y3179368D01*
X-3615893Y3179368D01*
X-3619804Y3180130D01*
X-3623056Y3182315D01*
X-3625291Y3185617D01*
X-3626053Y3189528D01*
X-3626053Y3308553D01*
X-3626865Y3316579D01*
X-3629050Y3323844D01*
X-3632606Y3330498D01*
X-3637737Y3336747D01*
X-4556810Y4255820D01*
X-4559096Y4259326D01*
X-4559808Y4263440D01*
X-4558741Y4267504D01*
X-4556201Y4270806D01*
X-4552492Y4272788D01*
X-4548327Y4273092D01*
X-4544364Y4271721D01*
X-4539437Y4269079D01*
X-4539437Y4325162D01*
X-4595520Y4325162D01*
X-4592878Y4320235D01*
X-4591507Y4316272D01*
X-4591812Y4312107D01*
X-4593793Y4308398D01*
X-4597095Y4305858D01*
X-4601159Y4304792D01*
X-4605274Y4305503D01*
X-4608779Y4307789D01*
X-4620158Y4319168D01*
X-4622393Y4322572D01*
X-4623155Y4326534D01*
X-4622241Y4330547D01*
X-4619040Y4337354D01*
X-4618939Y4338320D01*
X-4614875Y4351375D01*
X-4612132Y4366310D01*
X-4611217Y4381500D01*
X-4612132Y4396689D01*
X-4614875Y4411624D01*
X-4619345Y4426102D01*
X-4625644Y4440021D01*
X-4633518Y4453026D01*
X-4642866Y4464964D01*
X-4653635Y4475734D01*
X-4658156Y4479290D01*
X-4660849Y4482490D01*
X-4662017Y4486503D01*
X-4661509Y4490618D01*
X-4659376Y4494174D01*
X-4655972Y4496612D01*
X-4651908Y4497476D01*
X-4568291Y4497476D01*
X-4564227Y4496612D01*
X-4560824Y4494174D01*
X-4558690Y4490618D01*
X-4558131Y4486503D01*
X-4559350Y4482490D01*
X-4562043Y4479290D01*
X-4566564Y4475734D01*
X-4577334Y4464964D01*
X-4586681Y4453026D01*
X-4594555Y4440021D01*
X-4595520Y4437837D01*
X-4539437Y4437837D01*
X-4539437Y4487316D01*
X-4538675Y4491177D01*
X-4536490Y4494479D01*
X-4533188Y4496663D01*
X-4529277Y4497476D01*
X-4436922Y4497476D01*
X-4433011Y4496663D01*
X-4429709Y4494479D01*
X-4427524Y4491177D01*
X-4426762Y4487316D01*
X-4426762Y4437837D01*
X-4370679Y4437837D01*
X-4371644Y4440021D01*
X-4379518Y4453026D01*
X-4388866Y4464964D01*
X-4399635Y4475734D01*
X-4404156Y4479290D01*
X-4406849Y4482490D01*
X-4408017Y4486503D01*
X-4407509Y4490618D01*
X-4405376Y4494174D01*
X-4401972Y4496612D01*
X-4397908Y4497476D01*
X-3937406Y4497476D01*
X-3933545Y4496663D01*
X-3930243Y4494479D01*
X-3527247Y4091482D01*
X-3525012Y4088180D01*
X-3524250Y4083050D01*
X-3519119Y4082287D01*
X-3515817Y4080052D01*
X-3474974Y4039209D01*
X-3472789Y4035958D01*
X-3472027Y4032046D01*
X-3472027Y4004310D01*
X-3472789Y4000398D01*
X-3474974Y3997147D01*
X-3478276Y3994912D01*
X-3482187Y3994150D01*
X-3524250Y3994150D01*
X-3524250Y3946956D01*
X-3516680Y3950766D01*
X-3505454Y3958488D01*
X-3495294Y3967632D01*
X-3489909Y3974033D01*
X-3486708Y3976522D01*
X-3482746Y3977589D01*
X-3478682Y3976979D01*
X-3475177Y3974846D01*
X-3472840Y3971493D01*
X-3472027Y3967429D01*
X-3472027Y3848760D01*
X-3471214Y3840734D01*
X-3469030Y3833520D01*
X-3465474Y3826865D01*
X-3460343Y3820617D01*
X-2314651Y2674924D01*
X-2312619Y2672029D01*
X-2311704Y2668625D01*
X-2310993Y2660548D01*
X-2308453Y2651048D01*
X-2304288Y2642158D01*
X-2298700Y2634132D01*
X-2291740Y2627172D01*
X-2286609Y2623566D01*
X-2283612Y2620314D01*
X-2282291Y2616149D01*
X-2282901Y2611780D01*
X-2285238Y2608072D01*
X-2356307Y2537002D01*
X-2359406Y2534869D01*
X-2363114Y2534056D01*
X-2366822Y2534615D01*
X-2373325Y2536850D01*
X-2386685Y2539593D01*
X-2400300Y2540508D01*
X-2413914Y2539593D01*
X-2427274Y2536850D01*
X-2440178Y2532380D01*
X-2452319Y2526233D01*
X-2463546Y2518511D01*
X-2473706Y2509367D01*
X-2482494Y2498953D01*
X-2489809Y2487472D01*
X-2495550Y2475077D01*
X-2499715Y2461717D01*
X-2501747Y2458059D01*
X-2504998Y2455570D01*
G37*

%LPC*%
G36*
X-3822700Y3936492D02*
G01*
X-3809085Y3937406D01*
X-3795725Y3940149D01*
X-3782822Y3944620D01*
X-3770680Y3950766D01*
X-3759454Y3958488D01*
X-3749294Y3967632D01*
X-3740505Y3978046D01*
X-3733190Y3989527D01*
X-3727450Y4001922D01*
X-3723386Y4014927D01*
X-3721150Y4028389D01*
X-3720693Y4042003D01*
X-3722014Y4055567D01*
X-3725214Y4068826D01*
X-3730091Y4081576D01*
X-3736644Y4093514D01*
X-3744722Y4104487D01*
X-3754221Y4114292D01*
X-3764940Y4122775D01*
X-3776675Y4129735D01*
X-3789222Y4135018D01*
X-3802379Y4138625D01*
X-3815892Y4140454D01*
X-3829507Y4140454D01*
X-3843020Y4138625D01*
X-3856177Y4135018D01*
X-3868724Y4129735D01*
X-3880459Y4122775D01*
X-3891178Y4114292D01*
X-3900678Y4104487D01*
X-3908755Y4093514D01*
X-3915308Y4081576D01*
X-3920185Y4068826D01*
X-3923385Y4055567D01*
X-3924706Y4042003D01*
X-3924249Y4028389D01*
X-3922014Y4014927D01*
X-3917950Y4001922D01*
X-3912209Y3989527D01*
X-3904894Y3978046D01*
X-3896106Y3967632D01*
X-3885946Y3958488D01*
X-3874719Y3950766D01*
X-3862578Y3944620D01*
X-3849674Y3940149D01*
X-3836314Y3937406D01*
G37*
G36*
X-3613150Y3946956D02*
G01*
X-3613150Y3994150D01*
X-3660343Y3994150D01*
X-3658209Y3989527D01*
X-3650894Y3978046D01*
X-3642106Y3967632D01*
X-3631946Y3958488D01*
X-3620719Y3950766D01*
G37*
G36*
X-3660495Y4083050D02*
G01*
X-3613150Y4083050D01*
X-3613150Y4130395D01*
X-3614724Y4129735D01*
X-3626459Y4122775D01*
X-3637178Y4114292D01*
X-3646678Y4104487D01*
X-3654755Y4093514D01*
G37*
G36*
X-4426762Y4269079D02*
G01*
X-4424578Y4270044D01*
X-4411573Y4277918D01*
X-4399635Y4287266D01*
X-4388866Y4298035D01*
X-4379518Y4309973D01*
X-4371644Y4322978D01*
X-4370679Y4325162D01*
X-4426762Y4325162D01*
G37*

%LPD*%
G36*
X-2288794Y-1105204D02*
G01*
X-2292959Y-1103934D01*
X-2296210Y-1101039D01*
X-2297938Y-1097076D01*
X-2299258Y-1090523D01*
X-2303627Y-1077569D01*
X-2309672Y-1065276D01*
X-2317292Y-1053896D01*
X-2326335Y-1043635D01*
X-2336596Y-1034592D01*
X-2347976Y-1026972D01*
X-2360269Y-1020927D01*
X-2373223Y-1016558D01*
X-2386634Y-1013866D01*
X-2400300Y-1012952D01*
X-2413965Y-1013866D01*
X-2427376Y-1016558D01*
X-2435860Y-1019403D01*
X-2439568Y-1019962D01*
X-2443226Y-1019098D01*
X-2446324Y-1016965D01*
X-2543759Y-919530D01*
X-2545943Y-916228D01*
X-2546705Y-912368D01*
X-2545943Y-908456D01*
X-2543759Y-905154D01*
X-2540457Y-902969D01*
X-2536545Y-902208D01*
X-2503982Y-902208D01*
X-2500325Y-902868D01*
X-2497124Y-904849D01*
X-2494889Y-907846D01*
X-2490927Y-915924D01*
X-2483307Y-927303D01*
X-2474264Y-937564D01*
X-2464003Y-946607D01*
X-2452624Y-954227D01*
X-2440330Y-960272D01*
X-2427376Y-964641D01*
X-2413965Y-967333D01*
X-2400300Y-968248D01*
X-2386634Y-967333D01*
X-2373223Y-964641D01*
X-2360269Y-960272D01*
X-2347976Y-954227D01*
X-2336596Y-946607D01*
X-2326335Y-937564D01*
X-2317292Y-927303D01*
X-2309672Y-915924D01*
X-2303627Y-903630D01*
X-2299258Y-890676D01*
X-2296566Y-877265D01*
X-2295652Y-863600D01*
X-2296566Y-849934D01*
X-2299258Y-836523D01*
X-2303627Y-823569D01*
X-2309672Y-811276D01*
X-2317292Y-799896D01*
X-2326335Y-789635D01*
X-2336596Y-780592D01*
X-2347976Y-772972D01*
X-2360269Y-766927D01*
X-2373223Y-762558D01*
X-2386634Y-759866D01*
X-2400300Y-758952D01*
X-2413965Y-759866D01*
X-2427376Y-762558D01*
X-2440330Y-766927D01*
X-2452624Y-772972D01*
X-2464003Y-780592D01*
X-2474264Y-789635D01*
X-2483307Y-799896D01*
X-2490927Y-811276D01*
X-2494889Y-819302D01*
X-2497124Y-822299D01*
X-2500274Y-824280D01*
X-2503982Y-824992D01*
X-2537917Y-824992D01*
X-2541778Y-824230D01*
X-2545080Y-821994D01*
X-2583332Y-783793D01*
X-2585618Y-780288D01*
X-2586278Y-776224D01*
X-2585262Y-772160D01*
X-2582773Y-768908D01*
X-2579116Y-766876D01*
X-2569616Y-763981D01*
X-2560980Y-759612D01*
X-2553208Y-753872D01*
X-2546553Y-746912D01*
X-2541168Y-738936D01*
X-2537155Y-730046D01*
X-2535275Y-726338D01*
X-2532126Y-723646D01*
X-2473756Y-692556D01*
X-2470302Y-691438D01*
X-2466644Y-691591D01*
X-2463342Y-693064D01*
X-2452624Y-700227D01*
X-2440330Y-706272D01*
X-2427376Y-710641D01*
X-2413965Y-713333D01*
X-2400300Y-714248D01*
X-2386634Y-713333D01*
X-2373223Y-710641D01*
X-2360269Y-706272D01*
X-2347976Y-700227D01*
X-2336596Y-692607D01*
X-2326335Y-683564D01*
X-2317292Y-673303D01*
X-2309672Y-661924D01*
X-2303627Y-649630D01*
X-2299258Y-636676D01*
X-2296566Y-623265D01*
X-2295652Y-609600D01*
X-2296566Y-595934D01*
X-2299258Y-582523D01*
X-2303627Y-569569D01*
X-2309672Y-557276D01*
X-2317292Y-545896D01*
X-2326335Y-535635D01*
X-2336596Y-526592D01*
X-2347976Y-518972D01*
X-2360269Y-512927D01*
X-2373223Y-508558D01*
X-2386634Y-505866D01*
X-2400300Y-504951D01*
X-2413965Y-505866D01*
X-2427376Y-508558D01*
X-2440330Y-512927D01*
X-2452624Y-518972D01*
X-2464003Y-526592D01*
X-2474264Y-535635D01*
X-2483307Y-545896D01*
X-2490927Y-557276D01*
X-2494889Y-565302D01*
X-2497124Y-568299D01*
X-2500274Y-570280D01*
X-2503982Y-570992D01*
X-2673045Y-570992D01*
X-2676956Y-570230D01*
X-2680258Y-567994D01*
X-3778961Y530707D01*
X-3781348Y534416D01*
X-3781907Y538784D01*
X-3780586Y542950D01*
X-3777589Y546201D01*
X-3773424Y549656D01*
X-3770122Y551840D01*
X-3766210Y552602D01*
X-3367328Y552602D01*
X-3363417Y551840D01*
X-3360115Y549656D01*
X-2500934Y-309575D01*
X-2498801Y-312674D01*
X-2497937Y-316331D01*
X-2498496Y-320040D01*
X-2501341Y-328523D01*
X-2504033Y-341934D01*
X-2504948Y-355600D01*
X-2504033Y-369265D01*
X-2501341Y-382676D01*
X-2496972Y-395630D01*
X-2490927Y-407924D01*
X-2483307Y-419303D01*
X-2474264Y-429564D01*
X-2464003Y-438607D01*
X-2452624Y-446227D01*
X-2440330Y-452272D01*
X-2427376Y-456641D01*
X-2413965Y-459333D01*
X-2400300Y-460248D01*
X-2386634Y-459333D01*
X-2373223Y-456641D01*
X-2360269Y-452272D01*
X-2347976Y-446227D01*
X-2336596Y-438607D01*
X-2326335Y-429564D01*
X-2317292Y-419303D01*
X-2309672Y-407924D01*
X-2303627Y-395630D01*
X-2299258Y-382676D01*
X-2296566Y-369265D01*
X-2295652Y-355600D01*
X-2296566Y-341934D01*
X-2299258Y-328523D01*
X-2303627Y-315569D01*
X-2309672Y-303276D01*
X-2317292Y-291896D01*
X-2326335Y-281635D01*
X-2336596Y-272592D01*
X-2347976Y-264972D01*
X-2360269Y-258927D01*
X-2373223Y-254558D01*
X-2386634Y-251866D01*
X-2400300Y-250952D01*
X-2413965Y-251866D01*
X-2427376Y-254558D01*
X-2435860Y-257403D01*
X-2439568Y-257962D01*
X-2443226Y-257098D01*
X-2446324Y-254965D01*
X-3277362Y576072D01*
X-3279546Y579374D01*
X-3280308Y583234D01*
X-3279546Y587146D01*
X-3277362Y590448D01*
X-3274060Y592632D01*
X-3270148Y593394D01*
X-3154121Y593394D01*
X-3150209Y592632D01*
X-3146907Y590448D01*
X-2500934Y-55575D01*
X-2498801Y-58674D01*
X-2497937Y-62331D01*
X-2498496Y-66040D01*
X-2501341Y-74523D01*
X-2504033Y-87934D01*
X-2504948Y-101600D01*
X-2504033Y-115265D01*
X-2501341Y-128676D01*
X-2496972Y-141630D01*
X-2490927Y-153924D01*
X-2483307Y-165303D01*
X-2474264Y-175564D01*
X-2464003Y-184607D01*
X-2452624Y-192227D01*
X-2440330Y-198272D01*
X-2427376Y-202641D01*
X-2413965Y-205333D01*
X-2400300Y-206248D01*
X-2386634Y-205333D01*
X-2373223Y-202641D01*
X-2360269Y-198272D01*
X-2347976Y-192227D01*
X-2336596Y-184607D01*
X-2326335Y-175564D01*
X-2317292Y-165303D01*
X-2309672Y-153924D01*
X-2303627Y-141630D01*
X-2299258Y-128676D01*
X-2296566Y-115265D01*
X-2295652Y-101600D01*
X-2296566Y-87934D01*
X-2299258Y-74523D01*
X-2303627Y-61569D01*
X-2309672Y-49276D01*
X-2317292Y-37896D01*
X-2326335Y-27635D01*
X-2336596Y-18592D01*
X-2347976Y-10972D01*
X-2360269Y-4927D01*
X-2373223Y-558D01*
X-2386634Y2133D01*
X-2400300Y3048D01*
X-2413965Y2133D01*
X-2427376Y-558D01*
X-2435860Y-3403D01*
X-2439568Y-3962D01*
X-2443226Y-3098D01*
X-2446324Y-965D01*
X-3106267Y658977D01*
X-3112465Y664057D01*
X-3115360Y665632D01*
X-3118764Y668528D01*
X-3120542Y672592D01*
X-3120440Y677062D01*
X-3118459Y681024D01*
X-3114954Y683768D01*
X-3110585Y684733D01*
X-2991459Y684733D01*
X-2987548Y683971D01*
X-2984246Y681786D01*
X-2500934Y198424D01*
X-2498801Y195326D01*
X-2497937Y191668D01*
X-2498496Y187960D01*
X-2501341Y179476D01*
X-2504033Y166065D01*
X-2504948Y152400D01*
X-2504033Y138734D01*
X-2501341Y125323D01*
X-2496972Y112369D01*
X-2490927Y100076D01*
X-2483307Y88696D01*
X-2474264Y78435D01*
X-2464003Y69392D01*
X-2452624Y61772D01*
X-2440330Y55727D01*
X-2427376Y51358D01*
X-2413965Y48666D01*
X-2400300Y47752D01*
X-2386634Y48666D01*
X-2373223Y51358D01*
X-2360269Y55727D01*
X-2347976Y61772D01*
X-2336596Y69392D01*
X-2326335Y78435D01*
X-2317292Y88696D01*
X-2309672Y100076D01*
X-2303627Y112369D01*
X-2299258Y125323D01*
X-2296566Y138734D01*
X-2295652Y152400D01*
X-2296566Y166065D01*
X-2299258Y179476D01*
X-2303627Y192430D01*
X-2309672Y204724D01*
X-2317292Y216103D01*
X-2324201Y223926D01*
X-2326132Y227279D01*
X-2326690Y231089D01*
X-2325776Y234848D01*
X-2323541Y237998D01*
X-2320340Y240080D01*
X-2316530Y240792D01*
X-2299766Y240792D01*
X-2296007Y240080D01*
X-2292807Y238048D01*
X-2290572Y234950D01*
X-2288184Y229870D01*
X-2282545Y221792D01*
X-2275586Y214833D01*
X-2267559Y209245D01*
X-2258669Y205079D01*
X-2249170Y202539D01*
X-2239365Y201676D01*
X-2229561Y202539D01*
X-2220061Y205079D01*
X-2211171Y209245D01*
X-2203145Y214833D01*
X-2196185Y221792D01*
X-2190546Y229870D01*
X-2186381Y238760D01*
X-2183841Y248259D01*
X-2182977Y258013D01*
X-2183841Y267817D01*
X-2186381Y277317D01*
X-2190546Y286207D01*
X-2196185Y294284D01*
X-2203145Y301244D01*
X-2211171Y306832D01*
X-2220061Y310997D01*
X-2229561Y313537D01*
X-2239365Y314401D01*
X-2244902Y314655D01*
X-2253234Y317246D01*
X-2261209Y318008D01*
X-2316530Y318008D01*
X-2320290Y318770D01*
X-2323541Y320852D01*
X-2325776Y324002D01*
X-2326690Y327710D01*
X-2326132Y331571D01*
X-2324150Y334873D01*
X-2317292Y342696D01*
X-2309672Y354076D01*
X-2303627Y366369D01*
X-2299258Y379323D01*
X-2296566Y392734D01*
X-2295652Y406400D01*
X-2296566Y420065D01*
X-2299258Y433476D01*
X-2302103Y441959D01*
X-2302662Y445668D01*
X-2301798Y449326D01*
X-2299665Y452424D01*
X-2254046Y498093D01*
X-2248916Y504342D01*
X-2245360Y510997D01*
X-2243175Y518210D01*
X-2242362Y526237D01*
X-2242362Y1973427D01*
X-2243175Y1981454D01*
X-2245360Y1988718D01*
X-2248916Y1995373D01*
X-2254046Y2001621D01*
X-2319477Y2067052D01*
X-2325725Y2072182D01*
X-2332380Y2075738D01*
X-2343505Y2079243D01*
X-2346502Y2081987D01*
X-2348230Y2085695D01*
X-2348331Y2089759D01*
X-2346858Y2093569D01*
X-2344013Y2096465D01*
X-2336596Y2101392D01*
X-2326335Y2110435D01*
X-2317292Y2120696D01*
X-2309672Y2132076D01*
X-2306421Y2138680D01*
X-2354580Y2138680D01*
X-2354580Y2088896D01*
X-2355342Y2084984D01*
X-2357577Y2081682D01*
X-2360828Y2079498D01*
X-2364740Y2078736D01*
X-2435860Y2078736D01*
X-2439771Y2079498D01*
X-2443022Y2081682D01*
X-2445258Y2084984D01*
X-2446020Y2088896D01*
X-2446020Y2138680D01*
X-2494178Y2138680D01*
X-2490927Y2132076D01*
X-2483307Y2120696D01*
X-2474264Y2110435D01*
X-2464003Y2101392D01*
X-2457907Y2097328D01*
X-2454910Y2094230D01*
X-2453487Y2090216D01*
X-2453843Y2085949D01*
X-2455926Y2082190D01*
X-2459380Y2079650D01*
X-2463546Y2078736D01*
X-3391509Y2078736D01*
X-3395370Y2079498D01*
X-3398672Y2081682D01*
X-4106062Y2789072D01*
X-4108196Y2792222D01*
X-4109008Y2795930D01*
X-4108399Y2799689D01*
X-4106468Y2802991D01*
X-4103420Y2805328D01*
X-4099763Y2806344D01*
X-4094581Y2806801D01*
X-4085082Y2809341D01*
X-4076192Y2813507D01*
X-4068114Y2819146D01*
X-4061155Y2826105D01*
X-4055567Y2834132D01*
X-4051401Y2843022D01*
X-4048861Y2852521D01*
X-4047998Y2862326D01*
X-4048861Y2872130D01*
X-4051401Y2881630D01*
X-4055567Y2890520D01*
X-4061155Y2898546D01*
X-4065168Y2902559D01*
X-4067403Y2905861D01*
X-4068165Y2909773D01*
X-4067403Y2913634D01*
X-4065168Y2916936D01*
X-4061917Y2919120D01*
X-4058005Y2919933D01*
X-3240735Y2919933D01*
X-3232708Y2920695D01*
X-3225495Y2922879D01*
X-3218840Y2926486D01*
X-3212592Y2931566D01*
X-3148685Y2995472D01*
X-3145840Y2997504D01*
X-3142386Y2998419D01*
X-3134360Y2999130D01*
X-3124860Y3001670D01*
X-3117748Y3004972D01*
X-3113836Y3005937D01*
X-3109823Y3005226D01*
X-3106420Y3003092D01*
X-3104083Y2999740D01*
X-3103321Y2995777D01*
X-3103321Y2951530D01*
X-3102508Y2943504D01*
X-3100324Y2936240D01*
X-3096768Y2929585D01*
X-3091637Y2923336D01*
X-2468067Y2299817D01*
X-2461869Y2294686D01*
X-2455316Y2291181D01*
X-2452116Y2288540D01*
X-2450287Y2284780D01*
X-2450084Y2280615D01*
X-2451557Y2276754D01*
X-2454452Y2273757D01*
X-2464003Y2267407D01*
X-2474264Y2258364D01*
X-2483307Y2248103D01*
X-2490927Y2236724D01*
X-2494178Y2230120D01*
X-2446020Y2230120D01*
X-2446020Y2277973D01*
X-2445258Y2281885D01*
X-2443022Y2285187D01*
X-2439771Y2287371D01*
X-2435860Y2288133D01*
X-2364740Y2288133D01*
X-2360828Y2287371D01*
X-2357577Y2285187D01*
X-2355342Y2281885D01*
X-2354580Y2277973D01*
X-2354580Y2230120D01*
X-2306421Y2230120D01*
X-2309672Y2236724D01*
X-2317292Y2248103D01*
X-2326335Y2258364D01*
X-2336596Y2267407D01*
X-2339797Y2269540D01*
X-2342794Y2272639D01*
X-2344216Y2276652D01*
X-2343861Y2280920D01*
X-2341778Y2284679D01*
X-2338324Y2287219D01*
X-2334158Y2288133D01*
X-2296109Y2288133D01*
X-2288082Y2288946D01*
X-2280869Y2291130D01*
X-2274163Y2294686D01*
X-2267966Y2299817D01*
X-2130501Y2437282D01*
X-2127605Y2439263D01*
X-2124202Y2440178D01*
X-2116124Y2440889D01*
X-2106625Y2443429D01*
X-2097735Y2447594D01*
X-2089708Y2453233D01*
X-2082749Y2460193D01*
X-2077110Y2468219D01*
X-2072944Y2477109D01*
X-2070404Y2486609D01*
X-2069541Y2496413D01*
X-2070404Y2506218D01*
X-2072944Y2515717D01*
X-2077110Y2524607D01*
X-2082749Y2532634D01*
X-2089708Y2539593D01*
X-2097735Y2545232D01*
X-2106625Y2549398D01*
X-2116124Y2551938D01*
X-2125929Y2552801D01*
X-2135733Y2551938D01*
X-2145233Y2549398D01*
X-2154123Y2545232D01*
X-2162149Y2539593D01*
X-2169109Y2532634D01*
X-2174748Y2524607D01*
X-2178913Y2515717D01*
X-2181453Y2506218D01*
X-2182164Y2498191D01*
X-2183079Y2494788D01*
X-2185060Y2491892D01*
X-2290216Y2386736D01*
X-2293467Y2384552D01*
X-2297328Y2383790D01*
X-2301189Y2384501D01*
X-2304491Y2386634D01*
X-2306726Y2389886D01*
X-2307539Y2393696D01*
X-2306878Y2397607D01*
X-2302814Y2408174D01*
X-2299614Y2421432D01*
X-2298293Y2434996D01*
X-2298750Y2448610D01*
X-2300986Y2462072D01*
X-2304186Y2472283D01*
X-2304592Y2475890D01*
X-2303729Y2479446D01*
X-2301646Y2482494D01*
X-2181555Y2602534D01*
X-2178253Y2604719D01*
X-2174392Y2605532D01*
X-1943506Y2605532D01*
X-1939594Y2604719D01*
X-1936292Y2602534D01*
X-1934108Y2599232D01*
X-1933346Y2595372D01*
X-1933346Y-750570D01*
X-1934108Y-754481D01*
X-1936292Y-757783D01*
X-2280767Y-1102258D01*
X-2284476Y-1104595D01*
G37*

%LPD*%
D10*
X-2400302Y-609589D02*
G01*
X-2693266Y-609589D01*
X-3888031Y585175D01*
X-3416300Y-1257300D02*
G01*
X-3556000Y-1257300D01*
X-4004497Y-1705797D01*
X-4004497Y-2070089D01*
X-2882900Y-990600D02*
G01*
X-2870200Y-990600D01*
X-2755900Y-876300D01*
X-6451600Y-292100D02*
G01*
X-6248400Y-292100D01*
X-6235700Y-304800D01*
X-6896100Y-952500D02*
G01*
X-6985000Y-952500D01*
X-7175500Y-1143000D01*
X-7327900Y-63500D02*
G01*
X-7340600Y-76200D01*
X-7340600Y-292100D01*
X-8051800Y2730500D02*
G01*
X-8001000Y2730500D01*
X-7785100Y2946400D01*
X-8242300Y3073400D02*
G01*
X-8140700Y3073400D01*
X-8051800Y2984500D01*
X-7007989Y356676D02*
G01*
X-7615455Y356676D01*
X-7686677Y285455D01*
X-7686677Y-19751D01*
X-7439865Y-266562D01*
X-7722110Y-877051D02*
G01*
X-6709437Y-877051D01*
X-6701182Y-885306D01*
X-5626102Y4889510D02*
G01*
X-5793971Y4721641D01*
X-8159727Y4721641D01*
X-8267702Y4613666D01*
X-5259504Y4034139D02*
G01*
X-4966870Y4034139D01*
X-4380740Y3448009D01*
X-5512666Y3845646D02*
G01*
X-5512666Y3390605D01*
X-5512666Y3845646D02*
G01*
X-5910582Y4243562D01*
X-7345707Y4243562D01*
X-7357290Y4255145D01*
X-8096633Y4255145D01*
X-8397547Y4556058D01*
X-8397547Y5537921D01*
X-8255002Y5680466D01*
X-5512666Y3845646D02*
G01*
X-5446651Y3845646D01*
X-5373575Y3918722D01*
X-5108602Y770874D02*
G01*
X-5123715Y770874D01*
X-6209870Y1857029D01*
X-5090467Y890889D02*
G01*
X-4991356Y990000D01*
X-3761869Y990000D01*
X-2400302Y-1117589D02*
G01*
X-3863113Y345221D01*
X-3887116Y345221D01*
X-2400302Y-863589D02*
G01*
X-2558112Y-863589D01*
X-3889479Y467776D01*
X-3811247Y591220D02*
G01*
X-3347112Y591220D01*
X-2400302Y-355589D01*
X-5594682Y-1108115D02*
G01*
X-6154143Y-548655D01*
X-8194067Y-548655D01*
X-8242302Y-596889D01*
X-5992675Y440090D02*
G01*
X-6295240Y137525D01*
X-6295240Y-145506D01*
X-6783047Y-487873D02*
G01*
X-8097319Y-487873D01*
X-8242302Y-342889D01*
X-5511802Y-1217132D02*
G01*
X-5511802Y-1269253D01*
X-5431640Y-1349415D01*
X-5248328Y-1349415D01*
X-5130802Y-1231889D01*
X-5511802Y-1217132D02*
G01*
X-5511802Y-1108141D01*
X-6208905Y-411038D01*
X-7920154Y-411038D01*
X-8242302Y-88889D01*
X-8242302Y-850889D02*
G01*
X-7861302Y-1231889D01*
X-6146802Y-1231889D01*
X-5975708Y-845784D02*
G01*
X-6147386Y-845784D01*
X-6508600Y2347097D02*
G01*
X-6488051Y2367645D01*
X-5185945Y2367645D01*
X-5139743Y2321443D01*
X-5139743Y2283368D01*
X-5714443Y1708668D01*
X-5714443Y1708668D02*
G01*
X-5714443Y1512326D01*
X-5304208Y1102090D01*
X-3823845Y1102090D01*
X-5714443Y1708668D02*
G01*
X-6099888Y2094113D01*
X-6343931Y2094113D01*
X-6374259Y2063785D01*
X-6374259Y1915627D01*
X-6284572Y1825939D01*
X-6284572Y1559138D01*
X-7053785Y789924D01*
X-7963791Y789924D01*
X-8242302Y927110D02*
G01*
X-8036054Y720862D01*
X-6460314Y720862D01*
X-5991837Y1189339D01*
X-2617396Y3668278D02*
G01*
X-2080694Y3668278D01*
X-2070305Y3657889D01*
X-7620000Y258912D02*
G01*
X-7615087Y254000D01*
X-6502400Y254000D01*
X-7412052Y3835206D02*
G01*
X-7715049Y4138203D01*
X-7715049Y5843940D02*
G01*
X-7238545Y5843940D01*
X-7071464Y6011021D01*
X-7645072Y3370386D02*
G01*
X-7353480Y3661978D01*
X-7353480Y4168480D01*
X-7381572Y4196572D01*
X-7111342Y4184990D02*
G01*
X-7035802Y4109450D01*
X-7035802Y3338408D01*
X-7188583Y3739626D02*
G01*
X-7356655Y3571554D01*
X-3510180Y907856D02*
G01*
X-3204161Y907856D01*
X-2512443Y1599575D01*
X-2400302Y1930410D02*
G01*
X-3202028Y1930410D01*
X-3229333Y1957715D01*
X-3407564Y1957715D01*
X-3416912Y1967062D01*
X-3582570Y1967062D01*
X-4094152Y2478643D01*
X-4115335Y2478643D01*
X-4122879Y2486187D01*
X-4132430Y2486187D01*
X-4287268Y2641025D01*
X-5011270Y2641025D01*
X-5934128Y3563884D01*
X-6476443Y3563884D01*
X-6770143Y3270183D01*
X-7055309Y3270183D01*
X-7356655Y3571554D01*
X-7356655Y3571554D02*
G01*
X-8223100Y2705110D01*
X-8242302Y2705110D01*
X-8233666Y294142D02*
G01*
X-8202729Y294142D01*
X-7744081Y-164505D01*
X-7744081Y-189956D01*
X-7546926Y-607227D02*
G01*
X-6181752Y-607227D01*
X-3144141Y3054639D02*
G01*
X-3240255Y2958525D01*
X-4162935Y2958525D01*
X-4280943Y2405339D02*
G01*
X-5150309Y1535973D01*
X-5654398Y1535973D01*
X-6344973Y1588957D02*
G01*
X-6445125Y1689110D01*
X-8116724Y1689110D01*
X-8242302Y165110D02*
G01*
X-8354672Y52740D01*
X-8354672Y-640984D01*
X-8257948Y-737707D01*
X-6386984Y-737707D01*
X-5892802Y-1231889D01*
X-8242302Y673110D02*
G01*
X-8159092Y589899D01*
X-6104587Y589899D01*
X-4321126Y3764442D02*
G01*
X-3786583Y3229899D01*
X-3786583Y3075289D01*
X-2714348Y1314231D02*
G01*
X-3192731Y835847D01*
X-3523363Y835847D01*
X-3765273Y1077757D01*
X-3765273Y1577908D01*
X-3786583Y1599219D01*
X-2400302Y1676410D02*
G01*
X-2415847Y1660865D01*
X-4195574Y1660865D01*
X-4458083Y1923374D01*
X-4495827Y1923374D01*
X-6830087Y2098481D02*
G01*
X-7615836Y2098481D01*
X-7803619Y1910699D01*
X-7803619Y1833458D01*
X-7734861Y1764700D01*
X-6343373Y1764700D01*
X-7744513Y1869831D02*
G01*
X-6946267Y1869831D01*
X-6770677Y2045421D01*
X-5432833Y1905060D02*
G01*
X-5098900Y2238994D01*
X-5098900Y2344836D01*
X-5177157Y2423093D01*
X-6672150Y2423093D01*
X-6771439Y2323805D01*
X-4737102Y4381510D02*
G01*
X-3664663Y3309071D01*
X-3664663Y3140745D01*
X-3664663Y3140745D02*
G01*
X-3137893Y3140745D01*
X-3064690Y3067542D01*
X-3064690Y2951007D01*
X-2440434Y2326751D01*
X-2295603Y2326751D01*
X-2125931Y2496423D01*
X-6238547Y2174808D02*
G01*
X-7512789Y2174808D01*
X-7540449Y2147148D01*
X-7713652Y2147148D01*
X-8044690Y1816110D01*
X-8278218Y1816110D01*
X-2239368Y258048D02*
G01*
X-2260729Y279410D01*
X-2424356Y279410D01*
X-2516685Y371739D01*
X-2516685Y798027D01*
X-2400302Y914410D01*
X-4978859Y4536069D02*
G01*
X-3917215Y4536069D01*
X-3433396Y4052249D01*
X-3433396Y3848262D01*
X-2255497Y2670362D01*
X-8135647Y-1104889D02*
G01*
X-7903110Y-1337426D01*
X-5744339Y-1337426D01*
X-5638802Y-1231889D01*
X-8242302Y-1104889D02*
G01*
X-8135647Y-1104889D01*
X-5384802Y-1231889D02*
G01*
X-5384802Y-1177483D01*
X-6192014Y-370271D01*
X-7452921Y-370271D01*
X-8242302Y419110D01*
X-2400302Y1422410D02*
G01*
X-3040788Y781923D01*
X-3788285Y781923D01*
X-4495802Y74406D01*
X-4495802Y-1263589D01*
X-4982898Y-1750684D01*
X-6427015Y-1750684D01*
X-6540502Y-1864172D01*
X-7556502Y-1955789D02*
G01*
X-7234227Y-1633514D01*
X-5376598Y-1633514D01*
X-5019855Y-1276771D01*
X-5019855Y764981D01*
X-5084320Y829447D01*
X-5115079Y829447D01*
X-6151298Y1865665D01*
X-6151298Y1881311D01*
X-6300015Y2030028D01*
X-6315661Y2030028D01*
X-5257802Y-1194653D02*
G01*
X-6228946Y-223509D01*
X-6228946Y-223509D02*
G01*
X-5931537Y73898D01*
X-5931537Y604885D01*
X-5975123Y648472D01*
X-8023608Y648472D01*
X-8175246Y800110D01*
X-8285177Y800110D01*
X-8352309Y867242D01*
X-8352309Y973465D01*
X-8271664Y1054110D01*
X-7994830Y1054110D01*
X-7436030Y1612910D01*
X-2400302Y152410D02*
G01*
X-2971243Y723351D01*
X-3644750Y723351D01*
X-2400302Y-101589D02*
G01*
X-3133905Y632012D01*
X-3691384Y632012D01*
X-3771292Y711921D01*
X-3530221Y-1084798D02*
G01*
X-4195472Y-419547D01*
X-4195472Y48955D01*
X-4196107Y3182807D02*
G01*
X-4045790Y3032490D01*
X-5753102Y4381510D02*
G01*
X-3411705Y2040112D01*
X-2347140Y2040112D01*
X-2280973Y1973945D01*
X-2280973Y525739D01*
X-2400302Y406410D01*
X-5499102Y4381510D02*
G01*
X-5499102Y4190883D01*
X-4170555Y2862336D01*
X-4104363Y2862336D01*
X-4254146Y1636582D02*
G01*
X-3888336Y1270772D01*
X-5609389Y-1884288D02*
G01*
X-5109390Y-1884288D01*
X-5009390Y-2154290D02*
G01*
X-5109390Y-2054291D01*
X-5109390Y-1884288D01*
X-3568702Y4038610D02*
G01*
X-3911602Y4381510D01*
X-4483102Y4381510D01*
X-6261102Y4489434D02*
G01*
X-6083454Y4667082D01*
X-5594530Y4667082D01*
X-5372102Y4889510D01*
X-4504489Y-2070089D02*
G01*
X-4925189Y-2070089D01*
X-5009390Y-2154290D01*
X-2400302Y2184410D02*
G01*
X-2352728Y2184410D01*
X-1957377Y2579761D01*
X-6261102Y4381510D02*
G01*
X-6261102Y4435485D01*
X-6261102Y4435485D02*
G01*
X-6261102Y4489434D01*
X-6261102Y4435485D02*
G01*
X-6378298Y4435485D01*
X-6516245Y4573432D01*
X-4368802Y-1231889D02*
G01*
X-4173222Y-1036309D01*
X-6790489Y-2070089D02*
G01*
X-6643143Y-1922744D01*
X-5647844Y-1922744D01*
X-5609389Y-1884288D01*
X-7848602Y6654810D02*
G01*
X-7961505Y6654810D01*
X-6170119Y-2070089D02*
G01*
X-5967529Y-2272680D01*
X-4267278Y-2272680D01*
X-4124860Y-2130262D01*
X-4124860Y-2070089D01*
X-6290490Y-2070089D02*
G01*
X-6170119Y-2070089D01*
X-8267702Y5114554D02*
G01*
X-6105146Y5114554D01*
X-5880102Y4889510D01*
X-4004490Y-2070089D02*
G01*
X-4058592Y-2070089D01*
X-4058592Y-2070089D02*
G01*
X-4124860Y-2070089D01*
X-7988378Y4100382D02*
G01*
X-7841185Y3953189D01*
X-7841185Y3414582D01*
X-4058592Y-2070089D02*
G01*
X-3247468Y-1258966D01*
X-2382903Y-1258966D01*
X-1894715Y-770778D01*
X-1894715Y2617073D01*
X-1921766Y2644124D01*
X-2194587Y2644124D01*
X-2194587Y2644124D02*
G01*
X-2400302Y2438410D01*
X-5245102Y4381510D02*
G01*
X-5029227Y4597384D01*
X-3302027Y4597384D01*
X-3302027Y4597384D02*
G01*
X-2044702Y5854710D01*
X-2194587Y2644124D02*
G01*
X-2194587Y2692283D01*
X-3187702Y3685397D01*
X-3187702Y4483059D01*
X-3302027Y4597384D01*
X-8152970Y5802563D02*
G01*
X-8135774Y5785368D01*
X-5318965Y5785368D01*
X-4469742Y4936144D01*
X-4469742Y4842164D01*
X-4607841Y4704064D01*
X-4917315Y4704064D01*
X-8242302Y2197110D02*
G01*
X-8138467Y2300945D01*
X-7464148Y2300945D01*
X-7464148Y2300945D02*
G01*
X-7464148Y2499014D01*
X-6467807Y3495354D01*
X-6448122Y3495354D01*
X-7464148Y2300945D02*
G01*
X-7428435Y2265232D01*
X-5240759Y2265232D01*
X-5205046Y2300945D01*
X-4876802Y8712210D02*
G01*
X-4876802Y8604285D01*
X-4876802Y8604285D02*
G01*
X-4903777Y8604285D01*
X-6444109Y7063953D01*
X-6444109Y7003501D01*
X-7545097Y5902512D01*
X-8233768Y5902512D01*
X-8472731Y5663549D01*
X-8472731Y1665538D01*
X-8242302Y1435110D01*
X-3480716Y1728835D02*
G01*
X-4215792Y2463911D01*
X-7401283Y2463911D01*
X-2590800Y-711200D02*
G01*
X-2400300Y-609600D01*
X-8356602Y6654810D02*
G01*
X-8230237Y6781175D01*
X-8059651Y6781175D01*
X-7961505Y6683029D01*
X-7961505Y6654810D01*
X-3822702Y5854710D02*
G01*
X-3327402Y6350010D01*
X-2641602Y6350010D01*
X-3314702Y5854710D02*
G01*
X-2996389Y6173022D01*
X-2643761Y6173022D01*
X-2518310Y6298473D01*
X-2518310Y6480718D01*
X-2641602Y6604010D01*
X-2679700Y-2146300D02*
G01*
X-2679700Y-1511300D01*
X-2794000Y-1397000D01*
X-2997200Y-1117600D02*
G01*
X-2997200Y-952500D01*
X-3302000Y-647700D01*
X-3352800Y-647700D01*
X-4521200Y-1549400D02*
G01*
X-4051300Y-1549400D01*
X-3594100Y-1905000D02*
G01*
X-3568700Y-1905000D01*
X-3187700Y-1524000D01*
X-2578100Y-1587500D02*
G01*
X-1959737Y-1587500D01*
X-1608073Y-1235837D01*
X-7277100Y1600200D02*
G01*
X-7327900Y1549400D01*
X-7327900Y965200D01*
X-7315200Y177800D02*
G01*
X-6870700Y-266700D01*
X-6565900Y-266700D01*
X-6184900Y1739900D02*
G01*
X-6184900Y1079500D01*
X-6464300Y800100D01*
X-6515100Y800100D01*
X-6553200Y482600D02*
G01*
X-6527800Y457200D01*
X-6096000Y457200D01*
X-5992621Y576834D02*
G01*
X-6043168Y526542D01*
X-6299200Y520700D01*
X-6489700Y546100D01*
X-6642100Y546100D01*
X-6657594Y526542D01*
X-6669786Y526542D01*
X-8288528Y526542D01*
X-8349234Y465836D01*
X-8349234Y272034D01*
X-8242300Y165100D01*
X-5130800Y8712200D02*
G01*
X-5022595Y8820404D01*
X-4776215Y8820404D01*
X-4768595Y8813037D01*
X-4768595Y7613904D01*
X-5718555Y6663944D01*
X-5803900Y6578600D01*
X-4514595Y6433057D02*
G01*
X-4514595Y6502400D01*
X-6451600Y6502400D01*
D11*
G01*
X-1358137Y-770762D03*
D12*
G01*
X-1008126Y-1235837D03*
G01*
X-1608073Y-1235837D03*
D13*
G01*
X-7556500Y-1955800D03*
G01*
X-7810500Y-1955800D03*
G01*
X-3048000Y-1943100D03*
G01*
X-3302000Y-1943100D03*
G01*
X-2641600Y6604000D03*
G01*
X-2641600Y6350000D03*
D14*
G01*
X-4504486Y-2070100D03*
G01*
X-4254500Y-2070100D03*
D15*
G01*
X-4004501Y-2070100D03*
D14*
G01*
X-6790486Y-2070100D03*
G01*
X-6540500Y-2070100D03*
D15*
G01*
X-6290501Y-2070100D03*
D16*
G01*
X-7848600Y6654800D03*
D13*
G01*
X-8102600Y6654800D03*
G01*
X-8356600Y6654800D03*
D17*
G01*
X-6146800Y-1231900D03*
G01*
X-5892800Y-1231900D03*
G01*
X-5638800Y-1231900D03*
G01*
X-5384800Y-1231900D03*
G01*
X-5130800Y-1231900D03*
G01*
X-4876800Y-1231900D03*
G01*
X-4622800Y-1231900D03*
G01*
X-4368800Y-1231900D03*
D18*
G01*
X-8242300Y2451100D03*
G01*
X-8242300Y2197100D03*
G01*
X-8242300Y1943100D03*
G01*
X-8242300Y1689100D03*
G01*
X-8242300Y1435100D03*
G01*
X-8242300Y1181100D03*
G01*
X-8242300Y927100D03*
G01*
X-8242300Y673100D03*
G01*
X-8242300Y419100D03*
G01*
X-8242300Y165100D03*
G01*
X-8242300Y-88900D03*
G01*
X-8242300Y-342900D03*
G01*
X-8242300Y-596900D03*
G01*
X-8242300Y-850900D03*
D19*
G01*
X-8242300Y-1104900D03*
D20*
G01*
X-8242300Y2705100D03*
D18*
G01*
X-2400300Y2184400D03*
G01*
X-2400300Y1930400D03*
G01*
X-2400300Y1676400D03*
G01*
X-2400300Y1422400D03*
G01*
X-2400300Y1168400D03*
G01*
X-2400300Y914400D03*
G01*
X-2400300Y660400D03*
G01*
X-2400300Y406400D03*
G01*
X-2400300Y152400D03*
G01*
X-2400300Y-101600D03*
G01*
X-2400300Y-355600D03*
G01*
X-2400300Y-609600D03*
G01*
X-2400300Y-863600D03*
G01*
X-2400300Y-1117600D03*
D19*
G01*
X-2400300Y-1371600D03*
D20*
G01*
X-2400300Y2438400D03*
D21*
G01*
X-4876800Y8712200D03*
D22*
G01*
X-5130800Y8712200D03*
G01*
X-5384800Y8712200D03*
G01*
X-5638800Y8712200D03*
D23*
G01*
X-8267700Y5114544D03*
G01*
X-8267700Y4613655D03*
G01*
X-8255000Y6181344D03*
G01*
X-8255000Y5680455D03*
G01*
X-4483100Y4381500D03*
G01*
X-4610100Y4889500D03*
G01*
X-4737100Y4381500D03*
G01*
X-4864100Y4889500D03*
G01*
X-4991100Y4381500D03*
G01*
X-5118100Y4889500D03*
G01*
X-5245100Y4381500D03*
G01*
X-5372100Y4889500D03*
G01*
X-5499100Y4381500D03*
G01*
X-5626100Y4889500D03*
G01*
X-5753100Y4381500D03*
G01*
X-5880100Y4889500D03*
G01*
X-6007100Y4381500D03*
G01*
X-6134100Y4889500D03*
D24*
G01*
X-6261100Y4381500D03*
D25*
G01*
X-7988223Y3900601D03*
G01*
X-7988376Y4100398D03*
D20*
G01*
X-2044700Y5854700D03*
G01*
X-2298700Y5854700D03*
G01*
X-2552700Y5854700D03*
G01*
X-2806700Y5854700D03*
G01*
X-3060700Y5854700D03*
G01*
X-3314700Y5854700D03*
G01*
X-3568700Y5854700D03*
G01*
X-3822700Y5854700D03*
G01*
X-3822700Y4038600D03*
G01*
X-3568700Y4038600D03*
G01*
X-3314700Y4038600D03*
G01*
X-3060700Y4038600D03*
G01*
X-2806700Y4038600D03*
G01*
X-2552700Y4038600D03*
G01*
X-2298700Y4038600D03*
G01*
X-2044700Y4038600D03*
D26*
G01*
X-5109387Y-1884298D03*
G01*
X-5609386Y-1884298D03*
D27*
G01*
X-5709386Y-2154301D03*
G01*
X-5009387Y-2154301D03*
D28*
G01*
X-3480714Y1728825D03*
G01*
X-7401280Y2463901D03*
G01*
X-5803900Y6578600D03*
G01*
X-6448120Y3495344D03*
G01*
X-5205044Y2300935D03*
G01*
X-8152968Y5802553D03*
G01*
X-4917312Y4704054D03*
G01*
X-7841183Y3414572D03*
G01*
X-6516243Y4573422D03*
G01*
X-4173220Y-1036320D03*
G01*
X-1957374Y2579751D03*
G01*
X-3888333Y1270762D03*
G01*
X-4254144Y1636572D03*
G01*
X-4104360Y2862326D03*
G01*
X-4195470Y48945D03*
G01*
X-3530219Y-1084808D03*
G01*
X-4196105Y3182797D03*
G01*
X-4045788Y3032480D03*
G01*
X-3771290Y711911D03*
G01*
X-3644747Y723341D03*
G01*
X-7436027Y1612900D03*
G01*
X-5257800Y-1194663D03*
G01*
X-6315659Y2030018D03*
G01*
X-6540500Y-1864182D03*
G01*
X-2239365Y258038D03*
G01*
X-2255494Y2670352D03*
G01*
X-4978857Y4536059D03*
G01*
X-8278215Y1816100D03*
G01*
X-6238544Y2174798D03*
G01*
X-2125929Y2496413D03*
G01*
X-3664661Y3140735D03*
G01*
X-5432831Y1905050D03*
G01*
X-6771436Y2323795D03*
G01*
X-7744510Y1869820D03*
G01*
X-6770674Y2045411D03*
G01*
X-4495825Y1923364D03*
G01*
X-6343370Y1764690D03*
G01*
X-6830085Y2098471D03*
G01*
X-3786581Y1599209D03*
G01*
X-2714345Y1314221D03*
G01*
X-3786581Y3075279D03*
G01*
X-4321124Y3764432D03*
G01*
X-6104585Y589889D03*
G01*
X-5992672Y576808D03*
G01*
X-3144138Y3054629D03*
G01*
X-4162932Y2958515D03*
G01*
X-4280941Y2405329D03*
G01*
X-5654395Y1535963D03*
G01*
X-8116722Y1689100D03*
G01*
X-6344970Y1588947D03*
G01*
X-7546924Y-607237D03*
G01*
X-6181750Y-607237D03*
G01*
X-7744079Y-189966D03*
G01*
X-8233663Y294131D03*
G01*
X-2512440Y1599564D03*
G01*
X-3510178Y907846D03*
G01*
X-7188580Y3739616D03*
G01*
X-4514545Y6433057D03*
G01*
X-6451600Y6502400D03*
G01*
X-7111339Y4184980D03*
G01*
X-7035800Y3338398D03*
G01*
X-7381570Y4196562D03*
G01*
X-7645069Y3370376D03*
G01*
X-7412050Y3835196D03*
G01*
X-7715046Y4138193D03*
G01*
X-7715046Y5843930D03*
G01*
X-7071461Y6011011D03*
G01*
X-7620000Y258902D03*
G01*
X-6502400Y254000D03*
G01*
X-2617393Y3668268D03*
G01*
X-2070303Y3657879D03*
G01*
X-5991834Y1189329D03*
G01*
X-7963788Y789914D03*
G01*
X-6508597Y2347087D03*
G01*
X-3823843Y1102080D03*
G01*
X-5975705Y-845794D03*
G01*
X-6147384Y-845794D03*
G01*
X-5511800Y-1217142D03*
G01*
X-6783044Y-487883D03*
G01*
X-6295237Y-145516D03*
G01*
X-5992672Y440080D03*
G01*
X-5594680Y-1108125D03*
G01*
X-3811244Y591210D03*
G01*
X-3888028Y585165D03*
G01*
X-3889476Y467766D03*
G01*
X-3887114Y345211D03*
G01*
X-6209868Y1857019D03*
G01*
X-5108600Y770864D03*
G01*
X-5090464Y890879D03*
G01*
X-3761867Y989990D03*
G01*
X-4380737Y3447999D03*
G01*
X-5259501Y4034129D03*
G01*
X-5373573Y3918712D03*
G01*
X-5512663Y3390595D03*
G01*
X-6701180Y-885317D03*
G01*
X-7722108Y-877062D03*
G01*
X-7007987Y356666D03*
G01*
X-7439863Y-266572D03*
D29*
G01*
X-8242300Y3073400D03*
G01*
X-8051800Y2984500D03*
G01*
X-8051800Y2730500D03*
G01*
X-7785100Y2946400D03*
G01*
X-7327900Y-63500D03*
G01*
X-7340600Y-292100D03*
G01*
X-6896100Y-952500D03*
G01*
X-7175500Y-1143000D03*
G01*
X-6451600Y-292100D03*
G01*
X-6235700Y-304800D03*
G01*
X-2882900Y-990600D03*
G01*
X-2755900Y-876300D03*
G01*
X-3416300Y-1257300D03*
G01*
X-2590800Y-711200D03*
G01*
X-2679700Y-2146300D03*
G01*
X-2794000Y-1397000D03*
G01*
X-2997200Y-1117600D03*
G01*
X-3352800Y-647700D03*
G01*
X-4521200Y-1549400D03*
G01*
X-4051300Y-1549400D03*
G01*
X-3594100Y-1905000D03*
G01*
X-3187700Y-1524000D03*
G01*
X-2578100Y-1587500D03*
G01*
X-6832600Y1854200D03*
G01*
X-7277100Y1600200D03*
G01*
X-7327900Y965200D03*
G01*
X-7315200Y177800D03*
G01*
X-6565900Y-266700D03*
G01*
X-6184900Y1739900D03*
G01*
X-6515100Y800100D03*
G01*
X-6553200Y482600D03*
G01*
X-6096000Y457200D03*
M02*
